G75*
%MOIN*%
%OFA0B0*%
%FSLAX24Y24*%
%IPPOS*%
%LPD*%
%AMOC8*
5,1,8,0,0,1.08239X$1,22.5*
%
%ADD10C,0.0050*%
%ADD11C,0.0060*%
%ADD12C,0.0040*%
%ADD13R,0.0300X0.0180*%
%ADD14C,0.0100*%
D10*
X003403Y001160D02*
X003448Y001115D01*
X003538Y001115D01*
X003583Y001160D01*
X003583Y001250D01*
X003493Y001250D01*
X003583Y001340D02*
X003538Y001385D01*
X003448Y001385D01*
X003403Y001340D01*
X003403Y001160D01*
X003697Y001115D02*
X003697Y001385D01*
X003878Y001115D01*
X003878Y001385D01*
X003992Y001385D02*
X003992Y001115D01*
X004127Y001115D01*
X004172Y001160D01*
X004172Y001340D01*
X004127Y001385D01*
X003992Y001385D01*
X003723Y001576D02*
X003453Y001576D01*
X003453Y001711D01*
X003498Y001756D01*
X003588Y001756D01*
X003633Y001711D01*
X003633Y001576D01*
X003633Y001666D02*
X003723Y001756D01*
X003723Y001870D02*
X003453Y001870D01*
X003723Y001870D02*
X003723Y002051D01*
X004403Y001385D02*
X004538Y001385D01*
X004583Y001340D01*
X004583Y001250D01*
X004538Y001205D01*
X004403Y001205D01*
X004493Y001205D02*
X004583Y001115D01*
X004697Y001115D02*
X004833Y001115D01*
X004878Y001160D01*
X004833Y001205D01*
X004742Y001205D01*
X004697Y001250D01*
X004742Y001295D01*
X004878Y001295D01*
X004992Y001295D02*
X005082Y001385D01*
X005082Y001115D01*
X004992Y001115D02*
X005172Y001115D01*
X005553Y001160D02*
X005598Y001115D01*
X005688Y001115D01*
X005733Y001160D01*
X005733Y001250D01*
X005688Y001295D01*
X005643Y001295D01*
X005553Y001250D01*
X005553Y001385D01*
X005733Y001385D01*
X005847Y001385D02*
X005847Y001205D01*
X005938Y001115D01*
X006028Y001205D01*
X006028Y001385D01*
X004403Y001385D02*
X004403Y001115D01*
X007678Y001160D02*
X007723Y001115D01*
X007814Y001115D01*
X007859Y001160D01*
X007859Y001250D01*
X007768Y001250D01*
X007678Y001340D02*
X007678Y001160D01*
X007678Y001340D02*
X007723Y001385D01*
X007814Y001385D01*
X007859Y001340D01*
X007973Y001385D02*
X008153Y001115D01*
X008153Y001385D01*
X008268Y001385D02*
X008403Y001385D01*
X008448Y001340D01*
X008448Y001160D01*
X008403Y001115D01*
X008268Y001115D01*
X008268Y001385D01*
X007973Y001385D02*
X007973Y001115D01*
X008678Y001115D02*
X008678Y001385D01*
X008814Y001385D01*
X008859Y001340D01*
X008859Y001250D01*
X008814Y001205D01*
X008678Y001205D01*
X008768Y001205D02*
X008859Y001115D01*
X008973Y001115D02*
X009108Y001115D01*
X009153Y001160D01*
X009108Y001205D01*
X009018Y001205D01*
X008973Y001250D01*
X009018Y001295D01*
X009153Y001295D01*
X009268Y001295D02*
X009358Y001385D01*
X009358Y001115D01*
X009268Y001115D02*
X009448Y001115D01*
X009828Y001160D02*
X009873Y001115D01*
X009964Y001115D01*
X010009Y001160D01*
X010009Y001250D01*
X009964Y001295D01*
X009918Y001295D01*
X009828Y001250D01*
X009828Y001385D01*
X010009Y001385D01*
X010123Y001385D02*
X010123Y001205D01*
X010213Y001115D01*
X010303Y001205D01*
X010303Y001385D01*
X011954Y001340D02*
X011954Y001160D01*
X011999Y001115D01*
X012089Y001115D01*
X012134Y001160D01*
X012134Y001250D01*
X012044Y001250D01*
X011954Y001340D02*
X011999Y001385D01*
X012089Y001385D01*
X012134Y001340D01*
X012249Y001385D02*
X012429Y001115D01*
X012429Y001385D01*
X012543Y001385D02*
X012678Y001385D01*
X012723Y001340D01*
X012723Y001160D01*
X012678Y001115D01*
X012543Y001115D01*
X012543Y001385D01*
X012249Y001385D02*
X012249Y001115D01*
X012954Y001115D02*
X012954Y001385D01*
X013089Y001385D01*
X013134Y001340D01*
X013134Y001250D01*
X013089Y001205D01*
X012954Y001205D01*
X013044Y001205D02*
X013134Y001115D01*
X013249Y001115D02*
X013384Y001115D01*
X013429Y001160D01*
X013384Y001205D01*
X013294Y001205D01*
X013249Y001250D01*
X013294Y001295D01*
X013429Y001295D01*
X013543Y001295D02*
X013633Y001385D01*
X013633Y001115D01*
X013543Y001115D02*
X013723Y001115D01*
X014104Y001160D02*
X014149Y001115D01*
X014239Y001115D01*
X014284Y001160D01*
X014284Y001250D01*
X014239Y001295D01*
X014194Y001295D01*
X014104Y001250D01*
X014104Y001385D01*
X014284Y001385D01*
X014399Y001385D02*
X014399Y001205D01*
X014489Y001115D01*
X014579Y001205D01*
X014579Y001385D01*
X016230Y001340D02*
X016230Y001160D01*
X016275Y001115D01*
X016365Y001115D01*
X016410Y001160D01*
X016410Y001250D01*
X016320Y001250D01*
X016410Y001340D02*
X016365Y001385D01*
X016275Y001385D01*
X016230Y001340D01*
X016279Y001576D02*
X016279Y001711D01*
X016324Y001756D01*
X016414Y001756D01*
X016459Y001711D01*
X016459Y001576D01*
X016459Y001666D02*
X016550Y001756D01*
X016550Y001870D02*
X016550Y002051D01*
X016550Y001870D02*
X016279Y001870D01*
X016279Y001576D02*
X016550Y001576D01*
X016524Y001385D02*
X016704Y001115D01*
X016704Y001385D01*
X016819Y001385D02*
X016954Y001385D01*
X016999Y001340D01*
X016999Y001160D01*
X016954Y001115D01*
X016819Y001115D01*
X016819Y001385D01*
X016524Y001385D02*
X016524Y001115D01*
X017230Y001115D02*
X017230Y001385D01*
X017365Y001385D01*
X017410Y001340D01*
X017410Y001250D01*
X017365Y001205D01*
X017230Y001205D01*
X017320Y001205D02*
X017410Y001115D01*
X017524Y001115D02*
X017659Y001115D01*
X017704Y001160D01*
X017659Y001205D01*
X017569Y001205D01*
X017524Y001250D01*
X017569Y001295D01*
X017704Y001295D01*
X017819Y001295D02*
X017909Y001385D01*
X017909Y001115D01*
X017819Y001115D02*
X017999Y001115D01*
X018380Y001160D02*
X018425Y001115D01*
X018515Y001115D01*
X018560Y001160D01*
X018560Y001250D01*
X018515Y001295D01*
X018470Y001295D01*
X018380Y001250D01*
X018380Y001385D01*
X018560Y001385D01*
X018674Y001385D02*
X018674Y001205D01*
X018764Y001115D01*
X018854Y001205D01*
X018854Y001385D01*
X020505Y001340D02*
X020505Y001160D01*
X020550Y001115D01*
X020640Y001115D01*
X020685Y001160D01*
X020685Y001250D01*
X020595Y001250D01*
X020505Y001340D02*
X020550Y001385D01*
X020640Y001385D01*
X020685Y001340D01*
X020800Y001385D02*
X020980Y001115D01*
X020980Y001385D01*
X021094Y001385D02*
X021230Y001385D01*
X021275Y001340D01*
X021275Y001160D01*
X021230Y001115D01*
X021094Y001115D01*
X021094Y001385D01*
X020800Y001385D02*
X020800Y001115D01*
X020825Y001576D02*
X020555Y001576D01*
X020555Y001711D01*
X020600Y001756D01*
X020690Y001756D01*
X020735Y001711D01*
X020735Y001576D01*
X020735Y001666D02*
X020825Y001756D01*
X020825Y001870D02*
X020825Y002051D01*
X020825Y001870D02*
X020555Y001870D01*
X021505Y001385D02*
X021640Y001385D01*
X021685Y001340D01*
X021685Y001250D01*
X021640Y001205D01*
X021505Y001205D01*
X021505Y001115D02*
X021505Y001385D01*
X021595Y001205D02*
X021685Y001115D01*
X021800Y001115D02*
X021935Y001115D01*
X021980Y001160D01*
X021935Y001205D01*
X021845Y001205D01*
X021800Y001250D01*
X021845Y001295D01*
X021980Y001295D01*
X022094Y001295D02*
X022185Y001385D01*
X022185Y001115D01*
X022275Y001115D02*
X022094Y001115D01*
X022655Y001160D02*
X022700Y001115D01*
X022790Y001115D01*
X022835Y001160D01*
X022835Y001250D01*
X022790Y001295D01*
X022745Y001295D01*
X022655Y001250D01*
X022655Y001385D01*
X022835Y001385D01*
X022950Y001385D02*
X022950Y001205D01*
X023040Y001115D01*
X023130Y001205D01*
X023130Y001385D01*
X024781Y001340D02*
X024781Y001160D01*
X024826Y001115D01*
X024916Y001115D01*
X024961Y001160D01*
X024961Y001250D01*
X024871Y001250D01*
X024961Y001340D02*
X024916Y001385D01*
X024826Y001385D01*
X024781Y001340D01*
X024831Y001576D02*
X024831Y001711D01*
X024876Y001756D01*
X024966Y001756D01*
X025011Y001711D01*
X025011Y001576D01*
X025101Y001576D02*
X024831Y001576D01*
X025011Y001666D02*
X025101Y001756D01*
X025101Y001870D02*
X024831Y001870D01*
X025101Y001870D02*
X025101Y002051D01*
X025075Y001385D02*
X025256Y001115D01*
X025256Y001385D01*
X025370Y001385D02*
X025370Y001115D01*
X025505Y001115D01*
X025550Y001160D01*
X025550Y001340D01*
X025505Y001385D01*
X025370Y001385D01*
X025075Y001385D02*
X025075Y001115D01*
X025781Y001115D02*
X025781Y001385D01*
X025916Y001385D01*
X025961Y001340D01*
X025961Y001250D01*
X025916Y001205D01*
X025781Y001205D01*
X025871Y001205D02*
X025961Y001115D01*
X026075Y001115D02*
X026211Y001115D01*
X026256Y001160D01*
X026211Y001205D01*
X026120Y001205D01*
X026075Y001250D01*
X026120Y001295D01*
X026256Y001295D01*
X026370Y001295D02*
X026460Y001385D01*
X026460Y001115D01*
X026370Y001115D02*
X026550Y001115D01*
X026931Y001160D02*
X026976Y001115D01*
X027066Y001115D01*
X027111Y001160D01*
X027111Y001250D01*
X027066Y001295D01*
X027021Y001295D01*
X026931Y001250D01*
X026931Y001385D01*
X027111Y001385D01*
X027225Y001385D02*
X027225Y001205D01*
X027315Y001115D01*
X027406Y001205D01*
X027406Y001385D01*
X029056Y001340D02*
X029056Y001160D01*
X029101Y001115D01*
X029191Y001115D01*
X029236Y001160D01*
X029236Y001250D01*
X029146Y001250D01*
X029056Y001340D02*
X029101Y001385D01*
X029191Y001385D01*
X029236Y001340D01*
X029351Y001385D02*
X029531Y001115D01*
X029531Y001385D01*
X029646Y001385D02*
X029646Y001115D01*
X029781Y001115D01*
X029826Y001160D01*
X029826Y001340D01*
X029781Y001385D01*
X029646Y001385D01*
X029351Y001385D02*
X029351Y001115D01*
X029376Y001576D02*
X029106Y001576D01*
X029106Y001711D01*
X029151Y001756D01*
X029241Y001756D01*
X029286Y001711D01*
X029286Y001576D01*
X029286Y001666D02*
X029376Y001756D01*
X029376Y001870D02*
X029106Y001870D01*
X029376Y001870D02*
X029376Y002051D01*
X030056Y001385D02*
X030191Y001385D01*
X030236Y001340D01*
X030236Y001250D01*
X030191Y001205D01*
X030056Y001205D01*
X030056Y001115D02*
X030056Y001385D01*
X030146Y001205D02*
X030236Y001115D01*
X030351Y001115D02*
X030486Y001115D01*
X030531Y001160D01*
X030486Y001205D01*
X030396Y001205D01*
X030351Y001250D01*
X030396Y001295D01*
X030531Y001295D01*
X030646Y001295D02*
X030736Y001385D01*
X030736Y001115D01*
X030646Y001115D02*
X030826Y001115D01*
X031206Y001160D02*
X031251Y001115D01*
X031341Y001115D01*
X031386Y001160D01*
X031386Y001250D01*
X031341Y001295D01*
X031296Y001295D01*
X031206Y001250D01*
X031206Y001385D01*
X031386Y001385D01*
X031501Y001385D02*
X031501Y001205D01*
X031591Y001115D01*
X031681Y001205D01*
X031681Y001385D01*
X033332Y001340D02*
X033332Y001160D01*
X033377Y001115D01*
X033467Y001115D01*
X033512Y001160D01*
X033512Y001250D01*
X033422Y001250D01*
X033332Y001340D02*
X033377Y001385D01*
X033467Y001385D01*
X033512Y001340D01*
X033627Y001385D02*
X033807Y001115D01*
X033807Y001385D01*
X033921Y001385D02*
X034056Y001385D01*
X034101Y001340D01*
X034101Y001160D01*
X034056Y001115D01*
X033921Y001115D01*
X033921Y001385D01*
X033627Y001385D02*
X033627Y001115D01*
X034332Y001115D02*
X034332Y001385D01*
X034467Y001385D01*
X034512Y001340D01*
X034512Y001250D01*
X034467Y001205D01*
X034332Y001205D01*
X034422Y001205D02*
X034512Y001115D01*
X034627Y001115D02*
X034762Y001115D01*
X034807Y001160D01*
X034762Y001205D01*
X034672Y001205D01*
X034627Y001250D01*
X034672Y001295D01*
X034807Y001295D01*
X034921Y001295D02*
X035011Y001385D01*
X035011Y001115D01*
X034921Y001115D02*
X035101Y001115D01*
X035482Y001160D02*
X035527Y001115D01*
X035617Y001115D01*
X035662Y001160D01*
X035662Y001250D01*
X035617Y001295D01*
X035572Y001295D01*
X035482Y001250D01*
X035482Y001385D01*
X035662Y001385D01*
X035777Y001385D02*
X035777Y001205D01*
X035867Y001115D01*
X035957Y001205D01*
X035957Y001385D01*
X033652Y001576D02*
X033382Y001576D01*
X033382Y001711D01*
X033427Y001756D01*
X033517Y001756D01*
X033562Y001711D01*
X033562Y001576D01*
X033562Y001666D02*
X033652Y001756D01*
X033652Y001870D02*
X033382Y001870D01*
X033652Y001870D02*
X033652Y002051D01*
X033652Y004476D02*
X033382Y004476D01*
X033382Y004611D01*
X033427Y004656D01*
X033517Y004656D01*
X033562Y004611D01*
X033562Y004476D01*
X033562Y004566D02*
X033652Y004656D01*
X033652Y004770D02*
X033652Y004951D01*
X033652Y004860D02*
X033382Y004860D01*
X033472Y004770D01*
X033478Y005095D02*
X033388Y005185D01*
X033433Y005185D02*
X033298Y005185D01*
X033298Y005095D02*
X033298Y005365D01*
X033433Y005365D01*
X033478Y005320D01*
X033478Y005230D01*
X033433Y005185D01*
X033593Y005230D02*
X033638Y005275D01*
X033728Y005275D01*
X033773Y005230D01*
X033773Y005095D01*
X033887Y005095D02*
X034067Y005095D01*
X033977Y005095D02*
X033977Y005365D01*
X033887Y005275D01*
X033593Y005365D02*
X033593Y005095D01*
X034348Y005095D02*
X034348Y005365D01*
X034483Y005365D01*
X034528Y005320D01*
X034528Y005230D01*
X034483Y005185D01*
X034348Y005185D01*
X034438Y005185D02*
X034528Y005095D01*
X034643Y005095D02*
X034643Y005365D01*
X034688Y005275D02*
X034778Y005275D01*
X034823Y005230D01*
X034823Y005095D01*
X034937Y005095D02*
X035117Y005275D01*
X035117Y005320D01*
X035072Y005365D01*
X034982Y005365D01*
X034937Y005320D01*
X034937Y005095D02*
X035117Y005095D01*
X035348Y005095D02*
X035348Y005365D01*
X035483Y005365D01*
X035528Y005320D01*
X035528Y005230D01*
X035483Y005185D01*
X035348Y005185D01*
X035438Y005185D02*
X035528Y005095D01*
X035643Y005095D02*
X035778Y005095D01*
X035823Y005140D01*
X035778Y005185D01*
X035688Y005185D01*
X035643Y005230D01*
X035688Y005275D01*
X035823Y005275D01*
X035937Y005320D02*
X035982Y005365D01*
X036072Y005365D01*
X036117Y005320D01*
X036117Y005275D01*
X035937Y005095D01*
X036117Y005095D01*
X034688Y005275D02*
X034643Y005230D01*
X031842Y005275D02*
X031662Y005095D01*
X031842Y005095D01*
X031842Y005275D02*
X031842Y005320D01*
X031797Y005365D01*
X031707Y005365D01*
X031662Y005320D01*
X031547Y005275D02*
X031412Y005275D01*
X031367Y005230D01*
X031412Y005185D01*
X031502Y005185D01*
X031547Y005140D01*
X031502Y005095D01*
X031367Y005095D01*
X031253Y005095D02*
X031162Y005185D01*
X031207Y005185D02*
X031072Y005185D01*
X031072Y005095D02*
X031072Y005365D01*
X031207Y005365D01*
X031253Y005320D01*
X031253Y005230D01*
X031207Y005185D01*
X030842Y005095D02*
X030662Y005095D01*
X030842Y005275D01*
X030842Y005320D01*
X030797Y005365D01*
X030707Y005365D01*
X030662Y005320D01*
X030547Y005230D02*
X030547Y005095D01*
X030547Y005230D02*
X030502Y005275D01*
X030412Y005275D01*
X030367Y005230D01*
X030253Y005230D02*
X030207Y005185D01*
X030072Y005185D01*
X030072Y005095D02*
X030072Y005365D01*
X030207Y005365D01*
X030253Y005320D01*
X030253Y005230D01*
X030162Y005185D02*
X030253Y005095D01*
X030367Y005095D02*
X030367Y005365D01*
X029792Y005095D02*
X029612Y005095D01*
X029702Y005095D02*
X029702Y005365D01*
X029612Y005275D01*
X029497Y005230D02*
X029497Y005095D01*
X029497Y005230D02*
X029452Y005275D01*
X029362Y005275D01*
X029317Y005230D01*
X029203Y005230D02*
X029157Y005185D01*
X029022Y005185D01*
X029022Y005095D02*
X029022Y005365D01*
X029157Y005365D01*
X029203Y005320D01*
X029203Y005230D01*
X029112Y005185D02*
X029203Y005095D01*
X029317Y005095D02*
X029317Y005365D01*
X029376Y004951D02*
X029376Y004770D01*
X029376Y004860D02*
X029106Y004860D01*
X029196Y004770D01*
X029151Y004656D02*
X029241Y004656D01*
X029286Y004611D01*
X029286Y004476D01*
X029286Y004566D02*
X029376Y004656D01*
X029376Y004476D02*
X029106Y004476D01*
X029106Y004611D01*
X029151Y004656D01*
X027566Y005095D02*
X027386Y005095D01*
X027566Y005275D01*
X027566Y005320D01*
X027521Y005365D01*
X027431Y005365D01*
X027386Y005320D01*
X027272Y005275D02*
X027136Y005275D01*
X027091Y005230D01*
X027136Y005185D01*
X027227Y005185D01*
X027272Y005140D01*
X027227Y005095D01*
X027091Y005095D01*
X026977Y005095D02*
X026887Y005185D01*
X026932Y005185D02*
X026797Y005185D01*
X026797Y005095D02*
X026797Y005365D01*
X026932Y005365D01*
X026977Y005320D01*
X026977Y005230D01*
X026932Y005185D01*
X026566Y005095D02*
X026386Y005095D01*
X026566Y005275D01*
X026566Y005320D01*
X026521Y005365D01*
X026431Y005365D01*
X026386Y005320D01*
X026272Y005230D02*
X026272Y005095D01*
X026272Y005230D02*
X026227Y005275D01*
X026136Y005275D01*
X026091Y005230D01*
X025977Y005230D02*
X025932Y005185D01*
X025797Y005185D01*
X025887Y005185D02*
X025977Y005095D01*
X026091Y005095D02*
X026091Y005365D01*
X025977Y005320D02*
X025977Y005230D01*
X025977Y005320D02*
X025932Y005365D01*
X025797Y005365D01*
X025797Y005095D01*
X025516Y005095D02*
X025336Y005095D01*
X025426Y005095D02*
X025426Y005365D01*
X025336Y005275D01*
X025222Y005230D02*
X025222Y005095D01*
X025222Y005230D02*
X025177Y005275D01*
X025086Y005275D01*
X025041Y005230D01*
X024927Y005230D02*
X024882Y005185D01*
X024747Y005185D01*
X024837Y005185D02*
X024927Y005095D01*
X025041Y005095D02*
X025041Y005365D01*
X024927Y005320D02*
X024927Y005230D01*
X024927Y005320D02*
X024882Y005365D01*
X024747Y005365D01*
X024747Y005095D01*
X024831Y004860D02*
X025101Y004860D01*
X025101Y004770D02*
X025101Y004951D01*
X024921Y004770D02*
X024831Y004860D01*
X024876Y004656D02*
X024831Y004611D01*
X024831Y004476D01*
X025101Y004476D01*
X025011Y004476D02*
X025011Y004611D01*
X024966Y004656D01*
X024876Y004656D01*
X025011Y004566D02*
X025101Y004656D01*
X023291Y005095D02*
X023111Y005095D01*
X023291Y005275D01*
X023291Y005320D01*
X023246Y005365D01*
X023156Y005365D01*
X023111Y005320D01*
X022996Y005275D02*
X022861Y005275D01*
X022816Y005230D01*
X022861Y005185D01*
X022951Y005185D01*
X022996Y005140D01*
X022951Y005095D01*
X022816Y005095D01*
X022701Y005095D02*
X022611Y005185D01*
X022656Y005185D02*
X022521Y005185D01*
X022521Y005095D02*
X022521Y005365D01*
X022656Y005365D01*
X022701Y005320D01*
X022701Y005230D01*
X022656Y005185D01*
X022291Y005095D02*
X022111Y005095D01*
X022291Y005275D01*
X022291Y005320D01*
X022246Y005365D01*
X022156Y005365D01*
X022111Y005320D01*
X021996Y005230D02*
X021996Y005095D01*
X021996Y005230D02*
X021951Y005275D01*
X021861Y005275D01*
X021816Y005230D01*
X021701Y005230D02*
X021656Y005185D01*
X021521Y005185D01*
X021521Y005095D02*
X021521Y005365D01*
X021656Y005365D01*
X021701Y005320D01*
X021701Y005230D01*
X021611Y005185D02*
X021701Y005095D01*
X021816Y005095D02*
X021816Y005365D01*
X021241Y005095D02*
X021061Y005095D01*
X021151Y005095D02*
X021151Y005365D01*
X021061Y005275D01*
X020946Y005230D02*
X020946Y005095D01*
X020946Y005230D02*
X020901Y005275D01*
X020811Y005275D01*
X020766Y005230D01*
X020651Y005230D02*
X020606Y005185D01*
X020471Y005185D01*
X020471Y005095D02*
X020471Y005365D01*
X020606Y005365D01*
X020651Y005320D01*
X020651Y005230D01*
X020561Y005185D02*
X020651Y005095D01*
X020766Y005095D02*
X020766Y005365D01*
X020825Y004951D02*
X020825Y004770D01*
X020825Y004860D02*
X020555Y004860D01*
X020645Y004770D01*
X020600Y004656D02*
X020690Y004656D01*
X020735Y004611D01*
X020735Y004476D01*
X020735Y004566D02*
X020825Y004656D01*
X020825Y004476D02*
X020555Y004476D01*
X020555Y004611D01*
X020600Y004656D01*
X019015Y005095D02*
X018835Y005095D01*
X019015Y005275D01*
X019015Y005320D01*
X018970Y005365D01*
X018880Y005365D01*
X018835Y005320D01*
X018720Y005275D02*
X018585Y005275D01*
X018540Y005230D01*
X018585Y005185D01*
X018675Y005185D01*
X018720Y005140D01*
X018675Y005095D01*
X018540Y005095D01*
X018426Y005095D02*
X018336Y005185D01*
X018381Y005185D02*
X018246Y005185D01*
X018246Y005095D02*
X018246Y005365D01*
X018381Y005365D01*
X018426Y005320D01*
X018426Y005230D01*
X018381Y005185D01*
X018015Y005095D02*
X017835Y005095D01*
X018015Y005275D01*
X018015Y005320D01*
X017970Y005365D01*
X017880Y005365D01*
X017835Y005320D01*
X017720Y005230D02*
X017720Y005095D01*
X017720Y005230D02*
X017675Y005275D01*
X017585Y005275D01*
X017540Y005230D01*
X017426Y005230D02*
X017381Y005185D01*
X017246Y005185D01*
X017336Y005185D02*
X017426Y005095D01*
X017540Y005095D02*
X017540Y005365D01*
X017426Y005320D02*
X017426Y005230D01*
X017426Y005320D02*
X017381Y005365D01*
X017246Y005365D01*
X017246Y005095D01*
X016965Y005095D02*
X016785Y005095D01*
X016875Y005095D02*
X016875Y005365D01*
X016785Y005275D01*
X016670Y005230D02*
X016670Y005095D01*
X016670Y005230D02*
X016625Y005275D01*
X016535Y005275D01*
X016490Y005230D01*
X016376Y005230D02*
X016331Y005185D01*
X016196Y005185D01*
X016286Y005185D02*
X016376Y005095D01*
X016490Y005095D02*
X016490Y005365D01*
X016376Y005320D02*
X016376Y005230D01*
X016376Y005320D02*
X016331Y005365D01*
X016196Y005365D01*
X016196Y005095D01*
X016279Y004860D02*
X016550Y004860D01*
X016550Y004770D02*
X016550Y004951D01*
X016369Y004770D02*
X016279Y004860D01*
X016324Y004656D02*
X016414Y004656D01*
X016459Y004611D01*
X016459Y004476D01*
X016459Y004566D02*
X016550Y004656D01*
X016550Y004476D02*
X016279Y004476D01*
X016279Y004611D01*
X016324Y004656D01*
X014739Y005095D02*
X014559Y005095D01*
X014739Y005275D01*
X014739Y005320D01*
X014694Y005365D01*
X014604Y005365D01*
X014559Y005320D01*
X014445Y005275D02*
X014310Y005275D01*
X014265Y005230D01*
X014310Y005185D01*
X014400Y005185D01*
X014445Y005140D01*
X014400Y005095D01*
X014265Y005095D01*
X014150Y005095D02*
X014060Y005185D01*
X014105Y005185D02*
X013970Y005185D01*
X013970Y005095D02*
X013970Y005365D01*
X014105Y005365D01*
X014150Y005320D01*
X014150Y005230D01*
X014105Y005185D01*
X013739Y005095D02*
X013559Y005095D01*
X013739Y005275D01*
X013739Y005320D01*
X013694Y005365D01*
X013604Y005365D01*
X013559Y005320D01*
X013445Y005230D02*
X013445Y005095D01*
X013445Y005230D02*
X013400Y005275D01*
X013310Y005275D01*
X013265Y005230D01*
X013150Y005230D02*
X013105Y005185D01*
X012970Y005185D01*
X012970Y005095D02*
X012970Y005365D01*
X013105Y005365D01*
X013150Y005320D01*
X013150Y005230D01*
X013060Y005185D02*
X013150Y005095D01*
X013265Y005095D02*
X013265Y005365D01*
X012689Y005095D02*
X012509Y005095D01*
X012599Y005095D02*
X012599Y005365D01*
X012509Y005275D01*
X012395Y005230D02*
X012395Y005095D01*
X012395Y005230D02*
X012350Y005275D01*
X012260Y005275D01*
X012215Y005230D01*
X012100Y005230D02*
X012055Y005185D01*
X011920Y005185D01*
X011920Y005095D02*
X011920Y005365D01*
X012055Y005365D01*
X012100Y005320D01*
X012100Y005230D01*
X012010Y005185D02*
X012100Y005095D01*
X012215Y005095D02*
X012215Y005365D01*
X012274Y004951D02*
X012274Y004770D01*
X012274Y004860D02*
X012004Y004860D01*
X012094Y004770D01*
X012139Y004656D02*
X012184Y004611D01*
X012184Y004476D01*
X012184Y004566D02*
X012274Y004656D01*
X012139Y004656D02*
X012049Y004656D01*
X012004Y004611D01*
X012004Y004476D01*
X012274Y004476D01*
X010464Y005095D02*
X010284Y005095D01*
X010464Y005275D01*
X010464Y005320D01*
X010419Y005365D01*
X010329Y005365D01*
X010284Y005320D01*
X010169Y005275D02*
X010034Y005275D01*
X009989Y005230D01*
X010034Y005185D01*
X010124Y005185D01*
X010169Y005140D01*
X010124Y005095D01*
X009989Y005095D01*
X009875Y005095D02*
X009785Y005185D01*
X009830Y005185D02*
X009694Y005185D01*
X009694Y005095D02*
X009694Y005365D01*
X009830Y005365D01*
X009875Y005320D01*
X009875Y005230D01*
X009830Y005185D01*
X009464Y005095D02*
X009284Y005095D01*
X009464Y005275D01*
X009464Y005320D01*
X009419Y005365D01*
X009329Y005365D01*
X009284Y005320D01*
X009169Y005230D02*
X009169Y005095D01*
X009169Y005230D02*
X009124Y005275D01*
X009034Y005275D01*
X008989Y005230D01*
X008875Y005230D02*
X008830Y005185D01*
X008694Y005185D01*
X008694Y005095D02*
X008694Y005365D01*
X008830Y005365D01*
X008875Y005320D01*
X008875Y005230D01*
X008785Y005185D02*
X008875Y005095D01*
X008989Y005095D02*
X008989Y005365D01*
X008414Y005095D02*
X008234Y005095D01*
X008324Y005095D02*
X008324Y005365D01*
X008234Y005275D01*
X008119Y005230D02*
X008119Y005095D01*
X008119Y005230D02*
X008074Y005275D01*
X007984Y005275D01*
X007939Y005230D01*
X007825Y005230D02*
X007780Y005185D01*
X007644Y005185D01*
X007644Y005095D02*
X007644Y005365D01*
X007780Y005365D01*
X007825Y005320D01*
X007825Y005230D01*
X007735Y005185D02*
X007825Y005095D01*
X007939Y005095D02*
X007939Y005365D01*
X007998Y004951D02*
X007998Y004770D01*
X007998Y004860D02*
X007728Y004860D01*
X007818Y004770D01*
X007773Y004656D02*
X007863Y004656D01*
X007908Y004611D01*
X007908Y004476D01*
X007908Y004566D02*
X007998Y004656D01*
X007998Y004476D02*
X007728Y004476D01*
X007728Y004611D01*
X007773Y004656D01*
X006188Y005095D02*
X006008Y005095D01*
X006188Y005275D01*
X006188Y005320D01*
X006143Y005365D01*
X006053Y005365D01*
X006008Y005320D01*
X005894Y005275D02*
X005759Y005275D01*
X005713Y005230D01*
X005759Y005185D01*
X005849Y005185D01*
X005894Y005140D01*
X005849Y005095D01*
X005713Y005095D01*
X005599Y005095D02*
X005509Y005185D01*
X005554Y005185D02*
X005419Y005185D01*
X005419Y005095D02*
X005419Y005365D01*
X005554Y005365D01*
X005599Y005320D01*
X005599Y005230D01*
X005554Y005185D01*
X005188Y005095D02*
X005008Y005095D01*
X005188Y005275D01*
X005188Y005320D01*
X005143Y005365D01*
X005053Y005365D01*
X005008Y005320D01*
X004894Y005230D02*
X004894Y005095D01*
X004894Y005230D02*
X004849Y005275D01*
X004759Y005275D01*
X004713Y005230D01*
X004599Y005230D02*
X004554Y005185D01*
X004419Y005185D01*
X004509Y005185D02*
X004599Y005095D01*
X004713Y005095D02*
X004713Y005365D01*
X004599Y005320D02*
X004599Y005230D01*
X004599Y005320D02*
X004554Y005365D01*
X004419Y005365D01*
X004419Y005095D01*
X004138Y005095D02*
X003958Y005095D01*
X004048Y005095D02*
X004048Y005365D01*
X003958Y005275D01*
X003844Y005230D02*
X003844Y005095D01*
X003844Y005230D02*
X003799Y005275D01*
X003709Y005275D01*
X003663Y005230D01*
X003549Y005230D02*
X003504Y005185D01*
X003369Y005185D01*
X003459Y005185D02*
X003549Y005095D01*
X003663Y005095D02*
X003663Y005365D01*
X003549Y005320D02*
X003549Y005230D01*
X003549Y005320D02*
X003504Y005365D01*
X003369Y005365D01*
X003369Y005095D01*
X003453Y004860D02*
X003723Y004860D01*
X003723Y004770D02*
X003723Y004951D01*
X003543Y004770D02*
X003453Y004860D01*
X003498Y004656D02*
X003588Y004656D01*
X003633Y004611D01*
X003633Y004476D01*
X003633Y004566D02*
X003723Y004656D01*
X003723Y004476D02*
X003453Y004476D01*
X003453Y004611D01*
X003498Y004656D01*
X007728Y001870D02*
X007998Y001870D01*
X007998Y002051D01*
X007998Y001756D02*
X007908Y001666D01*
X007908Y001711D02*
X007908Y001576D01*
X007998Y001576D02*
X007728Y001576D01*
X007728Y001711D01*
X007773Y001756D01*
X007863Y001756D01*
X007908Y001711D01*
X012004Y001711D02*
X012049Y001756D01*
X012139Y001756D01*
X012184Y001711D01*
X012184Y001576D01*
X012184Y001666D02*
X012274Y001756D01*
X012274Y001870D02*
X012004Y001870D01*
X012004Y001711D02*
X012004Y001576D01*
X012274Y001576D01*
X012274Y001870D02*
X012274Y002051D01*
X012249Y007591D02*
X012249Y007861D01*
X012429Y007591D01*
X012429Y007861D01*
X012543Y007861D02*
X012678Y007861D01*
X012723Y007816D01*
X012723Y007636D01*
X012678Y007591D01*
X012543Y007591D01*
X012543Y007861D01*
X012274Y008051D02*
X012004Y008051D01*
X012004Y008186D01*
X012049Y008231D01*
X012139Y008231D01*
X012184Y008186D01*
X012184Y008051D01*
X012184Y008141D02*
X012274Y008231D01*
X012274Y008346D02*
X012004Y008346D01*
X012274Y008346D02*
X012274Y008526D01*
X012089Y007861D02*
X011999Y007861D01*
X011954Y007816D01*
X011954Y007636D01*
X011999Y007591D01*
X012089Y007591D01*
X012134Y007636D01*
X012134Y007726D01*
X012044Y007726D01*
X012134Y007816D02*
X012089Y007861D01*
X012954Y007861D02*
X012954Y007591D01*
X012954Y007681D02*
X013089Y007681D01*
X013134Y007726D01*
X013134Y007816D01*
X013089Y007861D01*
X012954Y007861D01*
X013044Y007681D02*
X013134Y007591D01*
X013249Y007591D02*
X013384Y007591D01*
X013429Y007636D01*
X013384Y007681D01*
X013294Y007681D01*
X013249Y007726D01*
X013294Y007771D01*
X013429Y007771D01*
X013543Y007771D02*
X013633Y007861D01*
X013633Y007591D01*
X013543Y007591D02*
X013723Y007591D01*
X014104Y007636D02*
X014149Y007591D01*
X014239Y007591D01*
X014284Y007636D01*
X014284Y007726D01*
X014239Y007771D01*
X014194Y007771D01*
X014104Y007726D01*
X014104Y007861D01*
X014284Y007861D01*
X014399Y007861D02*
X014399Y007681D01*
X014489Y007591D01*
X014579Y007681D01*
X014579Y007861D01*
X016230Y007816D02*
X016230Y007636D01*
X016275Y007591D01*
X016365Y007591D01*
X016410Y007636D01*
X016410Y007726D01*
X016320Y007726D01*
X016410Y007816D02*
X016365Y007861D01*
X016275Y007861D01*
X016230Y007816D01*
X016279Y008051D02*
X016279Y008186D01*
X016324Y008231D01*
X016414Y008231D01*
X016459Y008186D01*
X016459Y008051D01*
X016459Y008141D02*
X016550Y008231D01*
X016550Y008346D02*
X016550Y008526D01*
X016550Y008346D02*
X016279Y008346D01*
X016279Y008051D02*
X016550Y008051D01*
X016524Y007861D02*
X016704Y007591D01*
X016704Y007861D01*
X016819Y007861D02*
X016954Y007861D01*
X016999Y007816D01*
X016999Y007636D01*
X016954Y007591D01*
X016819Y007591D01*
X016819Y007861D01*
X016524Y007861D02*
X016524Y007591D01*
X017230Y007591D02*
X017230Y007861D01*
X017365Y007861D01*
X017410Y007816D01*
X017410Y007726D01*
X017365Y007681D01*
X017230Y007681D01*
X017320Y007681D02*
X017410Y007591D01*
X017524Y007591D02*
X017659Y007591D01*
X017704Y007636D01*
X017659Y007681D01*
X017569Y007681D01*
X017524Y007726D01*
X017569Y007771D01*
X017704Y007771D01*
X017819Y007771D02*
X017909Y007861D01*
X017909Y007591D01*
X017819Y007591D02*
X017999Y007591D01*
X018380Y007636D02*
X018425Y007591D01*
X018515Y007591D01*
X018560Y007636D01*
X018560Y007726D01*
X018515Y007771D01*
X018470Y007771D01*
X018380Y007726D01*
X018380Y007861D01*
X018560Y007861D01*
X018674Y007861D02*
X018674Y007681D01*
X018764Y007591D01*
X018854Y007681D01*
X018854Y007861D01*
X020505Y007816D02*
X020505Y007636D01*
X020550Y007591D01*
X020640Y007591D01*
X020685Y007636D01*
X020685Y007726D01*
X020595Y007726D01*
X020505Y007816D02*
X020550Y007861D01*
X020640Y007861D01*
X020685Y007816D01*
X020800Y007861D02*
X020980Y007591D01*
X020980Y007861D01*
X021094Y007861D02*
X021230Y007861D01*
X021275Y007816D01*
X021275Y007636D01*
X021230Y007591D01*
X021094Y007591D01*
X021094Y007861D01*
X020800Y007861D02*
X020800Y007591D01*
X020825Y008051D02*
X020555Y008051D01*
X020555Y008186D01*
X020600Y008231D01*
X020690Y008231D01*
X020735Y008186D01*
X020735Y008051D01*
X020735Y008141D02*
X020825Y008231D01*
X020825Y008346D02*
X020825Y008526D01*
X020825Y008346D02*
X020555Y008346D01*
X021505Y007861D02*
X021640Y007861D01*
X021685Y007816D01*
X021685Y007726D01*
X021640Y007681D01*
X021505Y007681D01*
X021595Y007681D02*
X021685Y007591D01*
X021800Y007591D02*
X021935Y007591D01*
X021980Y007636D01*
X021935Y007681D01*
X021845Y007681D01*
X021800Y007726D01*
X021845Y007771D01*
X021980Y007771D01*
X022094Y007771D02*
X022185Y007861D01*
X022185Y007591D01*
X022275Y007591D02*
X022094Y007591D01*
X021505Y007591D02*
X021505Y007861D01*
X022655Y007861D02*
X022655Y007726D01*
X022745Y007771D01*
X022790Y007771D01*
X022835Y007726D01*
X022835Y007636D01*
X022790Y007591D01*
X022700Y007591D01*
X022655Y007636D01*
X022655Y007861D02*
X022835Y007861D01*
X022950Y007861D02*
X022950Y007681D01*
X023040Y007591D01*
X023130Y007681D01*
X023130Y007861D01*
X024781Y007816D02*
X024781Y007636D01*
X024826Y007591D01*
X024916Y007591D01*
X024961Y007636D01*
X024961Y007726D01*
X024871Y007726D01*
X024961Y007816D02*
X024916Y007861D01*
X024826Y007861D01*
X024781Y007816D01*
X024831Y008051D02*
X024831Y008186D01*
X024876Y008231D01*
X024966Y008231D01*
X025011Y008186D01*
X025011Y008051D01*
X025101Y008051D02*
X024831Y008051D01*
X025011Y008141D02*
X025101Y008231D01*
X025101Y008346D02*
X024831Y008346D01*
X025101Y008346D02*
X025101Y008526D01*
X025075Y007861D02*
X025256Y007591D01*
X025256Y007861D01*
X025370Y007861D02*
X025370Y007591D01*
X025505Y007591D01*
X025550Y007636D01*
X025550Y007816D01*
X025505Y007861D01*
X025370Y007861D01*
X025075Y007861D02*
X025075Y007591D01*
X025781Y007591D02*
X025781Y007861D01*
X025916Y007861D01*
X025961Y007816D01*
X025961Y007726D01*
X025916Y007681D01*
X025781Y007681D01*
X025871Y007681D02*
X025961Y007591D01*
X026075Y007591D02*
X026211Y007591D01*
X026256Y007636D01*
X026211Y007681D01*
X026120Y007681D01*
X026075Y007726D01*
X026120Y007771D01*
X026256Y007771D01*
X026370Y007771D02*
X026460Y007861D01*
X026460Y007591D01*
X026370Y007591D02*
X026550Y007591D01*
X026931Y007636D02*
X026976Y007591D01*
X027066Y007591D01*
X027111Y007636D01*
X027111Y007726D01*
X027066Y007771D01*
X027021Y007771D01*
X026931Y007726D01*
X026931Y007861D01*
X027111Y007861D01*
X027225Y007861D02*
X027225Y007681D01*
X027315Y007591D01*
X027406Y007681D01*
X027406Y007861D01*
X029056Y007816D02*
X029056Y007636D01*
X029101Y007591D01*
X029191Y007591D01*
X029236Y007636D01*
X029236Y007726D01*
X029146Y007726D01*
X029056Y007816D02*
X029101Y007861D01*
X029191Y007861D01*
X029236Y007816D01*
X029351Y007861D02*
X029531Y007591D01*
X029531Y007861D01*
X029646Y007861D02*
X029646Y007591D01*
X029781Y007591D01*
X029826Y007636D01*
X029826Y007816D01*
X029781Y007861D01*
X029646Y007861D01*
X029351Y007861D02*
X029351Y007591D01*
X029376Y008051D02*
X029106Y008051D01*
X029106Y008186D01*
X029151Y008231D01*
X029241Y008231D01*
X029286Y008186D01*
X029286Y008051D01*
X029286Y008141D02*
X029376Y008231D01*
X029376Y008346D02*
X029106Y008346D01*
X029376Y008346D02*
X029376Y008526D01*
X030056Y007861D02*
X030191Y007861D01*
X030236Y007816D01*
X030236Y007726D01*
X030191Y007681D01*
X030056Y007681D01*
X030056Y007591D02*
X030056Y007861D01*
X030146Y007681D02*
X030236Y007591D01*
X030351Y007591D02*
X030486Y007591D01*
X030531Y007636D01*
X030486Y007681D01*
X030396Y007681D01*
X030351Y007726D01*
X030396Y007771D01*
X030531Y007771D01*
X030646Y007771D02*
X030736Y007861D01*
X030736Y007591D01*
X030646Y007591D02*
X030826Y007591D01*
X031206Y007636D02*
X031251Y007591D01*
X031341Y007591D01*
X031386Y007636D01*
X031386Y007726D01*
X031341Y007771D01*
X031296Y007771D01*
X031206Y007726D01*
X031206Y007861D01*
X031386Y007861D01*
X031501Y007861D02*
X031501Y007681D01*
X031591Y007591D01*
X031681Y007681D01*
X031681Y007861D01*
X033332Y007816D02*
X033332Y007636D01*
X033377Y007591D01*
X033467Y007591D01*
X033512Y007636D01*
X033512Y007726D01*
X033422Y007726D01*
X033332Y007816D02*
X033377Y007861D01*
X033467Y007861D01*
X033512Y007816D01*
X033627Y007861D02*
X033807Y007591D01*
X033807Y007861D01*
X033921Y007861D02*
X034056Y007861D01*
X034101Y007816D01*
X034101Y007636D01*
X034056Y007591D01*
X033921Y007591D01*
X033921Y007861D01*
X033627Y007861D02*
X033627Y007591D01*
X034332Y007591D02*
X034332Y007861D01*
X034467Y007861D01*
X034512Y007816D01*
X034512Y007726D01*
X034467Y007681D01*
X034332Y007681D01*
X034422Y007681D02*
X034512Y007591D01*
X034627Y007591D02*
X034762Y007591D01*
X034807Y007636D01*
X034762Y007681D01*
X034672Y007681D01*
X034627Y007726D01*
X034672Y007771D01*
X034807Y007771D01*
X034921Y007771D02*
X035011Y007861D01*
X035011Y007591D01*
X034921Y007591D02*
X035101Y007591D01*
X035482Y007636D02*
X035527Y007591D01*
X035617Y007591D01*
X035662Y007636D01*
X035662Y007726D01*
X035617Y007771D01*
X035572Y007771D01*
X035482Y007726D01*
X035482Y007861D01*
X035662Y007861D01*
X035777Y007861D02*
X035777Y007681D01*
X035867Y007591D01*
X035957Y007681D01*
X035957Y007861D01*
X033652Y008051D02*
X033382Y008051D01*
X033382Y008186D01*
X033427Y008231D01*
X033517Y008231D01*
X033562Y008186D01*
X033562Y008051D01*
X033562Y008141D02*
X033652Y008231D01*
X033652Y008346D02*
X033382Y008346D01*
X033652Y008346D02*
X033652Y008526D01*
X033652Y010951D02*
X033382Y010951D01*
X033382Y011086D01*
X033427Y011131D01*
X033517Y011131D01*
X033562Y011086D01*
X033562Y010951D01*
X033562Y011041D02*
X033652Y011131D01*
X033652Y011246D02*
X033652Y011426D01*
X033652Y011336D02*
X033382Y011336D01*
X033472Y011246D01*
X033478Y011571D02*
X033388Y011661D01*
X033433Y011661D02*
X033298Y011661D01*
X033298Y011571D02*
X033298Y011841D01*
X033433Y011841D01*
X033478Y011796D01*
X033478Y011706D01*
X033433Y011661D01*
X033593Y011706D02*
X033638Y011751D01*
X033728Y011751D01*
X033773Y011706D01*
X033773Y011571D01*
X033887Y011571D02*
X034067Y011571D01*
X033977Y011571D02*
X033977Y011841D01*
X033887Y011751D01*
X033593Y011841D02*
X033593Y011571D01*
X034348Y011571D02*
X034348Y011841D01*
X034483Y011841D01*
X034528Y011796D01*
X034528Y011706D01*
X034483Y011661D01*
X034348Y011661D01*
X034438Y011661D02*
X034528Y011571D01*
X034643Y011571D02*
X034643Y011841D01*
X034688Y011751D02*
X034778Y011751D01*
X034823Y011706D01*
X034823Y011571D01*
X034937Y011571D02*
X035117Y011751D01*
X035117Y011796D01*
X035072Y011841D01*
X034982Y011841D01*
X034937Y011796D01*
X034937Y011571D02*
X035117Y011571D01*
X035348Y011571D02*
X035348Y011841D01*
X035483Y011841D01*
X035528Y011796D01*
X035528Y011706D01*
X035483Y011661D01*
X035348Y011661D01*
X035438Y011661D02*
X035528Y011571D01*
X035643Y011571D02*
X035778Y011571D01*
X035823Y011616D01*
X035778Y011661D01*
X035688Y011661D01*
X035643Y011706D01*
X035688Y011751D01*
X035823Y011751D01*
X035937Y011796D02*
X035982Y011841D01*
X036072Y011841D01*
X036117Y011796D01*
X036117Y011751D01*
X035937Y011571D01*
X036117Y011571D01*
X034688Y011751D02*
X034643Y011706D01*
X031842Y011751D02*
X031662Y011571D01*
X031842Y011571D01*
X031842Y011751D02*
X031842Y011796D01*
X031797Y011841D01*
X031707Y011841D01*
X031662Y011796D01*
X031547Y011751D02*
X031412Y011751D01*
X031367Y011706D01*
X031412Y011661D01*
X031502Y011661D01*
X031547Y011616D01*
X031502Y011571D01*
X031367Y011571D01*
X031253Y011571D02*
X031162Y011661D01*
X031207Y011661D02*
X031072Y011661D01*
X031072Y011571D02*
X031072Y011841D01*
X031207Y011841D01*
X031253Y011796D01*
X031253Y011706D01*
X031207Y011661D01*
X030842Y011751D02*
X030842Y011796D01*
X030797Y011841D01*
X030707Y011841D01*
X030662Y011796D01*
X030547Y011706D02*
X030547Y011571D01*
X030662Y011571D02*
X030842Y011751D01*
X030842Y011571D02*
X030662Y011571D01*
X030547Y011706D02*
X030502Y011751D01*
X030412Y011751D01*
X030367Y011706D01*
X030253Y011706D02*
X030207Y011661D01*
X030072Y011661D01*
X030072Y011571D02*
X030072Y011841D01*
X030207Y011841D01*
X030253Y011796D01*
X030253Y011706D01*
X030162Y011661D02*
X030253Y011571D01*
X030367Y011571D02*
X030367Y011841D01*
X029792Y011571D02*
X029612Y011571D01*
X029702Y011571D02*
X029702Y011841D01*
X029612Y011751D01*
X029497Y011706D02*
X029497Y011571D01*
X029497Y011706D02*
X029452Y011751D01*
X029362Y011751D01*
X029317Y011706D01*
X029203Y011706D02*
X029157Y011661D01*
X029022Y011661D01*
X029022Y011571D02*
X029022Y011841D01*
X029157Y011841D01*
X029203Y011796D01*
X029203Y011706D01*
X029112Y011661D02*
X029203Y011571D01*
X029317Y011571D02*
X029317Y011841D01*
X029376Y011426D02*
X029376Y011246D01*
X029376Y011336D02*
X029106Y011336D01*
X029196Y011246D01*
X029151Y011131D02*
X029241Y011131D01*
X029286Y011086D01*
X029286Y010951D01*
X029376Y010951D02*
X029106Y010951D01*
X029106Y011086D01*
X029151Y011131D01*
X029286Y011041D02*
X029376Y011131D01*
X027566Y011571D02*
X027386Y011571D01*
X027566Y011751D01*
X027566Y011796D01*
X027521Y011841D01*
X027431Y011841D01*
X027386Y011796D01*
X027272Y011751D02*
X027136Y011751D01*
X027091Y011706D01*
X027136Y011661D01*
X027227Y011661D01*
X027272Y011616D01*
X027227Y011571D01*
X027091Y011571D01*
X026977Y011571D02*
X026887Y011661D01*
X026932Y011661D02*
X026797Y011661D01*
X026797Y011571D02*
X026797Y011841D01*
X026932Y011841D01*
X026977Y011796D01*
X026977Y011706D01*
X026932Y011661D01*
X026566Y011751D02*
X026566Y011796D01*
X026521Y011841D01*
X026431Y011841D01*
X026386Y011796D01*
X026272Y011706D02*
X026272Y011571D01*
X026386Y011571D02*
X026566Y011751D01*
X026566Y011571D02*
X026386Y011571D01*
X026272Y011706D02*
X026227Y011751D01*
X026136Y011751D01*
X026091Y011706D01*
X025977Y011706D02*
X025932Y011661D01*
X025797Y011661D01*
X025887Y011661D02*
X025977Y011571D01*
X026091Y011571D02*
X026091Y011841D01*
X025977Y011796D02*
X025977Y011706D01*
X025977Y011796D02*
X025932Y011841D01*
X025797Y011841D01*
X025797Y011571D01*
X025516Y011571D02*
X025336Y011571D01*
X025426Y011571D02*
X025426Y011841D01*
X025336Y011751D01*
X025222Y011706D02*
X025222Y011571D01*
X025222Y011706D02*
X025177Y011751D01*
X025086Y011751D01*
X025041Y011706D01*
X024927Y011706D02*
X024882Y011661D01*
X024747Y011661D01*
X024837Y011661D02*
X024927Y011571D01*
X025041Y011571D02*
X025041Y011841D01*
X024927Y011796D02*
X024927Y011706D01*
X024927Y011796D02*
X024882Y011841D01*
X024747Y011841D01*
X024747Y011571D01*
X024831Y011336D02*
X025101Y011336D01*
X025101Y011246D02*
X025101Y011426D01*
X024921Y011246D02*
X024831Y011336D01*
X024876Y011131D02*
X024831Y011086D01*
X024831Y010951D01*
X025101Y010951D01*
X025011Y010951D02*
X025011Y011086D01*
X024966Y011131D01*
X024876Y011131D01*
X025011Y011041D02*
X025101Y011131D01*
X023291Y011571D02*
X023111Y011571D01*
X023291Y011751D01*
X023291Y011796D01*
X023246Y011841D01*
X023156Y011841D01*
X023111Y011796D01*
X022996Y011751D02*
X022861Y011751D01*
X022816Y011706D01*
X022861Y011661D01*
X022951Y011661D01*
X022996Y011616D01*
X022951Y011571D01*
X022816Y011571D01*
X022701Y011571D02*
X022611Y011661D01*
X022656Y011661D02*
X022521Y011661D01*
X022521Y011571D02*
X022521Y011841D01*
X022656Y011841D01*
X022701Y011796D01*
X022701Y011706D01*
X022656Y011661D01*
X022291Y011751D02*
X022291Y011796D01*
X022246Y011841D01*
X022156Y011841D01*
X022111Y011796D01*
X021996Y011706D02*
X021996Y011571D01*
X022111Y011571D02*
X022291Y011751D01*
X022291Y011571D02*
X022111Y011571D01*
X021996Y011706D02*
X021951Y011751D01*
X021861Y011751D01*
X021816Y011706D01*
X021701Y011706D02*
X021656Y011661D01*
X021521Y011661D01*
X021611Y011661D02*
X021701Y011571D01*
X021816Y011571D02*
X021816Y011841D01*
X021701Y011796D02*
X021701Y011706D01*
X021701Y011796D02*
X021656Y011841D01*
X021521Y011841D01*
X021521Y011571D01*
X021241Y011571D02*
X021061Y011571D01*
X021151Y011571D02*
X021151Y011841D01*
X021061Y011751D01*
X020946Y011706D02*
X020946Y011571D01*
X020946Y011706D02*
X020901Y011751D01*
X020811Y011751D01*
X020766Y011706D01*
X020651Y011706D02*
X020606Y011661D01*
X020471Y011661D01*
X020561Y011661D02*
X020651Y011571D01*
X020766Y011571D02*
X020766Y011841D01*
X020651Y011796D02*
X020651Y011706D01*
X020651Y011796D02*
X020606Y011841D01*
X020471Y011841D01*
X020471Y011571D01*
X020555Y011336D02*
X020825Y011336D01*
X020825Y011246D02*
X020825Y011426D01*
X020645Y011246D02*
X020555Y011336D01*
X020600Y011131D02*
X020690Y011131D01*
X020735Y011086D01*
X020735Y010951D01*
X020825Y010951D02*
X020555Y010951D01*
X020555Y011086D01*
X020600Y011131D01*
X020735Y011041D02*
X020825Y011131D01*
X019015Y011571D02*
X018835Y011571D01*
X019015Y011751D01*
X019015Y011796D01*
X018970Y011841D01*
X018880Y011841D01*
X018835Y011796D01*
X018720Y011751D02*
X018585Y011751D01*
X018540Y011706D01*
X018585Y011661D01*
X018675Y011661D01*
X018720Y011616D01*
X018675Y011571D01*
X018540Y011571D01*
X018426Y011571D02*
X018336Y011661D01*
X018381Y011661D02*
X018246Y011661D01*
X018246Y011571D02*
X018246Y011841D01*
X018381Y011841D01*
X018426Y011796D01*
X018426Y011706D01*
X018381Y011661D01*
X018015Y011751D02*
X017835Y011571D01*
X018015Y011571D01*
X018015Y011751D02*
X018015Y011796D01*
X017970Y011841D01*
X017880Y011841D01*
X017835Y011796D01*
X017720Y011706D02*
X017720Y011571D01*
X017720Y011706D02*
X017675Y011751D01*
X017585Y011751D01*
X017540Y011706D01*
X017426Y011706D02*
X017381Y011661D01*
X017246Y011661D01*
X017336Y011661D02*
X017426Y011571D01*
X017540Y011571D02*
X017540Y011841D01*
X017426Y011796D02*
X017426Y011706D01*
X017426Y011796D02*
X017381Y011841D01*
X017246Y011841D01*
X017246Y011571D01*
X016965Y011571D02*
X016785Y011571D01*
X016875Y011571D02*
X016875Y011841D01*
X016785Y011751D01*
X016670Y011706D02*
X016670Y011571D01*
X016670Y011706D02*
X016625Y011751D01*
X016535Y011751D01*
X016490Y011706D01*
X016376Y011706D02*
X016331Y011661D01*
X016196Y011661D01*
X016286Y011661D02*
X016376Y011571D01*
X016490Y011571D02*
X016490Y011841D01*
X016376Y011796D02*
X016376Y011706D01*
X016376Y011796D02*
X016331Y011841D01*
X016196Y011841D01*
X016196Y011571D01*
X016279Y011336D02*
X016550Y011336D01*
X016550Y011246D02*
X016550Y011426D01*
X016369Y011246D02*
X016279Y011336D01*
X016324Y011131D02*
X016414Y011131D01*
X016459Y011086D01*
X016459Y010951D01*
X016459Y011041D02*
X016550Y011131D01*
X016550Y010951D02*
X016279Y010951D01*
X016279Y011086D01*
X016324Y011131D01*
X014739Y011571D02*
X014559Y011571D01*
X014739Y011751D01*
X014739Y011796D01*
X014694Y011841D01*
X014604Y011841D01*
X014559Y011796D01*
X014445Y011751D02*
X014310Y011751D01*
X014265Y011706D01*
X014310Y011661D01*
X014400Y011661D01*
X014445Y011616D01*
X014400Y011571D01*
X014265Y011571D01*
X014150Y011571D02*
X014060Y011661D01*
X014105Y011661D02*
X013970Y011661D01*
X013970Y011571D02*
X013970Y011841D01*
X014105Y011841D01*
X014150Y011796D01*
X014150Y011706D01*
X014105Y011661D01*
X013739Y011751D02*
X013559Y011571D01*
X013739Y011571D01*
X013739Y011751D02*
X013739Y011796D01*
X013694Y011841D01*
X013604Y011841D01*
X013559Y011796D01*
X013445Y011706D02*
X013445Y011571D01*
X013445Y011706D02*
X013400Y011751D01*
X013310Y011751D01*
X013265Y011706D01*
X013150Y011706D02*
X013105Y011661D01*
X012970Y011661D01*
X013060Y011661D02*
X013150Y011571D01*
X013265Y011571D02*
X013265Y011841D01*
X013150Y011796D02*
X013150Y011706D01*
X013150Y011796D02*
X013105Y011841D01*
X012970Y011841D01*
X012970Y011571D01*
X012689Y011571D02*
X012509Y011571D01*
X012599Y011571D02*
X012599Y011841D01*
X012509Y011751D01*
X012395Y011706D02*
X012395Y011571D01*
X012395Y011706D02*
X012350Y011751D01*
X012260Y011751D01*
X012215Y011706D01*
X012100Y011706D02*
X012055Y011661D01*
X011920Y011661D01*
X012010Y011661D02*
X012100Y011571D01*
X012215Y011571D02*
X012215Y011841D01*
X012100Y011796D02*
X012100Y011706D01*
X012100Y011796D02*
X012055Y011841D01*
X011920Y011841D01*
X011920Y011571D01*
X012004Y011336D02*
X012274Y011336D01*
X012274Y011246D02*
X012274Y011426D01*
X012094Y011246D02*
X012004Y011336D01*
X012049Y011131D02*
X012139Y011131D01*
X012184Y011086D01*
X012184Y010951D01*
X012274Y010951D02*
X012004Y010951D01*
X012004Y011086D01*
X012049Y011131D01*
X012184Y011041D02*
X012274Y011131D01*
X010464Y011571D02*
X010284Y011571D01*
X010464Y011751D01*
X010464Y011796D01*
X010419Y011841D01*
X010329Y011841D01*
X010284Y011796D01*
X010169Y011751D02*
X010034Y011751D01*
X009989Y011706D01*
X010034Y011661D01*
X010124Y011661D01*
X010169Y011616D01*
X010124Y011571D01*
X009989Y011571D01*
X009875Y011571D02*
X009785Y011661D01*
X009830Y011661D02*
X009694Y011661D01*
X009694Y011571D02*
X009694Y011841D01*
X009830Y011841D01*
X009875Y011796D01*
X009875Y011706D01*
X009830Y011661D01*
X009464Y011751D02*
X009284Y011571D01*
X009464Y011571D01*
X009464Y011751D02*
X009464Y011796D01*
X009419Y011841D01*
X009329Y011841D01*
X009284Y011796D01*
X009169Y011706D02*
X009169Y011571D01*
X009169Y011706D02*
X009124Y011751D01*
X009034Y011751D01*
X008989Y011706D01*
X008875Y011706D02*
X008830Y011661D01*
X008694Y011661D01*
X008694Y011571D02*
X008694Y011841D01*
X008830Y011841D01*
X008875Y011796D01*
X008875Y011706D01*
X008785Y011661D02*
X008875Y011571D01*
X008989Y011571D02*
X008989Y011841D01*
X008414Y011571D02*
X008234Y011571D01*
X008324Y011571D02*
X008324Y011841D01*
X008234Y011751D01*
X008119Y011706D02*
X008119Y011571D01*
X008119Y011706D02*
X008074Y011751D01*
X007984Y011751D01*
X007939Y011706D01*
X007825Y011706D02*
X007780Y011661D01*
X007644Y011661D01*
X007644Y011571D02*
X007644Y011841D01*
X007780Y011841D01*
X007825Y011796D01*
X007825Y011706D01*
X007735Y011661D02*
X007825Y011571D01*
X007939Y011571D02*
X007939Y011841D01*
X007998Y011426D02*
X007998Y011246D01*
X007998Y011336D02*
X007728Y011336D01*
X007818Y011246D01*
X007773Y011131D02*
X007863Y011131D01*
X007908Y011086D01*
X007908Y010951D01*
X007908Y011041D02*
X007998Y011131D01*
X007998Y010951D02*
X007728Y010951D01*
X007728Y011086D01*
X007773Y011131D01*
X006188Y011571D02*
X006008Y011571D01*
X006188Y011751D01*
X006188Y011796D01*
X006143Y011841D01*
X006053Y011841D01*
X006008Y011796D01*
X005894Y011751D02*
X005759Y011751D01*
X005713Y011706D01*
X005759Y011661D01*
X005849Y011661D01*
X005894Y011616D01*
X005849Y011571D01*
X005713Y011571D01*
X005599Y011571D02*
X005509Y011661D01*
X005554Y011661D02*
X005419Y011661D01*
X005419Y011571D02*
X005419Y011841D01*
X005554Y011841D01*
X005599Y011796D01*
X005599Y011706D01*
X005554Y011661D01*
X005188Y011751D02*
X005188Y011796D01*
X005143Y011841D01*
X005053Y011841D01*
X005008Y011796D01*
X004894Y011706D02*
X004894Y011571D01*
X005008Y011571D02*
X005188Y011751D01*
X005188Y011571D02*
X005008Y011571D01*
X004894Y011706D02*
X004849Y011751D01*
X004759Y011751D01*
X004713Y011706D01*
X004599Y011706D02*
X004554Y011661D01*
X004419Y011661D01*
X004509Y011661D02*
X004599Y011571D01*
X004713Y011571D02*
X004713Y011841D01*
X004599Y011796D02*
X004599Y011706D01*
X004599Y011796D02*
X004554Y011841D01*
X004419Y011841D01*
X004419Y011571D01*
X004138Y011571D02*
X003958Y011571D01*
X004048Y011571D02*
X004048Y011841D01*
X003958Y011751D01*
X003844Y011706D02*
X003844Y011571D01*
X003844Y011706D02*
X003799Y011751D01*
X003709Y011751D01*
X003663Y011706D01*
X003549Y011706D02*
X003504Y011661D01*
X003369Y011661D01*
X003459Y011661D02*
X003549Y011571D01*
X003663Y011571D02*
X003663Y011841D01*
X003549Y011796D02*
X003549Y011706D01*
X003549Y011796D02*
X003504Y011841D01*
X003369Y011841D01*
X003369Y011571D01*
X003453Y011336D02*
X003723Y011336D01*
X003723Y011246D02*
X003723Y011426D01*
X003543Y011246D02*
X003453Y011336D01*
X003498Y011131D02*
X003588Y011131D01*
X003633Y011086D01*
X003633Y010951D01*
X003723Y010951D02*
X003453Y010951D01*
X003453Y011086D01*
X003498Y011131D01*
X003633Y011041D02*
X003723Y011131D01*
X003723Y008526D02*
X003723Y008346D01*
X003453Y008346D01*
X003498Y008231D02*
X003588Y008231D01*
X003633Y008186D01*
X003633Y008051D01*
X003723Y008051D02*
X003453Y008051D01*
X003453Y008186D01*
X003498Y008231D01*
X003633Y008141D02*
X003723Y008231D01*
X003697Y007861D02*
X003878Y007591D01*
X003878Y007861D01*
X003992Y007861D02*
X003992Y007591D01*
X004127Y007591D01*
X004172Y007636D01*
X004172Y007816D01*
X004127Y007861D01*
X003992Y007861D01*
X003697Y007861D02*
X003697Y007591D01*
X003583Y007636D02*
X003583Y007726D01*
X003493Y007726D01*
X003583Y007816D02*
X003538Y007861D01*
X003448Y007861D01*
X003403Y007816D01*
X003403Y007636D01*
X003448Y007591D01*
X003538Y007591D01*
X003583Y007636D01*
X004403Y007681D02*
X004538Y007681D01*
X004583Y007726D01*
X004583Y007816D01*
X004538Y007861D01*
X004403Y007861D01*
X004403Y007591D01*
X004493Y007681D02*
X004583Y007591D01*
X004697Y007591D02*
X004833Y007591D01*
X004878Y007636D01*
X004833Y007681D01*
X004742Y007681D01*
X004697Y007726D01*
X004742Y007771D01*
X004878Y007771D01*
X004992Y007771D02*
X005082Y007861D01*
X005082Y007591D01*
X004992Y007591D02*
X005172Y007591D01*
X005553Y007636D02*
X005598Y007591D01*
X005688Y007591D01*
X005733Y007636D01*
X005733Y007726D01*
X005688Y007771D01*
X005643Y007771D01*
X005553Y007726D01*
X005553Y007861D01*
X005733Y007861D01*
X005847Y007861D02*
X005847Y007681D01*
X005938Y007591D01*
X006028Y007681D01*
X006028Y007861D01*
X007678Y007816D02*
X007678Y007636D01*
X007723Y007591D01*
X007814Y007591D01*
X007859Y007636D01*
X007859Y007726D01*
X007768Y007726D01*
X007678Y007816D02*
X007723Y007861D01*
X007814Y007861D01*
X007859Y007816D01*
X007973Y007861D02*
X008153Y007591D01*
X008153Y007861D01*
X008268Y007861D02*
X008403Y007861D01*
X008448Y007816D01*
X008448Y007636D01*
X008403Y007591D01*
X008268Y007591D01*
X008268Y007861D01*
X007973Y007861D02*
X007973Y007591D01*
X008678Y007591D02*
X008678Y007861D01*
X008814Y007861D01*
X008859Y007816D01*
X008859Y007726D01*
X008814Y007681D01*
X008678Y007681D01*
X008768Y007681D02*
X008859Y007591D01*
X008973Y007591D02*
X009108Y007591D01*
X009153Y007636D01*
X009108Y007681D01*
X009018Y007681D01*
X008973Y007726D01*
X009018Y007771D01*
X009153Y007771D01*
X009268Y007771D02*
X009358Y007861D01*
X009358Y007591D01*
X009268Y007591D02*
X009448Y007591D01*
X009828Y007636D02*
X009873Y007591D01*
X009964Y007591D01*
X010009Y007636D01*
X010009Y007726D01*
X009964Y007771D01*
X009918Y007771D01*
X009828Y007726D01*
X009828Y007861D01*
X010009Y007861D01*
X010123Y007861D02*
X010123Y007681D01*
X010213Y007591D01*
X010303Y007681D01*
X010303Y007861D01*
X007998Y008051D02*
X007728Y008051D01*
X007728Y008186D01*
X007773Y008231D01*
X007863Y008231D01*
X007908Y008186D01*
X007908Y008051D01*
X007908Y008141D02*
X007998Y008231D01*
X007998Y008346D02*
X007728Y008346D01*
X007998Y008346D02*
X007998Y008526D01*
X007973Y014066D02*
X007973Y014336D01*
X008153Y014066D01*
X008153Y014336D01*
X008268Y014336D02*
X008403Y014336D01*
X008448Y014291D01*
X008448Y014111D01*
X008403Y014066D01*
X008268Y014066D01*
X008268Y014336D01*
X007998Y014527D02*
X007728Y014527D01*
X007728Y014662D01*
X007773Y014707D01*
X007863Y014707D01*
X007908Y014662D01*
X007908Y014527D01*
X007908Y014617D02*
X007998Y014707D01*
X007998Y014822D02*
X007728Y014822D01*
X007998Y014822D02*
X007998Y015002D01*
X007814Y014336D02*
X007723Y014336D01*
X007678Y014291D01*
X007678Y014111D01*
X007723Y014066D01*
X007814Y014066D01*
X007859Y014111D01*
X007859Y014201D01*
X007768Y014201D01*
X007859Y014291D02*
X007814Y014336D01*
X008678Y014336D02*
X008678Y014066D01*
X008678Y014156D02*
X008814Y014156D01*
X008859Y014201D01*
X008859Y014291D01*
X008814Y014336D01*
X008678Y014336D01*
X008768Y014156D02*
X008859Y014066D01*
X008973Y014066D02*
X009108Y014066D01*
X009153Y014111D01*
X009108Y014156D01*
X009018Y014156D01*
X008973Y014201D01*
X009018Y014246D01*
X009153Y014246D01*
X009268Y014246D02*
X009358Y014336D01*
X009358Y014066D01*
X009268Y014066D02*
X009448Y014066D01*
X009828Y014111D02*
X009873Y014066D01*
X009964Y014066D01*
X010009Y014111D01*
X010009Y014201D01*
X009964Y014246D01*
X009918Y014246D01*
X009828Y014201D01*
X009828Y014336D01*
X010009Y014336D01*
X010123Y014336D02*
X010123Y014156D01*
X010213Y014066D01*
X010303Y014156D01*
X010303Y014336D01*
X011954Y014291D02*
X011954Y014111D01*
X011999Y014066D01*
X012089Y014066D01*
X012134Y014111D01*
X012134Y014201D01*
X012044Y014201D01*
X011954Y014291D02*
X011999Y014336D01*
X012089Y014336D01*
X012134Y014291D01*
X012249Y014336D02*
X012429Y014066D01*
X012429Y014336D01*
X012543Y014336D02*
X012678Y014336D01*
X012723Y014291D01*
X012723Y014111D01*
X012678Y014066D01*
X012543Y014066D01*
X012543Y014336D01*
X012249Y014336D02*
X012249Y014066D01*
X012954Y014066D02*
X012954Y014336D01*
X013089Y014336D01*
X013134Y014291D01*
X013134Y014201D01*
X013089Y014156D01*
X012954Y014156D01*
X013044Y014156D02*
X013134Y014066D01*
X013249Y014066D02*
X013384Y014066D01*
X013429Y014111D01*
X013384Y014156D01*
X013294Y014156D01*
X013249Y014201D01*
X013294Y014246D01*
X013429Y014246D01*
X013543Y014246D02*
X013633Y014336D01*
X013633Y014066D01*
X013543Y014066D02*
X013723Y014066D01*
X014104Y014111D02*
X014149Y014066D01*
X014239Y014066D01*
X014284Y014111D01*
X014284Y014201D01*
X014239Y014246D01*
X014194Y014246D01*
X014104Y014201D01*
X014104Y014336D01*
X014284Y014336D01*
X014399Y014336D02*
X014399Y014156D01*
X014489Y014066D01*
X014579Y014156D01*
X014579Y014336D01*
X016230Y014291D02*
X016230Y014111D01*
X016275Y014066D01*
X016365Y014066D01*
X016410Y014111D01*
X016410Y014201D01*
X016320Y014201D01*
X016410Y014291D02*
X016365Y014336D01*
X016275Y014336D01*
X016230Y014291D01*
X016279Y014527D02*
X016279Y014662D01*
X016324Y014707D01*
X016414Y014707D01*
X016459Y014662D01*
X016459Y014527D01*
X016459Y014617D02*
X016550Y014707D01*
X016550Y014822D02*
X016550Y015002D01*
X016550Y014822D02*
X016279Y014822D01*
X016279Y014527D02*
X016550Y014527D01*
X016524Y014336D02*
X016704Y014066D01*
X016704Y014336D01*
X016819Y014336D02*
X016954Y014336D01*
X016999Y014291D01*
X016999Y014111D01*
X016954Y014066D01*
X016819Y014066D01*
X016819Y014336D01*
X016524Y014336D02*
X016524Y014066D01*
X017230Y014066D02*
X017230Y014336D01*
X017365Y014336D01*
X017410Y014291D01*
X017410Y014201D01*
X017365Y014156D01*
X017230Y014156D01*
X017320Y014156D02*
X017410Y014066D01*
X017524Y014066D02*
X017659Y014066D01*
X017704Y014111D01*
X017659Y014156D01*
X017569Y014156D01*
X017524Y014201D01*
X017569Y014246D01*
X017704Y014246D01*
X017819Y014246D02*
X017909Y014336D01*
X017909Y014066D01*
X017819Y014066D02*
X017999Y014066D01*
X018380Y014111D02*
X018425Y014066D01*
X018515Y014066D01*
X018560Y014111D01*
X018560Y014201D01*
X018515Y014246D01*
X018470Y014246D01*
X018380Y014201D01*
X018380Y014336D01*
X018560Y014336D01*
X018674Y014336D02*
X018674Y014156D01*
X018764Y014066D01*
X018854Y014156D01*
X018854Y014336D01*
X020505Y014291D02*
X020505Y014111D01*
X020550Y014066D01*
X020640Y014066D01*
X020685Y014111D01*
X020685Y014201D01*
X020595Y014201D01*
X020505Y014291D02*
X020550Y014336D01*
X020640Y014336D01*
X020685Y014291D01*
X020800Y014336D02*
X020980Y014066D01*
X020980Y014336D01*
X021094Y014336D02*
X021230Y014336D01*
X021275Y014291D01*
X021275Y014111D01*
X021230Y014066D01*
X021094Y014066D01*
X021094Y014336D01*
X020800Y014336D02*
X020800Y014066D01*
X020825Y014527D02*
X020555Y014527D01*
X020555Y014662D01*
X020600Y014707D01*
X020690Y014707D01*
X020735Y014662D01*
X020735Y014527D01*
X020735Y014617D02*
X020825Y014707D01*
X020825Y014822D02*
X020825Y015002D01*
X020825Y014822D02*
X020555Y014822D01*
X021505Y014336D02*
X021640Y014336D01*
X021685Y014291D01*
X021685Y014201D01*
X021640Y014156D01*
X021505Y014156D01*
X021505Y014066D02*
X021505Y014336D01*
X021595Y014156D02*
X021685Y014066D01*
X021800Y014066D02*
X021935Y014066D01*
X021980Y014111D01*
X021935Y014156D01*
X021845Y014156D01*
X021800Y014201D01*
X021845Y014246D01*
X021980Y014246D01*
X022094Y014246D02*
X022185Y014336D01*
X022185Y014066D01*
X022275Y014066D02*
X022094Y014066D01*
X022655Y014111D02*
X022700Y014066D01*
X022790Y014066D01*
X022835Y014111D01*
X022835Y014201D01*
X022790Y014246D01*
X022745Y014246D01*
X022655Y014201D01*
X022655Y014336D01*
X022835Y014336D01*
X022950Y014336D02*
X022950Y014156D01*
X023040Y014066D01*
X023130Y014156D01*
X023130Y014336D01*
X024781Y014291D02*
X024781Y014111D01*
X024826Y014066D01*
X024916Y014066D01*
X024961Y014111D01*
X024961Y014201D01*
X024871Y014201D01*
X024961Y014291D02*
X024916Y014336D01*
X024826Y014336D01*
X024781Y014291D01*
X024831Y014527D02*
X024831Y014662D01*
X024876Y014707D01*
X024966Y014707D01*
X025011Y014662D01*
X025011Y014527D01*
X025101Y014527D02*
X024831Y014527D01*
X025011Y014617D02*
X025101Y014707D01*
X025101Y014822D02*
X024831Y014822D01*
X025101Y014822D02*
X025101Y015002D01*
X025075Y014336D02*
X025256Y014066D01*
X025256Y014336D01*
X025370Y014336D02*
X025370Y014066D01*
X025505Y014066D01*
X025550Y014111D01*
X025550Y014291D01*
X025505Y014336D01*
X025370Y014336D01*
X025075Y014336D02*
X025075Y014066D01*
X025781Y014066D02*
X025781Y014336D01*
X025916Y014336D01*
X025961Y014291D01*
X025961Y014201D01*
X025916Y014156D01*
X025781Y014156D01*
X025871Y014156D02*
X025961Y014066D01*
X026075Y014066D02*
X026211Y014066D01*
X026256Y014111D01*
X026211Y014156D01*
X026120Y014156D01*
X026075Y014201D01*
X026120Y014246D01*
X026256Y014246D01*
X026370Y014246D02*
X026460Y014336D01*
X026460Y014066D01*
X026370Y014066D02*
X026550Y014066D01*
X026931Y014111D02*
X026976Y014066D01*
X027066Y014066D01*
X027111Y014111D01*
X027111Y014201D01*
X027066Y014246D01*
X027021Y014246D01*
X026931Y014201D01*
X026931Y014336D01*
X027111Y014336D01*
X027225Y014336D02*
X027225Y014156D01*
X027315Y014066D01*
X027406Y014156D01*
X027406Y014336D01*
X029056Y014291D02*
X029056Y014111D01*
X029101Y014066D01*
X029191Y014066D01*
X029236Y014111D01*
X029236Y014201D01*
X029146Y014201D01*
X029056Y014291D02*
X029101Y014336D01*
X029191Y014336D01*
X029236Y014291D01*
X029351Y014336D02*
X029531Y014066D01*
X029531Y014336D01*
X029646Y014336D02*
X029646Y014066D01*
X029781Y014066D01*
X029826Y014111D01*
X029826Y014291D01*
X029781Y014336D01*
X029646Y014336D01*
X029351Y014336D02*
X029351Y014066D01*
X029376Y014527D02*
X029106Y014527D01*
X029106Y014662D01*
X029151Y014707D01*
X029241Y014707D01*
X029286Y014662D01*
X029286Y014527D01*
X029286Y014617D02*
X029376Y014707D01*
X029376Y014822D02*
X029106Y014822D01*
X029376Y014822D02*
X029376Y015002D01*
X030056Y014336D02*
X030191Y014336D01*
X030236Y014291D01*
X030236Y014201D01*
X030191Y014156D01*
X030056Y014156D01*
X030056Y014066D02*
X030056Y014336D01*
X030146Y014156D02*
X030236Y014066D01*
X030351Y014066D02*
X030486Y014066D01*
X030531Y014111D01*
X030486Y014156D01*
X030396Y014156D01*
X030351Y014201D01*
X030396Y014246D01*
X030531Y014246D01*
X030646Y014246D02*
X030736Y014336D01*
X030736Y014066D01*
X030646Y014066D02*
X030826Y014066D01*
X031206Y014111D02*
X031251Y014066D01*
X031341Y014066D01*
X031386Y014111D01*
X031386Y014201D01*
X031341Y014246D01*
X031296Y014246D01*
X031206Y014201D01*
X031206Y014336D01*
X031386Y014336D01*
X031501Y014336D02*
X031501Y014156D01*
X031591Y014066D01*
X031681Y014156D01*
X031681Y014336D01*
X033332Y014291D02*
X033332Y014111D01*
X033377Y014066D01*
X033467Y014066D01*
X033512Y014111D01*
X033512Y014201D01*
X033422Y014201D01*
X033332Y014291D02*
X033377Y014336D01*
X033467Y014336D01*
X033512Y014291D01*
X033627Y014336D02*
X033807Y014066D01*
X033807Y014336D01*
X033921Y014336D02*
X034056Y014336D01*
X034101Y014291D01*
X034101Y014111D01*
X034056Y014066D01*
X033921Y014066D01*
X033921Y014336D01*
X033627Y014336D02*
X033627Y014066D01*
X034332Y014066D02*
X034332Y014336D01*
X034467Y014336D01*
X034512Y014291D01*
X034512Y014201D01*
X034467Y014156D01*
X034332Y014156D01*
X034422Y014156D02*
X034512Y014066D01*
X034627Y014066D02*
X034762Y014066D01*
X034807Y014111D01*
X034762Y014156D01*
X034672Y014156D01*
X034627Y014201D01*
X034672Y014246D01*
X034807Y014246D01*
X034921Y014246D02*
X035011Y014336D01*
X035011Y014066D01*
X034921Y014066D02*
X035101Y014066D01*
X035482Y014111D02*
X035527Y014066D01*
X035617Y014066D01*
X035662Y014111D01*
X035662Y014201D01*
X035617Y014246D01*
X035572Y014246D01*
X035482Y014201D01*
X035482Y014336D01*
X035662Y014336D01*
X035777Y014336D02*
X035777Y014156D01*
X035867Y014066D01*
X035957Y014156D01*
X035957Y014336D01*
X033652Y014527D02*
X033382Y014527D01*
X033382Y014662D01*
X033427Y014707D01*
X033517Y014707D01*
X033562Y014662D01*
X033562Y014527D01*
X033562Y014617D02*
X033652Y014707D01*
X033652Y014822D02*
X033382Y014822D01*
X033652Y014822D02*
X033652Y015002D01*
X033652Y017427D02*
X033382Y017427D01*
X033382Y017562D01*
X033427Y017607D01*
X033517Y017607D01*
X033562Y017562D01*
X033562Y017427D01*
X033562Y017517D02*
X033652Y017607D01*
X033652Y017722D02*
X033652Y017902D01*
X033652Y017812D02*
X033382Y017812D01*
X033472Y017722D01*
X033478Y018046D02*
X033388Y018136D01*
X033433Y018136D02*
X033298Y018136D01*
X033298Y018046D02*
X033298Y018316D01*
X033433Y018316D01*
X033478Y018271D01*
X033478Y018181D01*
X033433Y018136D01*
X033593Y018181D02*
X033638Y018226D01*
X033728Y018226D01*
X033773Y018181D01*
X033773Y018046D01*
X033887Y018046D02*
X034067Y018046D01*
X033977Y018046D02*
X033977Y018316D01*
X033887Y018226D01*
X033593Y018316D02*
X033593Y018046D01*
X034348Y018046D02*
X034348Y018316D01*
X034483Y018316D01*
X034528Y018271D01*
X034528Y018181D01*
X034483Y018136D01*
X034348Y018136D01*
X034438Y018136D02*
X034528Y018046D01*
X034643Y018046D02*
X034643Y018316D01*
X034688Y018226D02*
X034778Y018226D01*
X034823Y018181D01*
X034823Y018046D01*
X034937Y018046D02*
X035117Y018226D01*
X035117Y018271D01*
X035072Y018316D01*
X034982Y018316D01*
X034937Y018271D01*
X034937Y018046D02*
X035117Y018046D01*
X035348Y018046D02*
X035348Y018316D01*
X035483Y018316D01*
X035528Y018271D01*
X035528Y018181D01*
X035483Y018136D01*
X035348Y018136D01*
X035438Y018136D02*
X035528Y018046D01*
X035643Y018046D02*
X035778Y018046D01*
X035823Y018091D01*
X035778Y018136D01*
X035688Y018136D01*
X035643Y018181D01*
X035688Y018226D01*
X035823Y018226D01*
X035937Y018271D02*
X035982Y018316D01*
X036072Y018316D01*
X036117Y018271D01*
X036117Y018226D01*
X035937Y018046D01*
X036117Y018046D01*
X034688Y018226D02*
X034643Y018181D01*
X031842Y018226D02*
X031662Y018046D01*
X031842Y018046D01*
X031842Y018226D02*
X031842Y018271D01*
X031797Y018316D01*
X031707Y018316D01*
X031662Y018271D01*
X031547Y018226D02*
X031412Y018226D01*
X031367Y018181D01*
X031412Y018136D01*
X031502Y018136D01*
X031547Y018091D01*
X031502Y018046D01*
X031367Y018046D01*
X031253Y018046D02*
X031162Y018136D01*
X031207Y018136D02*
X031072Y018136D01*
X031072Y018046D02*
X031072Y018316D01*
X031207Y018316D01*
X031253Y018271D01*
X031253Y018181D01*
X031207Y018136D01*
X030842Y018046D02*
X030662Y018046D01*
X030842Y018226D01*
X030842Y018271D01*
X030797Y018316D01*
X030707Y018316D01*
X030662Y018271D01*
X030547Y018181D02*
X030547Y018046D01*
X030547Y018181D02*
X030502Y018226D01*
X030412Y018226D01*
X030367Y018181D01*
X030253Y018181D02*
X030207Y018136D01*
X030072Y018136D01*
X030072Y018046D02*
X030072Y018316D01*
X030207Y018316D01*
X030253Y018271D01*
X030253Y018181D01*
X030162Y018136D02*
X030253Y018046D01*
X030367Y018046D02*
X030367Y018316D01*
X029792Y018046D02*
X029612Y018046D01*
X029702Y018046D02*
X029702Y018316D01*
X029612Y018226D01*
X029497Y018181D02*
X029497Y018046D01*
X029497Y018181D02*
X029452Y018226D01*
X029362Y018226D01*
X029317Y018181D01*
X029203Y018181D02*
X029157Y018136D01*
X029022Y018136D01*
X029022Y018046D02*
X029022Y018316D01*
X029157Y018316D01*
X029203Y018271D01*
X029203Y018181D01*
X029112Y018136D02*
X029203Y018046D01*
X029317Y018046D02*
X029317Y018316D01*
X029376Y017902D02*
X029376Y017722D01*
X029376Y017812D02*
X029106Y017812D01*
X029196Y017722D01*
X029151Y017607D02*
X029241Y017607D01*
X029286Y017562D01*
X029286Y017427D01*
X029286Y017517D02*
X029376Y017607D01*
X029376Y017427D02*
X029106Y017427D01*
X029106Y017562D01*
X029151Y017607D01*
X027566Y018046D02*
X027386Y018046D01*
X027566Y018226D01*
X027566Y018271D01*
X027521Y018316D01*
X027431Y018316D01*
X027386Y018271D01*
X027272Y018226D02*
X027136Y018226D01*
X027091Y018181D01*
X027136Y018136D01*
X027227Y018136D01*
X027272Y018091D01*
X027227Y018046D01*
X027091Y018046D01*
X026977Y018046D02*
X026887Y018136D01*
X026932Y018136D02*
X026797Y018136D01*
X026797Y018046D02*
X026797Y018316D01*
X026932Y018316D01*
X026977Y018271D01*
X026977Y018181D01*
X026932Y018136D01*
X026566Y018046D02*
X026386Y018046D01*
X026566Y018226D01*
X026566Y018271D01*
X026521Y018316D01*
X026431Y018316D01*
X026386Y018271D01*
X026272Y018181D02*
X026272Y018046D01*
X026272Y018181D02*
X026227Y018226D01*
X026136Y018226D01*
X026091Y018181D01*
X025977Y018181D02*
X025932Y018136D01*
X025797Y018136D01*
X025797Y018046D02*
X025797Y018316D01*
X025932Y018316D01*
X025977Y018271D01*
X025977Y018181D01*
X025887Y018136D02*
X025977Y018046D01*
X026091Y018046D02*
X026091Y018316D01*
X025516Y018046D02*
X025336Y018046D01*
X025426Y018046D02*
X025426Y018316D01*
X025336Y018226D01*
X025222Y018181D02*
X025222Y018046D01*
X025222Y018181D02*
X025177Y018226D01*
X025086Y018226D01*
X025041Y018181D01*
X024927Y018181D02*
X024882Y018136D01*
X024747Y018136D01*
X024747Y018046D02*
X024747Y018316D01*
X024882Y018316D01*
X024927Y018271D01*
X024927Y018181D01*
X024837Y018136D02*
X024927Y018046D01*
X025041Y018046D02*
X025041Y018316D01*
X025101Y017902D02*
X025101Y017722D01*
X025101Y017812D02*
X024831Y017812D01*
X024921Y017722D01*
X024966Y017607D02*
X025011Y017562D01*
X025011Y017427D01*
X025101Y017427D02*
X024831Y017427D01*
X024831Y017562D01*
X024876Y017607D01*
X024966Y017607D01*
X025011Y017517D02*
X025101Y017607D01*
X023291Y018046D02*
X023111Y018046D01*
X023291Y018226D01*
X023291Y018271D01*
X023246Y018316D01*
X023156Y018316D01*
X023111Y018271D01*
X022996Y018226D02*
X022861Y018226D01*
X022816Y018181D01*
X022861Y018136D01*
X022951Y018136D01*
X022996Y018091D01*
X022951Y018046D01*
X022816Y018046D01*
X022701Y018046D02*
X022611Y018136D01*
X022656Y018136D02*
X022521Y018136D01*
X022521Y018046D02*
X022521Y018316D01*
X022656Y018316D01*
X022701Y018271D01*
X022701Y018181D01*
X022656Y018136D01*
X022291Y018046D02*
X022111Y018046D01*
X022291Y018226D01*
X022291Y018271D01*
X022246Y018316D01*
X022156Y018316D01*
X022111Y018271D01*
X021996Y018181D02*
X021996Y018046D01*
X021996Y018181D02*
X021951Y018226D01*
X021861Y018226D01*
X021816Y018181D01*
X021701Y018181D02*
X021656Y018136D01*
X021521Y018136D01*
X021521Y018046D02*
X021521Y018316D01*
X021656Y018316D01*
X021701Y018271D01*
X021701Y018181D01*
X021611Y018136D02*
X021701Y018046D01*
X021816Y018046D02*
X021816Y018316D01*
X021241Y018046D02*
X021061Y018046D01*
X021151Y018046D02*
X021151Y018316D01*
X021061Y018226D01*
X020946Y018181D02*
X020946Y018046D01*
X020946Y018181D02*
X020901Y018226D01*
X020811Y018226D01*
X020766Y018181D01*
X020651Y018181D02*
X020606Y018136D01*
X020471Y018136D01*
X020471Y018046D02*
X020471Y018316D01*
X020606Y018316D01*
X020651Y018271D01*
X020651Y018181D01*
X020561Y018136D02*
X020651Y018046D01*
X020766Y018046D02*
X020766Y018316D01*
X020825Y017902D02*
X020825Y017722D01*
X020825Y017812D02*
X020555Y017812D01*
X020645Y017722D01*
X020600Y017607D02*
X020690Y017607D01*
X020735Y017562D01*
X020735Y017427D01*
X020735Y017517D02*
X020825Y017607D01*
X020825Y017427D02*
X020555Y017427D01*
X020555Y017562D01*
X020600Y017607D01*
X019015Y018046D02*
X018835Y018046D01*
X019015Y018226D01*
X019015Y018271D01*
X018970Y018316D01*
X018880Y018316D01*
X018835Y018271D01*
X018720Y018226D02*
X018585Y018226D01*
X018540Y018181D01*
X018585Y018136D01*
X018675Y018136D01*
X018720Y018091D01*
X018675Y018046D01*
X018540Y018046D01*
X018426Y018046D02*
X018336Y018136D01*
X018381Y018136D02*
X018246Y018136D01*
X018246Y018046D02*
X018246Y018316D01*
X018381Y018316D01*
X018426Y018271D01*
X018426Y018181D01*
X018381Y018136D01*
X018015Y018046D02*
X017835Y018046D01*
X018015Y018226D01*
X018015Y018271D01*
X017970Y018316D01*
X017880Y018316D01*
X017835Y018271D01*
X017720Y018181D02*
X017720Y018046D01*
X017720Y018181D02*
X017675Y018226D01*
X017585Y018226D01*
X017540Y018181D01*
X017426Y018181D02*
X017381Y018136D01*
X017246Y018136D01*
X017336Y018136D02*
X017426Y018046D01*
X017540Y018046D02*
X017540Y018316D01*
X017426Y018271D02*
X017426Y018181D01*
X017426Y018271D02*
X017381Y018316D01*
X017246Y018316D01*
X017246Y018046D01*
X016965Y018046D02*
X016785Y018046D01*
X016875Y018046D02*
X016875Y018316D01*
X016785Y018226D01*
X016670Y018181D02*
X016670Y018046D01*
X016670Y018181D02*
X016625Y018226D01*
X016535Y018226D01*
X016490Y018181D01*
X016376Y018181D02*
X016331Y018136D01*
X016196Y018136D01*
X016286Y018136D02*
X016376Y018046D01*
X016490Y018046D02*
X016490Y018316D01*
X016376Y018271D02*
X016376Y018181D01*
X016376Y018271D02*
X016331Y018316D01*
X016196Y018316D01*
X016196Y018046D01*
X016279Y017812D02*
X016550Y017812D01*
X016550Y017722D02*
X016550Y017902D01*
X016369Y017722D02*
X016279Y017812D01*
X016324Y017607D02*
X016414Y017607D01*
X016459Y017562D01*
X016459Y017427D01*
X016459Y017517D02*
X016550Y017607D01*
X016550Y017427D02*
X016279Y017427D01*
X016279Y017562D01*
X016324Y017607D01*
X014739Y018046D02*
X014559Y018046D01*
X014739Y018226D01*
X014739Y018271D01*
X014694Y018316D01*
X014604Y018316D01*
X014559Y018271D01*
X014445Y018226D02*
X014310Y018226D01*
X014265Y018181D01*
X014310Y018136D01*
X014400Y018136D01*
X014445Y018091D01*
X014400Y018046D01*
X014265Y018046D01*
X014150Y018046D02*
X014060Y018136D01*
X014105Y018136D02*
X013970Y018136D01*
X013970Y018046D02*
X013970Y018316D01*
X014105Y018316D01*
X014150Y018271D01*
X014150Y018181D01*
X014105Y018136D01*
X013739Y018046D02*
X013559Y018046D01*
X013739Y018226D01*
X013739Y018271D01*
X013694Y018316D01*
X013604Y018316D01*
X013559Y018271D01*
X013445Y018181D02*
X013445Y018046D01*
X013445Y018181D02*
X013400Y018226D01*
X013310Y018226D01*
X013265Y018181D01*
X013150Y018181D02*
X013105Y018136D01*
X012970Y018136D01*
X012970Y018046D02*
X012970Y018316D01*
X013105Y018316D01*
X013150Y018271D01*
X013150Y018181D01*
X013060Y018136D02*
X013150Y018046D01*
X013265Y018046D02*
X013265Y018316D01*
X012689Y018046D02*
X012509Y018046D01*
X012599Y018046D02*
X012599Y018316D01*
X012509Y018226D01*
X012395Y018181D02*
X012395Y018046D01*
X012395Y018181D02*
X012350Y018226D01*
X012260Y018226D01*
X012215Y018181D01*
X012100Y018181D02*
X012055Y018136D01*
X011920Y018136D01*
X011920Y018046D02*
X011920Y018316D01*
X012055Y018316D01*
X012100Y018271D01*
X012100Y018181D01*
X012010Y018136D02*
X012100Y018046D01*
X012215Y018046D02*
X012215Y018316D01*
X012274Y017902D02*
X012274Y017722D01*
X012274Y017812D02*
X012004Y017812D01*
X012094Y017722D01*
X012139Y017607D02*
X012184Y017562D01*
X012184Y017427D01*
X012184Y017517D02*
X012274Y017607D01*
X012139Y017607D02*
X012049Y017607D01*
X012004Y017562D01*
X012004Y017427D01*
X012274Y017427D01*
X010464Y018046D02*
X010284Y018046D01*
X010464Y018226D01*
X010464Y018271D01*
X010419Y018316D01*
X010329Y018316D01*
X010284Y018271D01*
X010169Y018226D02*
X010034Y018226D01*
X009989Y018181D01*
X010034Y018136D01*
X010124Y018136D01*
X010169Y018091D01*
X010124Y018046D01*
X009989Y018046D01*
X009875Y018046D02*
X009785Y018136D01*
X009830Y018136D02*
X009694Y018136D01*
X009694Y018046D02*
X009694Y018316D01*
X009830Y018316D01*
X009875Y018271D01*
X009875Y018181D01*
X009830Y018136D01*
X009464Y018046D02*
X009284Y018046D01*
X009464Y018226D01*
X009464Y018271D01*
X009419Y018316D01*
X009329Y018316D01*
X009284Y018271D01*
X009169Y018181D02*
X009169Y018046D01*
X009169Y018181D02*
X009124Y018226D01*
X009034Y018226D01*
X008989Y018181D01*
X008875Y018181D02*
X008830Y018136D01*
X008694Y018136D01*
X008694Y018046D02*
X008694Y018316D01*
X008830Y018316D01*
X008875Y018271D01*
X008875Y018181D01*
X008785Y018136D02*
X008875Y018046D01*
X008989Y018046D02*
X008989Y018316D01*
X008414Y018046D02*
X008234Y018046D01*
X008324Y018046D02*
X008324Y018316D01*
X008234Y018226D01*
X008119Y018181D02*
X008119Y018046D01*
X008119Y018181D02*
X008074Y018226D01*
X007984Y018226D01*
X007939Y018181D01*
X007825Y018181D02*
X007780Y018136D01*
X007644Y018136D01*
X007644Y018046D02*
X007644Y018316D01*
X007780Y018316D01*
X007825Y018271D01*
X007825Y018181D01*
X007735Y018136D02*
X007825Y018046D01*
X007939Y018046D02*
X007939Y018316D01*
X007998Y017902D02*
X007998Y017722D01*
X007998Y017812D02*
X007728Y017812D01*
X007818Y017722D01*
X007773Y017607D02*
X007863Y017607D01*
X007908Y017562D01*
X007908Y017427D01*
X007908Y017517D02*
X007998Y017607D01*
X007998Y017427D02*
X007728Y017427D01*
X007728Y017562D01*
X007773Y017607D01*
X006188Y018046D02*
X006008Y018046D01*
X006188Y018226D01*
X006188Y018271D01*
X006143Y018316D01*
X006053Y018316D01*
X006008Y018271D01*
X005894Y018226D02*
X005759Y018226D01*
X005713Y018181D01*
X005759Y018136D01*
X005849Y018136D01*
X005894Y018091D01*
X005849Y018046D01*
X005713Y018046D01*
X005599Y018046D02*
X005509Y018136D01*
X005554Y018136D02*
X005419Y018136D01*
X005419Y018046D02*
X005419Y018316D01*
X005554Y018316D01*
X005599Y018271D01*
X005599Y018181D01*
X005554Y018136D01*
X005188Y018046D02*
X005008Y018046D01*
X005188Y018226D01*
X005188Y018271D01*
X005143Y018316D01*
X005053Y018316D01*
X005008Y018271D01*
X004894Y018181D02*
X004894Y018046D01*
X004894Y018181D02*
X004849Y018226D01*
X004759Y018226D01*
X004713Y018181D01*
X004599Y018181D02*
X004554Y018136D01*
X004419Y018136D01*
X004419Y018046D02*
X004419Y018316D01*
X004554Y018316D01*
X004599Y018271D01*
X004599Y018181D01*
X004509Y018136D02*
X004599Y018046D01*
X004713Y018046D02*
X004713Y018316D01*
X004138Y018046D02*
X003958Y018046D01*
X004048Y018046D02*
X004048Y018316D01*
X003958Y018226D01*
X003844Y018181D02*
X003844Y018046D01*
X003844Y018181D02*
X003799Y018226D01*
X003709Y018226D01*
X003663Y018181D01*
X003549Y018181D02*
X003504Y018136D01*
X003369Y018136D01*
X003369Y018046D02*
X003369Y018316D01*
X003504Y018316D01*
X003549Y018271D01*
X003549Y018181D01*
X003459Y018136D02*
X003549Y018046D01*
X003663Y018046D02*
X003663Y018316D01*
X003723Y017902D02*
X003723Y017722D01*
X003723Y017812D02*
X003453Y017812D01*
X003543Y017722D01*
X003498Y017607D02*
X003588Y017607D01*
X003633Y017562D01*
X003633Y017427D01*
X003723Y017427D02*
X003453Y017427D01*
X003453Y017562D01*
X003498Y017607D01*
X003633Y017517D02*
X003723Y017607D01*
X003723Y015002D02*
X003723Y014822D01*
X003453Y014822D01*
X003498Y014707D02*
X003588Y014707D01*
X003633Y014662D01*
X003633Y014527D01*
X003723Y014527D02*
X003453Y014527D01*
X003453Y014662D01*
X003498Y014707D01*
X003633Y014617D02*
X003723Y014707D01*
X003697Y014336D02*
X003878Y014066D01*
X003878Y014336D01*
X003992Y014336D02*
X003992Y014066D01*
X004127Y014066D01*
X004172Y014111D01*
X004172Y014291D01*
X004127Y014336D01*
X003992Y014336D01*
X003697Y014336D02*
X003697Y014066D01*
X003583Y014111D02*
X003583Y014201D01*
X003493Y014201D01*
X003583Y014111D02*
X003538Y014066D01*
X003448Y014066D01*
X003403Y014111D01*
X003403Y014291D01*
X003448Y014336D01*
X003538Y014336D01*
X003583Y014291D01*
X004403Y014336D02*
X004403Y014066D01*
X004403Y014156D02*
X004538Y014156D01*
X004583Y014201D01*
X004583Y014291D01*
X004538Y014336D01*
X004403Y014336D01*
X004493Y014156D02*
X004583Y014066D01*
X004697Y014066D02*
X004833Y014066D01*
X004878Y014111D01*
X004833Y014156D01*
X004742Y014156D01*
X004697Y014201D01*
X004742Y014246D01*
X004878Y014246D01*
X004992Y014246D02*
X005082Y014336D01*
X005082Y014066D01*
X004992Y014066D02*
X005172Y014066D01*
X005553Y014111D02*
X005598Y014066D01*
X005688Y014066D01*
X005733Y014111D01*
X005733Y014201D01*
X005688Y014246D01*
X005643Y014246D01*
X005553Y014201D01*
X005553Y014336D01*
X005733Y014336D01*
X005847Y014336D02*
X005847Y014156D01*
X005938Y014066D01*
X006028Y014156D01*
X006028Y014336D01*
X012004Y014527D02*
X012004Y014662D01*
X012049Y014707D01*
X012139Y014707D01*
X012184Y014662D01*
X012184Y014527D01*
X012184Y014617D02*
X012274Y014707D01*
X012274Y014822D02*
X012004Y014822D01*
X012274Y014822D02*
X012274Y015002D01*
X012274Y014527D02*
X012004Y014527D01*
X011999Y020542D02*
X012089Y020542D01*
X012134Y020587D01*
X012134Y020677D01*
X012044Y020677D01*
X011954Y020767D02*
X011954Y020587D01*
X011999Y020542D01*
X011954Y020767D02*
X011999Y020812D01*
X012089Y020812D01*
X012134Y020767D01*
X012249Y020812D02*
X012429Y020542D01*
X012429Y020812D01*
X012543Y020812D02*
X012678Y020812D01*
X012723Y020767D01*
X012723Y020587D01*
X012678Y020542D01*
X012543Y020542D01*
X012543Y020812D01*
X012249Y020812D02*
X012249Y020542D01*
X012954Y020542D02*
X012954Y020812D01*
X013089Y020812D01*
X013134Y020767D01*
X013134Y020677D01*
X013089Y020632D01*
X012954Y020632D01*
X013044Y020632D02*
X013134Y020542D01*
X013249Y020542D02*
X013384Y020542D01*
X013429Y020587D01*
X013384Y020632D01*
X013294Y020632D01*
X013249Y020677D01*
X013294Y020722D01*
X013429Y020722D01*
X013543Y020722D02*
X013633Y020812D01*
X013633Y020542D01*
X013543Y020542D02*
X013723Y020542D01*
X014104Y020587D02*
X014149Y020542D01*
X014239Y020542D01*
X014284Y020587D01*
X014284Y020677D01*
X014239Y020722D01*
X014194Y020722D01*
X014104Y020677D01*
X014104Y020812D01*
X014284Y020812D01*
X014399Y020812D02*
X014399Y020632D01*
X014489Y020542D01*
X014579Y020632D01*
X014579Y020812D01*
X016230Y020767D02*
X016230Y020587D01*
X016275Y020542D01*
X016365Y020542D01*
X016410Y020587D01*
X016410Y020677D01*
X016320Y020677D01*
X016410Y020767D02*
X016365Y020812D01*
X016275Y020812D01*
X016230Y020767D01*
X016279Y021002D02*
X016279Y021138D01*
X016324Y021183D01*
X016414Y021183D01*
X016459Y021138D01*
X016459Y021002D01*
X016459Y021093D02*
X016550Y021183D01*
X016550Y021297D02*
X016550Y021477D01*
X016550Y021297D02*
X016279Y021297D01*
X016279Y021002D02*
X016550Y021002D01*
X016524Y020812D02*
X016704Y020542D01*
X016704Y020812D01*
X016819Y020812D02*
X016954Y020812D01*
X016999Y020767D01*
X016999Y020587D01*
X016954Y020542D01*
X016819Y020542D01*
X016819Y020812D01*
X016524Y020812D02*
X016524Y020542D01*
X017230Y020542D02*
X017230Y020812D01*
X017365Y020812D01*
X017410Y020767D01*
X017410Y020677D01*
X017365Y020632D01*
X017230Y020632D01*
X017320Y020632D02*
X017410Y020542D01*
X017524Y020542D02*
X017659Y020542D01*
X017704Y020587D01*
X017659Y020632D01*
X017569Y020632D01*
X017524Y020677D01*
X017569Y020722D01*
X017704Y020722D01*
X017819Y020722D02*
X017909Y020812D01*
X017909Y020542D01*
X017819Y020542D02*
X017999Y020542D01*
X018380Y020587D02*
X018425Y020542D01*
X018515Y020542D01*
X018560Y020587D01*
X018560Y020677D01*
X018515Y020722D01*
X018470Y020722D01*
X018380Y020677D01*
X018380Y020812D01*
X018560Y020812D01*
X018674Y020812D02*
X018674Y020632D01*
X018764Y020542D01*
X018854Y020632D01*
X018854Y020812D01*
X020505Y020767D02*
X020505Y020587D01*
X020550Y020542D01*
X020640Y020542D01*
X020685Y020587D01*
X020685Y020677D01*
X020595Y020677D01*
X020505Y020767D02*
X020550Y020812D01*
X020640Y020812D01*
X020685Y020767D01*
X020800Y020812D02*
X020980Y020542D01*
X020980Y020812D01*
X021094Y020812D02*
X021230Y020812D01*
X021275Y020767D01*
X021275Y020587D01*
X021230Y020542D01*
X021094Y020542D01*
X021094Y020812D01*
X020800Y020812D02*
X020800Y020542D01*
X020825Y021002D02*
X020555Y021002D01*
X020555Y021138D01*
X020600Y021183D01*
X020690Y021183D01*
X020735Y021138D01*
X020735Y021002D01*
X020735Y021093D02*
X020825Y021183D01*
X020825Y021297D02*
X020825Y021477D01*
X020825Y021297D02*
X020555Y021297D01*
X021505Y020812D02*
X021640Y020812D01*
X021685Y020767D01*
X021685Y020677D01*
X021640Y020632D01*
X021505Y020632D01*
X021505Y020542D02*
X021505Y020812D01*
X021595Y020632D02*
X021685Y020542D01*
X021800Y020542D02*
X021935Y020542D01*
X021980Y020587D01*
X021935Y020632D01*
X021845Y020632D01*
X021800Y020677D01*
X021845Y020722D01*
X021980Y020722D01*
X022094Y020722D02*
X022185Y020812D01*
X022185Y020542D01*
X022275Y020542D02*
X022094Y020542D01*
X022655Y020587D02*
X022700Y020542D01*
X022790Y020542D01*
X022835Y020587D01*
X022835Y020677D01*
X022790Y020722D01*
X022745Y020722D01*
X022655Y020677D01*
X022655Y020812D01*
X022835Y020812D01*
X022950Y020812D02*
X022950Y020632D01*
X023040Y020542D01*
X023130Y020632D01*
X023130Y020812D01*
X024781Y020767D02*
X024781Y020587D01*
X024826Y020542D01*
X024916Y020542D01*
X024961Y020587D01*
X024961Y020677D01*
X024871Y020677D01*
X024961Y020767D02*
X024916Y020812D01*
X024826Y020812D01*
X024781Y020767D01*
X024831Y021002D02*
X024831Y021138D01*
X024876Y021183D01*
X024966Y021183D01*
X025011Y021138D01*
X025011Y021002D01*
X025101Y021002D02*
X024831Y021002D01*
X025011Y021093D02*
X025101Y021183D01*
X025101Y021297D02*
X024831Y021297D01*
X025101Y021297D02*
X025101Y021477D01*
X025075Y020812D02*
X025256Y020542D01*
X025256Y020812D01*
X025370Y020812D02*
X025370Y020542D01*
X025505Y020542D01*
X025550Y020587D01*
X025550Y020767D01*
X025505Y020812D01*
X025370Y020812D01*
X025075Y020812D02*
X025075Y020542D01*
X025781Y020542D02*
X025781Y020812D01*
X025916Y020812D01*
X025961Y020767D01*
X025961Y020677D01*
X025916Y020632D01*
X025781Y020632D01*
X025871Y020632D02*
X025961Y020542D01*
X026075Y020542D02*
X026211Y020542D01*
X026256Y020587D01*
X026211Y020632D01*
X026120Y020632D01*
X026075Y020677D01*
X026120Y020722D01*
X026256Y020722D01*
X026370Y020722D02*
X026460Y020812D01*
X026460Y020542D01*
X026370Y020542D02*
X026550Y020542D01*
X026931Y020587D02*
X026976Y020542D01*
X027066Y020542D01*
X027111Y020587D01*
X027111Y020677D01*
X027066Y020722D01*
X027021Y020722D01*
X026931Y020677D01*
X026931Y020812D01*
X027111Y020812D01*
X027225Y020812D02*
X027225Y020632D01*
X027315Y020542D01*
X027406Y020632D01*
X027406Y020812D01*
X029056Y020767D02*
X029056Y020587D01*
X029101Y020542D01*
X029191Y020542D01*
X029236Y020587D01*
X029236Y020677D01*
X029146Y020677D01*
X029056Y020767D02*
X029101Y020812D01*
X029191Y020812D01*
X029236Y020767D01*
X029351Y020812D02*
X029531Y020542D01*
X029531Y020812D01*
X029646Y020812D02*
X029646Y020542D01*
X029781Y020542D01*
X029826Y020587D01*
X029826Y020767D01*
X029781Y020812D01*
X029646Y020812D01*
X029351Y020812D02*
X029351Y020542D01*
X029376Y021002D02*
X029106Y021002D01*
X029106Y021138D01*
X029151Y021183D01*
X029241Y021183D01*
X029286Y021138D01*
X029286Y021002D01*
X029286Y021093D02*
X029376Y021183D01*
X029376Y021297D02*
X029106Y021297D01*
X029376Y021297D02*
X029376Y021477D01*
X030056Y020812D02*
X030191Y020812D01*
X030236Y020767D01*
X030236Y020677D01*
X030191Y020632D01*
X030056Y020632D01*
X030056Y020542D02*
X030056Y020812D01*
X030146Y020632D02*
X030236Y020542D01*
X030351Y020542D02*
X030486Y020542D01*
X030531Y020587D01*
X030486Y020632D01*
X030396Y020632D01*
X030351Y020677D01*
X030396Y020722D01*
X030531Y020722D01*
X030646Y020722D02*
X030736Y020812D01*
X030736Y020542D01*
X030646Y020542D02*
X030826Y020542D01*
X031206Y020587D02*
X031251Y020542D01*
X031341Y020542D01*
X031386Y020587D01*
X031386Y020677D01*
X031341Y020722D01*
X031296Y020722D01*
X031206Y020677D01*
X031206Y020812D01*
X031386Y020812D01*
X031501Y020812D02*
X031501Y020632D01*
X031591Y020542D01*
X031681Y020632D01*
X031681Y020812D01*
X033332Y020767D02*
X033332Y020587D01*
X033377Y020542D01*
X033467Y020542D01*
X033512Y020587D01*
X033512Y020677D01*
X033422Y020677D01*
X033332Y020767D02*
X033377Y020812D01*
X033467Y020812D01*
X033512Y020767D01*
X033627Y020812D02*
X033807Y020542D01*
X033807Y020812D01*
X033921Y020812D02*
X034056Y020812D01*
X034101Y020767D01*
X034101Y020587D01*
X034056Y020542D01*
X033921Y020542D01*
X033921Y020812D01*
X033627Y020812D02*
X033627Y020542D01*
X034332Y020542D02*
X034332Y020812D01*
X034467Y020812D01*
X034512Y020767D01*
X034512Y020677D01*
X034467Y020632D01*
X034332Y020632D01*
X034422Y020632D02*
X034512Y020542D01*
X034627Y020542D02*
X034762Y020542D01*
X034807Y020587D01*
X034762Y020632D01*
X034672Y020632D01*
X034627Y020677D01*
X034672Y020722D01*
X034807Y020722D01*
X034921Y020722D02*
X035011Y020812D01*
X035011Y020542D01*
X034921Y020542D02*
X035101Y020542D01*
X035482Y020587D02*
X035527Y020542D01*
X035617Y020542D01*
X035662Y020587D01*
X035662Y020677D01*
X035617Y020722D01*
X035572Y020722D01*
X035482Y020677D01*
X035482Y020812D01*
X035662Y020812D01*
X035777Y020812D02*
X035777Y020632D01*
X035867Y020542D01*
X035957Y020632D01*
X035957Y020812D01*
X033652Y021002D02*
X033382Y021002D01*
X033382Y021138D01*
X033427Y021183D01*
X033517Y021183D01*
X033562Y021138D01*
X033562Y021002D01*
X033562Y021093D02*
X033652Y021183D01*
X033652Y021297D02*
X033382Y021297D01*
X033652Y021297D02*
X033652Y021477D01*
X033652Y023902D02*
X033382Y023902D01*
X033382Y024038D01*
X033427Y024083D01*
X033517Y024083D01*
X033562Y024038D01*
X033562Y023902D01*
X033562Y023993D02*
X033652Y024083D01*
X033652Y024197D02*
X033652Y024377D01*
X033652Y024287D02*
X033382Y024287D01*
X033472Y024197D01*
X033478Y024522D02*
X033388Y024612D01*
X033433Y024612D02*
X033298Y024612D01*
X033298Y024522D02*
X033298Y024792D01*
X033433Y024792D01*
X033478Y024747D01*
X033478Y024657D01*
X033433Y024612D01*
X033593Y024657D02*
X033638Y024702D01*
X033728Y024702D01*
X033773Y024657D01*
X033773Y024522D01*
X033887Y024522D02*
X034067Y024522D01*
X033977Y024522D02*
X033977Y024792D01*
X033887Y024702D01*
X033593Y024792D02*
X033593Y024522D01*
X034348Y024522D02*
X034348Y024792D01*
X034483Y024792D01*
X034528Y024747D01*
X034528Y024657D01*
X034483Y024612D01*
X034348Y024612D01*
X034438Y024612D02*
X034528Y024522D01*
X034643Y024522D02*
X034643Y024792D01*
X034688Y024702D02*
X034778Y024702D01*
X034823Y024657D01*
X034823Y024522D01*
X034937Y024522D02*
X035117Y024702D01*
X035117Y024747D01*
X035072Y024792D01*
X034982Y024792D01*
X034937Y024747D01*
X034937Y024522D02*
X035117Y024522D01*
X035348Y024522D02*
X035348Y024792D01*
X035483Y024792D01*
X035528Y024747D01*
X035528Y024657D01*
X035483Y024612D01*
X035348Y024612D01*
X035438Y024612D02*
X035528Y024522D01*
X035643Y024522D02*
X035778Y024522D01*
X035823Y024567D01*
X035778Y024612D01*
X035688Y024612D01*
X035643Y024657D01*
X035688Y024702D01*
X035823Y024702D01*
X035937Y024747D02*
X035982Y024792D01*
X036072Y024792D01*
X036117Y024747D01*
X036117Y024702D01*
X035937Y024522D01*
X036117Y024522D01*
X034688Y024702D02*
X034643Y024657D01*
X031842Y024702D02*
X031662Y024522D01*
X031842Y024522D01*
X031842Y024702D02*
X031842Y024747D01*
X031797Y024792D01*
X031707Y024792D01*
X031662Y024747D01*
X031547Y024702D02*
X031412Y024702D01*
X031367Y024657D01*
X031412Y024612D01*
X031502Y024612D01*
X031547Y024567D01*
X031502Y024522D01*
X031367Y024522D01*
X031253Y024522D02*
X031162Y024612D01*
X031207Y024612D02*
X031072Y024612D01*
X031072Y024522D02*
X031072Y024792D01*
X031207Y024792D01*
X031253Y024747D01*
X031253Y024657D01*
X031207Y024612D01*
X030842Y024702D02*
X030842Y024747D01*
X030797Y024792D01*
X030707Y024792D01*
X030662Y024747D01*
X030547Y024657D02*
X030547Y024522D01*
X030662Y024522D02*
X030842Y024702D01*
X030842Y024522D02*
X030662Y024522D01*
X030547Y024657D02*
X030502Y024702D01*
X030412Y024702D01*
X030367Y024657D01*
X030253Y024657D02*
X030207Y024612D01*
X030072Y024612D01*
X030072Y024522D02*
X030072Y024792D01*
X030207Y024792D01*
X030253Y024747D01*
X030253Y024657D01*
X030162Y024612D02*
X030253Y024522D01*
X030367Y024522D02*
X030367Y024792D01*
X029792Y024522D02*
X029612Y024522D01*
X029702Y024522D02*
X029702Y024792D01*
X029612Y024702D01*
X029497Y024657D02*
X029497Y024522D01*
X029497Y024657D02*
X029452Y024702D01*
X029362Y024702D01*
X029317Y024657D01*
X029203Y024657D02*
X029157Y024612D01*
X029022Y024612D01*
X029022Y024522D02*
X029022Y024792D01*
X029157Y024792D01*
X029203Y024747D01*
X029203Y024657D01*
X029112Y024612D02*
X029203Y024522D01*
X029317Y024522D02*
X029317Y024792D01*
X029376Y024377D02*
X029376Y024197D01*
X029376Y024287D02*
X029106Y024287D01*
X029196Y024197D01*
X029151Y024083D02*
X029241Y024083D01*
X029286Y024038D01*
X029286Y023902D01*
X029376Y023902D02*
X029106Y023902D01*
X029106Y024038D01*
X029151Y024083D01*
X029286Y023993D02*
X029376Y024083D01*
X027566Y024522D02*
X027386Y024522D01*
X027566Y024702D01*
X027566Y024747D01*
X027521Y024792D01*
X027431Y024792D01*
X027386Y024747D01*
X027272Y024702D02*
X027136Y024702D01*
X027091Y024657D01*
X027136Y024612D01*
X027227Y024612D01*
X027272Y024567D01*
X027227Y024522D01*
X027091Y024522D01*
X026977Y024522D02*
X026887Y024612D01*
X026932Y024612D02*
X026797Y024612D01*
X026797Y024522D02*
X026797Y024792D01*
X026932Y024792D01*
X026977Y024747D01*
X026977Y024657D01*
X026932Y024612D01*
X026566Y024702D02*
X026566Y024747D01*
X026521Y024792D01*
X026431Y024792D01*
X026386Y024747D01*
X026272Y024657D02*
X026272Y024522D01*
X026386Y024522D02*
X026566Y024702D01*
X026566Y024522D02*
X026386Y024522D01*
X026272Y024657D02*
X026227Y024702D01*
X026136Y024702D01*
X026091Y024657D01*
X025977Y024657D02*
X025932Y024612D01*
X025797Y024612D01*
X025887Y024612D02*
X025977Y024522D01*
X026091Y024522D02*
X026091Y024792D01*
X025977Y024747D02*
X025977Y024657D01*
X025977Y024747D02*
X025932Y024792D01*
X025797Y024792D01*
X025797Y024522D01*
X025516Y024522D02*
X025336Y024522D01*
X025426Y024522D02*
X025426Y024792D01*
X025336Y024702D01*
X025222Y024657D02*
X025222Y024522D01*
X025222Y024657D02*
X025177Y024702D01*
X025086Y024702D01*
X025041Y024657D01*
X024927Y024657D02*
X024882Y024612D01*
X024747Y024612D01*
X024837Y024612D02*
X024927Y024522D01*
X025041Y024522D02*
X025041Y024792D01*
X024927Y024747D02*
X024927Y024657D01*
X024927Y024747D02*
X024882Y024792D01*
X024747Y024792D01*
X024747Y024522D01*
X024831Y024287D02*
X025101Y024287D01*
X025101Y024197D02*
X025101Y024377D01*
X024921Y024197D02*
X024831Y024287D01*
X024876Y024083D02*
X024831Y024038D01*
X024831Y023902D01*
X025101Y023902D01*
X025011Y023902D02*
X025011Y024038D01*
X024966Y024083D01*
X024876Y024083D01*
X025011Y023993D02*
X025101Y024083D01*
X023291Y024522D02*
X023111Y024522D01*
X023291Y024702D01*
X023291Y024747D01*
X023246Y024792D01*
X023156Y024792D01*
X023111Y024747D01*
X022996Y024702D02*
X022861Y024702D01*
X022816Y024657D01*
X022861Y024612D01*
X022951Y024612D01*
X022996Y024567D01*
X022951Y024522D01*
X022816Y024522D01*
X022701Y024522D02*
X022611Y024612D01*
X022656Y024612D02*
X022521Y024612D01*
X022521Y024522D02*
X022521Y024792D01*
X022656Y024792D01*
X022701Y024747D01*
X022701Y024657D01*
X022656Y024612D01*
X022291Y024702D02*
X022291Y024747D01*
X022246Y024792D01*
X022156Y024792D01*
X022111Y024747D01*
X021996Y024657D02*
X021996Y024522D01*
X022111Y024522D02*
X022291Y024702D01*
X022291Y024522D02*
X022111Y024522D01*
X021996Y024657D02*
X021951Y024702D01*
X021861Y024702D01*
X021816Y024657D01*
X021701Y024657D02*
X021656Y024612D01*
X021521Y024612D01*
X021521Y024522D02*
X021521Y024792D01*
X021656Y024792D01*
X021701Y024747D01*
X021701Y024657D01*
X021611Y024612D02*
X021701Y024522D01*
X021816Y024522D02*
X021816Y024792D01*
X021241Y024522D02*
X021061Y024522D01*
X021151Y024522D02*
X021151Y024792D01*
X021061Y024702D01*
X020946Y024657D02*
X020946Y024522D01*
X020946Y024657D02*
X020901Y024702D01*
X020811Y024702D01*
X020766Y024657D01*
X020651Y024657D02*
X020606Y024612D01*
X020471Y024612D01*
X020471Y024522D02*
X020471Y024792D01*
X020606Y024792D01*
X020651Y024747D01*
X020651Y024657D01*
X020561Y024612D02*
X020651Y024522D01*
X020766Y024522D02*
X020766Y024792D01*
X020825Y024377D02*
X020825Y024197D01*
X020825Y024287D02*
X020555Y024287D01*
X020645Y024197D01*
X020600Y024083D02*
X020690Y024083D01*
X020735Y024038D01*
X020735Y023902D01*
X020825Y023902D02*
X020555Y023902D01*
X020555Y024038D01*
X020600Y024083D01*
X020735Y023993D02*
X020825Y024083D01*
X019015Y024522D02*
X018835Y024522D01*
X019015Y024702D01*
X019015Y024747D01*
X018970Y024792D01*
X018880Y024792D01*
X018835Y024747D01*
X018720Y024702D02*
X018585Y024702D01*
X018540Y024657D01*
X018585Y024612D01*
X018675Y024612D01*
X018720Y024567D01*
X018675Y024522D01*
X018540Y024522D01*
X018426Y024522D02*
X018336Y024612D01*
X018381Y024612D02*
X018246Y024612D01*
X018246Y024522D02*
X018246Y024792D01*
X018381Y024792D01*
X018426Y024747D01*
X018426Y024657D01*
X018381Y024612D01*
X018015Y024702D02*
X017835Y024522D01*
X018015Y024522D01*
X018015Y024702D02*
X018015Y024747D01*
X017970Y024792D01*
X017880Y024792D01*
X017835Y024747D01*
X017720Y024657D02*
X017720Y024522D01*
X017720Y024657D02*
X017675Y024702D01*
X017585Y024702D01*
X017540Y024657D01*
X017426Y024657D02*
X017381Y024612D01*
X017246Y024612D01*
X017336Y024612D02*
X017426Y024522D01*
X017540Y024522D02*
X017540Y024792D01*
X017426Y024747D02*
X017426Y024657D01*
X017426Y024747D02*
X017381Y024792D01*
X017246Y024792D01*
X017246Y024522D01*
X016965Y024522D02*
X016785Y024522D01*
X016875Y024522D02*
X016875Y024792D01*
X016785Y024702D01*
X016670Y024657D02*
X016670Y024522D01*
X016670Y024657D02*
X016625Y024702D01*
X016535Y024702D01*
X016490Y024657D01*
X016376Y024657D02*
X016331Y024612D01*
X016196Y024612D01*
X016286Y024612D02*
X016376Y024522D01*
X016490Y024522D02*
X016490Y024792D01*
X016376Y024747D02*
X016376Y024657D01*
X016376Y024747D02*
X016331Y024792D01*
X016196Y024792D01*
X016196Y024522D01*
X016279Y024287D02*
X016550Y024287D01*
X016550Y024197D02*
X016550Y024377D01*
X016369Y024197D02*
X016279Y024287D01*
X016324Y024083D02*
X016414Y024083D01*
X016459Y024038D01*
X016459Y023902D01*
X016459Y023993D02*
X016550Y024083D01*
X016550Y023902D02*
X016279Y023902D01*
X016279Y024038D01*
X016324Y024083D01*
X014739Y024522D02*
X014559Y024522D01*
X014739Y024702D01*
X014739Y024747D01*
X014694Y024792D01*
X014604Y024792D01*
X014559Y024747D01*
X014445Y024702D02*
X014310Y024702D01*
X014265Y024657D01*
X014310Y024612D01*
X014400Y024612D01*
X014445Y024567D01*
X014400Y024522D01*
X014265Y024522D01*
X014150Y024522D02*
X014060Y024612D01*
X014105Y024612D02*
X013970Y024612D01*
X013970Y024522D02*
X013970Y024792D01*
X014105Y024792D01*
X014150Y024747D01*
X014150Y024657D01*
X014105Y024612D01*
X013739Y024702D02*
X013559Y024522D01*
X013739Y024522D01*
X013739Y024702D02*
X013739Y024747D01*
X013694Y024792D01*
X013604Y024792D01*
X013559Y024747D01*
X013445Y024657D02*
X013445Y024522D01*
X013445Y024657D02*
X013400Y024702D01*
X013310Y024702D01*
X013265Y024657D01*
X013150Y024657D02*
X013105Y024612D01*
X012970Y024612D01*
X013060Y024612D02*
X013150Y024522D01*
X013265Y024522D02*
X013265Y024792D01*
X013150Y024747D02*
X013150Y024657D01*
X013150Y024747D02*
X013105Y024792D01*
X012970Y024792D01*
X012970Y024522D01*
X012689Y024522D02*
X012509Y024522D01*
X012599Y024522D02*
X012599Y024792D01*
X012509Y024702D01*
X012395Y024657D02*
X012395Y024522D01*
X012395Y024657D02*
X012350Y024702D01*
X012260Y024702D01*
X012215Y024657D01*
X012100Y024657D02*
X012055Y024612D01*
X011920Y024612D01*
X012010Y024612D02*
X012100Y024522D01*
X012215Y024522D02*
X012215Y024792D01*
X012100Y024747D02*
X012100Y024657D01*
X012100Y024747D02*
X012055Y024792D01*
X011920Y024792D01*
X011920Y024522D01*
X012004Y024287D02*
X012274Y024287D01*
X012274Y024197D02*
X012274Y024377D01*
X012094Y024197D02*
X012004Y024287D01*
X012049Y024083D02*
X012139Y024083D01*
X012184Y024038D01*
X012184Y023902D01*
X012274Y023902D02*
X012004Y023902D01*
X012004Y024038D01*
X012049Y024083D01*
X012184Y023993D02*
X012274Y024083D01*
X010464Y024522D02*
X010284Y024522D01*
X010464Y024702D01*
X010464Y024747D01*
X010419Y024792D01*
X010329Y024792D01*
X010284Y024747D01*
X010169Y024702D02*
X010034Y024702D01*
X009989Y024657D01*
X010034Y024612D01*
X010124Y024612D01*
X010169Y024567D01*
X010124Y024522D01*
X009989Y024522D01*
X009875Y024522D02*
X009785Y024612D01*
X009830Y024612D02*
X009694Y024612D01*
X009694Y024522D02*
X009694Y024792D01*
X009830Y024792D01*
X009875Y024747D01*
X009875Y024657D01*
X009830Y024612D01*
X009464Y024702D02*
X009284Y024522D01*
X009464Y024522D01*
X009464Y024702D02*
X009464Y024747D01*
X009419Y024792D01*
X009329Y024792D01*
X009284Y024747D01*
X009169Y024657D02*
X009169Y024522D01*
X009169Y024657D02*
X009124Y024702D01*
X009034Y024702D01*
X008989Y024657D01*
X008875Y024657D02*
X008830Y024612D01*
X008694Y024612D01*
X008694Y024522D02*
X008694Y024792D01*
X008830Y024792D01*
X008875Y024747D01*
X008875Y024657D01*
X008785Y024612D02*
X008875Y024522D01*
X008989Y024522D02*
X008989Y024792D01*
X008414Y024522D02*
X008234Y024522D01*
X008324Y024522D02*
X008324Y024792D01*
X008234Y024702D01*
X008119Y024657D02*
X008119Y024522D01*
X008119Y024657D02*
X008074Y024702D01*
X007984Y024702D01*
X007939Y024657D01*
X007825Y024657D02*
X007780Y024612D01*
X007644Y024612D01*
X007644Y024522D02*
X007644Y024792D01*
X007780Y024792D01*
X007825Y024747D01*
X007825Y024657D01*
X007735Y024612D02*
X007825Y024522D01*
X007939Y024522D02*
X007939Y024792D01*
X007998Y024377D02*
X007998Y024197D01*
X007998Y024287D02*
X007728Y024287D01*
X007818Y024197D01*
X007773Y024083D02*
X007863Y024083D01*
X007908Y024038D01*
X007908Y023902D01*
X007998Y023902D02*
X007728Y023902D01*
X007728Y024038D01*
X007773Y024083D01*
X007908Y023993D02*
X007998Y024083D01*
X006188Y024522D02*
X006008Y024522D01*
X006188Y024702D01*
X006188Y024747D01*
X006143Y024792D01*
X006053Y024792D01*
X006008Y024747D01*
X005894Y024702D02*
X005759Y024702D01*
X005713Y024657D01*
X005759Y024612D01*
X005849Y024612D01*
X005894Y024567D01*
X005849Y024522D01*
X005713Y024522D01*
X005599Y024522D02*
X005509Y024612D01*
X005554Y024612D02*
X005419Y024612D01*
X005419Y024522D02*
X005419Y024792D01*
X005554Y024792D01*
X005599Y024747D01*
X005599Y024657D01*
X005554Y024612D01*
X005188Y024702D02*
X005188Y024747D01*
X005143Y024792D01*
X005053Y024792D01*
X005008Y024747D01*
X004894Y024657D02*
X004894Y024522D01*
X005008Y024522D02*
X005188Y024702D01*
X005188Y024522D02*
X005008Y024522D01*
X004894Y024657D02*
X004849Y024702D01*
X004759Y024702D01*
X004713Y024657D01*
X004599Y024657D02*
X004554Y024612D01*
X004419Y024612D01*
X004509Y024612D02*
X004599Y024522D01*
X004713Y024522D02*
X004713Y024792D01*
X004599Y024747D02*
X004599Y024657D01*
X004599Y024747D02*
X004554Y024792D01*
X004419Y024792D01*
X004419Y024522D01*
X004138Y024522D02*
X003958Y024522D01*
X004048Y024522D02*
X004048Y024792D01*
X003958Y024702D01*
X003844Y024657D02*
X003844Y024522D01*
X003844Y024657D02*
X003799Y024702D01*
X003709Y024702D01*
X003663Y024657D01*
X003549Y024657D02*
X003504Y024612D01*
X003369Y024612D01*
X003459Y024612D02*
X003549Y024522D01*
X003663Y024522D02*
X003663Y024792D01*
X003549Y024747D02*
X003549Y024657D01*
X003549Y024747D02*
X003504Y024792D01*
X003369Y024792D01*
X003369Y024522D01*
X003453Y024287D02*
X003723Y024287D01*
X003723Y024197D02*
X003723Y024377D01*
X003543Y024197D02*
X003453Y024287D01*
X003498Y024083D02*
X003588Y024083D01*
X003633Y024038D01*
X003633Y023902D01*
X003723Y023902D02*
X003453Y023902D01*
X003453Y024038D01*
X003498Y024083D01*
X003633Y023993D02*
X003723Y024083D01*
X003723Y021477D02*
X003723Y021297D01*
X003453Y021297D01*
X003498Y021183D02*
X003588Y021183D01*
X003633Y021138D01*
X003633Y021002D01*
X003723Y021002D02*
X003453Y021002D01*
X003453Y021138D01*
X003498Y021183D01*
X003633Y021093D02*
X003723Y021183D01*
X003697Y020812D02*
X003878Y020542D01*
X003878Y020812D01*
X003992Y020812D02*
X003992Y020542D01*
X004127Y020542D01*
X004172Y020587D01*
X004172Y020767D01*
X004127Y020812D01*
X003992Y020812D01*
X003697Y020812D02*
X003697Y020542D01*
X003583Y020587D02*
X003583Y020677D01*
X003493Y020677D01*
X003583Y020767D02*
X003538Y020812D01*
X003448Y020812D01*
X003403Y020767D01*
X003403Y020587D01*
X003448Y020542D01*
X003538Y020542D01*
X003583Y020587D01*
X004403Y020632D02*
X004538Y020632D01*
X004583Y020677D01*
X004583Y020767D01*
X004538Y020812D01*
X004403Y020812D01*
X004403Y020542D01*
X004493Y020632D02*
X004583Y020542D01*
X004697Y020542D02*
X004833Y020542D01*
X004878Y020587D01*
X004833Y020632D01*
X004742Y020632D01*
X004697Y020677D01*
X004742Y020722D01*
X004878Y020722D01*
X004992Y020722D02*
X005082Y020812D01*
X005082Y020542D01*
X004992Y020542D02*
X005172Y020542D01*
X005553Y020587D02*
X005598Y020542D01*
X005688Y020542D01*
X005733Y020587D01*
X005733Y020677D01*
X005688Y020722D01*
X005643Y020722D01*
X005553Y020677D01*
X005553Y020812D01*
X005733Y020812D01*
X005847Y020812D02*
X005847Y020632D01*
X005938Y020542D01*
X006028Y020632D01*
X006028Y020812D01*
X007678Y020767D02*
X007678Y020587D01*
X007723Y020542D01*
X007814Y020542D01*
X007859Y020587D01*
X007859Y020677D01*
X007768Y020677D01*
X007678Y020767D02*
X007723Y020812D01*
X007814Y020812D01*
X007859Y020767D01*
X007973Y020812D02*
X008153Y020542D01*
X008153Y020812D01*
X008268Y020812D02*
X008403Y020812D01*
X008448Y020767D01*
X008448Y020587D01*
X008403Y020542D01*
X008268Y020542D01*
X008268Y020812D01*
X007973Y020812D02*
X007973Y020542D01*
X008678Y020542D02*
X008678Y020812D01*
X008814Y020812D01*
X008859Y020767D01*
X008859Y020677D01*
X008814Y020632D01*
X008678Y020632D01*
X008768Y020632D02*
X008859Y020542D01*
X008973Y020542D02*
X009108Y020542D01*
X009153Y020587D01*
X009108Y020632D01*
X009018Y020632D01*
X008973Y020677D01*
X009018Y020722D01*
X009153Y020722D01*
X009268Y020722D02*
X009358Y020812D01*
X009358Y020542D01*
X009268Y020542D02*
X009448Y020542D01*
X009828Y020587D02*
X009873Y020542D01*
X009964Y020542D01*
X010009Y020587D01*
X010009Y020677D01*
X009964Y020722D01*
X009918Y020722D01*
X009828Y020677D01*
X009828Y020812D01*
X010009Y020812D01*
X010123Y020812D02*
X010123Y020632D01*
X010213Y020542D01*
X010303Y020632D01*
X010303Y020812D01*
X012004Y021002D02*
X012004Y021138D01*
X012049Y021183D01*
X012139Y021183D01*
X012184Y021138D01*
X012184Y021002D01*
X012274Y021002D02*
X012004Y021002D01*
X012184Y021093D02*
X012274Y021183D01*
X012274Y021297D02*
X012004Y021297D01*
X012274Y021297D02*
X012274Y021477D01*
X007998Y021477D02*
X007998Y021297D01*
X007728Y021297D01*
X007773Y021183D02*
X007863Y021183D01*
X007908Y021138D01*
X007908Y021002D01*
X007998Y021002D02*
X007728Y021002D01*
X007728Y021138D01*
X007773Y021183D01*
X007908Y021093D02*
X007998Y021183D01*
D11*
X008119Y021289D02*
X008355Y021289D01*
X008119Y021289D02*
X008119Y021919D01*
X008119Y022381D02*
X008119Y022460D01*
X008119Y022873D02*
X008119Y022952D01*
X008119Y023415D02*
X008119Y024045D01*
X008355Y024045D01*
X008828Y024045D02*
X009379Y024045D01*
X009851Y024045D02*
X010088Y024045D01*
X010088Y023415D01*
X010633Y023342D02*
X010973Y023569D01*
X010633Y023569D01*
X010690Y023710D02*
X010633Y023767D01*
X010633Y023880D01*
X010690Y023937D01*
X010917Y023937D01*
X010973Y023880D01*
X010973Y023767D01*
X010917Y023710D01*
X010690Y023710D01*
X010690Y024078D02*
X010633Y024135D01*
X010633Y024249D01*
X010690Y024305D01*
X010747Y024305D01*
X010973Y024078D01*
X010973Y024305D01*
X010973Y023342D02*
X010633Y023342D01*
X010088Y022952D02*
X010088Y022873D01*
X010088Y022460D02*
X010088Y022381D01*
X010088Y021919D02*
X010088Y021289D01*
X009851Y021289D01*
X009379Y021289D02*
X008828Y021289D01*
X006698Y023342D02*
X006358Y023342D01*
X006698Y023569D01*
X006358Y023569D01*
X006414Y023710D02*
X006641Y023710D01*
X006698Y023767D01*
X006698Y023880D01*
X006641Y023937D01*
X006414Y023937D01*
X006358Y023880D01*
X006358Y023767D01*
X006414Y023710D01*
X006414Y024078D02*
X006358Y024135D01*
X006358Y024249D01*
X006414Y024305D01*
X006471Y024305D01*
X006698Y024078D01*
X006698Y024305D01*
X005812Y024045D02*
X005576Y024045D01*
X005812Y024045D02*
X005812Y023415D01*
X005812Y022952D02*
X005812Y022873D01*
X005812Y022460D02*
X005812Y022381D01*
X005812Y021919D02*
X005812Y021289D01*
X005576Y021289D01*
X005103Y021289D02*
X004552Y021289D01*
X004080Y021289D02*
X003844Y021289D01*
X003844Y021919D01*
X003844Y022381D02*
X003844Y022460D01*
X003844Y022873D02*
X003844Y022952D01*
X003844Y023415D02*
X003844Y024045D01*
X004080Y024045D01*
X004552Y024045D02*
X005103Y024045D01*
X012395Y024045D02*
X012395Y023415D01*
X012395Y022952D02*
X012395Y022873D01*
X012395Y022460D02*
X012395Y022381D01*
X012395Y021919D02*
X012395Y021289D01*
X012631Y021289D01*
X013103Y021289D02*
X013655Y021289D01*
X014127Y021289D02*
X014363Y021289D01*
X014363Y021919D01*
X014363Y022381D02*
X014363Y022460D01*
X014363Y022873D02*
X014363Y022952D01*
X014363Y023415D02*
X014363Y024045D01*
X014127Y024045D01*
X013655Y024045D02*
X013103Y024045D01*
X012631Y024045D02*
X012395Y024045D01*
X014909Y024135D02*
X014965Y024078D01*
X014909Y024135D02*
X014909Y024249D01*
X014965Y024305D01*
X015022Y024305D01*
X015249Y024078D01*
X015249Y024305D01*
X015192Y023937D02*
X014965Y023937D01*
X014909Y023880D01*
X014909Y023767D01*
X014965Y023710D01*
X015192Y023710D01*
X015249Y023767D01*
X015249Y023880D01*
X015192Y023937D01*
X015249Y023569D02*
X014909Y023569D01*
X014909Y023342D02*
X015249Y023569D01*
X015249Y023342D02*
X014909Y023342D01*
X016670Y023415D02*
X016670Y024045D01*
X016907Y024045D01*
X017379Y024045D02*
X017930Y024045D01*
X018403Y024045D02*
X018639Y024045D01*
X018639Y023415D01*
X019184Y023342D02*
X019525Y023569D01*
X019184Y023569D01*
X019241Y023710D02*
X019468Y023710D01*
X019525Y023767D01*
X019525Y023880D01*
X019468Y023937D01*
X019241Y023937D01*
X019184Y023880D01*
X019184Y023767D01*
X019241Y023710D01*
X019241Y024078D02*
X019184Y024135D01*
X019184Y024249D01*
X019241Y024305D01*
X019298Y024305D01*
X019525Y024078D01*
X019525Y024305D01*
X019525Y023342D02*
X019184Y023342D01*
X018639Y022952D02*
X018639Y022873D01*
X018639Y022460D02*
X018639Y022381D01*
X018639Y021919D02*
X018639Y021289D01*
X018403Y021289D01*
X017930Y021289D02*
X017379Y021289D01*
X016907Y021289D02*
X016670Y021289D01*
X016670Y021919D01*
X016670Y022381D02*
X016670Y022460D01*
X016670Y022873D02*
X016670Y022952D01*
X020946Y022952D02*
X020946Y022873D01*
X020946Y022460D02*
X020946Y022381D01*
X020946Y021919D02*
X020946Y021289D01*
X021182Y021289D01*
X021655Y021289D02*
X022206Y021289D01*
X022678Y021289D02*
X022914Y021289D01*
X022914Y021919D01*
X022914Y022381D02*
X022914Y022460D01*
X022914Y022873D02*
X022914Y022952D01*
X022914Y023415D02*
X022914Y024045D01*
X022678Y024045D01*
X022206Y024045D02*
X021655Y024045D01*
X021182Y024045D02*
X020946Y024045D01*
X020946Y023415D01*
X023460Y023342D02*
X023800Y023569D01*
X023460Y023569D01*
X023517Y023710D02*
X023743Y023710D01*
X023800Y023767D01*
X023800Y023880D01*
X023743Y023937D01*
X023517Y023937D01*
X023460Y023880D01*
X023460Y023767D01*
X023517Y023710D01*
X023517Y024078D02*
X023460Y024135D01*
X023460Y024249D01*
X023517Y024305D01*
X023573Y024305D01*
X023800Y024078D01*
X023800Y024305D01*
X023800Y023342D02*
X023460Y023342D01*
X025221Y023415D02*
X025221Y024045D01*
X025458Y024045D01*
X025930Y024045D02*
X026481Y024045D01*
X026954Y024045D02*
X027190Y024045D01*
X027190Y023415D01*
X027190Y022952D02*
X027190Y022873D01*
X027190Y022460D02*
X027190Y022381D01*
X027190Y021919D02*
X027190Y021289D01*
X026954Y021289D01*
X026481Y021289D02*
X025930Y021289D01*
X025458Y021289D02*
X025221Y021289D01*
X025221Y021919D01*
X025221Y022381D02*
X025221Y022460D01*
X025221Y022873D02*
X025221Y022952D01*
X027735Y023342D02*
X028076Y023569D01*
X027735Y023569D01*
X027792Y023710D02*
X028019Y023710D01*
X028076Y023767D01*
X028076Y023880D01*
X028019Y023937D01*
X027792Y023937D01*
X027735Y023880D01*
X027735Y023767D01*
X027792Y023710D01*
X027792Y024078D02*
X027735Y024135D01*
X027735Y024249D01*
X027792Y024305D01*
X027849Y024305D01*
X028076Y024078D01*
X028076Y024305D01*
X028076Y023342D02*
X027735Y023342D01*
X029497Y023415D02*
X029497Y024045D01*
X029733Y024045D01*
X030206Y024045D02*
X030757Y024045D01*
X031229Y024045D02*
X031466Y024045D01*
X031466Y023415D01*
X031466Y022952D02*
X031466Y022873D01*
X031466Y022460D02*
X031466Y022381D01*
X031466Y021919D02*
X031466Y021289D01*
X031229Y021289D01*
X030757Y021289D02*
X030206Y021289D01*
X029733Y021289D02*
X029497Y021289D01*
X029497Y021919D01*
X029497Y022381D02*
X029497Y022460D01*
X029497Y022873D02*
X029497Y022952D01*
X032011Y023342D02*
X032351Y023569D01*
X032011Y023569D01*
X032068Y023710D02*
X032295Y023710D01*
X032351Y023767D01*
X032351Y023880D01*
X032295Y023937D01*
X032068Y023937D01*
X032011Y023880D01*
X032011Y023767D01*
X032068Y023710D01*
X032068Y024078D02*
X032011Y024135D01*
X032011Y024249D01*
X032068Y024305D01*
X032124Y024305D01*
X032351Y024078D01*
X032351Y024305D01*
X032351Y023342D02*
X032011Y023342D01*
X033773Y023415D02*
X033773Y024045D01*
X034009Y024045D01*
X034481Y024045D02*
X035033Y024045D01*
X035505Y024045D02*
X035741Y024045D01*
X035741Y023415D01*
X036287Y023342D02*
X036627Y023569D01*
X036287Y023569D01*
X036343Y023710D02*
X036287Y023767D01*
X036287Y023880D01*
X036343Y023937D01*
X036570Y023937D01*
X036627Y023880D01*
X036627Y023767D01*
X036570Y023710D01*
X036343Y023710D01*
X036343Y024078D02*
X036287Y024135D01*
X036287Y024249D01*
X036343Y024305D01*
X036400Y024305D01*
X036627Y024078D01*
X036627Y024305D01*
X036627Y023342D02*
X036287Y023342D01*
X035741Y022952D02*
X035741Y022873D01*
X035741Y022460D02*
X035741Y022381D01*
X035741Y021919D02*
X035741Y021289D01*
X035505Y021289D01*
X035033Y021289D02*
X034481Y021289D01*
X034009Y021289D02*
X033773Y021289D01*
X033773Y021919D01*
X033773Y022381D02*
X033773Y022460D01*
X033773Y022873D02*
X033773Y022952D01*
X032351Y017830D02*
X032351Y017603D01*
X032124Y017830D01*
X032068Y017830D01*
X032011Y017773D01*
X032011Y017660D01*
X032068Y017603D01*
X032068Y017461D02*
X032011Y017405D01*
X032011Y017291D01*
X032068Y017235D01*
X032295Y017235D01*
X032351Y017291D01*
X032351Y017405D01*
X032295Y017461D01*
X032068Y017461D01*
X032011Y017093D02*
X032351Y017093D01*
X032011Y016866D01*
X032351Y016866D01*
X031466Y016939D02*
X031466Y017569D01*
X031229Y017569D01*
X030757Y017569D02*
X030206Y017569D01*
X029733Y017569D02*
X029497Y017569D01*
X029497Y016939D01*
X029497Y016477D02*
X029497Y016398D01*
X029497Y015984D02*
X029497Y015906D01*
X029497Y015443D02*
X029497Y014813D01*
X029733Y014813D01*
X030206Y014813D02*
X030757Y014813D01*
X031229Y014813D02*
X031466Y014813D01*
X031466Y015443D01*
X031466Y015906D02*
X031466Y015984D01*
X031466Y016398D02*
X031466Y016477D01*
X033773Y016477D02*
X033773Y016398D01*
X033773Y015984D02*
X033773Y015906D01*
X033773Y015443D02*
X033773Y014813D01*
X034009Y014813D01*
X034481Y014813D02*
X035033Y014813D01*
X035505Y014813D02*
X035741Y014813D01*
X035741Y015443D01*
X035741Y015906D02*
X035741Y015984D01*
X035741Y016398D02*
X035741Y016477D01*
X035741Y016939D02*
X035741Y017569D01*
X035505Y017569D01*
X035033Y017569D02*
X034481Y017569D01*
X034009Y017569D02*
X033773Y017569D01*
X033773Y016939D01*
X036287Y016866D02*
X036627Y017093D01*
X036287Y017093D01*
X036343Y017235D02*
X036287Y017291D01*
X036287Y017405D01*
X036343Y017461D01*
X036570Y017461D01*
X036627Y017405D01*
X036627Y017291D01*
X036570Y017235D01*
X036343Y017235D01*
X036343Y017603D02*
X036287Y017660D01*
X036287Y017773D01*
X036343Y017830D01*
X036400Y017830D01*
X036627Y017603D01*
X036627Y017830D01*
X036627Y016866D02*
X036287Y016866D01*
X028076Y016866D02*
X027735Y016866D01*
X028076Y017093D01*
X027735Y017093D01*
X027792Y017235D02*
X028019Y017235D01*
X028076Y017291D01*
X028076Y017405D01*
X028019Y017461D01*
X027792Y017461D01*
X027735Y017405D01*
X027735Y017291D01*
X027792Y017235D01*
X027792Y017603D02*
X027735Y017660D01*
X027735Y017773D01*
X027792Y017830D01*
X027849Y017830D01*
X028076Y017603D01*
X028076Y017830D01*
X027190Y017569D02*
X027190Y016939D01*
X027190Y016477D02*
X027190Y016398D01*
X027190Y015984D02*
X027190Y015906D01*
X027190Y015443D02*
X027190Y014813D01*
X026954Y014813D01*
X026481Y014813D02*
X025930Y014813D01*
X025458Y014813D02*
X025221Y014813D01*
X025221Y015443D01*
X025221Y015906D02*
X025221Y015984D01*
X025221Y016398D02*
X025221Y016477D01*
X025221Y016939D02*
X025221Y017569D01*
X025458Y017569D01*
X025930Y017569D02*
X026481Y017569D01*
X026954Y017569D02*
X027190Y017569D01*
X023800Y017603D02*
X023573Y017830D01*
X023517Y017830D01*
X023460Y017773D01*
X023460Y017660D01*
X023517Y017603D01*
X023517Y017461D02*
X023460Y017405D01*
X023460Y017291D01*
X023517Y017235D01*
X023743Y017235D01*
X023800Y017291D01*
X023800Y017405D01*
X023743Y017461D01*
X023517Y017461D01*
X023800Y017603D02*
X023800Y017830D01*
X022914Y017569D02*
X022678Y017569D01*
X022914Y017569D02*
X022914Y016939D01*
X023460Y016866D02*
X023800Y017093D01*
X023460Y017093D01*
X023460Y016866D02*
X023800Y016866D01*
X022914Y016477D02*
X022914Y016398D01*
X022914Y015984D02*
X022914Y015906D01*
X022914Y015443D02*
X022914Y014813D01*
X022678Y014813D01*
X022206Y014813D02*
X021655Y014813D01*
X021182Y014813D02*
X020946Y014813D01*
X020946Y015443D01*
X020946Y015906D02*
X020946Y015984D01*
X020946Y016398D02*
X020946Y016477D01*
X020946Y016939D02*
X020946Y017569D01*
X021182Y017569D01*
X021655Y017569D02*
X022206Y017569D01*
X019525Y017603D02*
X019298Y017830D01*
X019241Y017830D01*
X019184Y017773D01*
X019184Y017660D01*
X019241Y017603D01*
X019241Y017461D02*
X019184Y017405D01*
X019184Y017291D01*
X019241Y017235D01*
X019468Y017235D01*
X019525Y017291D01*
X019525Y017405D01*
X019468Y017461D01*
X019241Y017461D01*
X019525Y017603D02*
X019525Y017830D01*
X018639Y017569D02*
X018403Y017569D01*
X018639Y017569D02*
X018639Y016939D01*
X019184Y016866D02*
X019525Y017093D01*
X019184Y017093D01*
X019184Y016866D02*
X019525Y016866D01*
X018639Y016477D02*
X018639Y016398D01*
X018639Y015984D02*
X018639Y015906D01*
X018639Y015443D02*
X018639Y014813D01*
X018403Y014813D01*
X017930Y014813D02*
X017379Y014813D01*
X016907Y014813D02*
X016670Y014813D01*
X016670Y015443D01*
X016670Y015906D02*
X016670Y015984D01*
X016670Y016398D02*
X016670Y016477D01*
X016670Y016939D02*
X016670Y017569D01*
X016907Y017569D01*
X017379Y017569D02*
X017930Y017569D01*
X015249Y017603D02*
X015022Y017830D01*
X014965Y017830D01*
X014909Y017773D01*
X014909Y017660D01*
X014965Y017603D01*
X014965Y017461D02*
X014909Y017405D01*
X014909Y017291D01*
X014965Y017235D01*
X015192Y017235D01*
X015249Y017291D01*
X015249Y017405D01*
X015192Y017461D01*
X014965Y017461D01*
X015249Y017603D02*
X015249Y017830D01*
X014363Y017569D02*
X014127Y017569D01*
X014363Y017569D02*
X014363Y016939D01*
X014909Y016866D02*
X015249Y017093D01*
X014909Y017093D01*
X014909Y016866D02*
X015249Y016866D01*
X014363Y016477D02*
X014363Y016398D01*
X014363Y015984D02*
X014363Y015906D01*
X014363Y015443D02*
X014363Y014813D01*
X014127Y014813D01*
X013655Y014813D02*
X013103Y014813D01*
X012631Y014813D02*
X012395Y014813D01*
X012395Y015443D01*
X012395Y015906D02*
X012395Y015984D01*
X012395Y016398D02*
X012395Y016477D01*
X012395Y016939D02*
X012395Y017569D01*
X012631Y017569D01*
X013103Y017569D02*
X013655Y017569D01*
X010973Y017603D02*
X010747Y017830D01*
X010690Y017830D01*
X010633Y017773D01*
X010633Y017660D01*
X010690Y017603D01*
X010690Y017461D02*
X010633Y017405D01*
X010633Y017291D01*
X010690Y017235D01*
X010917Y017235D01*
X010973Y017291D01*
X010973Y017405D01*
X010917Y017461D01*
X010690Y017461D01*
X010973Y017603D02*
X010973Y017830D01*
X010088Y017569D02*
X009851Y017569D01*
X010088Y017569D02*
X010088Y016939D01*
X010633Y016866D02*
X010973Y017093D01*
X010633Y017093D01*
X010633Y016866D02*
X010973Y016866D01*
X010088Y016477D02*
X010088Y016398D01*
X010088Y015984D02*
X010088Y015906D01*
X010088Y015443D02*
X010088Y014813D01*
X009851Y014813D01*
X009379Y014813D02*
X008828Y014813D01*
X008355Y014813D02*
X008119Y014813D01*
X008119Y015443D01*
X008119Y015906D02*
X008119Y015984D01*
X008119Y016398D02*
X008119Y016477D01*
X008119Y016939D02*
X008119Y017569D01*
X008355Y017569D01*
X008828Y017569D02*
X009379Y017569D01*
X006698Y017603D02*
X006471Y017830D01*
X006414Y017830D01*
X006358Y017773D01*
X006358Y017660D01*
X006414Y017603D01*
X006414Y017461D02*
X006358Y017405D01*
X006358Y017291D01*
X006414Y017235D01*
X006641Y017235D01*
X006698Y017291D01*
X006698Y017405D01*
X006641Y017461D01*
X006414Y017461D01*
X006698Y017603D02*
X006698Y017830D01*
X005812Y017569D02*
X005576Y017569D01*
X005812Y017569D02*
X005812Y016939D01*
X005812Y016477D02*
X005812Y016398D01*
X005812Y015984D02*
X005812Y015906D01*
X005812Y015443D02*
X005812Y014813D01*
X005576Y014813D01*
X005103Y014813D02*
X004552Y014813D01*
X004080Y014813D02*
X003844Y014813D01*
X003844Y015443D01*
X003844Y015906D02*
X003844Y015984D01*
X003844Y016398D02*
X003844Y016477D01*
X003844Y016939D02*
X003844Y017569D01*
X004080Y017569D01*
X004552Y017569D02*
X005103Y017569D01*
X006358Y017093D02*
X006698Y017093D01*
X006358Y016866D01*
X006698Y016866D01*
X006698Y011354D02*
X006698Y011127D01*
X006471Y011354D01*
X006414Y011354D01*
X006358Y011297D01*
X006358Y011184D01*
X006414Y011127D01*
X006414Y010986D02*
X006358Y010929D01*
X006358Y010816D01*
X006414Y010759D01*
X006641Y010759D01*
X006698Y010816D01*
X006698Y010929D01*
X006641Y010986D01*
X006414Y010986D01*
X006358Y010618D02*
X006698Y010618D01*
X006358Y010391D01*
X006698Y010391D01*
X005812Y010464D02*
X005812Y011094D01*
X005576Y011094D01*
X005103Y011094D02*
X004552Y011094D01*
X004080Y011094D02*
X003844Y011094D01*
X003844Y010464D01*
X003844Y010001D02*
X003844Y009922D01*
X003844Y009509D02*
X003844Y009430D01*
X003844Y008968D02*
X003844Y008338D01*
X004080Y008338D01*
X004552Y008338D02*
X005103Y008338D01*
X005576Y008338D02*
X005812Y008338D01*
X005812Y008968D01*
X005812Y009430D02*
X005812Y009509D01*
X005812Y009922D02*
X005812Y010001D01*
X008119Y010001D02*
X008119Y009922D01*
X008119Y009509D02*
X008119Y009430D01*
X008119Y008968D02*
X008119Y008338D01*
X008355Y008338D01*
X008828Y008338D02*
X009379Y008338D01*
X009851Y008338D02*
X010088Y008338D01*
X010088Y008968D01*
X010088Y009430D02*
X010088Y009509D01*
X010088Y009922D02*
X010088Y010001D01*
X010088Y010464D02*
X010088Y011094D01*
X009851Y011094D01*
X009379Y011094D02*
X008828Y011094D01*
X008355Y011094D02*
X008119Y011094D01*
X008119Y010464D01*
X010633Y010391D02*
X010973Y010618D01*
X010633Y010618D01*
X010690Y010759D02*
X010633Y010816D01*
X010633Y010929D01*
X010690Y010986D01*
X010917Y010986D01*
X010973Y010929D01*
X010973Y010816D01*
X010917Y010759D01*
X010690Y010759D01*
X010690Y011127D02*
X010633Y011184D01*
X010633Y011297D01*
X010690Y011354D01*
X010747Y011354D01*
X010973Y011127D01*
X010973Y011354D01*
X010973Y010391D02*
X010633Y010391D01*
X012395Y010464D02*
X012395Y011094D01*
X012631Y011094D01*
X013103Y011094D02*
X013655Y011094D01*
X014127Y011094D02*
X014363Y011094D01*
X014363Y010464D01*
X014909Y010391D02*
X015249Y010618D01*
X014909Y010618D01*
X014965Y010759D02*
X015192Y010759D01*
X015249Y010816D01*
X015249Y010929D01*
X015192Y010986D01*
X014965Y010986D01*
X014909Y010929D01*
X014909Y010816D01*
X014965Y010759D01*
X014965Y011127D02*
X014909Y011184D01*
X014909Y011297D01*
X014965Y011354D01*
X015022Y011354D01*
X015249Y011127D01*
X015249Y011354D01*
X015249Y010391D02*
X014909Y010391D01*
X014363Y010001D02*
X014363Y009922D01*
X014363Y009509D02*
X014363Y009430D01*
X014363Y008968D02*
X014363Y008338D01*
X014127Y008338D01*
X013655Y008338D02*
X013103Y008338D01*
X012631Y008338D02*
X012395Y008338D01*
X012395Y008968D01*
X012395Y009430D02*
X012395Y009509D01*
X012395Y009922D02*
X012395Y010001D01*
X016670Y010001D02*
X016670Y009922D01*
X016670Y009509D02*
X016670Y009430D01*
X016670Y008968D02*
X016670Y008338D01*
X016907Y008338D01*
X017379Y008338D02*
X017930Y008338D01*
X018403Y008338D02*
X018639Y008338D01*
X018639Y008968D01*
X018639Y009430D02*
X018639Y009509D01*
X018639Y009922D02*
X018639Y010001D01*
X018639Y010464D02*
X018639Y011094D01*
X018403Y011094D01*
X017930Y011094D02*
X017379Y011094D01*
X016907Y011094D02*
X016670Y011094D01*
X016670Y010464D01*
X019184Y010391D02*
X019525Y010618D01*
X019184Y010618D01*
X019241Y010759D02*
X019468Y010759D01*
X019525Y010816D01*
X019525Y010929D01*
X019468Y010986D01*
X019241Y010986D01*
X019184Y010929D01*
X019184Y010816D01*
X019241Y010759D01*
X019241Y011127D02*
X019184Y011184D01*
X019184Y011297D01*
X019241Y011354D01*
X019298Y011354D01*
X019525Y011127D01*
X019525Y011354D01*
X019525Y010391D02*
X019184Y010391D01*
X020946Y010464D02*
X020946Y011094D01*
X021182Y011094D01*
X021655Y011094D02*
X022206Y011094D01*
X022678Y011094D02*
X022914Y011094D01*
X022914Y010464D01*
X023460Y010391D02*
X023800Y010618D01*
X023460Y010618D01*
X023517Y010759D02*
X023743Y010759D01*
X023800Y010816D01*
X023800Y010929D01*
X023743Y010986D01*
X023517Y010986D01*
X023460Y010929D01*
X023460Y010816D01*
X023517Y010759D01*
X023517Y011127D02*
X023460Y011184D01*
X023460Y011297D01*
X023517Y011354D01*
X023573Y011354D01*
X023800Y011127D01*
X023800Y011354D01*
X023800Y010391D02*
X023460Y010391D01*
X022914Y010001D02*
X022914Y009922D01*
X022914Y009509D02*
X022914Y009430D01*
X022914Y008968D02*
X022914Y008338D01*
X022678Y008338D01*
X022206Y008338D02*
X021655Y008338D01*
X021182Y008338D02*
X020946Y008338D01*
X020946Y008968D01*
X020946Y009430D02*
X020946Y009509D01*
X020946Y009922D02*
X020946Y010001D01*
X025221Y010001D02*
X025221Y009922D01*
X025221Y009509D02*
X025221Y009430D01*
X025221Y008968D02*
X025221Y008338D01*
X025458Y008338D01*
X025930Y008338D02*
X026481Y008338D01*
X026954Y008338D02*
X027190Y008338D01*
X027190Y008968D01*
X027190Y009430D02*
X027190Y009509D01*
X027190Y009922D02*
X027190Y010001D01*
X027190Y010464D02*
X027190Y011094D01*
X026954Y011094D01*
X026481Y011094D02*
X025930Y011094D01*
X025458Y011094D02*
X025221Y011094D01*
X025221Y010464D01*
X027735Y010391D02*
X028076Y010618D01*
X027735Y010618D01*
X027792Y010759D02*
X028019Y010759D01*
X028076Y010816D01*
X028076Y010929D01*
X028019Y010986D01*
X027792Y010986D01*
X027735Y010929D01*
X027735Y010816D01*
X027792Y010759D01*
X027792Y011127D02*
X027735Y011184D01*
X027735Y011297D01*
X027792Y011354D01*
X027849Y011354D01*
X028076Y011127D01*
X028076Y011354D01*
X028076Y010391D02*
X027735Y010391D01*
X029497Y010464D02*
X029497Y011094D01*
X029733Y011094D01*
X030206Y011094D02*
X030757Y011094D01*
X031229Y011094D02*
X031466Y011094D01*
X031466Y010464D01*
X031466Y010001D02*
X031466Y009922D01*
X031466Y009509D02*
X031466Y009430D01*
X031466Y008968D02*
X031466Y008338D01*
X031229Y008338D01*
X030757Y008338D02*
X030206Y008338D01*
X029733Y008338D02*
X029497Y008338D01*
X029497Y008968D01*
X029497Y009430D02*
X029497Y009509D01*
X029497Y009922D02*
X029497Y010001D01*
X032011Y010391D02*
X032351Y010618D01*
X032011Y010618D01*
X032068Y010759D02*
X032295Y010759D01*
X032351Y010816D01*
X032351Y010929D01*
X032295Y010986D01*
X032068Y010986D01*
X032011Y010929D01*
X032011Y010816D01*
X032068Y010759D01*
X032068Y011127D02*
X032011Y011184D01*
X032011Y011297D01*
X032068Y011354D01*
X032124Y011354D01*
X032351Y011127D01*
X032351Y011354D01*
X032351Y010391D02*
X032011Y010391D01*
X033773Y010464D02*
X033773Y011094D01*
X034009Y011094D01*
X034481Y011094D02*
X035033Y011094D01*
X035505Y011094D02*
X035741Y011094D01*
X035741Y010464D01*
X036287Y010391D02*
X036627Y010618D01*
X036287Y010618D01*
X036343Y010759D02*
X036287Y010816D01*
X036287Y010929D01*
X036343Y010986D01*
X036570Y010986D01*
X036627Y010929D01*
X036627Y010816D01*
X036570Y010759D01*
X036343Y010759D01*
X036343Y011127D02*
X036287Y011184D01*
X036287Y011297D01*
X036343Y011354D01*
X036400Y011354D01*
X036627Y011127D01*
X036627Y011354D01*
X036627Y010391D02*
X036287Y010391D01*
X035741Y010001D02*
X035741Y009922D01*
X035741Y009509D02*
X035741Y009430D01*
X035741Y008968D02*
X035741Y008338D01*
X035505Y008338D01*
X035033Y008338D02*
X034481Y008338D01*
X034009Y008338D02*
X033773Y008338D01*
X033773Y008968D01*
X033773Y009430D02*
X033773Y009509D01*
X033773Y009922D02*
X033773Y010001D01*
X032351Y004879D02*
X032351Y004652D01*
X032124Y004879D01*
X032068Y004879D01*
X032011Y004822D01*
X032011Y004708D01*
X032068Y004652D01*
X032068Y004510D02*
X032011Y004454D01*
X032011Y004340D01*
X032068Y004283D01*
X032295Y004283D01*
X032351Y004340D01*
X032351Y004454D01*
X032295Y004510D01*
X032068Y004510D01*
X032011Y004142D02*
X032351Y004142D01*
X032011Y003915D01*
X032351Y003915D01*
X031466Y003988D02*
X031466Y004618D01*
X031229Y004618D01*
X030757Y004618D02*
X030206Y004618D01*
X029733Y004618D02*
X029497Y004618D01*
X029497Y003988D01*
X029497Y003525D02*
X029497Y003447D01*
X029497Y003033D02*
X029497Y002955D01*
X029497Y002492D02*
X029497Y001862D01*
X029733Y001862D01*
X030206Y001862D02*
X030757Y001862D01*
X031229Y001862D02*
X031466Y001862D01*
X031466Y002492D01*
X031466Y002955D02*
X031466Y003033D01*
X031466Y003447D02*
X031466Y003525D01*
X033773Y003525D02*
X033773Y003447D01*
X033773Y003033D02*
X033773Y002955D01*
X033773Y002492D02*
X033773Y001862D01*
X034009Y001862D01*
X034481Y001862D02*
X035033Y001862D01*
X035505Y001862D02*
X035741Y001862D01*
X035741Y002492D01*
X035741Y002955D02*
X035741Y003033D01*
X035741Y003447D02*
X035741Y003525D01*
X035741Y003988D02*
X035741Y004618D01*
X035505Y004618D01*
X035033Y004618D02*
X034481Y004618D01*
X034009Y004618D02*
X033773Y004618D01*
X033773Y003988D01*
X036287Y003915D02*
X036627Y004142D01*
X036287Y004142D01*
X036343Y004283D02*
X036287Y004340D01*
X036287Y004454D01*
X036343Y004510D01*
X036570Y004510D01*
X036627Y004454D01*
X036627Y004340D01*
X036570Y004283D01*
X036343Y004283D01*
X036343Y004652D02*
X036287Y004708D01*
X036287Y004822D01*
X036343Y004879D01*
X036400Y004879D01*
X036627Y004652D01*
X036627Y004879D01*
X036627Y003915D02*
X036287Y003915D01*
X028076Y003915D02*
X027735Y003915D01*
X028076Y004142D01*
X027735Y004142D01*
X027792Y004283D02*
X028019Y004283D01*
X028076Y004340D01*
X028076Y004454D01*
X028019Y004510D01*
X027792Y004510D01*
X027735Y004454D01*
X027735Y004340D01*
X027792Y004283D01*
X027792Y004652D02*
X027735Y004708D01*
X027735Y004822D01*
X027792Y004879D01*
X027849Y004879D01*
X028076Y004652D01*
X028076Y004879D01*
X027190Y004618D02*
X027190Y003988D01*
X027190Y003525D02*
X027190Y003447D01*
X027190Y003033D02*
X027190Y002955D01*
X027190Y002492D02*
X027190Y001862D01*
X026954Y001862D01*
X026481Y001862D02*
X025930Y001862D01*
X025458Y001862D02*
X025221Y001862D01*
X025221Y002492D01*
X025221Y002955D02*
X025221Y003033D01*
X025221Y003447D02*
X025221Y003525D01*
X025221Y003988D02*
X025221Y004618D01*
X025458Y004618D01*
X025930Y004618D02*
X026481Y004618D01*
X026954Y004618D02*
X027190Y004618D01*
X023800Y004652D02*
X023573Y004879D01*
X023517Y004879D01*
X023460Y004822D01*
X023460Y004708D01*
X023517Y004652D01*
X023517Y004510D02*
X023460Y004454D01*
X023460Y004340D01*
X023517Y004283D01*
X023743Y004283D01*
X023800Y004340D01*
X023800Y004454D01*
X023743Y004510D01*
X023517Y004510D01*
X023800Y004652D02*
X023800Y004879D01*
X022914Y004618D02*
X022678Y004618D01*
X022914Y004618D02*
X022914Y003988D01*
X023460Y003915D02*
X023800Y004142D01*
X023460Y004142D01*
X023460Y003915D02*
X023800Y003915D01*
X022914Y003525D02*
X022914Y003447D01*
X022914Y003033D02*
X022914Y002955D01*
X022914Y002492D02*
X022914Y001862D01*
X022678Y001862D01*
X022206Y001862D02*
X021655Y001862D01*
X021182Y001862D02*
X020946Y001862D01*
X020946Y002492D01*
X020946Y002955D02*
X020946Y003033D01*
X020946Y003447D02*
X020946Y003525D01*
X020946Y003988D02*
X020946Y004618D01*
X021182Y004618D01*
X021655Y004618D02*
X022206Y004618D01*
X019525Y004652D02*
X019298Y004879D01*
X019241Y004879D01*
X019184Y004822D01*
X019184Y004708D01*
X019241Y004652D01*
X019241Y004510D02*
X019184Y004454D01*
X019184Y004340D01*
X019241Y004283D01*
X019468Y004283D01*
X019525Y004340D01*
X019525Y004454D01*
X019468Y004510D01*
X019241Y004510D01*
X019525Y004652D02*
X019525Y004879D01*
X018639Y004618D02*
X018403Y004618D01*
X018639Y004618D02*
X018639Y003988D01*
X019184Y003915D02*
X019525Y004142D01*
X019184Y004142D01*
X019184Y003915D02*
X019525Y003915D01*
X018639Y003525D02*
X018639Y003447D01*
X018639Y003033D02*
X018639Y002955D01*
X018639Y002492D02*
X018639Y001862D01*
X018403Y001862D01*
X017930Y001862D02*
X017379Y001862D01*
X016907Y001862D02*
X016670Y001862D01*
X016670Y002492D01*
X016670Y002955D02*
X016670Y003033D01*
X016670Y003447D02*
X016670Y003525D01*
X016670Y003988D02*
X016670Y004618D01*
X016907Y004618D01*
X017379Y004618D02*
X017930Y004618D01*
X015249Y004652D02*
X015022Y004879D01*
X014965Y004879D01*
X014909Y004822D01*
X014909Y004708D01*
X014965Y004652D01*
X014965Y004510D02*
X014909Y004454D01*
X014909Y004340D01*
X014965Y004283D01*
X015192Y004283D01*
X015249Y004340D01*
X015249Y004454D01*
X015192Y004510D01*
X014965Y004510D01*
X015249Y004652D02*
X015249Y004879D01*
X014363Y004618D02*
X014127Y004618D01*
X014363Y004618D02*
X014363Y003988D01*
X014909Y003915D02*
X015249Y004142D01*
X014909Y004142D01*
X014909Y003915D02*
X015249Y003915D01*
X014363Y003525D02*
X014363Y003447D01*
X014363Y003033D02*
X014363Y002955D01*
X014363Y002492D02*
X014363Y001862D01*
X014127Y001862D01*
X013655Y001862D02*
X013103Y001862D01*
X012631Y001862D02*
X012395Y001862D01*
X012395Y002492D01*
X012395Y002955D02*
X012395Y003033D01*
X012395Y003447D02*
X012395Y003525D01*
X012395Y003988D02*
X012395Y004618D01*
X012631Y004618D01*
X013103Y004618D02*
X013655Y004618D01*
X010973Y004652D02*
X010747Y004879D01*
X010690Y004879D01*
X010633Y004822D01*
X010633Y004708D01*
X010690Y004652D01*
X010690Y004510D02*
X010633Y004454D01*
X010633Y004340D01*
X010690Y004283D01*
X010917Y004283D01*
X010973Y004340D01*
X010973Y004454D01*
X010917Y004510D01*
X010690Y004510D01*
X010973Y004652D02*
X010973Y004879D01*
X010088Y004618D02*
X009851Y004618D01*
X010088Y004618D02*
X010088Y003988D01*
X010633Y003915D02*
X010973Y004142D01*
X010633Y004142D01*
X010633Y003915D02*
X010973Y003915D01*
X010088Y003525D02*
X010088Y003447D01*
X010088Y003033D02*
X010088Y002955D01*
X010088Y002492D02*
X010088Y001862D01*
X009851Y001862D01*
X009379Y001862D02*
X008828Y001862D01*
X008355Y001862D02*
X008119Y001862D01*
X008119Y002492D01*
X008119Y002955D02*
X008119Y003033D01*
X008119Y003447D02*
X008119Y003525D01*
X008119Y003988D02*
X008119Y004618D01*
X008355Y004618D01*
X008828Y004618D02*
X009379Y004618D01*
X006698Y004652D02*
X006471Y004879D01*
X006414Y004879D01*
X006358Y004822D01*
X006358Y004708D01*
X006414Y004652D01*
X006414Y004510D02*
X006358Y004454D01*
X006358Y004340D01*
X006414Y004283D01*
X006641Y004283D01*
X006698Y004340D01*
X006698Y004454D01*
X006641Y004510D01*
X006414Y004510D01*
X006698Y004652D02*
X006698Y004879D01*
X005812Y004618D02*
X005576Y004618D01*
X005812Y004618D02*
X005812Y003988D01*
X005812Y003525D02*
X005812Y003447D01*
X005812Y003033D02*
X005812Y002955D01*
X005812Y002492D02*
X005812Y001862D01*
X005576Y001862D01*
X005103Y001862D02*
X004552Y001862D01*
X004080Y001862D02*
X003844Y001862D01*
X003844Y002492D01*
X003844Y002955D02*
X003844Y003033D01*
X003844Y003447D02*
X003844Y003525D01*
X003844Y003988D02*
X003844Y004618D01*
X004080Y004618D01*
X004552Y004618D02*
X005103Y004618D01*
X006358Y004142D02*
X006698Y004142D01*
X006358Y003915D01*
X006698Y003915D01*
D12*
X006574Y005460D02*
X006708Y005527D01*
X006574Y005593D01*
X006574Y005681D02*
X006508Y005748D01*
X006708Y005748D01*
X006708Y005814D02*
X006708Y005681D01*
X006708Y005902D02*
X006708Y005935D01*
X006674Y005935D01*
X006674Y005902D01*
X006708Y005902D01*
X006674Y006012D02*
X006541Y006146D01*
X006674Y006146D01*
X006708Y006113D01*
X006708Y006046D01*
X006674Y006012D01*
X006541Y006012D01*
X006508Y006046D01*
X006508Y006113D01*
X006541Y006146D01*
X010783Y006113D02*
X010817Y006146D01*
X010950Y006012D01*
X010983Y006046D01*
X010983Y006113D01*
X010950Y006146D01*
X010817Y006146D01*
X010783Y006113D02*
X010783Y006046D01*
X010817Y006012D01*
X010950Y006012D01*
X010950Y005935D02*
X010983Y005935D01*
X010983Y005902D01*
X010950Y005902D01*
X010950Y005935D01*
X010983Y005814D02*
X010983Y005681D01*
X010983Y005748D02*
X010783Y005748D01*
X010850Y005681D01*
X010850Y005593D02*
X010983Y005527D01*
X010850Y005460D01*
X015059Y005748D02*
X015126Y005681D01*
X015126Y005593D02*
X015259Y005527D01*
X015126Y005460D01*
X015259Y005681D02*
X015259Y005814D01*
X015259Y005748D02*
X015059Y005748D01*
X015226Y005902D02*
X015226Y005935D01*
X015259Y005935D01*
X015259Y005902D01*
X015226Y005902D01*
X015226Y006012D02*
X015092Y006146D01*
X015226Y006146D01*
X015259Y006113D01*
X015259Y006046D01*
X015226Y006012D01*
X015092Y006012D01*
X015059Y006046D01*
X015059Y006113D01*
X015092Y006146D01*
X019334Y006113D02*
X019368Y006146D01*
X019501Y006012D01*
X019535Y006046D01*
X019535Y006113D01*
X019501Y006146D01*
X019368Y006146D01*
X019334Y006113D02*
X019334Y006046D01*
X019368Y006012D01*
X019501Y006012D01*
X019501Y005935D02*
X019535Y005935D01*
X019535Y005902D01*
X019501Y005902D01*
X019501Y005935D01*
X019535Y005814D02*
X019535Y005681D01*
X019535Y005748D02*
X019334Y005748D01*
X019401Y005681D01*
X019401Y005593D02*
X019535Y005527D01*
X019401Y005460D01*
X023610Y005748D02*
X023677Y005681D01*
X023677Y005593D02*
X023810Y005527D01*
X023677Y005460D01*
X023810Y005681D02*
X023810Y005814D01*
X023810Y005748D02*
X023610Y005748D01*
X023777Y005902D02*
X023777Y005935D01*
X023810Y005935D01*
X023810Y005902D01*
X023777Y005902D01*
X023777Y006012D02*
X023643Y006146D01*
X023777Y006146D01*
X023810Y006113D01*
X023810Y006046D01*
X023777Y006012D01*
X023643Y006012D01*
X023610Y006046D01*
X023610Y006113D01*
X023643Y006146D01*
X027886Y006113D02*
X027919Y006146D01*
X028052Y006012D01*
X028086Y006046D01*
X028086Y006113D01*
X028052Y006146D01*
X027919Y006146D01*
X027886Y006113D02*
X027886Y006046D01*
X027919Y006012D01*
X028052Y006012D01*
X028052Y005935D02*
X028086Y005935D01*
X028086Y005902D01*
X028052Y005902D01*
X028052Y005935D01*
X028086Y005814D02*
X028086Y005681D01*
X028086Y005748D02*
X027886Y005748D01*
X027952Y005681D01*
X027952Y005593D02*
X028086Y005527D01*
X027952Y005460D01*
X032161Y005748D02*
X032228Y005681D01*
X032228Y005593D02*
X032361Y005527D01*
X032228Y005460D01*
X032361Y005681D02*
X032361Y005814D01*
X032361Y005748D02*
X032161Y005748D01*
X032328Y005902D02*
X032328Y005935D01*
X032361Y005935D01*
X032361Y005902D01*
X032328Y005902D01*
X032328Y006012D02*
X032195Y006146D01*
X032328Y006146D01*
X032361Y006113D01*
X032361Y006046D01*
X032328Y006012D01*
X032195Y006012D01*
X032161Y006046D01*
X032161Y006113D01*
X032195Y006146D01*
X036437Y006113D02*
X036470Y006146D01*
X036604Y006012D01*
X036637Y006046D01*
X036637Y006113D01*
X036604Y006146D01*
X036470Y006146D01*
X036437Y006113D02*
X036437Y006046D01*
X036470Y006012D01*
X036604Y006012D01*
X036604Y005935D02*
X036637Y005935D01*
X036637Y005902D01*
X036604Y005902D01*
X036604Y005935D01*
X036637Y005814D02*
X036637Y005681D01*
X036637Y005748D02*
X036437Y005748D01*
X036503Y005681D01*
X036503Y005593D02*
X036637Y005527D01*
X036503Y005460D01*
X036503Y011936D02*
X036637Y012002D01*
X036503Y012069D01*
X036503Y012157D02*
X036437Y012223D01*
X036637Y012223D01*
X036637Y012157D02*
X036637Y012290D01*
X036637Y012378D02*
X036637Y012411D01*
X036604Y012411D01*
X036604Y012378D01*
X036637Y012378D01*
X036604Y012488D02*
X036470Y012622D01*
X036604Y012622D01*
X036637Y012588D01*
X036637Y012521D01*
X036604Y012488D01*
X036470Y012488D01*
X036437Y012521D01*
X036437Y012588D01*
X036470Y012622D01*
X032361Y012588D02*
X032361Y012521D01*
X032328Y012488D01*
X032195Y012622D01*
X032328Y012622D01*
X032361Y012588D01*
X032328Y012488D02*
X032195Y012488D01*
X032161Y012521D01*
X032161Y012588D01*
X032195Y012622D01*
X032328Y012411D02*
X032361Y012411D01*
X032361Y012378D01*
X032328Y012378D01*
X032328Y012411D01*
X032361Y012290D02*
X032361Y012157D01*
X032361Y012223D02*
X032161Y012223D01*
X032228Y012157D01*
X032228Y012069D02*
X032361Y012002D01*
X032228Y011936D01*
X028086Y012002D02*
X027952Y012069D01*
X027952Y012157D02*
X027886Y012223D01*
X028086Y012223D01*
X028086Y012157D02*
X028086Y012290D01*
X028086Y012378D02*
X028086Y012411D01*
X028052Y012411D01*
X028052Y012378D01*
X028086Y012378D01*
X028052Y012488D02*
X027919Y012622D01*
X028052Y012622D01*
X028086Y012588D01*
X028086Y012521D01*
X028052Y012488D01*
X027919Y012488D01*
X027886Y012521D01*
X027886Y012588D01*
X027919Y012622D01*
X028086Y012002D02*
X027952Y011936D01*
X023810Y012002D02*
X023677Y012069D01*
X023677Y012157D02*
X023610Y012223D01*
X023810Y012223D01*
X023810Y012157D02*
X023810Y012290D01*
X023810Y012378D02*
X023810Y012411D01*
X023777Y012411D01*
X023777Y012378D01*
X023810Y012378D01*
X023777Y012488D02*
X023643Y012622D01*
X023777Y012622D01*
X023810Y012588D01*
X023810Y012521D01*
X023777Y012488D01*
X023643Y012488D01*
X023610Y012521D01*
X023610Y012588D01*
X023643Y012622D01*
X023810Y012002D02*
X023677Y011936D01*
X019535Y012002D02*
X019401Y012069D01*
X019401Y012157D02*
X019334Y012223D01*
X019535Y012223D01*
X019535Y012157D02*
X019535Y012290D01*
X019535Y012378D02*
X019535Y012411D01*
X019501Y012411D01*
X019501Y012378D01*
X019535Y012378D01*
X019501Y012488D02*
X019368Y012622D01*
X019501Y012622D01*
X019535Y012588D01*
X019535Y012521D01*
X019501Y012488D01*
X019368Y012488D01*
X019334Y012521D01*
X019334Y012588D01*
X019368Y012622D01*
X019535Y012002D02*
X019401Y011936D01*
X015259Y012002D02*
X015126Y012069D01*
X015126Y012157D02*
X015059Y012223D01*
X015259Y012223D01*
X015259Y012157D02*
X015259Y012290D01*
X015259Y012378D02*
X015259Y012411D01*
X015226Y012411D01*
X015226Y012378D01*
X015259Y012378D01*
X015226Y012488D02*
X015092Y012622D01*
X015226Y012622D01*
X015259Y012588D01*
X015259Y012521D01*
X015226Y012488D01*
X015092Y012488D01*
X015059Y012521D01*
X015059Y012588D01*
X015092Y012622D01*
X015259Y012002D02*
X015126Y011936D01*
X010983Y012002D02*
X010850Y012069D01*
X010850Y012157D02*
X010783Y012223D01*
X010983Y012223D01*
X010983Y012157D02*
X010983Y012290D01*
X010983Y012378D02*
X010983Y012411D01*
X010950Y012411D01*
X010950Y012378D01*
X010983Y012378D01*
X010950Y012488D02*
X010817Y012622D01*
X010950Y012622D01*
X010983Y012588D01*
X010983Y012521D01*
X010950Y012488D01*
X010817Y012488D01*
X010783Y012521D01*
X010783Y012588D01*
X010817Y012622D01*
X010983Y012002D02*
X010850Y011936D01*
X006708Y012002D02*
X006574Y012069D01*
X006574Y012157D02*
X006508Y012223D01*
X006708Y012223D01*
X006708Y012157D02*
X006708Y012290D01*
X006708Y012378D02*
X006708Y012411D01*
X006674Y012411D01*
X006674Y012378D01*
X006708Y012378D01*
X006674Y012488D02*
X006541Y012622D01*
X006674Y012622D01*
X006708Y012588D01*
X006708Y012521D01*
X006674Y012488D01*
X006541Y012488D01*
X006508Y012521D01*
X006508Y012588D01*
X006541Y012622D01*
X006708Y012002D02*
X006574Y011936D01*
X006574Y018411D02*
X006708Y018478D01*
X006574Y018545D01*
X006574Y018632D02*
X006508Y018699D01*
X006708Y018699D01*
X006708Y018632D02*
X006708Y018766D01*
X006708Y018853D02*
X006708Y018887D01*
X006674Y018887D01*
X006674Y018853D01*
X006708Y018853D01*
X006674Y018964D02*
X006541Y019097D01*
X006674Y019097D01*
X006708Y019064D01*
X006708Y018997D01*
X006674Y018964D01*
X006541Y018964D01*
X006508Y018997D01*
X006508Y019064D01*
X006541Y019097D01*
X010783Y019064D02*
X010817Y019097D01*
X010950Y018964D01*
X010983Y018997D01*
X010983Y019064D01*
X010950Y019097D01*
X010817Y019097D01*
X010783Y019064D02*
X010783Y018997D01*
X010817Y018964D01*
X010950Y018964D01*
X010950Y018887D02*
X010983Y018887D01*
X010983Y018853D01*
X010950Y018853D01*
X010950Y018887D01*
X010983Y018766D02*
X010983Y018632D01*
X010983Y018699D02*
X010783Y018699D01*
X010850Y018632D01*
X010850Y018545D02*
X010983Y018478D01*
X010850Y018411D01*
X015059Y018699D02*
X015126Y018632D01*
X015126Y018545D02*
X015259Y018478D01*
X015126Y018411D01*
X015259Y018632D02*
X015259Y018766D01*
X015259Y018699D02*
X015059Y018699D01*
X015226Y018853D02*
X015226Y018887D01*
X015259Y018887D01*
X015259Y018853D01*
X015226Y018853D01*
X015226Y018964D02*
X015092Y019097D01*
X015226Y019097D01*
X015259Y019064D01*
X015259Y018997D01*
X015226Y018964D01*
X015092Y018964D01*
X015059Y018997D01*
X015059Y019064D01*
X015092Y019097D01*
X019334Y019064D02*
X019368Y019097D01*
X019501Y018964D01*
X019535Y018997D01*
X019535Y019064D01*
X019501Y019097D01*
X019368Y019097D01*
X019334Y019064D02*
X019334Y018997D01*
X019368Y018964D01*
X019501Y018964D01*
X019501Y018887D02*
X019535Y018887D01*
X019535Y018853D01*
X019501Y018853D01*
X019501Y018887D01*
X019535Y018766D02*
X019535Y018632D01*
X019535Y018699D02*
X019334Y018699D01*
X019401Y018632D01*
X019401Y018545D02*
X019535Y018478D01*
X019401Y018411D01*
X023610Y018699D02*
X023677Y018632D01*
X023677Y018545D02*
X023810Y018478D01*
X023677Y018411D01*
X023810Y018632D02*
X023810Y018766D01*
X023810Y018699D02*
X023610Y018699D01*
X023777Y018853D02*
X023777Y018887D01*
X023810Y018887D01*
X023810Y018853D01*
X023777Y018853D01*
X023777Y018964D02*
X023643Y019097D01*
X023777Y019097D01*
X023810Y019064D01*
X023810Y018997D01*
X023777Y018964D01*
X023643Y018964D01*
X023610Y018997D01*
X023610Y019064D01*
X023643Y019097D01*
X027886Y019064D02*
X027919Y019097D01*
X028052Y018964D01*
X028086Y018997D01*
X028086Y019064D01*
X028052Y019097D01*
X027919Y019097D01*
X027886Y019064D02*
X027886Y018997D01*
X027919Y018964D01*
X028052Y018964D01*
X028052Y018887D02*
X028086Y018887D01*
X028086Y018853D01*
X028052Y018853D01*
X028052Y018887D01*
X028086Y018766D02*
X028086Y018632D01*
X028086Y018699D02*
X027886Y018699D01*
X027952Y018632D01*
X027952Y018545D02*
X028086Y018478D01*
X027952Y018411D01*
X032161Y018699D02*
X032228Y018632D01*
X032228Y018545D02*
X032361Y018478D01*
X032228Y018411D01*
X032361Y018632D02*
X032361Y018766D01*
X032361Y018699D02*
X032161Y018699D01*
X032328Y018853D02*
X032328Y018887D01*
X032361Y018887D01*
X032361Y018853D01*
X032328Y018853D01*
X032328Y018964D02*
X032195Y019097D01*
X032328Y019097D01*
X032361Y019064D01*
X032361Y018997D01*
X032328Y018964D01*
X032195Y018964D01*
X032161Y018997D01*
X032161Y019064D01*
X032195Y019097D01*
X036437Y019064D02*
X036470Y019097D01*
X036604Y018964D01*
X036637Y018997D01*
X036637Y019064D01*
X036604Y019097D01*
X036470Y019097D01*
X036437Y019064D02*
X036437Y018997D01*
X036470Y018964D01*
X036604Y018964D01*
X036604Y018887D02*
X036637Y018887D01*
X036637Y018853D01*
X036604Y018853D01*
X036604Y018887D01*
X036637Y018766D02*
X036637Y018632D01*
X036637Y018699D02*
X036437Y018699D01*
X036503Y018632D01*
X036503Y018545D02*
X036637Y018478D01*
X036503Y018411D01*
X036503Y024887D02*
X036637Y024953D01*
X036503Y025020D01*
X036503Y025108D02*
X036437Y025174D01*
X036637Y025174D01*
X036637Y025108D02*
X036637Y025241D01*
X036637Y025329D02*
X036637Y025362D01*
X036604Y025362D01*
X036604Y025329D01*
X036637Y025329D01*
X036604Y025439D02*
X036470Y025573D01*
X036604Y025573D01*
X036637Y025539D01*
X036637Y025473D01*
X036604Y025439D01*
X036470Y025439D01*
X036437Y025473D01*
X036437Y025539D01*
X036470Y025573D01*
X032361Y025539D02*
X032361Y025473D01*
X032328Y025439D01*
X032195Y025573D01*
X032328Y025573D01*
X032361Y025539D01*
X032328Y025439D02*
X032195Y025439D01*
X032161Y025473D01*
X032161Y025539D01*
X032195Y025573D01*
X032328Y025362D02*
X032361Y025362D01*
X032361Y025329D01*
X032328Y025329D01*
X032328Y025362D01*
X032361Y025241D02*
X032361Y025108D01*
X032361Y025174D02*
X032161Y025174D01*
X032228Y025108D01*
X032228Y025020D02*
X032361Y024953D01*
X032228Y024887D01*
X028086Y024953D02*
X027952Y025020D01*
X027952Y025108D02*
X027886Y025174D01*
X028086Y025174D01*
X028086Y025108D02*
X028086Y025241D01*
X028086Y025329D02*
X028086Y025362D01*
X028052Y025362D01*
X028052Y025329D01*
X028086Y025329D01*
X028052Y025439D02*
X027919Y025573D01*
X028052Y025573D01*
X028086Y025539D01*
X028086Y025473D01*
X028052Y025439D01*
X027919Y025439D01*
X027886Y025473D01*
X027886Y025539D01*
X027919Y025573D01*
X028086Y024953D02*
X027952Y024887D01*
X023810Y024953D02*
X023677Y025020D01*
X023677Y025108D02*
X023610Y025174D01*
X023810Y025174D01*
X023810Y025108D02*
X023810Y025241D01*
X023810Y025329D02*
X023810Y025362D01*
X023777Y025362D01*
X023777Y025329D01*
X023810Y025329D01*
X023777Y025439D02*
X023643Y025573D01*
X023777Y025573D01*
X023810Y025539D01*
X023810Y025473D01*
X023777Y025439D01*
X023643Y025439D01*
X023610Y025473D01*
X023610Y025539D01*
X023643Y025573D01*
X023810Y024953D02*
X023677Y024887D01*
X019535Y024953D02*
X019401Y025020D01*
X019401Y025108D02*
X019334Y025174D01*
X019535Y025174D01*
X019535Y025108D02*
X019535Y025241D01*
X019535Y025329D02*
X019535Y025362D01*
X019501Y025362D01*
X019501Y025329D01*
X019535Y025329D01*
X019501Y025439D02*
X019368Y025573D01*
X019501Y025573D01*
X019535Y025539D01*
X019535Y025473D01*
X019501Y025439D01*
X019368Y025439D01*
X019334Y025473D01*
X019334Y025539D01*
X019368Y025573D01*
X019535Y024953D02*
X019401Y024887D01*
X015259Y024953D02*
X015126Y025020D01*
X015126Y025108D02*
X015059Y025174D01*
X015259Y025174D01*
X015259Y025108D02*
X015259Y025241D01*
X015259Y025329D02*
X015259Y025362D01*
X015226Y025362D01*
X015226Y025329D01*
X015259Y025329D01*
X015226Y025439D02*
X015092Y025573D01*
X015226Y025573D01*
X015259Y025539D01*
X015259Y025473D01*
X015226Y025439D01*
X015092Y025439D01*
X015059Y025473D01*
X015059Y025539D01*
X015092Y025573D01*
X015259Y024953D02*
X015126Y024887D01*
X010983Y024953D02*
X010850Y025020D01*
X010850Y025108D02*
X010783Y025174D01*
X010983Y025174D01*
X010983Y025108D02*
X010983Y025241D01*
X010983Y025329D02*
X010983Y025362D01*
X010950Y025362D01*
X010950Y025329D01*
X010983Y025329D01*
X010950Y025439D02*
X010817Y025573D01*
X010950Y025573D01*
X010983Y025539D01*
X010983Y025473D01*
X010950Y025439D01*
X010817Y025439D01*
X010783Y025473D01*
X010783Y025539D01*
X010817Y025573D01*
X010983Y024953D02*
X010850Y024887D01*
X006708Y024953D02*
X006574Y025020D01*
X006574Y025108D02*
X006508Y025174D01*
X006708Y025174D01*
X006708Y025108D02*
X006708Y025241D01*
X006708Y025329D02*
X006708Y025362D01*
X006674Y025362D01*
X006674Y025329D01*
X006708Y025329D01*
X006674Y025439D02*
X006541Y025573D01*
X006674Y025573D01*
X006708Y025539D01*
X006708Y025473D01*
X006674Y025439D01*
X006541Y025439D01*
X006508Y025473D01*
X006508Y025539D01*
X006541Y025573D01*
X006708Y024953D02*
X006574Y024887D01*
D13*
X003128Y001790D03*
X007403Y001790D03*
X011679Y001790D03*
X015955Y001790D03*
X020230Y001790D03*
X024506Y001790D03*
X028781Y001790D03*
X033057Y001790D03*
X033057Y004690D03*
X028781Y004690D03*
X024506Y004690D03*
X020230Y004690D03*
X015955Y004690D03*
X011679Y004690D03*
X007403Y004690D03*
X003128Y004690D03*
X003128Y008266D03*
X007403Y008266D03*
X011679Y008266D03*
X015955Y008266D03*
X020230Y008266D03*
X024506Y008266D03*
X028781Y008266D03*
X033057Y008266D03*
X033057Y011166D03*
X028781Y011166D03*
X024506Y011166D03*
X020230Y011166D03*
X015955Y011166D03*
X011679Y011166D03*
X007403Y011166D03*
X003128Y011166D03*
X003128Y014741D03*
X007403Y014741D03*
X011679Y014741D03*
X015955Y014741D03*
X020230Y014741D03*
X024506Y014741D03*
X028781Y014741D03*
X033057Y014741D03*
X033057Y017641D03*
X028781Y017641D03*
X024506Y017641D03*
X020230Y017641D03*
X015955Y017641D03*
X011679Y017641D03*
X007403Y017641D03*
X003128Y017641D03*
X003128Y021217D03*
X007403Y021217D03*
X011679Y021217D03*
X015955Y021217D03*
X020230Y021217D03*
X024506Y021217D03*
X028781Y021217D03*
X033057Y021217D03*
X033057Y024117D03*
X028781Y024117D03*
X024506Y024117D03*
X020230Y024117D03*
X015955Y024117D03*
X011679Y024117D03*
X007403Y024117D03*
X003128Y024117D03*
D14*
X003238Y023267D02*
X003238Y023067D01*
X007514Y023067D02*
X007514Y023267D01*
X011790Y023267D02*
X011790Y023067D01*
X016065Y023067D02*
X016065Y023267D01*
X020341Y023267D02*
X020341Y023067D01*
X024616Y023067D02*
X024616Y023267D01*
X028892Y023267D02*
X028892Y023067D01*
X033168Y023067D02*
X033168Y023267D01*
X033168Y016791D02*
X033168Y016591D01*
X028892Y016591D02*
X028892Y016791D01*
X024616Y016791D02*
X024616Y016591D01*
X020341Y016591D02*
X020341Y016791D01*
X016065Y016791D02*
X016065Y016591D01*
X011790Y016591D02*
X011790Y016791D01*
X007514Y016791D02*
X007514Y016591D01*
X003238Y016591D02*
X003238Y016791D01*
X003238Y010316D02*
X003238Y010116D01*
X007514Y010116D02*
X007514Y010316D01*
X011790Y010316D02*
X011790Y010116D01*
X016065Y010116D02*
X016065Y010316D01*
X020341Y010316D02*
X020341Y010116D01*
X024616Y010116D02*
X024616Y010316D01*
X028892Y010316D02*
X028892Y010116D01*
X033168Y010116D02*
X033168Y010316D01*
X033168Y003840D02*
X033168Y003640D01*
X028892Y003640D02*
X028892Y003840D01*
X024616Y003840D02*
X024616Y003640D01*
X020341Y003640D02*
X020341Y003840D01*
X016065Y003840D02*
X016065Y003640D01*
X011790Y003640D02*
X011790Y003840D01*
X007514Y003840D02*
X007514Y003640D01*
X003238Y003640D02*
X003238Y003840D01*
M02*
