G75*
%MOIN*%
%OFA0B0*%
%FSLAX24Y24*%
%IPPOS*%
%LPD*%
%AMOC8*
5,1,8,0,0,1.08239X$1,22.5*
%
%ADD10R,0.0394X0.0433*%
%ADD11R,0.0787X0.0236*%
%ADD12R,0.0236X0.0787*%
D10*
X003128Y001455D03*
X003128Y002125D03*
X003128Y004355D03*
X003128Y005025D03*
X003128Y007931D03*
X003128Y008600D03*
X003128Y010831D03*
X003128Y011500D03*
X003128Y014407D03*
X003128Y015076D03*
X003128Y017307D03*
X003128Y017976D03*
X003128Y020882D03*
X003128Y021551D03*
X003128Y023782D03*
X003128Y024451D03*
X007403Y024451D03*
X007403Y023782D03*
X007403Y021551D03*
X007403Y020882D03*
X007403Y017976D03*
X007403Y017307D03*
X007403Y015076D03*
X007403Y014407D03*
X007403Y011500D03*
X007403Y010831D03*
X007403Y008600D03*
X007403Y007931D03*
X007403Y005025D03*
X007403Y004355D03*
X007403Y002125D03*
X007403Y001455D03*
X011679Y001455D03*
X011679Y002125D03*
X011679Y004355D03*
X011679Y005025D03*
X011679Y007931D03*
X011679Y008600D03*
X011679Y010831D03*
X011679Y011500D03*
X011679Y014407D03*
X011679Y015076D03*
X011679Y017307D03*
X011679Y017976D03*
X011679Y020882D03*
X011679Y021551D03*
X011679Y023782D03*
X011679Y024451D03*
X015955Y024451D03*
X015955Y023782D03*
X015955Y021551D03*
X015955Y020882D03*
X015955Y017976D03*
X015955Y017307D03*
X015955Y015076D03*
X015955Y014407D03*
X015955Y011500D03*
X015955Y010831D03*
X015955Y008600D03*
X015955Y007931D03*
X015955Y005025D03*
X015955Y004355D03*
X015955Y002125D03*
X015955Y001455D03*
X020230Y001455D03*
X020230Y002125D03*
X020230Y004355D03*
X020230Y005025D03*
X020230Y007931D03*
X020230Y008600D03*
X020230Y010831D03*
X020230Y011500D03*
X020230Y014407D03*
X020230Y015076D03*
X020230Y017307D03*
X020230Y017976D03*
X020230Y020882D03*
X020230Y021551D03*
X020230Y023782D03*
X020230Y024451D03*
X024506Y024451D03*
X024506Y023782D03*
X024506Y021551D03*
X024506Y020882D03*
X028781Y020882D03*
X028781Y021551D03*
X028781Y023782D03*
X028781Y024451D03*
X033057Y024451D03*
X033057Y023782D03*
X033057Y021551D03*
X033057Y020882D03*
X033057Y017976D03*
X033057Y017307D03*
X033057Y015076D03*
X033057Y014407D03*
X033057Y011500D03*
X033057Y010831D03*
X033057Y008600D03*
X033057Y007931D03*
X033057Y005025D03*
X033057Y004355D03*
X033057Y002125D03*
X033057Y001455D03*
X028781Y001455D03*
X028781Y002125D03*
X028781Y004355D03*
X028781Y005025D03*
X024506Y005025D03*
X024506Y004355D03*
X024506Y002125D03*
X024506Y001455D03*
X024506Y007931D03*
X024506Y008600D03*
X024506Y010831D03*
X024506Y011500D03*
X028781Y011500D03*
X028781Y010831D03*
X028781Y008600D03*
X028781Y007931D03*
X028781Y014407D03*
X028781Y015076D03*
X028781Y017307D03*
X028781Y017976D03*
X024506Y017976D03*
X024506Y017307D03*
X024506Y015076D03*
X024506Y014407D03*
D11*
X025206Y015699D03*
X025206Y016191D03*
X025206Y016683D03*
X027206Y016683D03*
X027206Y016191D03*
X027206Y015699D03*
X029481Y015699D03*
X029481Y016191D03*
X029481Y016683D03*
X031481Y016683D03*
X031481Y016191D03*
X031481Y015699D03*
X033757Y015699D03*
X033757Y016191D03*
X033757Y016683D03*
X035757Y016683D03*
X035757Y016191D03*
X035757Y015699D03*
X035757Y010208D03*
X035757Y009716D03*
X035757Y009223D03*
X033757Y009223D03*
X033757Y009716D03*
X033757Y010208D03*
X031481Y010208D03*
X031481Y009716D03*
X031481Y009223D03*
X029481Y009223D03*
X029481Y009716D03*
X029481Y010208D03*
X027206Y010208D03*
X027206Y009716D03*
X027206Y009223D03*
X025206Y009223D03*
X025206Y009716D03*
X025206Y010208D03*
X022930Y010208D03*
X022930Y009716D03*
X022930Y009223D03*
X020930Y009223D03*
X020930Y009716D03*
X020930Y010208D03*
X018655Y010208D03*
X018655Y009716D03*
X018655Y009223D03*
X016655Y009223D03*
X016655Y009716D03*
X016655Y010208D03*
X014379Y010208D03*
X014379Y009716D03*
X014379Y009223D03*
X012379Y009223D03*
X012379Y009716D03*
X012379Y010208D03*
X010103Y010208D03*
X010103Y009716D03*
X010103Y009223D03*
X008103Y009223D03*
X008103Y009716D03*
X008103Y010208D03*
X005828Y010208D03*
X005828Y009716D03*
X005828Y009223D03*
X003828Y009223D03*
X003828Y009716D03*
X003828Y010208D03*
X003828Y015699D03*
X003828Y016191D03*
X003828Y016683D03*
X005828Y016683D03*
X005828Y016191D03*
X005828Y015699D03*
X008103Y015699D03*
X008103Y016191D03*
X008103Y016683D03*
X010103Y016683D03*
X010103Y016191D03*
X010103Y015699D03*
X012379Y015699D03*
X012379Y016191D03*
X012379Y016683D03*
X014379Y016683D03*
X014379Y016191D03*
X014379Y015699D03*
X016655Y015699D03*
X016655Y016191D03*
X016655Y016683D03*
X018655Y016683D03*
X018655Y016191D03*
X018655Y015699D03*
X020930Y015699D03*
X020930Y016191D03*
X020930Y016683D03*
X022930Y016683D03*
X022930Y016191D03*
X022930Y015699D03*
X022930Y022175D03*
X022930Y022667D03*
X022930Y023159D03*
X020930Y023159D03*
X020930Y022667D03*
X020930Y022175D03*
X018655Y022175D03*
X018655Y022667D03*
X018655Y023159D03*
X016655Y023159D03*
X016655Y022667D03*
X016655Y022175D03*
X014379Y022175D03*
X014379Y022667D03*
X014379Y023159D03*
X012379Y023159D03*
X012379Y022667D03*
X012379Y022175D03*
X010103Y022175D03*
X010103Y022667D03*
X010103Y023159D03*
X008103Y023159D03*
X008103Y022667D03*
X008103Y022175D03*
X005828Y022175D03*
X005828Y022667D03*
X005828Y023159D03*
X003828Y023159D03*
X003828Y022667D03*
X003828Y022175D03*
X025206Y022175D03*
X025206Y022667D03*
X025206Y023159D03*
X027206Y023159D03*
X027206Y022667D03*
X027206Y022175D03*
X029481Y022175D03*
X029481Y022667D03*
X029481Y023159D03*
X031481Y023159D03*
X031481Y022667D03*
X031481Y022175D03*
X033757Y022175D03*
X033757Y022667D03*
X033757Y023159D03*
X035757Y023159D03*
X035757Y022667D03*
X035757Y022175D03*
X035757Y003732D03*
X035757Y003240D03*
X035757Y002748D03*
X033757Y002748D03*
X033757Y003240D03*
X033757Y003732D03*
X031481Y003732D03*
X031481Y003240D03*
X031481Y002748D03*
X029481Y002748D03*
X029481Y003240D03*
X029481Y003732D03*
X027206Y003732D03*
X027206Y003240D03*
X027206Y002748D03*
X025206Y002748D03*
X025206Y003240D03*
X025206Y003732D03*
X022930Y003732D03*
X022930Y003240D03*
X022930Y002748D03*
X020930Y002748D03*
X020930Y003240D03*
X020930Y003732D03*
X018655Y003732D03*
X018655Y003240D03*
X018655Y002748D03*
X016655Y002748D03*
X016655Y003240D03*
X016655Y003732D03*
X014379Y003732D03*
X014379Y003240D03*
X014379Y002748D03*
X012379Y002748D03*
X012379Y003240D03*
X012379Y003732D03*
X010103Y003732D03*
X010103Y003240D03*
X010103Y002748D03*
X008103Y002748D03*
X008103Y003240D03*
X008103Y003732D03*
X005828Y003732D03*
X005828Y003240D03*
X005828Y002748D03*
X003828Y002748D03*
X003828Y003240D03*
X003828Y003732D03*
D12*
X004328Y004618D03*
X005328Y004618D03*
X008603Y004618D03*
X009603Y004618D03*
X012879Y004618D03*
X013879Y004618D03*
X017155Y004618D03*
X018155Y004618D03*
X021430Y004618D03*
X022430Y004618D03*
X025706Y004618D03*
X026706Y004618D03*
X029981Y004618D03*
X030981Y004618D03*
X034257Y004618D03*
X035257Y004618D03*
X035257Y001862D03*
X034257Y001862D03*
X030981Y001862D03*
X029981Y001862D03*
X026706Y001862D03*
X025706Y001862D03*
X022430Y001862D03*
X021430Y001862D03*
X018155Y001862D03*
X017155Y001862D03*
X013879Y001862D03*
X012879Y001862D03*
X009603Y001862D03*
X008603Y001862D03*
X005328Y001862D03*
X004328Y001862D03*
X004328Y008338D03*
X005328Y008338D03*
X008603Y008338D03*
X009603Y008338D03*
X012879Y008338D03*
X013879Y008338D03*
X017155Y008338D03*
X018155Y008338D03*
X021430Y008338D03*
X022430Y008338D03*
X025706Y008338D03*
X026706Y008338D03*
X029981Y008338D03*
X030981Y008338D03*
X034257Y008338D03*
X035257Y008338D03*
X035257Y011094D03*
X034257Y011094D03*
X030981Y011094D03*
X029981Y011094D03*
X026706Y011094D03*
X025706Y011094D03*
X022430Y011094D03*
X021430Y011094D03*
X018155Y011094D03*
X017155Y011094D03*
X013879Y011094D03*
X012879Y011094D03*
X009603Y011094D03*
X008603Y011094D03*
X005328Y011094D03*
X004328Y011094D03*
X004328Y014813D03*
X005328Y014813D03*
X008603Y014813D03*
X009603Y014813D03*
X012879Y014813D03*
X013879Y014813D03*
X017155Y014813D03*
X018155Y014813D03*
X021430Y014813D03*
X022430Y014813D03*
X025706Y014813D03*
X026706Y014813D03*
X029981Y014813D03*
X030981Y014813D03*
X034257Y014813D03*
X035257Y014813D03*
X035257Y017569D03*
X034257Y017569D03*
X030981Y017569D03*
X029981Y017569D03*
X026706Y017569D03*
X025706Y017569D03*
X022430Y017569D03*
X021430Y017569D03*
X018155Y017569D03*
X017155Y017569D03*
X013879Y017569D03*
X012879Y017569D03*
X009603Y017569D03*
X008603Y017569D03*
X005328Y017569D03*
X004328Y017569D03*
X004328Y021289D03*
X005328Y021289D03*
X008603Y021289D03*
X009603Y021289D03*
X012879Y021289D03*
X013879Y021289D03*
X017155Y021289D03*
X018155Y021289D03*
X021430Y021289D03*
X022430Y021289D03*
X025706Y021289D03*
X026706Y021289D03*
X029981Y021289D03*
X030981Y021289D03*
X034257Y021289D03*
X035257Y021289D03*
X035257Y024045D03*
X034257Y024045D03*
X030981Y024045D03*
X029981Y024045D03*
X026706Y024045D03*
X025706Y024045D03*
X022430Y024045D03*
X021430Y024045D03*
X018155Y024045D03*
X017155Y024045D03*
X013879Y024045D03*
X012879Y024045D03*
X009603Y024045D03*
X008603Y024045D03*
X005328Y024045D03*
X004328Y024045D03*
M02*
