G75*
%MOIN*%
%OFA0B0*%
%FSLAX24Y24*%
%IPPOS*%
%LPD*%
%AMOC8*
5,1,8,0,0,1.08239X$1,22.5*
%
%ADD10C,0.0080*%
%ADD11R,0.0394X0.0433*%
%ADD12C,0.0740*%
%ADD13R,0.0787X0.0236*%
%ADD14R,0.0236X0.0787*%
%ADD15C,0.0160*%
%ADD16C,0.0400*%
D10*
X000140Y000140D02*
X002502Y000140D01*
X002502Y025767D01*
X000140Y025767D01*
X000140Y000140D01*
X002778Y000323D02*
X002778Y006116D01*
X002777Y006116D02*
X002779Y006143D01*
X002784Y006170D01*
X002792Y006195D01*
X002803Y006220D01*
X002817Y006243D01*
X002833Y006265D01*
X002852Y006284D01*
X002874Y006300D01*
X002897Y006314D01*
X002922Y006325D01*
X002947Y006333D01*
X002974Y006338D01*
X003001Y006340D01*
X006595Y006340D01*
X006621Y006338D01*
X006647Y006333D01*
X006671Y006323D01*
X006694Y006311D01*
X006715Y006295D01*
X006733Y006277D01*
X006749Y006256D01*
X006761Y006233D01*
X006771Y006209D01*
X006776Y006183D01*
X006778Y006157D01*
X006778Y000340D01*
X006776Y000314D01*
X006771Y000288D01*
X006763Y000263D01*
X006751Y000240D01*
X006737Y000218D01*
X006719Y000199D01*
X006700Y000181D01*
X006678Y000167D01*
X006655Y000155D01*
X006630Y000147D01*
X006604Y000142D01*
X006578Y000140D01*
X002961Y000140D01*
X002935Y000142D01*
X002909Y000147D01*
X002885Y000157D01*
X002862Y000169D01*
X002841Y000185D01*
X002823Y000203D01*
X002807Y000224D01*
X002795Y000247D01*
X002785Y000271D01*
X002780Y000297D01*
X002778Y000323D01*
X007053Y000323D02*
X007053Y006116D01*
X007055Y006143D01*
X007060Y006170D01*
X007068Y006195D01*
X007079Y006220D01*
X007093Y006243D01*
X007109Y006265D01*
X007128Y006284D01*
X007150Y006300D01*
X007173Y006314D01*
X007198Y006325D01*
X007223Y006333D01*
X007250Y006338D01*
X007277Y006340D01*
X010871Y006340D01*
X010897Y006338D01*
X010923Y006333D01*
X010947Y006323D01*
X010970Y006311D01*
X010991Y006295D01*
X011009Y006277D01*
X011025Y006256D01*
X011037Y006233D01*
X011047Y006209D01*
X011052Y006183D01*
X011054Y006157D01*
X011053Y006157D02*
X011053Y000340D01*
X011051Y000314D01*
X011046Y000288D01*
X011038Y000263D01*
X011026Y000240D01*
X011012Y000218D01*
X010994Y000199D01*
X010975Y000181D01*
X010953Y000167D01*
X010930Y000155D01*
X010905Y000147D01*
X010879Y000142D01*
X010853Y000140D01*
X007236Y000140D01*
X007210Y000142D01*
X007184Y000147D01*
X007160Y000157D01*
X007137Y000169D01*
X007116Y000185D01*
X007098Y000203D01*
X007082Y000224D01*
X007070Y000247D01*
X007060Y000271D01*
X007055Y000297D01*
X007053Y000323D01*
X011329Y000323D02*
X011329Y006116D01*
X011331Y006143D01*
X011336Y006170D01*
X011344Y006195D01*
X011355Y006220D01*
X011369Y006243D01*
X011385Y006265D01*
X011404Y006284D01*
X011426Y006300D01*
X011449Y006314D01*
X011474Y006325D01*
X011499Y006333D01*
X011526Y006338D01*
X011553Y006340D01*
X015146Y006340D01*
X015172Y006338D01*
X015198Y006333D01*
X015222Y006323D01*
X015245Y006311D01*
X015266Y006295D01*
X015284Y006277D01*
X015300Y006256D01*
X015312Y006233D01*
X015322Y006209D01*
X015327Y006183D01*
X015329Y006157D01*
X015329Y000340D01*
X015327Y000314D01*
X015322Y000288D01*
X015314Y000263D01*
X015302Y000240D01*
X015288Y000218D01*
X015270Y000199D01*
X015251Y000181D01*
X015229Y000167D01*
X015206Y000155D01*
X015181Y000147D01*
X015155Y000142D01*
X015129Y000140D01*
X011512Y000140D01*
X011486Y000142D01*
X011460Y000147D01*
X011436Y000157D01*
X011413Y000169D01*
X011392Y000185D01*
X011374Y000203D01*
X011358Y000224D01*
X011346Y000247D01*
X011336Y000271D01*
X011331Y000297D01*
X011329Y000323D01*
X015605Y000323D02*
X015605Y006116D01*
X015604Y006116D02*
X015606Y006143D01*
X015611Y006170D01*
X015619Y006195D01*
X015630Y006220D01*
X015644Y006243D01*
X015660Y006265D01*
X015679Y006284D01*
X015701Y006300D01*
X015724Y006314D01*
X015749Y006325D01*
X015774Y006333D01*
X015801Y006338D01*
X015828Y006340D01*
X019422Y006340D01*
X019448Y006338D01*
X019474Y006333D01*
X019498Y006323D01*
X019521Y006311D01*
X019542Y006295D01*
X019560Y006277D01*
X019576Y006256D01*
X019588Y006233D01*
X019598Y006209D01*
X019603Y006183D01*
X019605Y006157D01*
X019605Y000340D01*
X019603Y000314D01*
X019598Y000288D01*
X019590Y000263D01*
X019578Y000240D01*
X019564Y000218D01*
X019546Y000199D01*
X019527Y000181D01*
X019505Y000167D01*
X019482Y000155D01*
X019457Y000147D01*
X019431Y000142D01*
X019405Y000140D01*
X015787Y000140D01*
X015761Y000142D01*
X015735Y000147D01*
X015711Y000157D01*
X015688Y000169D01*
X015667Y000185D01*
X015649Y000203D01*
X015633Y000224D01*
X015621Y000247D01*
X015611Y000271D01*
X015606Y000297D01*
X015604Y000323D01*
X019880Y000323D02*
X019880Y006116D01*
X019882Y006143D01*
X019887Y006170D01*
X019895Y006195D01*
X019906Y006220D01*
X019920Y006243D01*
X019936Y006265D01*
X019955Y006284D01*
X019977Y006300D01*
X020000Y006314D01*
X020025Y006325D01*
X020050Y006333D01*
X020077Y006338D01*
X020104Y006340D01*
X023697Y006340D01*
X023723Y006338D01*
X023749Y006333D01*
X023773Y006323D01*
X023796Y006311D01*
X023817Y006295D01*
X023835Y006277D01*
X023851Y006256D01*
X023863Y006233D01*
X023873Y006209D01*
X023878Y006183D01*
X023880Y006157D01*
X023880Y000340D01*
X023878Y000314D01*
X023873Y000288D01*
X023865Y000263D01*
X023853Y000240D01*
X023839Y000218D01*
X023821Y000199D01*
X023802Y000181D01*
X023780Y000167D01*
X023757Y000155D01*
X023732Y000147D01*
X023706Y000142D01*
X023680Y000140D01*
X020063Y000140D01*
X020037Y000142D01*
X020011Y000147D01*
X019987Y000157D01*
X019964Y000169D01*
X019943Y000185D01*
X019925Y000203D01*
X019909Y000224D01*
X019897Y000247D01*
X019887Y000271D01*
X019882Y000297D01*
X019880Y000323D01*
X024156Y000323D02*
X024156Y006116D01*
X024155Y006116D02*
X024157Y006143D01*
X024162Y006170D01*
X024170Y006195D01*
X024181Y006220D01*
X024195Y006243D01*
X024211Y006265D01*
X024230Y006284D01*
X024252Y006300D01*
X024275Y006314D01*
X024300Y006325D01*
X024325Y006333D01*
X024352Y006338D01*
X024379Y006340D01*
X027973Y006340D01*
X027999Y006338D01*
X028025Y006333D01*
X028049Y006323D01*
X028072Y006311D01*
X028093Y006295D01*
X028111Y006277D01*
X028127Y006256D01*
X028139Y006233D01*
X028149Y006209D01*
X028154Y006183D01*
X028156Y006157D01*
X028156Y000340D01*
X028154Y000314D01*
X028149Y000288D01*
X028141Y000263D01*
X028129Y000240D01*
X028115Y000218D01*
X028097Y000199D01*
X028078Y000181D01*
X028056Y000167D01*
X028033Y000155D01*
X028008Y000147D01*
X027982Y000142D01*
X027956Y000140D01*
X024339Y000140D01*
X024313Y000142D01*
X024287Y000147D01*
X024263Y000157D01*
X024240Y000169D01*
X024219Y000185D01*
X024201Y000203D01*
X024185Y000224D01*
X024173Y000247D01*
X024163Y000271D01*
X024158Y000297D01*
X024156Y000323D01*
X028431Y000323D02*
X028431Y006116D01*
X028433Y006143D01*
X028438Y006170D01*
X028446Y006195D01*
X028457Y006220D01*
X028471Y006243D01*
X028487Y006265D01*
X028506Y006284D01*
X028528Y006300D01*
X028551Y006314D01*
X028576Y006325D01*
X028601Y006333D01*
X028628Y006338D01*
X028655Y006340D01*
X032248Y006340D01*
X032274Y006338D01*
X032300Y006333D01*
X032324Y006323D01*
X032347Y006311D01*
X032368Y006295D01*
X032386Y006277D01*
X032402Y006256D01*
X032414Y006233D01*
X032424Y006209D01*
X032429Y006183D01*
X032431Y006157D01*
X032431Y000340D01*
X032429Y000314D01*
X032424Y000288D01*
X032416Y000263D01*
X032404Y000240D01*
X032390Y000218D01*
X032372Y000199D01*
X032353Y000181D01*
X032331Y000167D01*
X032308Y000155D01*
X032283Y000147D01*
X032257Y000142D01*
X032231Y000140D01*
X028614Y000140D01*
X028588Y000142D01*
X028562Y000147D01*
X028538Y000157D01*
X028515Y000169D01*
X028494Y000185D01*
X028476Y000203D01*
X028460Y000224D01*
X028448Y000247D01*
X028438Y000271D01*
X028433Y000297D01*
X028431Y000323D01*
X032707Y000323D02*
X032707Y006116D01*
X032709Y006143D01*
X032714Y006170D01*
X032722Y006195D01*
X032733Y006220D01*
X032747Y006243D01*
X032763Y006265D01*
X032782Y006284D01*
X032804Y006300D01*
X032827Y006314D01*
X032852Y006325D01*
X032877Y006333D01*
X032904Y006338D01*
X032931Y006340D01*
X036524Y006340D01*
X036550Y006338D01*
X036576Y006333D01*
X036600Y006323D01*
X036623Y006311D01*
X036644Y006295D01*
X036662Y006277D01*
X036678Y006256D01*
X036690Y006233D01*
X036700Y006209D01*
X036705Y006183D01*
X036707Y006157D01*
X036707Y000340D01*
X036705Y000314D01*
X036700Y000288D01*
X036692Y000263D01*
X036680Y000240D01*
X036666Y000218D01*
X036648Y000199D01*
X036629Y000181D01*
X036607Y000167D01*
X036584Y000155D01*
X036559Y000147D01*
X036533Y000142D01*
X036507Y000140D01*
X032890Y000140D01*
X032864Y000142D01*
X032838Y000147D01*
X032814Y000157D01*
X032791Y000169D01*
X032770Y000185D01*
X032752Y000203D01*
X032736Y000224D01*
X032724Y000247D01*
X032714Y000271D01*
X032709Y000297D01*
X032707Y000323D01*
X036983Y000140D02*
X039345Y000140D01*
X039345Y025767D01*
X036983Y025767D01*
X036983Y000140D01*
X036507Y006616D02*
X032890Y006616D01*
X032890Y006615D02*
X032864Y006617D01*
X032838Y006622D01*
X032814Y006632D01*
X032791Y006644D01*
X032770Y006660D01*
X032752Y006678D01*
X032736Y006699D01*
X032724Y006722D01*
X032714Y006746D01*
X032709Y006772D01*
X032707Y006798D01*
X032707Y012592D01*
X032709Y012619D01*
X032714Y012646D01*
X032722Y012671D01*
X032733Y012696D01*
X032747Y012719D01*
X032763Y012741D01*
X032782Y012760D01*
X032804Y012776D01*
X032827Y012790D01*
X032852Y012801D01*
X032877Y012809D01*
X032904Y012814D01*
X032931Y012816D01*
X036524Y012816D01*
X036550Y012814D01*
X036576Y012809D01*
X036600Y012799D01*
X036623Y012787D01*
X036644Y012771D01*
X036662Y012753D01*
X036678Y012732D01*
X036690Y012709D01*
X036700Y012685D01*
X036705Y012659D01*
X036707Y012633D01*
X036707Y006816D01*
X036705Y006790D01*
X036700Y006764D01*
X036692Y006739D01*
X036680Y006716D01*
X036666Y006694D01*
X036648Y006675D01*
X036629Y006657D01*
X036607Y006643D01*
X036584Y006631D01*
X036559Y006623D01*
X036533Y006618D01*
X036507Y006616D01*
X032431Y006816D02*
X032431Y012633D01*
X032429Y012659D01*
X032424Y012685D01*
X032414Y012709D01*
X032402Y012732D01*
X032386Y012753D01*
X032368Y012771D01*
X032347Y012787D01*
X032324Y012799D01*
X032300Y012809D01*
X032274Y012814D01*
X032248Y012816D01*
X028655Y012816D01*
X028628Y012814D01*
X028601Y012809D01*
X028576Y012801D01*
X028551Y012790D01*
X028528Y012776D01*
X028506Y012760D01*
X028487Y012741D01*
X028471Y012719D01*
X028457Y012696D01*
X028446Y012671D01*
X028438Y012646D01*
X028433Y012619D01*
X028431Y012592D01*
X028431Y006798D01*
X028433Y006772D01*
X028438Y006746D01*
X028448Y006722D01*
X028460Y006699D01*
X028476Y006678D01*
X028494Y006660D01*
X028515Y006644D01*
X028538Y006632D01*
X028562Y006622D01*
X028588Y006617D01*
X028614Y006615D01*
X028614Y006616D02*
X032231Y006616D01*
X032257Y006618D01*
X032283Y006623D01*
X032308Y006631D01*
X032331Y006643D01*
X032353Y006657D01*
X032372Y006675D01*
X032390Y006694D01*
X032404Y006716D01*
X032416Y006739D01*
X032424Y006764D01*
X032429Y006790D01*
X032431Y006816D01*
X028156Y006816D02*
X028156Y012633D01*
X028154Y012659D01*
X028149Y012685D01*
X028139Y012709D01*
X028127Y012732D01*
X028111Y012753D01*
X028093Y012771D01*
X028072Y012787D01*
X028049Y012799D01*
X028025Y012809D01*
X027999Y012814D01*
X027973Y012816D01*
X024379Y012816D01*
X024352Y012814D01*
X024325Y012809D01*
X024300Y012801D01*
X024275Y012790D01*
X024252Y012776D01*
X024230Y012760D01*
X024211Y012741D01*
X024195Y012719D01*
X024181Y012696D01*
X024170Y012671D01*
X024162Y012646D01*
X024157Y012619D01*
X024155Y012592D01*
X024156Y012592D02*
X024156Y006798D01*
X024158Y006772D01*
X024163Y006746D01*
X024173Y006722D01*
X024185Y006699D01*
X024201Y006678D01*
X024219Y006660D01*
X024240Y006644D01*
X024263Y006632D01*
X024287Y006622D01*
X024313Y006617D01*
X024339Y006615D01*
X024339Y006616D02*
X027956Y006616D01*
X027982Y006618D01*
X028008Y006623D01*
X028033Y006631D01*
X028056Y006643D01*
X028078Y006657D01*
X028097Y006675D01*
X028115Y006694D01*
X028129Y006716D01*
X028141Y006739D01*
X028149Y006764D01*
X028154Y006790D01*
X028156Y006816D01*
X023880Y006816D02*
X023880Y012633D01*
X023878Y012659D01*
X023873Y012685D01*
X023863Y012709D01*
X023851Y012732D01*
X023835Y012753D01*
X023817Y012771D01*
X023796Y012787D01*
X023773Y012799D01*
X023749Y012809D01*
X023723Y012814D01*
X023697Y012816D01*
X020104Y012816D01*
X020077Y012814D01*
X020050Y012809D01*
X020025Y012801D01*
X020000Y012790D01*
X019977Y012776D01*
X019955Y012760D01*
X019936Y012741D01*
X019920Y012719D01*
X019906Y012696D01*
X019895Y012671D01*
X019887Y012646D01*
X019882Y012619D01*
X019880Y012592D01*
X019880Y006798D01*
X019882Y006772D01*
X019887Y006746D01*
X019897Y006722D01*
X019909Y006699D01*
X019925Y006678D01*
X019943Y006660D01*
X019964Y006644D01*
X019987Y006632D01*
X020011Y006622D01*
X020037Y006617D01*
X020063Y006615D01*
X020063Y006616D02*
X023680Y006616D01*
X023706Y006618D01*
X023732Y006623D01*
X023757Y006631D01*
X023780Y006643D01*
X023802Y006657D01*
X023821Y006675D01*
X023839Y006694D01*
X023853Y006716D01*
X023865Y006739D01*
X023873Y006764D01*
X023878Y006790D01*
X023880Y006816D01*
X019605Y006816D02*
X019605Y012633D01*
X019603Y012659D01*
X019598Y012685D01*
X019588Y012709D01*
X019576Y012732D01*
X019560Y012753D01*
X019542Y012771D01*
X019521Y012787D01*
X019498Y012799D01*
X019474Y012809D01*
X019448Y012814D01*
X019422Y012816D01*
X015828Y012816D01*
X015801Y012814D01*
X015774Y012809D01*
X015749Y012801D01*
X015724Y012790D01*
X015701Y012776D01*
X015679Y012760D01*
X015660Y012741D01*
X015644Y012719D01*
X015630Y012696D01*
X015619Y012671D01*
X015611Y012646D01*
X015606Y012619D01*
X015604Y012592D01*
X015605Y012592D02*
X015605Y006798D01*
X015604Y006798D02*
X015606Y006772D01*
X015611Y006746D01*
X015621Y006722D01*
X015633Y006699D01*
X015649Y006678D01*
X015667Y006660D01*
X015688Y006644D01*
X015711Y006632D01*
X015735Y006622D01*
X015761Y006617D01*
X015787Y006615D01*
X015787Y006616D02*
X019405Y006616D01*
X019431Y006618D01*
X019457Y006623D01*
X019482Y006631D01*
X019505Y006643D01*
X019527Y006657D01*
X019546Y006675D01*
X019564Y006694D01*
X019578Y006716D01*
X019590Y006739D01*
X019598Y006764D01*
X019603Y006790D01*
X019605Y006816D01*
X015329Y006816D02*
X015329Y012633D01*
X015327Y012659D01*
X015322Y012685D01*
X015312Y012709D01*
X015300Y012732D01*
X015284Y012753D01*
X015266Y012771D01*
X015245Y012787D01*
X015222Y012799D01*
X015198Y012809D01*
X015172Y012814D01*
X015146Y012816D01*
X011553Y012816D01*
X011526Y012814D01*
X011499Y012809D01*
X011474Y012801D01*
X011449Y012790D01*
X011426Y012776D01*
X011404Y012760D01*
X011385Y012741D01*
X011369Y012719D01*
X011355Y012696D01*
X011344Y012671D01*
X011336Y012646D01*
X011331Y012619D01*
X011329Y012592D01*
X011329Y006798D01*
X011331Y006772D01*
X011336Y006746D01*
X011346Y006722D01*
X011358Y006699D01*
X011374Y006678D01*
X011392Y006660D01*
X011413Y006644D01*
X011436Y006632D01*
X011460Y006622D01*
X011486Y006617D01*
X011512Y006615D01*
X011512Y006616D02*
X015129Y006616D01*
X015155Y006618D01*
X015181Y006623D01*
X015206Y006631D01*
X015229Y006643D01*
X015251Y006657D01*
X015270Y006675D01*
X015288Y006694D01*
X015302Y006716D01*
X015314Y006739D01*
X015322Y006764D01*
X015327Y006790D01*
X015329Y006816D01*
X011053Y006816D02*
X011053Y012633D01*
X011054Y012633D02*
X011052Y012659D01*
X011047Y012685D01*
X011037Y012709D01*
X011025Y012732D01*
X011009Y012753D01*
X010991Y012771D01*
X010970Y012787D01*
X010947Y012799D01*
X010923Y012809D01*
X010897Y012814D01*
X010871Y012816D01*
X007277Y012816D01*
X007250Y012814D01*
X007223Y012809D01*
X007198Y012801D01*
X007173Y012790D01*
X007150Y012776D01*
X007128Y012760D01*
X007109Y012741D01*
X007093Y012719D01*
X007079Y012696D01*
X007068Y012671D01*
X007060Y012646D01*
X007055Y012619D01*
X007053Y012592D01*
X007053Y006798D01*
X007055Y006772D01*
X007060Y006746D01*
X007070Y006722D01*
X007082Y006699D01*
X007098Y006678D01*
X007116Y006660D01*
X007137Y006644D01*
X007160Y006632D01*
X007184Y006622D01*
X007210Y006617D01*
X007236Y006615D01*
X007236Y006616D02*
X010853Y006616D01*
X010879Y006618D01*
X010905Y006623D01*
X010930Y006631D01*
X010953Y006643D01*
X010975Y006657D01*
X010994Y006675D01*
X011012Y006694D01*
X011026Y006716D01*
X011038Y006739D01*
X011046Y006764D01*
X011051Y006790D01*
X011053Y006816D01*
X006778Y006816D02*
X006778Y012633D01*
X006776Y012659D01*
X006771Y012685D01*
X006761Y012709D01*
X006749Y012732D01*
X006733Y012753D01*
X006715Y012771D01*
X006694Y012787D01*
X006671Y012799D01*
X006647Y012809D01*
X006621Y012814D01*
X006595Y012816D01*
X003001Y012816D01*
X002974Y012814D01*
X002947Y012809D01*
X002922Y012801D01*
X002897Y012790D01*
X002874Y012776D01*
X002852Y012760D01*
X002833Y012741D01*
X002817Y012719D01*
X002803Y012696D01*
X002792Y012671D01*
X002784Y012646D01*
X002779Y012619D01*
X002777Y012592D01*
X002778Y012592D02*
X002778Y006798D01*
X002780Y006772D01*
X002785Y006746D01*
X002795Y006722D01*
X002807Y006699D01*
X002823Y006678D01*
X002841Y006660D01*
X002862Y006644D01*
X002885Y006632D01*
X002909Y006622D01*
X002935Y006617D01*
X002961Y006615D01*
X002961Y006616D02*
X006578Y006616D01*
X006604Y006618D01*
X006630Y006623D01*
X006655Y006631D01*
X006678Y006643D01*
X006700Y006657D01*
X006719Y006675D01*
X006737Y006694D01*
X006751Y006716D01*
X006763Y006739D01*
X006771Y006764D01*
X006776Y006790D01*
X006778Y006816D01*
X006578Y013091D02*
X002961Y013091D01*
X002935Y013093D01*
X002909Y013098D01*
X002885Y013108D01*
X002862Y013120D01*
X002841Y013136D01*
X002823Y013154D01*
X002807Y013175D01*
X002795Y013198D01*
X002785Y013222D01*
X002780Y013248D01*
X002778Y013274D01*
X002778Y019068D01*
X002777Y019068D02*
X002779Y019095D01*
X002784Y019122D01*
X002792Y019147D01*
X002803Y019172D01*
X002817Y019195D01*
X002833Y019217D01*
X002852Y019236D01*
X002874Y019252D01*
X002897Y019266D01*
X002922Y019277D01*
X002947Y019285D01*
X002974Y019290D01*
X003001Y019292D01*
X003001Y019291D02*
X006595Y019291D01*
X006621Y019289D01*
X006647Y019284D01*
X006671Y019274D01*
X006694Y019262D01*
X006715Y019246D01*
X006733Y019228D01*
X006749Y019207D01*
X006761Y019184D01*
X006771Y019160D01*
X006776Y019134D01*
X006778Y019108D01*
X006778Y013291D01*
X006776Y013265D01*
X006771Y013239D01*
X006763Y013214D01*
X006751Y013191D01*
X006737Y013169D01*
X006719Y013150D01*
X006700Y013132D01*
X006678Y013118D01*
X006655Y013106D01*
X006630Y013098D01*
X006604Y013093D01*
X006578Y013091D01*
X007053Y013274D02*
X007053Y019068D01*
X007055Y019095D01*
X007060Y019122D01*
X007068Y019147D01*
X007079Y019172D01*
X007093Y019195D01*
X007109Y019217D01*
X007128Y019236D01*
X007150Y019252D01*
X007173Y019266D01*
X007198Y019277D01*
X007223Y019285D01*
X007250Y019290D01*
X007277Y019292D01*
X007277Y019291D02*
X010871Y019291D01*
X010897Y019289D01*
X010923Y019284D01*
X010947Y019274D01*
X010970Y019262D01*
X010991Y019246D01*
X011009Y019228D01*
X011025Y019207D01*
X011037Y019184D01*
X011047Y019160D01*
X011052Y019134D01*
X011054Y019108D01*
X011053Y019108D02*
X011053Y013291D01*
X011051Y013265D01*
X011046Y013239D01*
X011038Y013214D01*
X011026Y013191D01*
X011012Y013169D01*
X010994Y013150D01*
X010975Y013132D01*
X010953Y013118D01*
X010930Y013106D01*
X010905Y013098D01*
X010879Y013093D01*
X010853Y013091D01*
X007236Y013091D01*
X007210Y013093D01*
X007184Y013098D01*
X007160Y013108D01*
X007137Y013120D01*
X007116Y013136D01*
X007098Y013154D01*
X007082Y013175D01*
X007070Y013198D01*
X007060Y013222D01*
X007055Y013248D01*
X007053Y013274D01*
X011329Y013274D02*
X011329Y019068D01*
X011331Y019095D01*
X011336Y019122D01*
X011344Y019147D01*
X011355Y019172D01*
X011369Y019195D01*
X011385Y019217D01*
X011404Y019236D01*
X011426Y019252D01*
X011449Y019266D01*
X011474Y019277D01*
X011499Y019285D01*
X011526Y019290D01*
X011553Y019292D01*
X011553Y019291D02*
X015146Y019291D01*
X015172Y019289D01*
X015198Y019284D01*
X015222Y019274D01*
X015245Y019262D01*
X015266Y019246D01*
X015284Y019228D01*
X015300Y019207D01*
X015312Y019184D01*
X015322Y019160D01*
X015327Y019134D01*
X015329Y019108D01*
X015329Y013291D01*
X015327Y013265D01*
X015322Y013239D01*
X015314Y013214D01*
X015302Y013191D01*
X015288Y013169D01*
X015270Y013150D01*
X015251Y013132D01*
X015229Y013118D01*
X015206Y013106D01*
X015181Y013098D01*
X015155Y013093D01*
X015129Y013091D01*
X011512Y013091D01*
X011486Y013093D01*
X011460Y013098D01*
X011436Y013108D01*
X011413Y013120D01*
X011392Y013136D01*
X011374Y013154D01*
X011358Y013175D01*
X011346Y013198D01*
X011336Y013222D01*
X011331Y013248D01*
X011329Y013274D01*
X015605Y013274D02*
X015605Y019068D01*
X015604Y019068D02*
X015606Y019095D01*
X015611Y019122D01*
X015619Y019147D01*
X015630Y019172D01*
X015644Y019195D01*
X015660Y019217D01*
X015679Y019236D01*
X015701Y019252D01*
X015724Y019266D01*
X015749Y019277D01*
X015774Y019285D01*
X015801Y019290D01*
X015828Y019292D01*
X015828Y019291D02*
X019422Y019291D01*
X019448Y019289D01*
X019474Y019284D01*
X019498Y019274D01*
X019521Y019262D01*
X019542Y019246D01*
X019560Y019228D01*
X019576Y019207D01*
X019588Y019184D01*
X019598Y019160D01*
X019603Y019134D01*
X019605Y019108D01*
X019605Y013291D01*
X019603Y013265D01*
X019598Y013239D01*
X019590Y013214D01*
X019578Y013191D01*
X019564Y013169D01*
X019546Y013150D01*
X019527Y013132D01*
X019505Y013118D01*
X019482Y013106D01*
X019457Y013098D01*
X019431Y013093D01*
X019405Y013091D01*
X015787Y013091D01*
X015761Y013093D01*
X015735Y013098D01*
X015711Y013108D01*
X015688Y013120D01*
X015667Y013136D01*
X015649Y013154D01*
X015633Y013175D01*
X015621Y013198D01*
X015611Y013222D01*
X015606Y013248D01*
X015604Y013274D01*
X019880Y013274D02*
X019880Y019068D01*
X019882Y019095D01*
X019887Y019122D01*
X019895Y019147D01*
X019906Y019172D01*
X019920Y019195D01*
X019936Y019217D01*
X019955Y019236D01*
X019977Y019252D01*
X020000Y019266D01*
X020025Y019277D01*
X020050Y019285D01*
X020077Y019290D01*
X020104Y019292D01*
X020104Y019291D02*
X023697Y019291D01*
X023723Y019289D01*
X023749Y019284D01*
X023773Y019274D01*
X023796Y019262D01*
X023817Y019246D01*
X023835Y019228D01*
X023851Y019207D01*
X023863Y019184D01*
X023873Y019160D01*
X023878Y019134D01*
X023880Y019108D01*
X023880Y013291D01*
X023878Y013265D01*
X023873Y013239D01*
X023865Y013214D01*
X023853Y013191D01*
X023839Y013169D01*
X023821Y013150D01*
X023802Y013132D01*
X023780Y013118D01*
X023757Y013106D01*
X023732Y013098D01*
X023706Y013093D01*
X023680Y013091D01*
X020063Y013091D01*
X020037Y013093D01*
X020011Y013098D01*
X019987Y013108D01*
X019964Y013120D01*
X019943Y013136D01*
X019925Y013154D01*
X019909Y013175D01*
X019897Y013198D01*
X019887Y013222D01*
X019882Y013248D01*
X019880Y013274D01*
X024156Y013274D02*
X024156Y019068D01*
X024155Y019068D02*
X024157Y019095D01*
X024162Y019122D01*
X024170Y019147D01*
X024181Y019172D01*
X024195Y019195D01*
X024211Y019217D01*
X024230Y019236D01*
X024252Y019252D01*
X024275Y019266D01*
X024300Y019277D01*
X024325Y019285D01*
X024352Y019290D01*
X024379Y019292D01*
X024379Y019291D02*
X027973Y019291D01*
X027999Y019289D01*
X028025Y019284D01*
X028049Y019274D01*
X028072Y019262D01*
X028093Y019246D01*
X028111Y019228D01*
X028127Y019207D01*
X028139Y019184D01*
X028149Y019160D01*
X028154Y019134D01*
X028156Y019108D01*
X028156Y013291D01*
X028154Y013265D01*
X028149Y013239D01*
X028141Y013214D01*
X028129Y013191D01*
X028115Y013169D01*
X028097Y013150D01*
X028078Y013132D01*
X028056Y013118D01*
X028033Y013106D01*
X028008Y013098D01*
X027982Y013093D01*
X027956Y013091D01*
X024339Y013091D01*
X024313Y013093D01*
X024287Y013098D01*
X024263Y013108D01*
X024240Y013120D01*
X024219Y013136D01*
X024201Y013154D01*
X024185Y013175D01*
X024173Y013198D01*
X024163Y013222D01*
X024158Y013248D01*
X024156Y013274D01*
X028431Y013274D02*
X028431Y019068D01*
X028433Y019095D01*
X028438Y019122D01*
X028446Y019147D01*
X028457Y019172D01*
X028471Y019195D01*
X028487Y019217D01*
X028506Y019236D01*
X028528Y019252D01*
X028551Y019266D01*
X028576Y019277D01*
X028601Y019285D01*
X028628Y019290D01*
X028655Y019292D01*
X028655Y019291D02*
X032248Y019291D01*
X032274Y019289D01*
X032300Y019284D01*
X032324Y019274D01*
X032347Y019262D01*
X032368Y019246D01*
X032386Y019228D01*
X032402Y019207D01*
X032414Y019184D01*
X032424Y019160D01*
X032429Y019134D01*
X032431Y019108D01*
X032431Y013291D01*
X032429Y013265D01*
X032424Y013239D01*
X032416Y013214D01*
X032404Y013191D01*
X032390Y013169D01*
X032372Y013150D01*
X032353Y013132D01*
X032331Y013118D01*
X032308Y013106D01*
X032283Y013098D01*
X032257Y013093D01*
X032231Y013091D01*
X028614Y013091D01*
X028588Y013093D01*
X028562Y013098D01*
X028538Y013108D01*
X028515Y013120D01*
X028494Y013136D01*
X028476Y013154D01*
X028460Y013175D01*
X028448Y013198D01*
X028438Y013222D01*
X028433Y013248D01*
X028431Y013274D01*
X032707Y013274D02*
X032707Y019068D01*
X032709Y019095D01*
X032714Y019122D01*
X032722Y019147D01*
X032733Y019172D01*
X032747Y019195D01*
X032763Y019217D01*
X032782Y019236D01*
X032804Y019252D01*
X032827Y019266D01*
X032852Y019277D01*
X032877Y019285D01*
X032904Y019290D01*
X032931Y019292D01*
X032931Y019291D02*
X036524Y019291D01*
X036550Y019289D01*
X036576Y019284D01*
X036600Y019274D01*
X036623Y019262D01*
X036644Y019246D01*
X036662Y019228D01*
X036678Y019207D01*
X036690Y019184D01*
X036700Y019160D01*
X036705Y019134D01*
X036707Y019108D01*
X036707Y013291D01*
X036705Y013265D01*
X036700Y013239D01*
X036692Y013214D01*
X036680Y013191D01*
X036666Y013169D01*
X036648Y013150D01*
X036629Y013132D01*
X036607Y013118D01*
X036584Y013106D01*
X036559Y013098D01*
X036533Y013093D01*
X036507Y013091D01*
X032890Y013091D01*
X032864Y013093D01*
X032838Y013098D01*
X032814Y013108D01*
X032791Y013120D01*
X032770Y013136D01*
X032752Y013154D01*
X032736Y013175D01*
X032724Y013198D01*
X032714Y013222D01*
X032709Y013248D01*
X032707Y013274D01*
X032890Y019567D02*
X036507Y019567D01*
X036533Y019569D01*
X036559Y019574D01*
X036584Y019582D01*
X036607Y019594D01*
X036629Y019608D01*
X036648Y019626D01*
X036666Y019645D01*
X036680Y019667D01*
X036692Y019690D01*
X036700Y019715D01*
X036705Y019741D01*
X036707Y019767D01*
X036707Y025584D01*
X036705Y025610D01*
X036700Y025636D01*
X036690Y025660D01*
X036678Y025683D01*
X036662Y025704D01*
X036644Y025722D01*
X036623Y025738D01*
X036600Y025750D01*
X036576Y025760D01*
X036550Y025765D01*
X036524Y025767D01*
X032931Y025767D01*
X032904Y025765D01*
X032877Y025760D01*
X032852Y025752D01*
X032827Y025741D01*
X032804Y025727D01*
X032782Y025711D01*
X032763Y025692D01*
X032747Y025670D01*
X032733Y025647D01*
X032722Y025622D01*
X032714Y025597D01*
X032709Y025570D01*
X032707Y025543D01*
X032707Y019750D01*
X032709Y019724D01*
X032714Y019698D01*
X032724Y019674D01*
X032736Y019651D01*
X032752Y019630D01*
X032770Y019612D01*
X032791Y019596D01*
X032814Y019584D01*
X032838Y019574D01*
X032864Y019569D01*
X032890Y019567D01*
X032431Y019767D02*
X032431Y025584D01*
X032429Y025610D01*
X032424Y025636D01*
X032414Y025660D01*
X032402Y025683D01*
X032386Y025704D01*
X032368Y025722D01*
X032347Y025738D01*
X032324Y025750D01*
X032300Y025760D01*
X032274Y025765D01*
X032248Y025767D01*
X028655Y025767D01*
X028628Y025765D01*
X028601Y025760D01*
X028576Y025752D01*
X028551Y025741D01*
X028528Y025727D01*
X028506Y025711D01*
X028487Y025692D01*
X028471Y025670D01*
X028457Y025647D01*
X028446Y025622D01*
X028438Y025597D01*
X028433Y025570D01*
X028431Y025543D01*
X028431Y019750D01*
X028433Y019724D01*
X028438Y019698D01*
X028448Y019674D01*
X028460Y019651D01*
X028476Y019630D01*
X028494Y019612D01*
X028515Y019596D01*
X028538Y019584D01*
X028562Y019574D01*
X028588Y019569D01*
X028614Y019567D01*
X032231Y019567D01*
X032257Y019569D01*
X032283Y019574D01*
X032308Y019582D01*
X032331Y019594D01*
X032353Y019608D01*
X032372Y019626D01*
X032390Y019645D01*
X032404Y019667D01*
X032416Y019690D01*
X032424Y019715D01*
X032429Y019741D01*
X032431Y019767D01*
X028156Y019767D02*
X028156Y025584D01*
X028154Y025610D01*
X028149Y025636D01*
X028139Y025660D01*
X028127Y025683D01*
X028111Y025704D01*
X028093Y025722D01*
X028072Y025738D01*
X028049Y025750D01*
X028025Y025760D01*
X027999Y025765D01*
X027973Y025767D01*
X024379Y025767D01*
X024352Y025765D01*
X024325Y025760D01*
X024300Y025752D01*
X024275Y025741D01*
X024252Y025727D01*
X024230Y025711D01*
X024211Y025692D01*
X024195Y025670D01*
X024181Y025647D01*
X024170Y025622D01*
X024162Y025597D01*
X024157Y025570D01*
X024155Y025543D01*
X024156Y025543D02*
X024156Y019750D01*
X024158Y019724D01*
X024163Y019698D01*
X024173Y019674D01*
X024185Y019651D01*
X024201Y019630D01*
X024219Y019612D01*
X024240Y019596D01*
X024263Y019584D01*
X024287Y019574D01*
X024313Y019569D01*
X024339Y019567D01*
X027956Y019567D01*
X027982Y019569D01*
X028008Y019574D01*
X028033Y019582D01*
X028056Y019594D01*
X028078Y019608D01*
X028097Y019626D01*
X028115Y019645D01*
X028129Y019667D01*
X028141Y019690D01*
X028149Y019715D01*
X028154Y019741D01*
X028156Y019767D01*
X023880Y019767D02*
X023880Y025584D01*
X023878Y025610D01*
X023873Y025636D01*
X023863Y025660D01*
X023851Y025683D01*
X023835Y025704D01*
X023817Y025722D01*
X023796Y025738D01*
X023773Y025750D01*
X023749Y025760D01*
X023723Y025765D01*
X023697Y025767D01*
X020104Y025767D01*
X020077Y025765D01*
X020050Y025760D01*
X020025Y025752D01*
X020000Y025741D01*
X019977Y025727D01*
X019955Y025711D01*
X019936Y025692D01*
X019920Y025670D01*
X019906Y025647D01*
X019895Y025622D01*
X019887Y025597D01*
X019882Y025570D01*
X019880Y025543D01*
X019880Y019750D01*
X019882Y019724D01*
X019887Y019698D01*
X019897Y019674D01*
X019909Y019651D01*
X019925Y019630D01*
X019943Y019612D01*
X019964Y019596D01*
X019987Y019584D01*
X020011Y019574D01*
X020037Y019569D01*
X020063Y019567D01*
X023680Y019567D01*
X023706Y019569D01*
X023732Y019574D01*
X023757Y019582D01*
X023780Y019594D01*
X023802Y019608D01*
X023821Y019626D01*
X023839Y019645D01*
X023853Y019667D01*
X023865Y019690D01*
X023873Y019715D01*
X023878Y019741D01*
X023880Y019767D01*
X019605Y019767D02*
X019605Y025584D01*
X019603Y025610D01*
X019598Y025636D01*
X019588Y025660D01*
X019576Y025683D01*
X019560Y025704D01*
X019542Y025722D01*
X019521Y025738D01*
X019498Y025750D01*
X019474Y025760D01*
X019448Y025765D01*
X019422Y025767D01*
X015828Y025767D01*
X015801Y025765D01*
X015774Y025760D01*
X015749Y025752D01*
X015724Y025741D01*
X015701Y025727D01*
X015679Y025711D01*
X015660Y025692D01*
X015644Y025670D01*
X015630Y025647D01*
X015619Y025622D01*
X015611Y025597D01*
X015606Y025570D01*
X015604Y025543D01*
X015605Y025543D02*
X015605Y019750D01*
X015604Y019750D02*
X015606Y019724D01*
X015611Y019698D01*
X015621Y019674D01*
X015633Y019651D01*
X015649Y019630D01*
X015667Y019612D01*
X015688Y019596D01*
X015711Y019584D01*
X015735Y019574D01*
X015761Y019569D01*
X015787Y019567D01*
X019405Y019567D01*
X019431Y019569D01*
X019457Y019574D01*
X019482Y019582D01*
X019505Y019594D01*
X019527Y019608D01*
X019546Y019626D01*
X019564Y019645D01*
X019578Y019667D01*
X019590Y019690D01*
X019598Y019715D01*
X019603Y019741D01*
X019605Y019767D01*
X015329Y019767D02*
X015329Y025584D01*
X015327Y025610D01*
X015322Y025636D01*
X015312Y025660D01*
X015300Y025683D01*
X015284Y025704D01*
X015266Y025722D01*
X015245Y025738D01*
X015222Y025750D01*
X015198Y025760D01*
X015172Y025765D01*
X015146Y025767D01*
X011553Y025767D01*
X011526Y025765D01*
X011499Y025760D01*
X011474Y025752D01*
X011449Y025741D01*
X011426Y025727D01*
X011404Y025711D01*
X011385Y025692D01*
X011369Y025670D01*
X011355Y025647D01*
X011344Y025622D01*
X011336Y025597D01*
X011331Y025570D01*
X011329Y025543D01*
X011329Y019750D01*
X011331Y019724D01*
X011336Y019698D01*
X011346Y019674D01*
X011358Y019651D01*
X011374Y019630D01*
X011392Y019612D01*
X011413Y019596D01*
X011436Y019584D01*
X011460Y019574D01*
X011486Y019569D01*
X011512Y019567D01*
X015129Y019567D01*
X015155Y019569D01*
X015181Y019574D01*
X015206Y019582D01*
X015229Y019594D01*
X015251Y019608D01*
X015270Y019626D01*
X015288Y019645D01*
X015302Y019667D01*
X015314Y019690D01*
X015322Y019715D01*
X015327Y019741D01*
X015329Y019767D01*
X011053Y019767D02*
X011053Y025584D01*
X011054Y025584D02*
X011052Y025610D01*
X011047Y025636D01*
X011037Y025660D01*
X011025Y025683D01*
X011009Y025704D01*
X010991Y025722D01*
X010970Y025738D01*
X010947Y025750D01*
X010923Y025760D01*
X010897Y025765D01*
X010871Y025767D01*
X007277Y025767D01*
X007250Y025765D01*
X007223Y025760D01*
X007198Y025752D01*
X007173Y025741D01*
X007150Y025727D01*
X007128Y025711D01*
X007109Y025692D01*
X007093Y025670D01*
X007079Y025647D01*
X007068Y025622D01*
X007060Y025597D01*
X007055Y025570D01*
X007053Y025543D01*
X007053Y019750D01*
X007055Y019724D01*
X007060Y019698D01*
X007070Y019674D01*
X007082Y019651D01*
X007098Y019630D01*
X007116Y019612D01*
X007137Y019596D01*
X007160Y019584D01*
X007184Y019574D01*
X007210Y019569D01*
X007236Y019567D01*
X010853Y019567D01*
X010879Y019569D01*
X010905Y019574D01*
X010930Y019582D01*
X010953Y019594D01*
X010975Y019608D01*
X010994Y019626D01*
X011012Y019645D01*
X011026Y019667D01*
X011038Y019690D01*
X011046Y019715D01*
X011051Y019741D01*
X011053Y019767D01*
X006778Y019767D02*
X006778Y025584D01*
X006776Y025610D01*
X006771Y025636D01*
X006761Y025660D01*
X006749Y025683D01*
X006733Y025704D01*
X006715Y025722D01*
X006694Y025738D01*
X006671Y025750D01*
X006647Y025760D01*
X006621Y025765D01*
X006595Y025767D01*
X003001Y025767D01*
X002974Y025765D01*
X002947Y025760D01*
X002922Y025752D01*
X002897Y025741D01*
X002874Y025727D01*
X002852Y025711D01*
X002833Y025692D01*
X002817Y025670D01*
X002803Y025647D01*
X002792Y025622D01*
X002784Y025597D01*
X002779Y025570D01*
X002777Y025543D01*
X002778Y025543D02*
X002778Y019750D01*
X002780Y019724D01*
X002785Y019698D01*
X002795Y019674D01*
X002807Y019651D01*
X002823Y019630D01*
X002841Y019612D01*
X002862Y019596D01*
X002885Y019584D01*
X002909Y019574D01*
X002935Y019569D01*
X002961Y019567D01*
X006578Y019567D01*
X006604Y019569D01*
X006630Y019574D01*
X006655Y019582D01*
X006678Y019594D01*
X006700Y019608D01*
X006719Y019626D01*
X006737Y019645D01*
X006751Y019667D01*
X006763Y019690D01*
X006771Y019715D01*
X006776Y019741D01*
X006778Y019767D01*
D11*
X007403Y020882D03*
X007403Y021551D03*
X007403Y023782D03*
X007403Y024451D03*
X003128Y024451D03*
X003128Y023782D03*
X003128Y021551D03*
X003128Y020882D03*
X003128Y017976D03*
X003128Y017307D03*
X003128Y015076D03*
X003128Y014407D03*
X003128Y011500D03*
X003128Y010831D03*
X003128Y008600D03*
X003128Y007931D03*
X003128Y005025D03*
X003128Y004355D03*
X003128Y002125D03*
X003128Y001455D03*
X007403Y001455D03*
X007403Y002125D03*
X007403Y004355D03*
X007403Y005025D03*
X007403Y007931D03*
X007403Y008600D03*
X007403Y010831D03*
X007403Y011500D03*
X007403Y014407D03*
X007403Y015076D03*
X007403Y017307D03*
X007403Y017976D03*
X011679Y017976D03*
X011679Y017307D03*
X011679Y015076D03*
X011679Y014407D03*
X011679Y011500D03*
X011679Y010831D03*
X011679Y008600D03*
X011679Y007931D03*
X011679Y005025D03*
X011679Y004355D03*
X011679Y002125D03*
X011679Y001455D03*
X015955Y001455D03*
X015955Y002125D03*
X015955Y004355D03*
X015955Y005025D03*
X015955Y007931D03*
X015955Y008600D03*
X015955Y010831D03*
X015955Y011500D03*
X015955Y014407D03*
X015955Y015076D03*
X015955Y017307D03*
X015955Y017976D03*
X015955Y020882D03*
X015955Y021551D03*
X015955Y023782D03*
X015955Y024451D03*
X020230Y024451D03*
X020230Y023782D03*
X020230Y021551D03*
X020230Y020882D03*
X020230Y017976D03*
X020230Y017307D03*
X020230Y015076D03*
X020230Y014407D03*
X020230Y011500D03*
X020230Y010831D03*
X020230Y008600D03*
X020230Y007931D03*
X020230Y005025D03*
X020230Y004355D03*
X020230Y002125D03*
X020230Y001455D03*
X024506Y001455D03*
X024506Y002125D03*
X024506Y004355D03*
X024506Y005025D03*
X028781Y005025D03*
X028781Y004355D03*
X028781Y002125D03*
X028781Y001455D03*
X033057Y001455D03*
X033057Y002125D03*
X033057Y004355D03*
X033057Y005025D03*
X033057Y007931D03*
X033057Y008600D03*
X033057Y010831D03*
X033057Y011500D03*
X033057Y014407D03*
X033057Y015076D03*
X033057Y017307D03*
X033057Y017976D03*
X033057Y020882D03*
X033057Y021551D03*
X033057Y023782D03*
X033057Y024451D03*
X028781Y024451D03*
X028781Y023782D03*
X028781Y021551D03*
X028781Y020882D03*
X024506Y020882D03*
X024506Y021551D03*
X024506Y023782D03*
X024506Y024451D03*
X024506Y017976D03*
X024506Y017307D03*
X024506Y015076D03*
X024506Y014407D03*
X028781Y014407D03*
X028781Y015076D03*
X028781Y017307D03*
X028781Y017976D03*
X028781Y011500D03*
X028781Y010831D03*
X028781Y008600D03*
X028781Y007931D03*
X024506Y007931D03*
X024506Y008600D03*
X024506Y010831D03*
X024506Y011500D03*
X011679Y020882D03*
X011679Y021551D03*
X011679Y023782D03*
X011679Y024451D03*
D12*
X012329Y025267D03*
X013329Y025267D03*
X014329Y025267D03*
X016605Y025267D03*
X017605Y025267D03*
X018605Y025267D03*
X020880Y025267D03*
X021880Y025267D03*
X022880Y025267D03*
X025156Y025267D03*
X026156Y025267D03*
X027156Y025267D03*
X029431Y025267D03*
X030431Y025267D03*
X031431Y025267D03*
X033707Y025267D03*
X034707Y025267D03*
X035707Y025267D03*
X035707Y020067D03*
X034707Y020067D03*
X033707Y020067D03*
X033707Y018791D03*
X034707Y018791D03*
X035707Y018791D03*
X031431Y018791D03*
X030431Y018791D03*
X029431Y018791D03*
X029431Y020067D03*
X030431Y020067D03*
X031431Y020067D03*
X027156Y020067D03*
X026156Y020067D03*
X025156Y020067D03*
X025156Y018791D03*
X026156Y018791D03*
X027156Y018791D03*
X022880Y018791D03*
X021880Y018791D03*
X020880Y018791D03*
X020880Y020067D03*
X021880Y020067D03*
X022880Y020067D03*
X018605Y020067D03*
X017605Y020067D03*
X016605Y020067D03*
X016605Y018791D03*
X017605Y018791D03*
X018605Y018791D03*
X014329Y018791D03*
X013329Y018791D03*
X012329Y018791D03*
X012329Y020067D03*
X013329Y020067D03*
X014329Y020067D03*
X010053Y020067D03*
X009053Y020067D03*
X008053Y020067D03*
X008053Y018791D03*
X009053Y018791D03*
X010053Y018791D03*
X005778Y018791D03*
X004778Y018791D03*
X003778Y018791D03*
X003778Y020067D03*
X004778Y020067D03*
X005778Y020067D03*
X005778Y025267D03*
X004778Y025267D03*
X003778Y025267D03*
X008053Y025267D03*
X009053Y025267D03*
X010053Y025267D03*
X010053Y013591D03*
X009053Y013591D03*
X008053Y013591D03*
X008053Y012316D03*
X009053Y012316D03*
X010053Y012316D03*
X012329Y012316D03*
X013329Y012316D03*
X014329Y012316D03*
X014329Y013591D03*
X013329Y013591D03*
X012329Y013591D03*
X016605Y013591D03*
X017605Y013591D03*
X018605Y013591D03*
X018605Y012316D03*
X017605Y012316D03*
X016605Y012316D03*
X020880Y012316D03*
X021880Y012316D03*
X022880Y012316D03*
X022880Y013591D03*
X021880Y013591D03*
X020880Y013591D03*
X025156Y013591D03*
X026156Y013591D03*
X027156Y013591D03*
X027156Y012316D03*
X026156Y012316D03*
X025156Y012316D03*
X029431Y012316D03*
X030431Y012316D03*
X031431Y012316D03*
X031431Y013591D03*
X030431Y013591D03*
X029431Y013591D03*
X033707Y013591D03*
X034707Y013591D03*
X035707Y013591D03*
X035707Y012316D03*
X034707Y012316D03*
X033707Y012316D03*
X033707Y007116D03*
X034707Y007116D03*
X035707Y007116D03*
X035707Y005840D03*
X034707Y005840D03*
X033707Y005840D03*
X031431Y005840D03*
X030431Y005840D03*
X029431Y005840D03*
X029431Y007116D03*
X030431Y007116D03*
X031431Y007116D03*
X027156Y007116D03*
X026156Y007116D03*
X025156Y007116D03*
X025156Y005840D03*
X026156Y005840D03*
X027156Y005840D03*
X022880Y005840D03*
X021880Y005840D03*
X020880Y005840D03*
X020880Y007116D03*
X021880Y007116D03*
X022880Y007116D03*
X018605Y007116D03*
X017605Y007116D03*
X016605Y007116D03*
X016605Y005840D03*
X017605Y005840D03*
X018605Y005840D03*
X014329Y005840D03*
X013329Y005840D03*
X012329Y005840D03*
X012329Y007116D03*
X013329Y007116D03*
X014329Y007116D03*
X010053Y007116D03*
X009053Y007116D03*
X008053Y007116D03*
X008053Y005840D03*
X009053Y005840D03*
X010053Y005840D03*
X005778Y005840D03*
X004778Y005840D03*
X003778Y005840D03*
X003778Y007116D03*
X004778Y007116D03*
X005778Y007116D03*
X005778Y012316D03*
X004778Y012316D03*
X003778Y012316D03*
X003778Y013591D03*
X004778Y013591D03*
X005778Y013591D03*
X005778Y000640D03*
X004778Y000640D03*
X003778Y000640D03*
X008053Y000640D03*
X009053Y000640D03*
X010053Y000640D03*
X012329Y000640D03*
X013329Y000640D03*
X014329Y000640D03*
X016605Y000640D03*
X017605Y000640D03*
X018605Y000640D03*
X020880Y000640D03*
X021880Y000640D03*
X022880Y000640D03*
X025156Y000640D03*
X026156Y000640D03*
X027156Y000640D03*
X029431Y000640D03*
X030431Y000640D03*
X031431Y000640D03*
X033707Y000640D03*
X034707Y000640D03*
X035707Y000640D03*
D13*
X035757Y002748D03*
X035757Y003240D03*
X035757Y003732D03*
X033757Y003732D03*
X033757Y003240D03*
X033757Y002748D03*
X031481Y002748D03*
X031481Y003240D03*
X031481Y003732D03*
X029481Y003732D03*
X029481Y003240D03*
X029481Y002748D03*
X027206Y002748D03*
X027206Y003240D03*
X027206Y003732D03*
X025206Y003732D03*
X025206Y003240D03*
X025206Y002748D03*
X022930Y002748D03*
X022930Y003240D03*
X022930Y003732D03*
X020930Y003732D03*
X020930Y003240D03*
X020930Y002748D03*
X018655Y002748D03*
X018655Y003240D03*
X018655Y003732D03*
X016655Y003732D03*
X016655Y003240D03*
X016655Y002748D03*
X014379Y002748D03*
X014379Y003240D03*
X014379Y003732D03*
X012379Y003732D03*
X012379Y003240D03*
X012379Y002748D03*
X010103Y002748D03*
X010103Y003240D03*
X010103Y003732D03*
X008103Y003732D03*
X008103Y003240D03*
X008103Y002748D03*
X005828Y002748D03*
X005828Y003240D03*
X005828Y003732D03*
X003828Y003732D03*
X003828Y003240D03*
X003828Y002748D03*
X003828Y009223D03*
X003828Y009716D03*
X003828Y010208D03*
X005828Y010208D03*
X005828Y009716D03*
X005828Y009223D03*
X008103Y009223D03*
X008103Y009716D03*
X008103Y010208D03*
X010103Y010208D03*
X010103Y009716D03*
X010103Y009223D03*
X012379Y009223D03*
X012379Y009716D03*
X012379Y010208D03*
X014379Y010208D03*
X014379Y009716D03*
X014379Y009223D03*
X016655Y009223D03*
X016655Y009716D03*
X016655Y010208D03*
X018655Y010208D03*
X018655Y009716D03*
X018655Y009223D03*
X020930Y009223D03*
X020930Y009716D03*
X020930Y010208D03*
X022930Y010208D03*
X022930Y009716D03*
X022930Y009223D03*
X025206Y009223D03*
X025206Y009716D03*
X025206Y010208D03*
X027206Y010208D03*
X027206Y009716D03*
X027206Y009223D03*
X029481Y009223D03*
X029481Y009716D03*
X029481Y010208D03*
X031481Y010208D03*
X031481Y009716D03*
X031481Y009223D03*
X033757Y009223D03*
X033757Y009716D03*
X033757Y010208D03*
X035757Y010208D03*
X035757Y009716D03*
X035757Y009223D03*
X035757Y015699D03*
X035757Y016191D03*
X035757Y016683D03*
X033757Y016683D03*
X033757Y016191D03*
X033757Y015699D03*
X031481Y015699D03*
X031481Y016191D03*
X031481Y016683D03*
X029481Y016683D03*
X029481Y016191D03*
X029481Y015699D03*
X027206Y015699D03*
X027206Y016191D03*
X027206Y016683D03*
X025206Y016683D03*
X025206Y016191D03*
X025206Y015699D03*
X022930Y015699D03*
X022930Y016191D03*
X022930Y016683D03*
X020930Y016683D03*
X020930Y016191D03*
X020930Y015699D03*
X018655Y015699D03*
X018655Y016191D03*
X018655Y016683D03*
X016655Y016683D03*
X016655Y016191D03*
X016655Y015699D03*
X014379Y015699D03*
X014379Y016191D03*
X014379Y016683D03*
X012379Y016683D03*
X012379Y016191D03*
X012379Y015699D03*
X010103Y015699D03*
X010103Y016191D03*
X010103Y016683D03*
X008103Y016683D03*
X008103Y016191D03*
X008103Y015699D03*
X005828Y015699D03*
X005828Y016191D03*
X005828Y016683D03*
X003828Y016683D03*
X003828Y016191D03*
X003828Y015699D03*
X003828Y022175D03*
X003828Y022667D03*
X003828Y023159D03*
X005828Y023159D03*
X005828Y022667D03*
X005828Y022175D03*
X008103Y022175D03*
X008103Y022667D03*
X008103Y023159D03*
X010103Y023159D03*
X010103Y022667D03*
X010103Y022175D03*
X012379Y022175D03*
X012379Y022667D03*
X012379Y023159D03*
X014379Y023159D03*
X014379Y022667D03*
X014379Y022175D03*
X016655Y022175D03*
X016655Y022667D03*
X016655Y023159D03*
X018655Y023159D03*
X018655Y022667D03*
X018655Y022175D03*
X020930Y022175D03*
X020930Y022667D03*
X020930Y023159D03*
X022930Y023159D03*
X022930Y022667D03*
X022930Y022175D03*
X025206Y022175D03*
X025206Y022667D03*
X025206Y023159D03*
X027206Y023159D03*
X027206Y022667D03*
X027206Y022175D03*
X029481Y022175D03*
X029481Y022667D03*
X029481Y023159D03*
X031481Y023159D03*
X031481Y022667D03*
X031481Y022175D03*
X033757Y022175D03*
X033757Y022667D03*
X033757Y023159D03*
X035757Y023159D03*
X035757Y022667D03*
X035757Y022175D03*
D14*
X035257Y021289D03*
X034257Y021289D03*
X030981Y021289D03*
X029981Y021289D03*
X026706Y021289D03*
X025706Y021289D03*
X022430Y021289D03*
X021430Y021289D03*
X018155Y021289D03*
X017155Y021289D03*
X013879Y021289D03*
X012879Y021289D03*
X009603Y021289D03*
X008603Y021289D03*
X005328Y021289D03*
X004328Y021289D03*
X004328Y024045D03*
X005328Y024045D03*
X008603Y024045D03*
X009603Y024045D03*
X012879Y024045D03*
X013879Y024045D03*
X017155Y024045D03*
X018155Y024045D03*
X021430Y024045D03*
X022430Y024045D03*
X025706Y024045D03*
X026706Y024045D03*
X029981Y024045D03*
X030981Y024045D03*
X034257Y024045D03*
X035257Y024045D03*
X035257Y017569D03*
X034257Y017569D03*
X030981Y017569D03*
X029981Y017569D03*
X026706Y017569D03*
X025706Y017569D03*
X022430Y017569D03*
X021430Y017569D03*
X018155Y017569D03*
X017155Y017569D03*
X013879Y017569D03*
X012879Y017569D03*
X009603Y017569D03*
X008603Y017569D03*
X005328Y017569D03*
X004328Y017569D03*
X004328Y014813D03*
X005328Y014813D03*
X008603Y014813D03*
X009603Y014813D03*
X012879Y014813D03*
X013879Y014813D03*
X017155Y014813D03*
X018155Y014813D03*
X021430Y014813D03*
X022430Y014813D03*
X025706Y014813D03*
X026706Y014813D03*
X029981Y014813D03*
X030981Y014813D03*
X034257Y014813D03*
X035257Y014813D03*
X035257Y011094D03*
X034257Y011094D03*
X030981Y011094D03*
X029981Y011094D03*
X026706Y011094D03*
X025706Y011094D03*
X022430Y011094D03*
X021430Y011094D03*
X018155Y011094D03*
X017155Y011094D03*
X013879Y011094D03*
X012879Y011094D03*
X009603Y011094D03*
X008603Y011094D03*
X005328Y011094D03*
X004328Y011094D03*
X004328Y008338D03*
X005328Y008338D03*
X008603Y008338D03*
X009603Y008338D03*
X012879Y008338D03*
X013879Y008338D03*
X017155Y008338D03*
X018155Y008338D03*
X021430Y008338D03*
X022430Y008338D03*
X025706Y008338D03*
X026706Y008338D03*
X029981Y008338D03*
X030981Y008338D03*
X034257Y008338D03*
X035257Y008338D03*
X035257Y004618D03*
X034257Y004618D03*
X030981Y004618D03*
X029981Y004618D03*
X026706Y004618D03*
X025706Y004618D03*
X022430Y004618D03*
X021430Y004618D03*
X018155Y004618D03*
X017155Y004618D03*
X013879Y004618D03*
X012879Y004618D03*
X009603Y004618D03*
X008603Y004618D03*
X005328Y004618D03*
X004328Y004618D03*
X004328Y001862D03*
X005328Y001862D03*
X008603Y001862D03*
X009603Y001862D03*
X012879Y001862D03*
X013879Y001862D03*
X017155Y001862D03*
X018155Y001862D03*
X021430Y001862D03*
X022430Y001862D03*
X025706Y001862D03*
X026706Y001862D03*
X029981Y001862D03*
X030981Y001862D03*
X034257Y001862D03*
X035257Y001862D03*
D15*
X034707Y000640D02*
X033892Y001455D01*
X033057Y001455D01*
X033057Y002125D02*
X033057Y003090D01*
X033207Y003240D01*
X033757Y003240D01*
X033757Y003732D02*
X033165Y003732D01*
X033057Y003840D01*
X033057Y004355D01*
X033707Y003782D02*
X033757Y003732D01*
X033707Y003782D02*
X033707Y005840D01*
X033057Y005640D02*
X033057Y005025D01*
X031431Y004740D02*
X031309Y004618D01*
X030981Y004618D01*
X031431Y004740D02*
X031431Y005840D01*
X030431Y007116D02*
X029616Y007931D01*
X028781Y007931D01*
X028781Y008600D02*
X028781Y009566D01*
X028931Y009716D01*
X029481Y009716D01*
X029481Y010208D02*
X028889Y010208D01*
X028781Y010316D01*
X028781Y010831D01*
X029431Y010258D02*
X029481Y010208D01*
X029431Y010258D02*
X029431Y012316D01*
X028781Y012116D02*
X028781Y011500D01*
X027156Y011216D02*
X027034Y011094D01*
X026706Y011094D01*
X027156Y011216D02*
X027156Y012316D01*
X026156Y013591D02*
X025340Y014407D01*
X024506Y014407D01*
X024506Y015076D02*
X024506Y016041D01*
X024656Y016191D01*
X025206Y016191D01*
X025206Y016683D02*
X024614Y016683D01*
X024506Y016791D01*
X024506Y017307D01*
X025156Y016733D02*
X025206Y016683D01*
X025156Y016733D02*
X025156Y018791D01*
X024506Y018591D02*
X024506Y017976D01*
X022880Y017691D02*
X022758Y017569D01*
X022430Y017569D01*
X022880Y017691D02*
X022880Y018791D01*
X021880Y020067D02*
X021065Y020882D01*
X020230Y020882D01*
X020230Y021551D02*
X020230Y022517D01*
X020380Y022667D01*
X020930Y022667D01*
X020930Y023159D02*
X020338Y023159D01*
X020230Y023267D01*
X020230Y023782D01*
X020880Y023209D02*
X020930Y023159D01*
X020880Y023209D02*
X020880Y025267D01*
X020230Y025067D02*
X020230Y024451D01*
X018605Y024167D02*
X018605Y025267D01*
X018605Y024167D02*
X018483Y024045D01*
X018155Y024045D01*
X017747Y023159D02*
X017605Y023017D01*
X017605Y022667D01*
X017747Y023159D02*
X018655Y023159D01*
X016655Y023159D02*
X016605Y023209D01*
X016605Y025267D01*
X015955Y025067D02*
X015955Y024451D01*
X015955Y023782D02*
X015955Y023267D01*
X016062Y023159D01*
X016655Y023159D01*
X016655Y022667D02*
X016105Y022667D01*
X015955Y022517D01*
X015955Y021551D01*
X015955Y020882D02*
X016789Y020882D01*
X017605Y020067D01*
X018605Y018791D02*
X018605Y017691D01*
X018483Y017569D01*
X018155Y017569D01*
X017747Y016683D02*
X017605Y016541D01*
X017605Y016191D01*
X017747Y016683D02*
X018655Y016683D01*
X020230Y016791D02*
X020230Y017307D01*
X020230Y016791D02*
X020338Y016683D01*
X020930Y016683D01*
X020880Y016733D01*
X020880Y018791D01*
X020230Y018591D02*
X020230Y017976D01*
X021880Y016541D02*
X022022Y016683D01*
X022930Y016683D01*
X021880Y016541D02*
X021880Y016191D01*
X020930Y016191D02*
X020380Y016191D01*
X020230Y016041D01*
X020230Y015076D01*
X020230Y014407D02*
X021065Y014407D01*
X021880Y013591D01*
X020880Y012316D02*
X020880Y010258D01*
X020930Y010208D01*
X020338Y010208D01*
X020230Y010316D01*
X020230Y010831D01*
X020230Y011500D02*
X020230Y012116D01*
X018605Y012316D02*
X018605Y011216D01*
X018483Y011094D01*
X018155Y011094D01*
X017747Y010208D02*
X017605Y010066D01*
X017605Y009716D01*
X017747Y010208D02*
X018655Y010208D01*
X020230Y009566D02*
X020380Y009716D01*
X020930Y009716D01*
X020230Y009566D02*
X020230Y008600D01*
X020230Y007931D02*
X021065Y007931D01*
X021880Y007116D01*
X020880Y005840D02*
X020880Y003782D01*
X020930Y003732D01*
X020338Y003732D01*
X020230Y003840D01*
X020230Y004355D01*
X020230Y005025D02*
X020230Y005640D01*
X018605Y005840D02*
X018605Y004740D01*
X018483Y004618D01*
X018155Y004618D01*
X017747Y003732D02*
X017605Y003590D01*
X017605Y003240D01*
X017747Y003732D02*
X018655Y003732D01*
X020230Y003090D02*
X020380Y003240D01*
X020930Y003240D01*
X020230Y003090D02*
X020230Y002125D01*
X020230Y001455D02*
X021065Y001455D01*
X021880Y000640D01*
X024506Y001455D02*
X025340Y001455D01*
X026156Y000640D01*
X024506Y002125D02*
X024506Y003090D01*
X024656Y003240D01*
X025206Y003240D01*
X025206Y003732D02*
X024614Y003732D01*
X024506Y003840D01*
X024506Y004355D01*
X025156Y003782D02*
X025206Y003732D01*
X025156Y003782D02*
X025156Y005840D01*
X024506Y005640D02*
X024506Y005025D01*
X022880Y004740D02*
X022758Y004618D01*
X022430Y004618D01*
X022880Y004740D02*
X022880Y005840D01*
X022930Y003732D02*
X022022Y003732D01*
X021880Y003590D01*
X021880Y003240D01*
X026156Y003240D02*
X026156Y003590D01*
X026298Y003732D01*
X027206Y003732D01*
X027034Y004618D02*
X026706Y004618D01*
X027034Y004618D02*
X027156Y004740D01*
X027156Y005840D01*
X028781Y005640D02*
X028781Y005025D01*
X028781Y004355D02*
X028781Y003840D01*
X028889Y003732D01*
X029481Y003732D01*
X029431Y003782D01*
X029431Y005840D01*
X030573Y003732D02*
X030431Y003590D01*
X030431Y003240D01*
X030573Y003732D02*
X031481Y003732D01*
X029481Y003240D02*
X028931Y003240D01*
X028781Y003090D01*
X028781Y002125D01*
X028781Y001455D02*
X029616Y001455D01*
X030431Y000640D01*
X034707Y003240D02*
X034707Y003590D01*
X034849Y003732D01*
X035757Y003732D01*
X035585Y004618D02*
X035257Y004618D01*
X035585Y004618D02*
X035707Y004740D01*
X035707Y005840D01*
X034707Y007116D02*
X033892Y007931D01*
X033057Y007931D01*
X033057Y008600D02*
X033057Y009566D01*
X033207Y009716D01*
X033757Y009716D01*
X033757Y010208D02*
X033165Y010208D01*
X033057Y010316D01*
X033057Y010831D01*
X033707Y010258D02*
X033757Y010208D01*
X033707Y010258D02*
X033707Y012316D01*
X033057Y012116D02*
X033057Y011500D01*
X031431Y011216D02*
X031309Y011094D01*
X030981Y011094D01*
X031431Y011216D02*
X031431Y012316D01*
X030431Y013591D02*
X029616Y014407D01*
X028781Y014407D01*
X028781Y015076D02*
X028781Y016041D01*
X028931Y016191D01*
X029481Y016191D01*
X029481Y016683D02*
X028889Y016683D01*
X028781Y016791D01*
X028781Y017307D01*
X029431Y016733D02*
X029481Y016683D01*
X029431Y016733D02*
X029431Y018791D01*
X028781Y018591D02*
X028781Y017976D01*
X027156Y017691D02*
X027034Y017569D01*
X026706Y017569D01*
X027156Y017691D02*
X027156Y018791D01*
X026156Y020067D02*
X025340Y020882D01*
X024506Y020882D01*
X024506Y021551D02*
X024506Y022517D01*
X024656Y022667D01*
X025206Y022667D01*
X025206Y023159D02*
X024614Y023159D01*
X024506Y023267D01*
X024506Y023782D01*
X025156Y023209D02*
X025206Y023159D01*
X025156Y023209D02*
X025156Y025267D01*
X024506Y025067D02*
X024506Y024451D01*
X022880Y024167D02*
X022758Y024045D01*
X022430Y024045D01*
X022880Y024167D02*
X022880Y025267D01*
X022930Y023159D02*
X022022Y023159D01*
X021880Y023017D01*
X021880Y022667D01*
X026156Y022667D02*
X026156Y023017D01*
X026298Y023159D01*
X027206Y023159D01*
X027034Y024045D02*
X026706Y024045D01*
X027034Y024045D02*
X027156Y024167D01*
X027156Y025267D01*
X028781Y025067D02*
X028781Y024451D01*
X028781Y023782D02*
X028781Y023267D01*
X028889Y023159D01*
X029481Y023159D01*
X029431Y023209D01*
X029431Y025267D01*
X030981Y024045D02*
X031309Y024045D01*
X031431Y024167D01*
X031431Y025267D01*
X033057Y025067D02*
X033057Y024451D01*
X033057Y023782D02*
X033057Y023267D01*
X033165Y023159D01*
X033757Y023159D01*
X033707Y023209D01*
X033707Y025267D01*
X035257Y024045D02*
X035585Y024045D01*
X035707Y024167D01*
X035707Y025267D01*
X035757Y023159D02*
X034849Y023159D01*
X034707Y023017D01*
X034707Y022667D01*
X033757Y022667D02*
X033207Y022667D01*
X033057Y022517D01*
X033057Y021551D01*
X033057Y020882D02*
X033892Y020882D01*
X034707Y020067D01*
X035707Y018791D02*
X035707Y017691D01*
X035585Y017569D01*
X035257Y017569D01*
X034849Y016683D02*
X034707Y016541D01*
X034707Y016191D01*
X034849Y016683D02*
X035757Y016683D01*
X033757Y016683D02*
X033707Y016733D01*
X033707Y018791D01*
X033057Y018591D02*
X033057Y017976D01*
X033057Y017307D02*
X033057Y016791D01*
X033165Y016683D01*
X033757Y016683D01*
X033757Y016191D02*
X033207Y016191D01*
X033057Y016041D01*
X033057Y015076D01*
X033057Y014407D02*
X033892Y014407D01*
X034707Y013591D01*
X035707Y012316D02*
X035707Y011216D01*
X035585Y011094D01*
X035257Y011094D01*
X034849Y010208D02*
X034707Y010066D01*
X034707Y009716D01*
X034849Y010208D02*
X035757Y010208D01*
X031481Y010208D02*
X030573Y010208D01*
X030431Y010066D01*
X030431Y009716D01*
X027206Y010208D02*
X026298Y010208D01*
X026156Y010066D01*
X026156Y009716D01*
X025206Y009716D02*
X024656Y009716D01*
X024506Y009566D01*
X024506Y008600D01*
X024506Y007931D02*
X025340Y007931D01*
X026156Y007116D01*
X021880Y009716D02*
X021880Y010066D01*
X022022Y010208D01*
X022930Y010208D01*
X022758Y011094D02*
X022430Y011094D01*
X022758Y011094D02*
X022880Y011216D01*
X022880Y012316D01*
X024506Y012116D02*
X024506Y011500D01*
X024506Y010831D02*
X024506Y010316D01*
X024614Y010208D01*
X025206Y010208D01*
X025156Y010258D01*
X025156Y012316D01*
X026156Y016191D02*
X026156Y016541D01*
X026298Y016683D01*
X027206Y016683D01*
X030431Y016541D02*
X030431Y016191D01*
X030431Y016541D02*
X030573Y016683D01*
X031481Y016683D01*
X031309Y017569D02*
X030981Y017569D01*
X031309Y017569D02*
X031431Y017691D01*
X031431Y018791D01*
X030431Y020067D02*
X029616Y020882D01*
X028781Y020882D01*
X028781Y021551D02*
X028781Y022517D01*
X028931Y022667D01*
X029481Y022667D01*
X030431Y022667D02*
X030431Y023017D01*
X030573Y023159D01*
X031481Y023159D01*
X016605Y018791D02*
X016605Y016733D01*
X016655Y016683D01*
X016062Y016683D01*
X015955Y016791D01*
X015955Y017307D01*
X015955Y017976D02*
X015955Y018591D01*
X014329Y018791D02*
X014329Y017691D01*
X014207Y017569D01*
X013879Y017569D01*
X013471Y016683D02*
X013329Y016541D01*
X013329Y016191D01*
X013471Y016683D02*
X014379Y016683D01*
X015955Y016041D02*
X016105Y016191D01*
X016655Y016191D01*
X015955Y016041D02*
X015955Y015076D01*
X015955Y014407D02*
X016789Y014407D01*
X017605Y013591D01*
X016605Y012316D02*
X016605Y010258D01*
X016655Y010208D01*
X016062Y010208D01*
X015955Y010316D01*
X015955Y010831D01*
X015955Y011500D02*
X015955Y012116D01*
X014329Y012316D02*
X014329Y011216D01*
X014207Y011094D01*
X013879Y011094D01*
X013471Y010208D02*
X013329Y010066D01*
X013329Y009716D01*
X013471Y010208D02*
X014379Y010208D01*
X015955Y009566D02*
X016105Y009716D01*
X016655Y009716D01*
X015955Y009566D02*
X015955Y008600D01*
X015955Y007931D02*
X016789Y007931D01*
X017605Y007116D01*
X016605Y005840D02*
X016605Y003782D01*
X016655Y003732D01*
X016062Y003732D01*
X015955Y003840D01*
X015955Y004355D01*
X015955Y005025D02*
X015955Y005640D01*
X014329Y005840D02*
X014329Y004740D01*
X014207Y004618D01*
X013879Y004618D01*
X013471Y003732D02*
X013329Y003590D01*
X013329Y003240D01*
X013471Y003732D02*
X014379Y003732D01*
X015955Y003090D02*
X016105Y003240D01*
X016655Y003240D01*
X015955Y003090D02*
X015955Y002125D01*
X015955Y001455D02*
X016789Y001455D01*
X017605Y000640D01*
X013329Y000640D02*
X012514Y001455D01*
X011679Y001455D01*
X011679Y002125D02*
X011679Y003090D01*
X011829Y003240D01*
X012379Y003240D01*
X012379Y003732D02*
X011787Y003732D01*
X011679Y003840D01*
X011679Y004355D01*
X012329Y003782D02*
X012379Y003732D01*
X012329Y003782D02*
X012329Y005840D01*
X011679Y005640D02*
X011679Y005025D01*
X010053Y004740D02*
X009931Y004618D01*
X009603Y004618D01*
X010053Y004740D02*
X010053Y005840D01*
X009053Y007116D02*
X008238Y007931D01*
X007403Y007931D01*
X007403Y008600D02*
X007403Y009566D01*
X007553Y009716D01*
X008103Y009716D01*
X008103Y010208D02*
X007511Y010208D01*
X007403Y010316D01*
X007403Y010831D01*
X008053Y010258D02*
X008103Y010208D01*
X008053Y010258D02*
X008053Y012316D01*
X007403Y012116D02*
X007403Y011500D01*
X005778Y011216D02*
X005656Y011094D01*
X005328Y011094D01*
X005778Y011216D02*
X005778Y012316D01*
X004778Y013591D02*
X003962Y014407D01*
X003128Y014407D01*
X003128Y015076D02*
X003128Y016041D01*
X003278Y016191D01*
X003828Y016191D01*
X003828Y016683D02*
X003236Y016683D01*
X003128Y016791D01*
X003128Y017307D01*
X003778Y016733D02*
X003828Y016683D01*
X003778Y016733D02*
X003778Y018791D01*
X003128Y018591D02*
X003128Y017976D01*
X004778Y016541D02*
X004920Y016683D01*
X005828Y016683D01*
X004778Y016541D02*
X004778Y016191D01*
X005328Y017569D02*
X005656Y017569D01*
X005778Y017691D01*
X005778Y018791D01*
X007403Y018591D02*
X007403Y017976D01*
X007403Y017307D02*
X007403Y016791D01*
X007511Y016683D01*
X008103Y016683D01*
X008053Y016733D01*
X008053Y018791D01*
X009053Y020067D02*
X008238Y020882D01*
X007403Y020882D01*
X007403Y021551D02*
X007403Y022517D01*
X007553Y022667D01*
X008103Y022667D01*
X008103Y023159D02*
X007511Y023159D01*
X007403Y023267D01*
X007403Y023782D01*
X008053Y023209D02*
X008103Y023159D01*
X008053Y023209D02*
X008053Y025267D01*
X007403Y025067D02*
X007403Y024451D01*
X005778Y024167D02*
X005656Y024045D01*
X005328Y024045D01*
X005778Y024167D02*
X005778Y025267D01*
X003778Y025267D02*
X003778Y023209D01*
X003828Y023159D01*
X003236Y023159D01*
X003128Y023267D01*
X003128Y023782D01*
X003128Y024451D02*
X003128Y025067D01*
X004920Y023159D02*
X004778Y023017D01*
X004778Y022667D01*
X004920Y023159D02*
X005828Y023159D01*
X003828Y022667D02*
X003278Y022667D01*
X003128Y022517D01*
X003128Y021551D01*
X003128Y020882D02*
X003962Y020882D01*
X004778Y020067D01*
X009053Y022667D02*
X009053Y023017D01*
X009196Y023159D01*
X010103Y023159D01*
X009931Y024045D02*
X009603Y024045D01*
X009931Y024045D02*
X010053Y024167D01*
X010053Y025267D01*
X011679Y025067D02*
X011679Y024451D01*
X011679Y023782D02*
X011679Y023267D01*
X011787Y023159D01*
X012379Y023159D01*
X012329Y023209D01*
X012329Y025267D01*
X013879Y024045D02*
X014207Y024045D01*
X014329Y024167D01*
X014329Y025267D01*
X014379Y023159D02*
X013471Y023159D01*
X013329Y023017D01*
X013329Y022667D01*
X012379Y022667D02*
X011829Y022667D01*
X011679Y022517D01*
X011679Y021551D01*
X011679Y020882D02*
X012514Y020882D01*
X013329Y020067D01*
X012329Y018791D02*
X012329Y016733D01*
X012379Y016683D01*
X011787Y016683D01*
X011679Y016791D01*
X011679Y017307D01*
X011679Y017976D02*
X011679Y018591D01*
X010053Y018791D02*
X010053Y017691D01*
X009931Y017569D01*
X009603Y017569D01*
X009196Y016683D02*
X009053Y016541D01*
X009053Y016191D01*
X009196Y016683D02*
X010103Y016683D01*
X011679Y016041D02*
X011829Y016191D01*
X012379Y016191D01*
X011679Y016041D02*
X011679Y015076D01*
X011679Y014407D02*
X012514Y014407D01*
X013329Y013591D01*
X012329Y012316D02*
X012329Y010258D01*
X012379Y010208D01*
X011787Y010208D01*
X011679Y010316D01*
X011679Y010831D01*
X011679Y011500D02*
X011679Y012116D01*
X010053Y012316D02*
X010053Y011216D01*
X009931Y011094D01*
X009603Y011094D01*
X009196Y010208D02*
X009053Y010066D01*
X009053Y009716D01*
X009196Y010208D02*
X010103Y010208D01*
X011679Y009566D02*
X011829Y009716D01*
X012379Y009716D01*
X011679Y009566D02*
X011679Y008600D01*
X011679Y007931D02*
X012514Y007931D01*
X013329Y007116D01*
X010103Y003732D02*
X009196Y003732D01*
X009053Y003590D01*
X009053Y003240D01*
X008103Y003240D02*
X007553Y003240D01*
X007403Y003090D01*
X007403Y002125D01*
X007403Y001455D02*
X008238Y001455D01*
X009053Y000640D01*
X004778Y000640D02*
X003962Y001455D01*
X003128Y001455D01*
X003128Y002125D02*
X003128Y003090D01*
X003278Y003240D01*
X003828Y003240D01*
X003828Y003732D02*
X003236Y003732D01*
X003128Y003840D01*
X003128Y004355D01*
X003778Y003782D02*
X003828Y003732D01*
X003778Y003782D02*
X003778Y005840D01*
X003128Y005640D02*
X003128Y005025D01*
X004778Y003590D02*
X004920Y003732D01*
X005828Y003732D01*
X004778Y003590D02*
X004778Y003240D01*
X005328Y004618D02*
X005656Y004618D01*
X005778Y004740D01*
X005778Y005840D01*
X007403Y005640D02*
X007403Y005025D01*
X007403Y004355D02*
X007403Y003840D01*
X007511Y003732D01*
X008103Y003732D01*
X008053Y003782D01*
X008053Y005840D01*
X004778Y007116D02*
X003962Y007931D01*
X003128Y007931D01*
X003128Y008600D02*
X003128Y009566D01*
X003278Y009716D01*
X003828Y009716D01*
X003828Y010208D02*
X003236Y010208D01*
X003128Y010316D01*
X003128Y010831D01*
X003778Y010258D02*
X003828Y010208D01*
X003778Y010258D02*
X003778Y012316D01*
X003128Y012116D02*
X003128Y011500D01*
X004778Y010066D02*
X004920Y010208D01*
X005828Y010208D01*
X004778Y010066D02*
X004778Y009716D01*
X009053Y013591D02*
X008238Y014407D01*
X007403Y014407D01*
X007403Y015076D02*
X007403Y016041D01*
X007553Y016191D01*
X008103Y016191D01*
D16*
X009053Y016191D03*
X007403Y018591D03*
X004778Y016191D03*
X003128Y018591D03*
X004778Y022667D03*
X003128Y025067D03*
X007403Y025067D03*
X009053Y022667D03*
X011679Y025067D03*
X013329Y022667D03*
X015955Y025067D03*
X017605Y022667D03*
X020230Y025067D03*
X021880Y022667D03*
X024506Y025067D03*
X026156Y022667D03*
X028781Y025067D03*
X030431Y022667D03*
X033057Y025067D03*
X034707Y022667D03*
X033057Y018591D03*
X034707Y016191D03*
X030431Y016191D03*
X028781Y018591D03*
X026156Y016191D03*
X024506Y018591D03*
X021880Y016191D03*
X020230Y018591D03*
X017605Y016191D03*
X015955Y018591D03*
X013329Y016191D03*
X011679Y018591D03*
X011679Y012116D03*
X013329Y009716D03*
X015955Y012116D03*
X017605Y009716D03*
X020230Y012116D03*
X021880Y009716D03*
X024506Y012116D03*
X026156Y009716D03*
X028781Y012116D03*
X030431Y009716D03*
X033057Y012116D03*
X034707Y009716D03*
X033057Y005640D03*
X034707Y003240D03*
X030431Y003240D03*
X028781Y005640D03*
X026156Y003240D03*
X024506Y005640D03*
X021880Y003240D03*
X020230Y005640D03*
X017605Y003240D03*
X015955Y005640D03*
X013329Y003240D03*
X011679Y005640D03*
X009053Y003240D03*
X007403Y005640D03*
X004778Y003240D03*
X003128Y005640D03*
X004778Y009716D03*
X003128Y012116D03*
X007403Y012116D03*
X009053Y009716D03*
M02*
