%
M48
M72
T01C0.0200
T02C0.0400
%
T01
X4778Y3240
X3128Y5640
X7403Y5640
X9053Y3240
X11679Y5640
X13329Y3240
X15955Y5640
X17605Y3240
X20230Y5640
X21880Y3240
X24506Y5640
X26156Y3240
X28781Y5640
X30431Y3240
X33057Y5640
X34707Y3240
X34707Y9716
X33057Y12116
X30431Y9716
X28781Y12116
X26156Y9716
X24506Y12116
X21880Y9716
X20230Y12116
X17605Y9716
X15955Y12116
X13329Y9716
X11679Y12116
X9053Y9716
X7403Y12116
X4778Y9716
X3128Y12116
X4778Y16191
X3128Y18591
X7403Y18591
X9053Y16191
X11679Y18591
X13329Y16191
X15955Y18591
X17605Y16191
X20230Y18591
X21880Y16191
X24506Y18591
X26156Y16191
X28781Y18591
X30431Y16191
X33057Y18591
X34707Y16191
X34707Y22667
X33057Y25067
X30431Y22667
X28781Y25067
X26156Y22667
X24506Y25067
X21880Y22667
X20230Y25067
X17605Y22667
X15955Y25067
X13329Y22667
X11679Y25067
X9053Y22667
X7403Y25067
X4778Y22667
X3128Y25067
T02
X3778Y640
X4778Y640
X5778Y640
X8053Y640
X9053Y640
X10053Y640
X12329Y640
X13329Y640
X14329Y640
X16605Y640
X17605Y640
X18605Y640
X20880Y640
X21880Y640
X22880Y640
X25156Y640
X26156Y640
X27156Y640
X29431Y640
X30431Y640
X31431Y640
X33707Y640
X34707Y640
X35707Y640
X35707Y5840
X34707Y5840
X33707Y5840
X33707Y7116
X34707Y7116
X35707Y7116
X31431Y7116
X30431Y7116
X29431Y7116
X29431Y5840
X30431Y5840
X31431Y5840
X27156Y5840
X26156Y5840
X25156Y5840
X25156Y7116
X26156Y7116
X27156Y7116
X22880Y7116
X21880Y7116
X20880Y7116
X20880Y5840
X21880Y5840
X22880Y5840
X18605Y5840
X17605Y5840
X16605Y5840
X16605Y7116
X17605Y7116
X18605Y7116
X14329Y7116
X13329Y7116
X12329Y7116
X12329Y5840
X13329Y5840
X14329Y5840
X10053Y5840
X9053Y5840
X8053Y5840
X8053Y7116
X9053Y7116
X10053Y7116
X5778Y7116
X4778Y7116
X3778Y7116
X3778Y5840
X4778Y5840
X5778Y5840
X5778Y12316
X4778Y12316
X3778Y12316
X3778Y13591
X4778Y13591
X5778Y13591
X8053Y13591
X9053Y13591
X10053Y13591
X10053Y12316
X9053Y12316
X8053Y12316
X12329Y12316
X13329Y12316
X14329Y12316
X14329Y13591
X13329Y13591
X12329Y13591
X16605Y13591
X17605Y13591
X18605Y13591
X18605Y12316
X17605Y12316
X16605Y12316
X20880Y12316
X21880Y12316
X22880Y12316
X22880Y13591
X21880Y13591
X20880Y13591
X25156Y13591
X26156Y13591
X27156Y13591
X27156Y12316
X26156Y12316
X25156Y12316
X29431Y12316
X30431Y12316
X31431Y12316
X31431Y13591
X30431Y13591
X29431Y13591
X33707Y13591
X34707Y13591
X35707Y13591
X35707Y12316
X34707Y12316
X33707Y12316
X33707Y18791
X34707Y18791
X35707Y18791
X35707Y20067
X34707Y20067
X33707Y20067
X31431Y20067
X30431Y20067
X29431Y20067
X29431Y18791
X30431Y18791
X31431Y18791
X27156Y18791
X26156Y18791
X25156Y18791
X25156Y20067
X26156Y20067
X27156Y20067
X22880Y20067
X21880Y20067
X20880Y20067
X20880Y18791
X21880Y18791
X22880Y18791
X18605Y18791
X17605Y18791
X16605Y18791
X16605Y20067
X17605Y20067
X18605Y20067
X14329Y20067
X13329Y20067
X12329Y20067
X12329Y18791
X13329Y18791
X14329Y18791
X10053Y18791
X9053Y18791
X8053Y18791
X8053Y20067
X9053Y20067
X10053Y20067
X5778Y20067
X4778Y20067
X3778Y20067
X3778Y18791
X4778Y18791
X5778Y18791
X5778Y25267
X4778Y25267
X3778Y25267
X8053Y25267
X9053Y25267
X10053Y25267
X12329Y25267
X13329Y25267
X14329Y25267
X16605Y25267
X17605Y25267
X18605Y25267
X20880Y25267
X21880Y25267
X22880Y25267
X25156Y25267
X26156Y25267
X27156Y25267
X29431Y25267
X30431Y25267
X31431Y25267
X33707Y25267
X34707Y25267
X35707Y25267
M30
