G75*
%MOIN*%
%OFA0B0*%
%FSLAX24Y24*%
%IPPOS*%
%LPD*%
%AMOC8*
5,1,8,0,0,1.08239X$1,22.5*
%
%ADD10C,0.0040*%
%ADD11C,0.0050*%
%ADD12C,0.0080*%
%ADD13R,0.0337X0.0000*%
%ADD14R,0.0337X0.0000*%
%ADD15R,0.0344X0.0001*%
%ADD16R,0.0348X0.0000*%
%ADD17R,0.0347X0.0000*%
%ADD18R,0.0350X0.0000*%
%ADD19R,0.0350X0.0000*%
%ADD20R,0.0352X0.0001*%
%ADD21R,0.0355X0.0000*%
%ADD22R,0.0354X0.0000*%
%ADD23R,0.0356X0.0001*%
%ADD24R,0.0359X0.0000*%
%ADD25R,0.0360X0.0000*%
%ADD26R,0.0361X0.0001*%
%ADD27R,0.0363X0.0000*%
%ADD28R,0.0362X0.0000*%
%ADD29R,0.0365X0.0001*%
%ADD30R,0.0364X0.0001*%
%ADD31R,0.0365X0.0000*%
%ADD32R,0.0366X0.0000*%
%ADD33R,0.0366X0.0000*%
%ADD34R,0.0367X0.0001*%
%ADD35R,0.0369X0.0000*%
%ADD36R,0.0370X0.0001*%
%ADD37R,0.0369X0.0001*%
%ADD38R,0.0370X0.0000*%
%ADD39R,0.0371X0.0000*%
%ADD40R,0.0371X0.0000*%
%ADD41R,0.0372X0.0001*%
%ADD42R,0.0372X0.0001*%
%ADD43R,0.0373X0.0000*%
%ADD44R,0.0373X0.0000*%
%ADD45R,0.0374X0.0001*%
%ADD46R,0.0374X0.0001*%
%ADD47R,0.0375X0.0000*%
%ADD48R,0.0374X0.0000*%
%ADD49R,0.0375X0.0000*%
%ADD50R,0.0375X0.0000*%
%ADD51R,0.0375X0.0001*%
%ADD52R,0.0376X0.0001*%
%ADD53R,0.0376X0.0000*%
%ADD54R,0.0377X0.0001*%
%ADD55R,0.0376X0.0001*%
%ADD56R,0.0377X0.0000*%
%ADD57R,0.0378X0.0000*%
%ADD58R,0.0378X0.0000*%
%ADD59R,0.0379X0.0001*%
%ADD60R,0.0379X0.0000*%
%ADD61R,0.0379X0.0000*%
%ADD62R,0.0380X0.0001*%
%ADD63R,0.0379X0.0001*%
%ADD64R,0.0380X0.0000*%
%ADD65R,0.0379X0.0000*%
%ADD66R,0.0380X0.0000*%
%ADD67R,0.0380X0.0000*%
%ADD68R,0.0380X0.0001*%
%ADD69R,0.0381X0.0001*%
%ADD70R,0.0381X0.0000*%
%ADD71R,0.0381X0.0001*%
%ADD72R,0.0381X0.0001*%
%ADD73R,0.0381X0.0000*%
%ADD74R,0.0382X0.0001*%
%ADD75R,0.0381X0.0001*%
%ADD76R,0.0382X0.0000*%
%ADD77R,0.0382X0.0000*%
%ADD78R,0.0382X0.0001*%
%ADD79R,0.0382X0.0000*%
%ADD80R,0.0383X0.0000*%
%ADD81R,0.0383X0.0001*%
%ADD82R,0.0383X0.0001*%
%ADD83R,0.0383X0.0000*%
%ADD84R,0.0382X0.0001*%
%ADD85R,0.0379X0.0001*%
%ADD86R,0.0381X0.0000*%
%ADD87R,0.0378X0.0001*%
%ADD88R,0.0377X0.0000*%
%ADD89R,0.0376X0.0000*%
%ADD90R,0.0374X0.0000*%
%ADD91R,0.0377X0.0001*%
%ADD92R,0.0372X0.0000*%
%ADD93R,0.0371X0.0001*%
%ADD94R,0.0376X0.0001*%
%ADD95R,0.0371X0.0000*%
%ADD96R,0.0376X0.0000*%
%ADD97R,0.0370X0.0000*%
%ADD98R,0.0369X0.0001*%
%ADD99R,0.0374X0.0001*%
%ADD100R,0.0368X0.0000*%
%ADD101R,0.0374X0.0000*%
%ADD102R,0.0367X0.0001*%
%ADD103R,0.0373X0.0001*%
%ADD104R,0.0366X0.0000*%
%ADD105R,0.0372X0.0000*%
%ADD106R,0.0365X0.0000*%
%ADD107R,0.0371X0.0000*%
%ADD108R,0.0364X0.0001*%
%ADD109R,0.0371X0.0001*%
%ADD110R,0.0362X0.0000*%
%ADD111R,0.0369X0.0000*%
%ADD112R,0.0360X0.0001*%
%ADD113R,0.0369X0.0001*%
%ADD114R,0.0359X0.0000*%
%ADD115R,0.0367X0.0000*%
%ADD116R,0.0357X0.0000*%
%ADD117R,0.0355X0.0001*%
%ADD118R,0.0365X0.0001*%
%ADD119R,0.0354X0.0000*%
%ADD120R,0.0364X0.0000*%
%ADD121R,0.0351X0.0001*%
%ADD122R,0.0363X0.0001*%
%ADD123R,0.0348X0.0000*%
%ADD124R,0.0361X0.0000*%
%ADD125R,0.0345X0.0000*%
%ADD126R,0.0340X0.0001*%
%ADD127R,0.0359X0.0001*%
%ADD128R,0.0258X0.0000*%
%ADD129R,0.0356X0.0000*%
%ADD130R,0.0257X0.0001*%
%ADD131R,0.0354X0.0001*%
%ADD132R,0.0257X0.0000*%
%ADD133R,0.0352X0.0000*%
%ADD134R,0.0347X0.0001*%
%ADD135R,0.0257X0.0000*%
%ADD136R,0.0344X0.0000*%
%ADD137R,0.0257X0.0001*%
%ADD138R,0.0338X0.0001*%
%ADD139R,0.0239X0.0000*%
%ADD140R,0.0256X0.0000*%
%ADD141R,0.0256X0.0001*%
%ADD142R,0.0239X0.0001*%
%ADD143R,0.0239X0.0001*%
%ADD144R,0.0256X0.0000*%
%ADD145R,0.0239X0.0000*%
%ADD146R,0.0256X0.0001*%
%ADD147R,0.0255X0.0000*%
%ADD148R,0.0238X0.0000*%
%ADD149R,0.0255X0.0001*%
%ADD150R,0.0238X0.0001*%
%ADD151R,0.0255X0.0000*%
%ADD152R,0.0255X0.0001*%
%ADD153R,0.0238X0.0001*%
%ADD154R,0.0238X0.0000*%
%ADD155R,0.0255X0.0000*%
%ADD156R,0.0238X0.0000*%
%ADD157R,0.0255X0.0001*%
%ADD158R,0.0238X0.0001*%
%ADD159R,0.0254X0.0000*%
%ADD160R,0.0254X0.0001*%
%ADD161R,0.0237X0.0000*%
%ADD162R,0.0254X0.0001*%
%ADD163R,0.0237X0.0001*%
%ADD164R,0.0254X0.0000*%
%ADD165R,0.0253X0.0000*%
%ADD166R,0.0236X0.0000*%
%ADD167R,0.0253X0.0001*%
%ADD168R,0.0236X0.0001*%
%ADD169R,0.0253X0.0000*%
%ADD170R,0.0253X0.0001*%
%ADD171R,0.0236X0.0001*%
%ADD172R,0.0236X0.0000*%
%ADD173R,0.0252X0.0001*%
%ADD174R,0.0252X0.0000*%
%ADD175R,0.0235X0.0000*%
%ADD176R,0.0235X0.0001*%
%ADD177R,0.0251X0.0000*%
%ADD178R,0.0251X0.0001*%
%ADD179R,0.0235X0.0001*%
%ADD180R,0.0235X0.0000*%
%ADD181R,0.0251X0.0001*%
%ADD182R,0.0251X0.0000*%
%ADD183R,0.0234X0.0000*%
%ADD184R,0.0250X0.0001*%
%ADD185R,0.0234X0.0001*%
%ADD186R,0.0250X0.0000*%
%ADD187R,0.0250X0.0000*%
%ADD188R,0.0234X0.0000*%
%ADD189R,0.0250X0.0001*%
%ADD190R,0.0234X0.0001*%
%ADD191R,0.0250X0.0001*%
%ADD192R,0.0250X0.0000*%
%ADD193R,0.0233X0.0000*%
%ADD194R,0.0249X0.0001*%
%ADD195R,0.0233X0.0001*%
%ADD196R,0.0249X0.0000*%
%ADD197R,0.0233X0.0001*%
%ADD198R,0.0233X0.0000*%
%ADD199R,0.0249X0.0000*%
%ADD200R,0.0249X0.0001*%
%ADD201R,0.0232X0.0000*%
%ADD202R,0.0248X0.0001*%
%ADD203R,0.0232X0.0001*%
%ADD204R,0.0248X0.0000*%
%ADD205R,0.0248X0.0001*%
%ADD206R,0.0232X0.0001*%
%ADD207R,0.0248X0.0000*%
%ADD208R,0.0232X0.0000*%
%ADD209R,0.0247X0.0000*%
%ADD210R,0.0231X0.0000*%
%ADD211R,0.0247X0.0001*%
%ADD212R,0.0231X0.0001*%
%ADD213R,0.0246X0.0001*%
%ADD214R,0.0246X0.0000*%
%ADD215R,0.0231X0.0000*%
%ADD216R,0.0231X0.0001*%
%ADD217R,0.0246X0.0000*%
%ADD218R,0.0246X0.0001*%
%ADD219R,0.0230X0.0000*%
%ADD220R,0.0245X0.0000*%
%ADD221R,0.0245X0.0001*%
%ADD222R,0.0230X0.0001*%
%ADD223R,0.0245X0.0001*%
%ADD224R,0.0230X0.0001*%
%ADD225R,0.0245X0.0000*%
%ADD226R,0.0230X0.0000*%
%ADD227R,0.0245X0.0000*%
%ADD228R,0.0229X0.0000*%
%ADD229R,0.0245X0.0001*%
%ADD230R,0.0229X0.0001*%
%ADD231R,0.0244X0.0000*%
%ADD232R,0.0244X0.0001*%
%ADD233R,0.0229X0.0001*%
%ADD234R,0.0229X0.0000*%
%ADD235R,0.0244X0.0000*%
%ADD236R,0.0228X0.0000*%
%ADD237R,0.0244X0.0001*%
%ADD238R,0.0228X0.0001*%
%ADD239R,0.0243X0.0000*%
%ADD240R,0.0243X0.0001*%
%ADD241R,0.0243X0.0000*%
%ADD242R,0.0228X0.0000*%
%ADD243R,0.0243X0.0001*%
%ADD244R,0.0228X0.0001*%
%ADD245R,0.0242X0.0000*%
%ADD246R,0.0227X0.0000*%
%ADD247R,0.0242X0.0001*%
%ADD248R,0.0227X0.0001*%
%ADD249R,0.0241X0.0000*%
%ADD250R,0.0241X0.0001*%
%ADD251R,0.0227X0.0001*%
%ADD252R,0.0227X0.0000*%
%ADD253R,0.0241X0.0001*%
%ADD254R,0.0241X0.0000*%
%ADD255R,0.0226X0.0000*%
%ADD256R,0.0226X0.0001*%
%ADD257R,0.0240X0.0000*%
%ADD258R,0.0240X0.0001*%
%ADD259R,0.0226X0.0001*%
%ADD260R,0.0240X0.0000*%
%ADD261R,0.0226X0.0000*%
%ADD262R,0.0240X0.0001*%
%ADD263R,0.0225X0.0000*%
%ADD264R,0.0240X0.0001*%
%ADD265R,0.0225X0.0001*%
%ADD266R,0.0240X0.0000*%
%ADD267R,0.0225X0.0000*%
%ADD268R,0.0225X0.0001*%
%ADD269R,0.0239X0.0001*%
%ADD270R,0.0239X0.0000*%
%ADD271R,0.0224X0.0000*%
%ADD272R,0.0224X0.0001*%
%ADD273R,0.0224X0.0001*%
%ADD274R,0.0224X0.0000*%
%ADD275R,0.0223X0.0000*%
%ADD276R,0.0237X0.0001*%
%ADD277R,0.0223X0.0001*%
%ADD278R,0.0237X0.0000*%
%ADD279R,0.0223X0.0001*%
%ADD280R,0.0223X0.0000*%
%ADD281R,0.0236X0.0000*%
%ADD282R,0.0222X0.0000*%
%ADD283R,0.0236X0.0001*%
%ADD284R,0.0222X0.0001*%
%ADD285R,0.0222X0.0000*%
%ADD286R,0.0222X0.0001*%
%ADD287R,0.0221X0.0000*%
%ADD288R,0.0235X0.0000*%
%ADD289R,0.0235X0.0001*%
%ADD290R,0.0221X0.0001*%
%ADD291R,0.0221X0.0001*%
%ADD292R,0.0221X0.0000*%
%ADD293R,0.0234X0.0000*%
%ADD294R,0.0220X0.0000*%
%ADD295R,0.0234X0.0001*%
%ADD296R,0.0220X0.0001*%
%ADD297R,0.0220X0.0001*%
%ADD298R,0.0220X0.0000*%
%ADD299R,0.0219X0.0000*%
%ADD300R,0.0219X0.0001*%
%ADD301R,0.0232X0.0000*%
%ADD302R,0.0232X0.0001*%
%ADD303R,0.0219X0.0000*%
%ADD304R,0.0219X0.0001*%
%ADD305R,0.0231X0.0000*%
%ADD306R,0.0218X0.0000*%
%ADD307R,0.0231X0.0001*%
%ADD308R,0.0218X0.0001*%
%ADD309R,0.0218X0.0001*%
%ADD310R,0.0218X0.0000*%
%ADD311R,0.0217X0.0000*%
%ADD312R,0.0217X0.0001*%
%ADD313R,0.0230X0.0000*%
%ADD314R,0.0230X0.0001*%
%ADD315R,0.0217X0.0001*%
%ADD316R,0.0217X0.0000*%
%ADD317R,0.0216X0.0000*%
%ADD318R,0.0229X0.0001*%
%ADD319R,0.0216X0.0001*%
%ADD320R,0.0229X0.0000*%
%ADD321R,0.0216X0.0000*%
%ADD322R,0.0216X0.0001*%
%ADD323R,0.0215X0.0000*%
%ADD324R,0.0227X0.0001*%
%ADD325R,0.0215X0.0001*%
%ADD326R,0.0227X0.0000*%
%ADD327R,0.0215X0.0001*%
%ADD328R,0.0215X0.0000*%
%ADD329R,0.0214X0.0000*%
%ADD330R,0.0226X0.0001*%
%ADD331R,0.0214X0.0001*%
%ADD332R,0.0226X0.0000*%
%ADD333R,0.0214X0.0001*%
%ADD334R,0.0214X0.0000*%
%ADD335R,0.0213X0.0000*%
%ADD336R,0.0213X0.0001*%
%ADD337R,0.0225X0.0001*%
%ADD338R,0.0225X0.0000*%
%ADD339R,0.0213X0.0000*%
%ADD340R,0.0213X0.0001*%
%ADD341R,0.0213X0.0000*%
%ADD342R,0.0224X0.0000*%
%ADD343R,0.0224X0.0001*%
%ADD344R,0.0213X0.0001*%
%ADD345R,0.0212X0.0001*%
%ADD346R,0.0212X0.0000*%
%ADD347R,0.0211X0.0000*%
%ADD348R,0.0211X0.0001*%
%ADD349R,0.0222X0.0000*%
%ADD350R,0.0222X0.0001*%
%ADD351R,0.0211X0.0001*%
%ADD352R,0.0211X0.0000*%
%ADD353R,0.0210X0.0000*%
%ADD354R,0.0210X0.0001*%
%ADD355R,0.0221X0.0000*%
%ADD356R,0.0221X0.0001*%
%ADD357R,0.0210X0.0000*%
%ADD358R,0.0210X0.0001*%
%ADD359R,0.0209X0.0000*%
%ADD360R,0.0209X0.0001*%
%ADD361R,0.0220X0.0000*%
%ADD362R,0.0220X0.0001*%
%ADD363R,0.0209X0.0001*%
%ADD364R,0.0209X0.0000*%
%ADD365R,0.0208X0.0000*%
%ADD366R,0.0208X0.0001*%
%ADD367R,0.0219X0.0000*%
%ADD368R,0.0219X0.0001*%
%ADD369R,0.0208X0.0001*%
%ADD370R,0.0208X0.0000*%
%ADD371R,0.0208X0.0000*%
%ADD372R,0.0208X0.0001*%
%ADD373R,0.0217X0.0000*%
%ADD374R,0.0207X0.0000*%
%ADD375R,0.0217X0.0001*%
%ADD376R,0.0207X0.0001*%
%ADD377R,0.0206X0.0000*%
%ADD378R,0.0216X0.0001*%
%ADD379R,0.0206X0.0001*%
%ADD380R,0.0216X0.0000*%
%ADD381R,0.0206X0.0001*%
%ADD382R,0.0206X0.0000*%
%ADD383R,0.0205X0.0000*%
%ADD384R,0.0205X0.0001*%
%ADD385R,0.0215X0.0001*%
%ADD386R,0.0205X0.0001*%
%ADD387R,0.0215X0.0000*%
%ADD388R,0.0205X0.0000*%
%ADD389R,0.0204X0.0000*%
%ADD390R,0.0204X0.0001*%
%ADD391R,0.0214X0.0001*%
%ADD392R,0.0214X0.0000*%
%ADD393R,0.0204X0.0000*%
%ADD394R,0.0204X0.0001*%
%ADD395R,0.0203X0.0000*%
%ADD396R,0.0203X0.0001*%
%ADD397R,0.0212X0.0001*%
%ADD398R,0.0203X0.0001*%
%ADD399R,0.0212X0.0000*%
%ADD400R,0.0203X0.0000*%
%ADD401R,0.0203X0.0000*%
%ADD402R,0.0203X0.0001*%
%ADD403R,0.0211X0.0000*%
%ADD404R,0.0211X0.0001*%
%ADD405R,0.0202X0.0001*%
%ADD406R,0.0202X0.0000*%
%ADD407R,0.0201X0.0000*%
%ADD408R,0.0201X0.0001*%
%ADD409R,0.0210X0.0000*%
%ADD410R,0.0201X0.0000*%
%ADD411R,0.0210X0.0001*%
%ADD412R,0.0201X0.0001*%
%ADD413R,0.0200X0.0000*%
%ADD414R,0.0200X0.0001*%
%ADD415R,0.0209X0.0000*%
%ADD416R,0.0209X0.0001*%
%ADD417R,0.0200X0.0001*%
%ADD418R,0.0200X0.0000*%
%ADD419R,0.0199X0.0000*%
%ADD420R,0.0199X0.0001*%
%ADD421R,0.0199X0.0001*%
%ADD422R,0.0207X0.0000*%
%ADD423R,0.0199X0.0000*%
%ADD424R,0.0207X0.0001*%
%ADD425R,0.0198X0.0000*%
%ADD426R,0.0198X0.0001*%
%ADD427R,0.0206X0.0000*%
%ADD428R,0.0198X0.0000*%
%ADD429R,0.0206X0.0001*%
%ADD430R,0.0198X0.0001*%
%ADD431R,0.0198X0.0000*%
%ADD432R,0.0198X0.0001*%
%ADD433R,0.0197X0.0001*%
%ADD434R,0.0205X0.0000*%
%ADD435R,0.0197X0.0000*%
%ADD436R,0.0205X0.0001*%
%ADD437R,0.0196X0.0000*%
%ADD438R,0.0196X0.0001*%
%ADD439R,0.0204X0.0001*%
%ADD440R,0.0196X0.0001*%
%ADD441R,0.0204X0.0000*%
%ADD442R,0.0196X0.0000*%
%ADD443R,0.0195X0.0000*%
%ADD444R,0.0195X0.0001*%
%ADD445R,0.0195X0.0000*%
%ADD446R,0.0202X0.0001*%
%ADD447R,0.0195X0.0001*%
%ADD448R,0.0202X0.0000*%
%ADD449R,0.0194X0.0000*%
%ADD450R,0.0194X0.0001*%
%ADD451R,0.0201X0.0001*%
%ADD452R,0.0194X0.0001*%
%ADD453R,0.0201X0.0000*%
%ADD454R,0.0194X0.0000*%
%ADD455R,0.0193X0.0000*%
%ADD456R,0.0193X0.0001*%
%ADD457R,0.0193X0.0001*%
%ADD458R,0.0193X0.0000*%
%ADD459R,0.0200X0.0001*%
%ADD460R,0.0200X0.0000*%
%ADD461R,0.0192X0.0000*%
%ADD462R,0.0192X0.0001*%
%ADD463R,0.0199X0.0000*%
%ADD464R,0.0192X0.0000*%
%ADD465R,0.0199X0.0001*%
%ADD466R,0.0192X0.0001*%
%ADD467R,0.0191X0.0000*%
%ADD468R,0.0191X0.0001*%
%ADD469R,0.0191X0.0001*%
%ADD470R,0.0191X0.0000*%
%ADD471R,0.0197X0.0000*%
%ADD472R,0.0197X0.0001*%
%ADD473R,0.0190X0.0000*%
%ADD474R,0.0190X0.0001*%
%ADD475R,0.0190X0.0001*%
%ADD476R,0.0196X0.0000*%
%ADD477R,0.0190X0.0000*%
%ADD478R,0.0196X0.0001*%
%ADD479R,0.0189X0.0000*%
%ADD480R,0.0189X0.0001*%
%ADD481R,0.0189X0.0000*%
%ADD482R,0.0189X0.0001*%
%ADD483R,0.0195X0.0000*%
%ADD484R,0.0195X0.0001*%
%ADD485R,0.0188X0.0000*%
%ADD486R,0.0188X0.0001*%
%ADD487R,0.0188X0.0001*%
%ADD488R,0.0194X0.0000*%
%ADD489R,0.0188X0.0000*%
%ADD490R,0.0194X0.0001*%
%ADD491R,0.0187X0.0000*%
%ADD492R,0.0187X0.0001*%
%ADD493R,0.0187X0.0001*%
%ADD494R,0.0187X0.0000*%
%ADD495R,0.0192X0.0000*%
%ADD496R,0.0186X0.0000*%
%ADD497R,0.0192X0.0001*%
%ADD498R,0.0186X0.0001*%
%ADD499R,0.0186X0.0000*%
%ADD500R,0.0191X0.0001*%
%ADD501R,0.0186X0.0001*%
%ADD502R,0.0191X0.0000*%
%ADD503R,0.0185X0.0000*%
%ADD504R,0.0185X0.0001*%
%ADD505R,0.0185X0.0001*%
%ADD506R,0.0185X0.0000*%
%ADD507R,0.0190X0.0001*%
%ADD508R,0.0190X0.0000*%
%ADD509R,0.0184X0.0000*%
%ADD510R,0.0184X0.0001*%
%ADD511R,0.0184X0.0001*%
%ADD512R,0.0184X0.0000*%
%ADD513R,0.0189X0.0001*%
%ADD514R,0.0189X0.0000*%
%ADD515R,0.0183X0.0000*%
%ADD516R,0.0183X0.0001*%
%ADD517R,0.0183X0.0000*%
%ADD518R,0.0183X0.0001*%
%ADD519R,0.0187X0.0001*%
%ADD520R,0.0187X0.0000*%
%ADD521R,0.0182X0.0000*%
%ADD522R,0.0182X0.0001*%
%ADD523R,0.0182X0.0001*%
%ADD524R,0.0182X0.0000*%
%ADD525R,0.0186X0.0000*%
%ADD526R,0.0186X0.0001*%
%ADD527R,0.0181X0.0000*%
%ADD528R,0.0181X0.0001*%
%ADD529R,0.0181X0.0001*%
%ADD530R,0.0181X0.0000*%
%ADD531R,0.0185X0.0000*%
%ADD532R,0.0180X0.0000*%
%ADD533R,0.0185X0.0001*%
%ADD534R,0.0180X0.0001*%
%ADD535R,0.0180X0.0000*%
%ADD536R,0.0180X0.0001*%
%ADD537R,0.0184X0.0000*%
%ADD538R,0.0184X0.0001*%
%ADD539R,0.0179X0.0000*%
%ADD540R,0.0179X0.0001*%
%ADD541R,0.0179X0.0001*%
%ADD542R,0.0179X0.0000*%
%ADD543R,0.0182X0.0000*%
%ADD544R,0.0178X0.0000*%
%ADD545R,0.0182X0.0001*%
%ADD546R,0.0178X0.0001*%
%ADD547R,0.0178X0.0001*%
%ADD548R,0.0178X0.0000*%
%ADD549R,0.0181X0.0000*%
%ADD550R,0.0177X0.0000*%
%ADD551R,0.0181X0.0001*%
%ADD552R,0.0177X0.0001*%
%ADD553R,0.0177X0.0000*%
%ADD554R,0.0177X0.0001*%
%ADD555R,0.0180X0.0000*%
%ADD556R,0.0176X0.0000*%
%ADD557R,0.0180X0.0001*%
%ADD558R,0.0176X0.0001*%
%ADD559R,0.0176X0.0001*%
%ADD560R,0.0176X0.0000*%
%ADD561R,0.0179X0.0001*%
%ADD562R,0.0179X0.0000*%
%ADD563R,0.0175X0.0000*%
%ADD564R,0.0175X0.0001*%
%ADD565R,0.0175X0.0001*%
%ADD566R,0.0175X0.0000*%
%ADD567R,0.0174X0.0000*%
%ADD568R,0.0177X0.0001*%
%ADD569R,0.0174X0.0001*%
%ADD570R,0.0177X0.0000*%
%ADD571R,0.0174X0.0000*%
%ADD572R,0.0174X0.0001*%
%ADD573R,0.0176X0.0001*%
%ADD574R,0.0176X0.0000*%
%ADD575R,0.0173X0.0000*%
%ADD576R,0.0173X0.0001*%
%ADD577R,0.0173X0.0001*%
%ADD578R,0.0173X0.0000*%
%ADD579R,0.0173X0.0000*%
%ADD580R,0.0175X0.0001*%
%ADD581R,0.0173X0.0001*%
%ADD582R,0.0175X0.0000*%
%ADD583R,0.0172X0.0001*%
%ADD584R,0.0172X0.0000*%
%ADD585R,0.0174X0.0000*%
%ADD586R,0.0171X0.0000*%
%ADD587R,0.0174X0.0001*%
%ADD588R,0.0171X0.0001*%
%ADD589R,0.0171X0.0000*%
%ADD590R,0.0171X0.0001*%
%ADD591R,0.0170X0.0000*%
%ADD592R,0.0172X0.0000*%
%ADD593R,0.0172X0.0001*%
%ADD594R,0.0170X0.0001*%
%ADD595R,0.0170X0.0001*%
%ADD596R,0.0170X0.0000*%
%ADD597R,0.0171X0.0000*%
%ADD598R,0.0169X0.0000*%
%ADD599R,0.0171X0.0001*%
%ADD600R,0.0169X0.0001*%
%ADD601R,0.0169X0.0001*%
%ADD602R,0.0169X0.0000*%
%ADD603R,0.0168X0.0000*%
%ADD604R,0.0168X0.0001*%
%ADD605R,0.0170X0.0000*%
%ADD606R,0.0170X0.0001*%
%ADD607R,0.0168X0.0000*%
%ADD608R,0.0168X0.0001*%
%ADD609R,0.0169X0.0000*%
%ADD610R,0.0168X0.0000*%
%ADD611R,0.0169X0.0001*%
%ADD612R,0.0168X0.0001*%
%ADD613R,0.0167X0.0001*%
%ADD614R,0.0167X0.0000*%
%ADD615R,0.0166X0.0000*%
%ADD616R,0.0166X0.0001*%
%ADD617R,0.0167X0.0000*%
%ADD618R,0.0167X0.0001*%
%ADD619R,0.0166X0.0001*%
%ADD620R,0.0166X0.0000*%
%ADD621R,0.0165X0.0000*%
%ADD622R,0.0166X0.0001*%
%ADD623R,0.0165X0.0001*%
%ADD624R,0.0166X0.0000*%
%ADD625R,0.0165X0.0000*%
%ADD626R,0.0165X0.0001*%
%ADD627R,0.0164X0.0000*%
%ADD628R,0.0165X0.0001*%
%ADD629R,0.0164X0.0001*%
%ADD630R,0.0165X0.0000*%
%ADD631R,0.0164X0.0001*%
%ADD632R,0.0164X0.0000*%
%ADD633R,0.0163X0.0000*%
%ADD634R,0.0164X0.0001*%
%ADD635R,0.0163X0.0001*%
%ADD636R,0.0164X0.0000*%
%ADD637R,0.0163X0.0001*%
%ADD638R,0.0163X0.0000*%
%ADD639R,0.0163X0.0000*%
%ADD640R,0.0163X0.0001*%
%ADD641R,0.0162X0.0001*%
%ADD642R,0.0162X0.0000*%
%ADD643R,0.0162X0.0000*%
%ADD644R,0.0161X0.0001*%
%ADD645R,0.0162X0.0001*%
%ADD646R,0.0161X0.0000*%
%ADD647R,0.0161X0.0000*%
%ADD648R,0.0161X0.0001*%
%ADD649R,0.0160X0.0001*%
%ADD650R,0.0161X0.0001*%
%ADD651R,0.0160X0.0000*%
%ADD652R,0.0161X0.0000*%
%ADD653R,0.0160X0.0000*%
%ADD654R,0.0160X0.0001*%
%ADD655R,0.0160X0.0000*%
%ADD656R,0.0160X0.0001*%
%ADD657R,0.0159X0.0001*%
%ADD658R,0.0159X0.0000*%
%ADD659R,0.0159X0.0000*%
%ADD660R,0.0159X0.0001*%
%ADD661R,0.0159X0.0000*%
%ADD662R,0.0159X0.0001*%
%ADD663R,0.0158X0.0000*%
%ADD664R,0.0158X0.0001*%
%ADD665R,0.0158X0.0000*%
%ADD666R,0.0158X0.0000*%
%ADD667R,0.0158X0.0001*%
%ADD668R,0.0158X0.0001*%
%ADD669R,0.0157X0.0000*%
%ADD670R,0.0157X0.0001*%
%ADD671R,0.0156X0.0000*%
%ADD672R,0.0156X0.0001*%
%ADD673R,0.0156X0.0000*%
%ADD674R,0.0156X0.0001*%
%ADD675R,0.0157X0.0001*%
%ADD676R,0.0155X0.0000*%
%ADD677R,0.0157X0.0000*%
%ADD678R,0.0155X0.0001*%
%ADD679R,0.0155X0.0001*%
%ADD680R,0.0155X0.0000*%
%ADD681R,0.0155X0.0000*%
%ADD682R,0.0156X0.0000*%
%ADD683R,0.0155X0.0001*%
%ADD684R,0.0156X0.0001*%
%ADD685R,0.0154X0.0000*%
%ADD686R,0.0154X0.0001*%
%ADD687R,0.0154X0.0001*%
%ADD688R,0.0154X0.0000*%
%ADD689R,0.0153X0.0000*%
%ADD690R,0.0153X0.0001*%
%ADD691R,0.0154X0.0000*%
%ADD692R,0.0152X0.0001*%
%ADD693R,0.0154X0.0001*%
%ADD694R,0.0152X0.0000*%
%ADD695R,0.0152X0.0001*%
%ADD696R,0.0152X0.0000*%
%ADD697R,0.0151X0.0000*%
%ADD698R,0.0153X0.0000*%
%ADD699R,0.0151X0.0001*%
%ADD700R,0.0153X0.0001*%
%ADD701R,0.0151X0.0001*%
%ADD702R,0.0151X0.0000*%
%ADD703R,0.0150X0.0001*%
%ADD704R,0.0150X0.0000*%
%ADD705R,0.0150X0.0000*%
%ADD706R,0.0150X0.0001*%
%ADD707R,0.0150X0.0001*%
%ADD708R,0.0152X0.0001*%
%ADD709R,0.0150X0.0000*%
%ADD710R,0.0152X0.0000*%
%ADD711R,0.0149X0.0000*%
%ADD712R,0.0149X0.0001*%
%ADD713R,0.0149X0.0000*%
%ADD714R,0.0149X0.0001*%
%ADD715R,0.0151X0.0001*%
%ADD716R,0.0151X0.0000*%
%ADD717R,0.0148X0.0001*%
%ADD718R,0.0148X0.0000*%
%ADD719R,0.0260X0.0000*%
%ADD720R,0.0259X0.0000*%
%ADD721R,0.0260X0.0001*%
%ADD722R,0.0259X0.0001*%
%ADD723R,0.0868X0.0000*%
%ADD724R,0.0868X0.0001*%
%ADD725R,0.0321X0.0000*%
%ADD726R,0.0305X0.0000*%
%ADD727R,0.0321X0.0001*%
%ADD728R,0.0305X0.0001*%
%ADD729R,0.0867X0.0000*%
%ADD730R,0.0867X0.0001*%
%ADD731R,0.0867X0.0000*%
%ADD732R,0.0867X0.0001*%
%ADD733R,0.0866X0.0000*%
%ADD734R,0.0866X0.0000*%
%ADD735R,0.0866X0.0001*%
%ADD736R,0.0866X0.0000*%
%ADD737R,0.0866X0.0001*%
%ADD738R,0.0865X0.0000*%
%ADD739R,0.0865X0.0001*%
%ADD740R,0.0864X0.0001*%
%ADD741R,0.0864X0.0000*%
%ADD742R,0.0864X0.0001*%
%ADD743R,0.0864X0.0000*%
%ADD744R,0.0864X0.0001*%
%ADD745R,0.0864X0.0000*%
%ADD746R,0.0863X0.0001*%
%ADD747R,0.0863X0.0000*%
%ADD748R,0.0862X0.0001*%
%ADD749R,0.0862X0.0000*%
%ADD750R,0.0862X0.0001*%
%ADD751R,0.0862X0.0000*%
%ADD752R,0.0861X0.0001*%
%ADD753R,0.0861X0.0000*%
%ADD754R,0.0861X0.0001*%
%ADD755R,0.0860X0.0001*%
%ADD756R,0.0860X0.0000*%
%ADD757R,0.0859X0.0000*%
%ADD758R,0.0859X0.0001*%
%ADD759R,0.0858X0.0000*%
%ADD760R,0.0858X0.0001*%
%ADD761R,0.0857X0.0001*%
%ADD762R,0.0857X0.0000*%
%ADD763R,0.0856X0.0000*%
%ADD764R,0.0856X0.0001*%
%ADD765R,0.0855X0.0000*%
%ADD766R,0.0855X0.0001*%
%ADD767R,0.0855X0.0000*%
%ADD768R,0.0855X0.0001*%
%ADD769R,0.0854X0.0000*%
%ADD770R,0.0854X0.0001*%
%ADD771R,0.0853X0.0000*%
%ADD772R,0.0853X0.0001*%
%ADD773R,0.0853X0.0000*%
%ADD774R,0.0853X0.0000*%
%ADD775R,0.0852X0.0001*%
%ADD776R,0.0852X0.0000*%
%ADD777R,0.0852X0.0001*%
%ADD778R,0.0851X0.0000*%
%ADD779R,0.0850X0.0001*%
%ADD780R,0.0850X0.0000*%
%ADD781R,0.0850X0.0001*%
%ADD782R,0.0849X0.0000*%
%ADD783R,0.0848X0.0001*%
%ADD784R,0.0848X0.0000*%
%ADD785R,0.0848X0.0001*%
%ADD786R,0.0848X0.0000*%
%ADD787R,0.0847X0.0000*%
%ADD788R,0.0847X0.0001*%
%ADD789R,0.0846X0.0000*%
%ADD790R,0.0846X0.0001*%
%ADD791R,0.0845X0.0000*%
%ADD792R,0.0845X0.0000*%
%ADD793R,0.0845X0.0001*%
%ADD794R,0.0843X0.0000*%
%ADD795R,0.0843X0.0001*%
%ADD796R,0.0841X0.0000*%
%ADD797R,0.0840X0.0000*%
%ADD798R,0.0839X0.0001*%
%ADD799R,0.0838X0.0000*%
%ADD800R,0.0837X0.0001*%
%ADD801R,0.0836X0.0000*%
%ADD802R,0.0835X0.0000*%
%ADD803R,0.0834X0.0001*%
%ADD804R,0.0833X0.0000*%
%ADD805R,0.0832X0.0001*%
%ADD806R,0.0831X0.0000*%
%ADD807R,0.0830X0.0000*%
%ADD808R,0.0829X0.0001*%
%ADD809R,0.0828X0.0000*%
%ADD810R,0.0827X0.0001*%
%ADD811R,0.0826X0.0000*%
%ADD812R,0.0825X0.0000*%
%ADD813R,0.0824X0.0001*%
%ADD814R,0.0823X0.0000*%
%ADD815R,0.0822X0.0001*%
%ADD816R,0.0821X0.0000*%
%ADD817R,0.0820X0.0000*%
%ADD818R,0.0819X0.0001*%
%ADD819R,0.0818X0.0000*%
%ADD820R,0.0817X0.0001*%
%ADD821R,0.0816X0.0000*%
%ADD822R,0.0815X0.0000*%
%ADD823R,0.0814X0.0001*%
%ADD824R,0.0813X0.0000*%
%ADD825R,0.0812X0.0001*%
%ADD826R,0.0811X0.0000*%
%ADD827R,0.0810X0.0000*%
%ADD828R,0.0808X0.0001*%
%ADD829R,0.0808X0.0000*%
%ADD830R,0.0807X0.0001*%
%ADD831R,0.0805X0.0000*%
%ADD832R,0.0805X0.0000*%
%ADD833R,0.0803X0.0001*%
%ADD834R,0.0803X0.0000*%
%ADD835R,0.0802X0.0001*%
%ADD836R,0.0800X0.0000*%
%ADD837R,0.0800X0.0000*%
%ADD838R,0.0798X0.0001*%
%ADD839R,0.0798X0.0000*%
%ADD840R,0.0797X0.0001*%
%ADD841R,0.0795X0.0000*%
%ADD842R,0.0795X0.0000*%
%ADD843R,0.0793X0.0001*%
%ADD844R,0.0793X0.0000*%
%ADD845R,0.0791X0.0001*%
%ADD846R,0.0790X0.0000*%
%ADD847R,0.0789X0.0000*%
%ADD848R,0.0788X0.0001*%
%ADD849R,0.0787X0.0000*%
%ADD850R,0.0786X0.0001*%
%ADD851R,0.0785X0.0000*%
%ADD852R,0.0784X0.0000*%
%ADD853R,0.0783X0.0001*%
%ADD854R,0.0782X0.0000*%
%ADD855R,0.0781X0.0001*%
%ADD856R,0.0780X0.0000*%
%ADD857R,0.0779X0.0000*%
%ADD858R,0.0778X0.0001*%
%ADD859R,0.0777X0.0000*%
%ADD860R,0.0776X0.0001*%
%ADD861R,0.0775X0.0000*%
%ADD862R,0.0774X0.0000*%
%ADD863R,0.0773X0.0001*%
%ADD864R,0.0772X0.0000*%
%ADD865R,0.0771X0.0001*%
%ADD866R,0.0770X0.0000*%
%ADD867R,0.0769X0.0000*%
%ADD868R,0.0768X0.0001*%
%ADD869R,0.0767X0.0000*%
%ADD870R,0.0766X0.0001*%
%ADD871R,0.0765X0.0000*%
%ADD872R,0.0764X0.0000*%
%ADD873R,0.0763X0.0001*%
%ADD874R,0.0762X0.0000*%
%ADD875R,0.0761X0.0001*%
%ADD876R,0.0760X0.0000*%
%ADD877R,0.0758X0.0000*%
%ADD878R,0.0757X0.0001*%
%ADD879R,0.0757X0.0000*%
%ADD880R,0.0755X0.0001*%
%ADD881R,0.0755X0.0000*%
%ADD882R,0.0753X0.0000*%
%ADD883R,0.0752X0.0001*%
%ADD884R,0.0752X0.0000*%
%ADD885R,0.0750X0.0001*%
%ADD886R,0.0750X0.0000*%
%ADD887R,0.0748X0.0000*%
%ADD888R,0.0747X0.0001*%
%ADD889R,0.0747X0.0000*%
%ADD890R,0.0745X0.0001*%
%ADD891R,0.0745X0.0000*%
%ADD892R,0.0743X0.0000*%
%ADD893R,0.0742X0.0001*%
%ADD894R,0.0741X0.0000*%
%ADD895R,0.0740X0.0001*%
%ADD896R,0.0739X0.0000*%
%ADD897R,0.0738X0.0000*%
%ADD898R,0.0737X0.0001*%
%ADD899R,0.0736X0.0000*%
%ADD900R,0.0735X0.0001*%
%ADD901R,0.0734X0.0000*%
%ADD902R,0.0733X0.0000*%
%ADD903R,0.0732X0.0001*%
%ADD904R,0.0731X0.0000*%
%ADD905R,0.0730X0.0001*%
%ADD906R,0.0729X0.0000*%
%ADD907R,0.0728X0.0000*%
%ADD908R,0.0727X0.0001*%
%ADD909R,0.0726X0.0000*%
%ADD910R,0.0725X0.0001*%
%ADD911R,0.0724X0.0000*%
%ADD912R,0.0723X0.0000*%
%ADD913R,0.0722X0.0001*%
%ADD914R,0.0721X0.0000*%
%ADD915R,0.0720X0.0001*%
%ADD916R,0.0719X0.0000*%
%ADD917R,0.0718X0.0000*%
%ADD918R,0.0717X0.0001*%
%ADD919R,0.0716X0.0000*%
%ADD920R,0.0715X0.0001*%
%ADD921R,0.0714X0.0000*%
%ADD922R,0.0713X0.0000*%
%ADD923R,0.0712X0.0001*%
%ADD924R,0.0711X0.0000*%
%ADD925R,0.0710X0.0001*%
%ADD926R,0.0709X0.0000*%
%ADD927R,0.0707X0.0000*%
%ADD928R,0.0707X0.0001*%
%ADD929R,0.0705X0.0000*%
%ADD930R,0.0705X0.0001*%
%ADD931R,0.0703X0.0000*%
%ADD932R,0.0703X0.0000*%
%ADD933R,0.0702X0.0001*%
%ADD934R,0.0700X0.0000*%
%ADD935R,0.0700X0.0001*%
%ADD936R,0.0698X0.0000*%
%ADD937R,0.0698X0.0000*%
%ADD938R,0.0697X0.0001*%
%ADD939R,0.0695X0.0000*%
%ADD940R,0.0695X0.0001*%
%ADD941R,0.0693X0.0000*%
%ADD942R,0.0692X0.0000*%
%ADD943R,0.0691X0.0001*%
%ADD944R,0.0690X0.0000*%
%ADD945R,0.0689X0.0001*%
%ADD946R,0.0688X0.0000*%
%ADD947R,0.0687X0.0000*%
%ADD948R,0.0686X0.0001*%
%ADD949R,0.0685X0.0000*%
%ADD950R,0.0684X0.0001*%
%ADD951R,0.0683X0.0000*%
%ADD952R,0.0682X0.0000*%
%ADD953R,0.0681X0.0001*%
%ADD954R,0.0680X0.0000*%
%ADD955R,0.0679X0.0001*%
%ADD956R,0.0678X0.0000*%
%ADD957R,0.0677X0.0000*%
%ADD958R,0.0676X0.0001*%
%ADD959R,0.0675X0.0000*%
%ADD960R,0.0674X0.0001*%
%ADD961R,0.0673X0.0000*%
%ADD962R,0.0672X0.0000*%
%ADD963R,0.0671X0.0001*%
%ADD964R,0.0670X0.0000*%
%ADD965R,0.0669X0.0001*%
%ADD966R,0.0668X0.0000*%
%ADD967R,0.0667X0.0000*%
%ADD968R,0.0666X0.0001*%
%ADD969R,0.0665X0.0000*%
%ADD970R,0.0664X0.0001*%
%ADD971R,0.0663X0.0000*%
%ADD972R,0.0662X0.0000*%
%ADD973R,0.0661X0.0001*%
%ADD974R,0.0660X0.0000*%
%ADD975R,0.0659X0.0001*%
%ADD976R,0.0658X0.0000*%
%ADD977R,0.0657X0.0000*%
%ADD978R,0.0655X0.0001*%
%ADD979R,0.0655X0.0000*%
%ADD980R,0.0653X0.0001*%
%ADD981R,0.0653X0.0000*%
%ADD982R,0.0652X0.0000*%
%ADD983R,0.0650X0.0001*%
%ADD984R,0.0650X0.0000*%
%ADD985R,0.0648X0.0001*%
%ADD986R,0.0648X0.0000*%
%ADD987R,0.0647X0.0000*%
%ADD988R,0.0645X0.0001*%
%ADD989R,0.0645X0.0000*%
%ADD990R,0.0643X0.0001*%
%ADD991R,0.0642X0.0000*%
%ADD992R,0.0641X0.0000*%
%ADD993R,0.0640X0.0001*%
%ADD994R,0.0639X0.0000*%
%ADD995R,0.0638X0.0001*%
%ADD996R,0.0637X0.0000*%
%ADD997R,0.0636X0.0000*%
%ADD998R,0.0635X0.0001*%
%ADD999R,0.0634X0.0000*%
%ADD1000R,0.0633X0.0001*%
%ADD1001R,0.0632X0.0000*%
%ADD1002R,0.0631X0.0000*%
%ADD1003R,0.0630X0.0001*%
%ADD1004R,0.0629X0.0000*%
%ADD1005R,0.0628X0.0001*%
%ADD1006R,0.0627X0.0000*%
%ADD1007R,0.0626X0.0000*%
%ADD1008R,0.0625X0.0001*%
%ADD1009R,0.0624X0.0000*%
%ADD1010R,0.0623X0.0001*%
%ADD1011R,0.0622X0.0000*%
%ADD1012R,0.0621X0.0000*%
%ADD1013R,0.0620X0.0001*%
%ADD1014R,0.0619X0.0000*%
%ADD1015R,0.0618X0.0001*%
%ADD1016R,0.0617X0.0000*%
%ADD1017R,0.0616X0.0000*%
%ADD1018R,0.0615X0.0001*%
%ADD1019R,0.0614X0.0000*%
%ADD1020R,0.0613X0.0001*%
%ADD1021R,0.0612X0.0000*%
%ADD1022R,0.0611X0.0000*%
%ADD1023R,0.0610X0.0001*%
%ADD1024R,0.0609X0.0000*%
%ADD1025R,0.0607X0.0001*%
%ADD1026R,0.0607X0.0000*%
%ADD1027R,0.0605X0.0000*%
%ADD1028R,0.0605X0.0001*%
%ADD1029R,0.0603X0.0000*%
%ADD1030R,0.0602X0.0001*%
%ADD1031R,0.0602X0.0000*%
%ADD1032R,0.0600X0.0000*%
%ADD1033R,0.0600X0.0001*%
%ADD1034R,0.0598X0.0000*%
%ADD1035R,0.0597X0.0001*%
%ADD1036R,0.0597X0.0000*%
%ADD1037R,0.0595X0.0000*%
%ADD1038R,0.0595X0.0001*%
%ADD1039R,0.0593X0.0000*%
%ADD1040R,0.0592X0.0001*%
%ADD1041R,0.0591X0.0000*%
%ADD1042R,0.0590X0.0000*%
%ADD1043R,0.0589X0.0001*%
%ADD1044R,0.0588X0.0000*%
%ADD1045R,0.0587X0.0001*%
%ADD1046R,0.0586X0.0000*%
%ADD1047R,0.0585X0.0000*%
%ADD1048R,0.0584X0.0001*%
%ADD1049R,0.0583X0.0000*%
%ADD1050R,0.0582X0.0001*%
%ADD1051R,0.0581X0.0000*%
%ADD1052R,0.0580X0.0000*%
%ADD1053R,0.0579X0.0001*%
%ADD1054R,0.0578X0.0000*%
%ADD1055R,0.0577X0.0001*%
%ADD1056R,0.0576X0.0000*%
%ADD1057R,0.0575X0.0000*%
%ADD1058R,0.0574X0.0001*%
%ADD1059R,0.0573X0.0000*%
%ADD1060R,0.0571X0.0001*%
%ADD1061R,0.0568X0.0000*%
%ADD1062R,0.0565X0.0000*%
%ADD1063R,0.0563X0.0001*%
%ADD1064R,0.0560X0.0000*%
%ADD1065R,0.0557X0.0001*%
%ADD1066R,0.0554X0.0000*%
%ADD1067R,0.0551X0.0000*%
%ADD1068R,0.0548X0.0001*%
%ADD1069R,0.0545X0.0000*%
%ADD1070R,0.0542X0.0001*%
%ADD1071R,0.0537X0.0000*%
%ADD1072R,0.0533X0.0000*%
%ADD1073R,0.0530X0.0001*%
%ADD1074R,0.0526X0.0000*%
%ADD1075R,0.0522X0.0001*%
%ADD1076R,0.0518X0.0000*%
%ADD1077R,0.0513X0.0000*%
%ADD1078R,0.0508X0.0001*%
%ADD1079R,0.0503X0.0000*%
%ADD1080R,0.0496X0.0001*%
%ADD1081R,0.0489X0.0000*%
%ADD1082R,0.0477X0.0000*%
%ADD1083C,0.0000*%
D10*
X001194Y003710D02*
X001194Y003810D01*
X001228Y003843D01*
X001261Y003810D01*
X001261Y003710D01*
X001261Y003810D02*
X001294Y003843D01*
X001328Y003843D01*
X001328Y003710D01*
X001415Y003743D02*
X001415Y003810D01*
X001449Y003843D01*
X001515Y003843D01*
X001549Y003810D01*
X001549Y003743D01*
X001515Y003710D01*
X001449Y003710D01*
X001415Y003743D01*
X001636Y003710D02*
X001736Y003710D01*
X001770Y003743D01*
X001770Y003810D01*
X001736Y003843D01*
X001636Y003843D01*
X001847Y003743D02*
X001847Y003710D01*
X001880Y003710D01*
X001880Y003743D01*
X001847Y003743D01*
X001968Y003710D02*
X002068Y003710D01*
X002101Y003743D01*
X002101Y003810D01*
X002068Y003843D01*
X001968Y003843D01*
X002182Y003710D02*
X002249Y003710D01*
X002215Y003710D02*
X002215Y003843D01*
X002249Y003843D01*
X002215Y003910D02*
X002215Y003944D01*
X002329Y003843D02*
X002396Y003843D01*
X002363Y003877D02*
X002363Y003743D01*
X002329Y003710D01*
X002483Y003743D02*
X002483Y003810D01*
X002517Y003843D01*
X002584Y003843D01*
X002617Y003810D01*
X002617Y003743D01*
X002584Y003710D01*
X002517Y003710D01*
X002483Y003743D01*
X002704Y003743D02*
X002704Y003810D01*
X002738Y003843D01*
X002838Y003843D01*
X002838Y003910D02*
X002838Y003710D01*
X002738Y003710D01*
X002704Y003743D01*
X002925Y003743D02*
X002925Y003810D01*
X002959Y003843D01*
X003026Y003843D01*
X003059Y003810D01*
X003059Y003743D01*
X003026Y003710D01*
X002959Y003710D01*
X002925Y003743D01*
X003143Y003843D02*
X003176Y003843D01*
X003243Y003777D01*
X003243Y003843D02*
X003243Y003710D01*
X003331Y003710D02*
X003431Y003710D01*
X003464Y003743D01*
X003464Y003810D01*
X003431Y003843D01*
X003331Y003843D01*
X003552Y003810D02*
X003552Y003710D01*
X003652Y003710D01*
X003685Y003743D01*
X003652Y003777D01*
X003552Y003777D01*
X003552Y003810D02*
X003585Y003843D01*
X003652Y003843D01*
D11*
X000806Y001115D02*
X000761Y001160D01*
X000761Y001340D01*
X000806Y001385D01*
X000941Y001385D01*
X000941Y001115D01*
X000806Y001115D01*
X001055Y001115D02*
X001055Y001385D01*
X001235Y001385D02*
X001055Y001115D01*
X001235Y001115D02*
X001235Y001385D01*
X001350Y001340D02*
X001395Y001385D01*
X001485Y001385D01*
X001530Y001340D01*
X001530Y001160D01*
X001485Y001115D01*
X001395Y001115D01*
X001350Y001160D01*
X001350Y001250D01*
X001440Y001250D01*
X001761Y001115D02*
X001941Y001115D01*
X001851Y001115D02*
X001851Y001385D01*
X001941Y001295D01*
X002055Y001295D02*
X002190Y001295D01*
X002235Y001250D01*
X002190Y001205D01*
X002100Y001205D01*
X002055Y001160D01*
X002100Y001115D01*
X002235Y001115D01*
X002350Y001115D02*
X002440Y001205D01*
X002395Y001205D02*
X002530Y001205D01*
X002530Y001115D02*
X002530Y001385D01*
X002395Y001385D01*
X002350Y001340D01*
X002350Y001250D01*
X002395Y001205D01*
X002955Y001205D02*
X002955Y001385D01*
X002955Y001205D02*
X003045Y001115D01*
X003135Y001205D01*
X003135Y001385D01*
X003250Y001385D02*
X003430Y001385D01*
X003430Y001250D01*
X003340Y001295D01*
X003295Y001295D01*
X003250Y001250D01*
X003250Y001160D01*
X003295Y001115D01*
X003385Y001115D01*
X003430Y001160D01*
X003475Y002245D02*
X003294Y002245D01*
X003385Y002245D02*
X003385Y002515D01*
X003475Y002425D01*
X003589Y002380D02*
X003589Y002245D01*
X003589Y002380D02*
X003634Y002425D01*
X003724Y002425D01*
X003769Y002380D01*
X003769Y002515D02*
X003769Y002245D01*
X003884Y002245D02*
X003974Y002335D01*
X003929Y002335D02*
X004064Y002335D01*
X004064Y002245D02*
X004064Y002515D01*
X003929Y002515D01*
X003884Y002470D01*
X003884Y002380D01*
X003929Y002335D01*
X003064Y002335D02*
X002929Y002335D01*
X002884Y002380D01*
X002884Y002470D01*
X002929Y002515D01*
X003064Y002515D01*
X003064Y002245D01*
X002974Y002335D02*
X002884Y002245D01*
X002769Y002245D02*
X002634Y002245D01*
X002589Y002290D01*
X002634Y002335D01*
X002724Y002335D01*
X002769Y002380D01*
X002724Y002425D01*
X002589Y002425D01*
X002475Y002425D02*
X002385Y002515D01*
X002385Y002245D01*
X002475Y002245D02*
X002294Y002245D01*
X002334Y005095D02*
X002424Y005185D01*
X002379Y005185D02*
X002514Y005185D01*
X002514Y005095D02*
X002514Y005365D01*
X002379Y005365D01*
X002334Y005320D01*
X002334Y005230D01*
X002379Y005185D01*
X002219Y005230D02*
X002174Y005275D01*
X002084Y005275D01*
X002039Y005230D01*
X002039Y005095D01*
X001925Y005095D02*
X001744Y005275D01*
X001744Y005320D01*
X001790Y005365D01*
X001880Y005365D01*
X001925Y005320D01*
X001925Y005095D02*
X001744Y005095D01*
X001514Y005095D02*
X001514Y005365D01*
X001379Y005365D01*
X001334Y005320D01*
X001334Y005230D01*
X001379Y005185D01*
X001514Y005185D01*
X001424Y005185D02*
X001334Y005095D01*
X001219Y005095D02*
X001219Y005365D01*
X001174Y005275D02*
X001084Y005275D01*
X001039Y005230D01*
X001039Y005095D01*
X000925Y005095D02*
X000744Y005095D01*
X000835Y005095D02*
X000835Y005365D01*
X000925Y005275D01*
X001174Y005275D02*
X001219Y005230D01*
X002219Y005365D02*
X002219Y005095D01*
X002744Y005095D02*
X002925Y005095D01*
X002744Y005275D01*
X002744Y005320D01*
X002790Y005365D01*
X002880Y005365D01*
X002925Y005320D01*
X003039Y005275D02*
X003174Y005275D01*
X003219Y005230D01*
X003174Y005185D01*
X003084Y005185D01*
X003039Y005140D01*
X003084Y005095D01*
X003219Y005095D01*
X003334Y005095D02*
X003424Y005185D01*
X003379Y005185D02*
X003514Y005185D01*
X003514Y005095D02*
X003514Y005365D01*
X003379Y005365D01*
X003334Y005320D01*
X003334Y005230D01*
X003379Y005185D01*
D12*
X003261Y002155D02*
X003261Y001525D01*
X003049Y001525D02*
X003049Y002155D01*
X002261Y002155D02*
X002261Y001525D01*
X004049Y001525D02*
X004049Y002155D01*
D13*
X002639Y003965D03*
D14*
X002022Y003965D03*
D15*
X002022Y003965D03*
X002639Y003965D03*
D16*
X002639Y003966D03*
D17*
X002022Y003966D03*
D18*
X002639Y003966D03*
D19*
X002022Y003966D03*
X002022Y004216D03*
D20*
X002022Y003967D03*
X002639Y003967D03*
D21*
X002639Y003968D03*
D22*
X002022Y003968D03*
D23*
X002022Y003968D03*
X002639Y003968D03*
D24*
X002639Y003969D03*
X002022Y003969D03*
D25*
X002022Y003969D03*
X002022Y004214D03*
X002639Y003969D03*
D26*
X002639Y003969D03*
X002022Y003969D03*
D27*
X002639Y003970D03*
D28*
X002022Y003970D03*
D29*
X002639Y003970D03*
D30*
X002022Y003970D03*
D31*
X002639Y003971D03*
D32*
X002022Y003971D03*
D33*
X002022Y003971D03*
X002022Y004211D03*
X002639Y003971D03*
D34*
X002639Y003972D03*
X002022Y003972D03*
D35*
X002022Y003973D03*
X002639Y003973D03*
D36*
X002639Y003973D03*
D37*
X002022Y003973D03*
D38*
X002639Y003974D03*
D39*
X002022Y003974D03*
D40*
X002022Y003974D03*
X002639Y003974D03*
D41*
X002639Y003974D03*
D42*
X002022Y003974D03*
D43*
X002639Y003975D03*
D44*
X002022Y003975D03*
D45*
X002639Y003975D03*
D46*
X002639Y004204D03*
X002022Y003975D03*
D47*
X002639Y003976D03*
X002639Y004204D03*
D48*
X002022Y003976D03*
D49*
X002639Y003976D03*
D50*
X002022Y003976D03*
X002022Y004206D03*
D51*
X002639Y004203D03*
X002639Y003977D03*
D52*
X002022Y003977D03*
D53*
X002022Y003978D03*
X002022Y004205D03*
X002639Y003978D03*
D54*
X002639Y003978D03*
D55*
X002639Y004202D03*
X002022Y003978D03*
D56*
X002022Y003979D03*
X002639Y003979D03*
X002639Y004201D03*
D57*
X002639Y003979D03*
D58*
X002022Y003979D03*
X002022Y004204D03*
D59*
X002022Y004203D03*
X002022Y003979D03*
X002639Y003979D03*
D60*
X002639Y003980D03*
D61*
X002639Y004200D03*
X002022Y004204D03*
X002022Y003980D03*
D62*
X002639Y003980D03*
D63*
X002022Y003980D03*
X002022Y004202D03*
D64*
X002639Y004199D03*
X002639Y003981D03*
D65*
X002022Y003981D03*
X002022Y004203D03*
D66*
X002639Y004198D03*
X002639Y003983D03*
X002639Y003981D03*
D67*
X002639Y004199D03*
X002022Y004201D03*
X002022Y003981D03*
D68*
X002639Y003982D03*
X002639Y004198D03*
D69*
X002022Y004200D03*
X002022Y003982D03*
D70*
X002022Y003983D03*
X002022Y004201D03*
D71*
X002639Y004197D03*
X002639Y003983D03*
D72*
X002022Y003983D03*
D73*
X002022Y003984D03*
X002022Y003984D03*
X002022Y004199D03*
X002022Y004199D03*
X002639Y004196D03*
X002639Y004196D03*
X002639Y003984D03*
X002639Y003984D03*
D74*
X002639Y003984D03*
D75*
X002639Y004195D03*
X002022Y004199D03*
X002022Y003984D03*
D76*
X002639Y003985D03*
X002639Y004195D03*
D77*
X002022Y003985D03*
D78*
X002022Y003985D03*
X002022Y003987D03*
X002022Y004195D03*
X002022Y004197D03*
X002639Y004194D03*
X002639Y004193D03*
X002639Y003987D03*
X002639Y003985D03*
D79*
X002639Y003986D03*
X002639Y003986D03*
X002639Y004193D03*
X002639Y004194D03*
X002639Y004194D03*
X002022Y004196D03*
X002022Y004196D03*
X002022Y004198D03*
X002022Y003988D03*
X002022Y003986D03*
X002022Y003986D03*
D80*
X002639Y003988D03*
X002639Y003989D03*
X002639Y003989D03*
X002639Y003990D03*
X002639Y003991D03*
X002639Y003991D03*
X002639Y003993D03*
X002639Y003994D03*
X002639Y003994D03*
X002639Y003995D03*
X002639Y003996D03*
X002639Y003996D03*
X002639Y003998D03*
X002639Y003999D03*
X002639Y003999D03*
X002639Y004000D03*
X002639Y004001D03*
X002639Y004001D03*
X002639Y004003D03*
X002639Y004004D03*
X002639Y004004D03*
X002639Y004005D03*
X002639Y004006D03*
X002639Y004006D03*
X002639Y004008D03*
X002639Y004009D03*
X002639Y004009D03*
X002639Y004010D03*
X002639Y004011D03*
X002639Y004011D03*
X002639Y004013D03*
X002639Y004014D03*
X002639Y004014D03*
X002639Y004015D03*
X002639Y004016D03*
X002639Y004016D03*
X002639Y004018D03*
X002639Y004019D03*
X002639Y004019D03*
X002639Y004020D03*
X002639Y004021D03*
X002639Y004021D03*
X002639Y004023D03*
X002639Y004024D03*
X002639Y004024D03*
X002639Y004025D03*
X002639Y004026D03*
X002639Y004026D03*
X002639Y004028D03*
X002639Y004029D03*
X002639Y004029D03*
X002639Y004030D03*
X002639Y004031D03*
X002639Y004031D03*
X002639Y004033D03*
X002639Y004034D03*
X002639Y004034D03*
X002639Y004035D03*
X002639Y004036D03*
X002639Y004036D03*
X002639Y004038D03*
X002639Y004039D03*
X002639Y004039D03*
X002639Y004040D03*
X002639Y004041D03*
X002639Y004041D03*
X002639Y004043D03*
X002639Y004044D03*
X002639Y004044D03*
X002639Y004045D03*
X002639Y004046D03*
X002639Y004046D03*
X002639Y004048D03*
X002639Y004049D03*
X002639Y004049D03*
X002639Y004050D03*
X002639Y004051D03*
X002639Y004051D03*
X002639Y004053D03*
X002639Y004054D03*
X002639Y004054D03*
X002639Y004055D03*
X002639Y004056D03*
X002639Y004056D03*
X002639Y004058D03*
X002639Y004059D03*
X002639Y004059D03*
X002639Y004060D03*
X002639Y004061D03*
X002639Y004061D03*
X002639Y004063D03*
X002639Y004064D03*
X002639Y004064D03*
X002639Y004065D03*
X002639Y004066D03*
X002639Y004066D03*
X002639Y004068D03*
X002639Y004069D03*
X002639Y004069D03*
X002639Y004070D03*
X002639Y004071D03*
X002639Y004071D03*
X002639Y004073D03*
X002639Y004074D03*
X002639Y004074D03*
X002639Y004075D03*
X002639Y004076D03*
X002639Y004076D03*
X002639Y004078D03*
X002639Y004079D03*
X002639Y004079D03*
X002639Y004080D03*
X002639Y004081D03*
X002639Y004081D03*
X002639Y004083D03*
X002639Y004084D03*
X002639Y004084D03*
X002639Y004085D03*
X002639Y004086D03*
X002639Y004086D03*
X002639Y004088D03*
X002639Y004089D03*
X002639Y004089D03*
X002639Y004090D03*
X002639Y004091D03*
X002639Y004091D03*
X002639Y004093D03*
X002639Y004094D03*
X002639Y004094D03*
X002639Y004095D03*
X002639Y004096D03*
X002639Y004096D03*
X002639Y004098D03*
X002639Y004099D03*
X002639Y004099D03*
X002639Y004100D03*
X002639Y004101D03*
X002639Y004101D03*
X002639Y004103D03*
X002639Y004104D03*
X002639Y004104D03*
X002639Y004105D03*
X002639Y004106D03*
X002639Y004106D03*
X002639Y004108D03*
X002639Y004109D03*
X002639Y004109D03*
X002639Y004110D03*
X002639Y004111D03*
X002639Y004111D03*
X002639Y004113D03*
X002639Y004114D03*
X002639Y004114D03*
X002639Y004115D03*
X002639Y004116D03*
X002639Y004116D03*
X002639Y004118D03*
X002639Y004119D03*
X002639Y004119D03*
X002639Y004120D03*
X002639Y004121D03*
X002639Y004121D03*
X002639Y004123D03*
X002639Y004124D03*
X002639Y004124D03*
X002639Y004125D03*
X002639Y004126D03*
X002639Y004126D03*
X002639Y004128D03*
X002639Y004129D03*
X002639Y004129D03*
X002639Y004130D03*
X002639Y004131D03*
X002639Y004131D03*
X002639Y004133D03*
X002639Y004134D03*
X002639Y004134D03*
X002639Y004135D03*
X002639Y004136D03*
X002639Y004136D03*
X002639Y004138D03*
X002639Y004139D03*
X002639Y004139D03*
X002639Y004140D03*
X002639Y004141D03*
X002639Y004141D03*
X002639Y004143D03*
X002639Y004144D03*
X002639Y004144D03*
X002639Y004145D03*
X002639Y004146D03*
X002639Y004146D03*
X002639Y004148D03*
X002639Y004149D03*
X002639Y004149D03*
X002639Y004150D03*
X002639Y004151D03*
X002639Y004151D03*
X002639Y004153D03*
X002639Y004154D03*
X002639Y004154D03*
X002639Y004155D03*
X002639Y004156D03*
X002639Y004156D03*
X002639Y004158D03*
X002639Y004159D03*
X002639Y004159D03*
X002639Y004160D03*
X002639Y004161D03*
X002639Y004161D03*
X002639Y004163D03*
X002639Y004164D03*
X002639Y004164D03*
X002639Y004165D03*
X002639Y004166D03*
X002639Y004166D03*
X002639Y004168D03*
X002639Y004169D03*
X002639Y004169D03*
X002639Y004170D03*
X002639Y004171D03*
X002639Y004171D03*
X002639Y004173D03*
X002639Y004174D03*
X002639Y004174D03*
X002639Y004175D03*
X002639Y004176D03*
X002639Y004176D03*
X002639Y004178D03*
X002639Y004179D03*
X002639Y004179D03*
X002639Y004180D03*
X002639Y004181D03*
X002639Y004181D03*
X002639Y004183D03*
X002639Y004184D03*
X002639Y004184D03*
X002639Y004185D03*
X002639Y004186D03*
X002639Y004186D03*
X002639Y004188D03*
X002639Y004189D03*
X002639Y004189D03*
X002639Y004190D03*
X002639Y004191D03*
X002639Y004191D03*
D81*
X002639Y004190D03*
X002639Y004189D03*
X002639Y004188D03*
X002639Y004187D03*
X002639Y004185D03*
X002639Y004184D03*
X002639Y004183D03*
X002639Y004182D03*
X002639Y004180D03*
X002639Y004179D03*
X002639Y004178D03*
X002639Y004177D03*
X002639Y004175D03*
X002639Y004174D03*
X002639Y004173D03*
X002639Y004172D03*
X002639Y004170D03*
X002639Y004169D03*
X002639Y004168D03*
X002639Y004167D03*
X002639Y004165D03*
X002639Y004164D03*
X002639Y004163D03*
X002639Y004162D03*
X002639Y004160D03*
X002639Y004159D03*
X002639Y004158D03*
X002639Y004157D03*
X002639Y004155D03*
X002639Y004154D03*
X002639Y004153D03*
X002639Y004152D03*
X002639Y004150D03*
X002639Y004149D03*
X002639Y004148D03*
X002639Y004147D03*
X002639Y004145D03*
X002639Y004144D03*
X002639Y004143D03*
X002639Y004142D03*
X002639Y004140D03*
X002639Y004139D03*
X002639Y004138D03*
X002639Y004137D03*
X002639Y004135D03*
X002639Y004134D03*
X002639Y004133D03*
X002639Y004132D03*
X002639Y004130D03*
X002639Y004129D03*
X002639Y004128D03*
X002639Y004127D03*
X002639Y004125D03*
X002639Y004124D03*
X002639Y004123D03*
X002639Y004122D03*
X002639Y004120D03*
X002639Y004119D03*
X002639Y004118D03*
X002639Y004117D03*
X002639Y004115D03*
X002639Y004114D03*
X002639Y004113D03*
X002639Y004112D03*
X002639Y004110D03*
X002639Y004109D03*
X002639Y004108D03*
X002639Y004107D03*
X002639Y004105D03*
X002639Y004104D03*
X002639Y004103D03*
X002639Y004102D03*
X002639Y004100D03*
X002639Y004099D03*
X002639Y004098D03*
X002639Y004097D03*
X002639Y004095D03*
X002639Y004094D03*
X002639Y004093D03*
X002639Y004092D03*
X002639Y004090D03*
X002639Y004089D03*
X002639Y004088D03*
X002639Y004087D03*
X002639Y004085D03*
X002639Y004084D03*
X002639Y004083D03*
X002639Y004082D03*
X002639Y004080D03*
X002639Y004079D03*
X002639Y004078D03*
X002639Y004077D03*
X002639Y004075D03*
X002639Y004074D03*
X002639Y004073D03*
X002639Y004072D03*
X002639Y004070D03*
X002639Y004069D03*
X002639Y004068D03*
X002639Y004067D03*
X002639Y004065D03*
X002639Y004064D03*
X002639Y004063D03*
X002639Y004062D03*
X002639Y004060D03*
X002639Y004059D03*
X002639Y004058D03*
X002639Y004057D03*
X002639Y004055D03*
X002639Y004054D03*
X002639Y004053D03*
X002639Y004052D03*
X002639Y004050D03*
X002639Y004049D03*
X002639Y004048D03*
X002639Y004047D03*
X002639Y004045D03*
X002639Y004044D03*
X002639Y004043D03*
X002639Y004042D03*
X002639Y004040D03*
X002639Y004039D03*
X002639Y004038D03*
X002639Y004037D03*
X002639Y004035D03*
X002639Y004034D03*
X002639Y004033D03*
X002639Y004032D03*
X002639Y004030D03*
X002639Y004029D03*
X002639Y004028D03*
X002639Y004027D03*
X002639Y004025D03*
X002639Y004024D03*
X002639Y004023D03*
X002639Y004022D03*
X002639Y004020D03*
X002639Y004019D03*
X002639Y004018D03*
X002639Y004017D03*
X002639Y004015D03*
X002639Y004014D03*
X002639Y004013D03*
X002639Y004012D03*
X002639Y004010D03*
X002639Y004009D03*
X002639Y004008D03*
X002639Y004007D03*
X002639Y004005D03*
X002639Y004004D03*
X002639Y004003D03*
X002639Y004002D03*
X002639Y004000D03*
X002639Y003999D03*
X002639Y003998D03*
X002639Y003997D03*
X002639Y003995D03*
X002639Y003994D03*
X002639Y003993D03*
X002639Y003992D03*
X002639Y003990D03*
X002639Y003989D03*
X002639Y003988D03*
X002639Y004192D03*
D82*
X002022Y004193D03*
X002022Y004192D03*
X002022Y004190D03*
X002022Y004189D03*
X002022Y004188D03*
X002022Y004187D03*
X002022Y004185D03*
X002022Y004184D03*
X002022Y004183D03*
X002022Y004182D03*
X002022Y004180D03*
X002022Y004179D03*
X002022Y004178D03*
X002022Y004177D03*
X002022Y004175D03*
X002022Y004174D03*
X002022Y004173D03*
X002022Y004172D03*
X002022Y004170D03*
X002022Y004169D03*
X002022Y004168D03*
X002022Y004167D03*
X002022Y004165D03*
X002022Y004164D03*
X002022Y004163D03*
X002022Y004162D03*
X002022Y004160D03*
X002022Y004159D03*
X002022Y004158D03*
X002022Y004157D03*
X002022Y004155D03*
X002022Y004154D03*
X002022Y004153D03*
X002022Y004152D03*
X002022Y004150D03*
X002022Y004149D03*
X002022Y004148D03*
X002022Y004147D03*
X002022Y004145D03*
X002022Y004144D03*
X002022Y004143D03*
X002022Y004142D03*
X002022Y004140D03*
X002022Y004139D03*
X002022Y004138D03*
X002022Y004137D03*
X002022Y004135D03*
X002022Y004134D03*
X002022Y004133D03*
X002022Y004132D03*
X002022Y004130D03*
X002022Y004129D03*
X002022Y004128D03*
X002022Y004127D03*
X002022Y004125D03*
X002022Y004124D03*
X002022Y004123D03*
X002022Y004122D03*
X002022Y004120D03*
X002022Y004119D03*
X002022Y004118D03*
X002022Y004117D03*
X002022Y004115D03*
X002022Y004114D03*
X002022Y004113D03*
X002022Y004112D03*
X002022Y004110D03*
X002022Y004109D03*
X002022Y004108D03*
X002022Y004107D03*
X002022Y004105D03*
X002022Y004104D03*
X002022Y004103D03*
X002022Y004102D03*
X002022Y004100D03*
X002022Y004099D03*
X002022Y004098D03*
X002022Y004097D03*
X002022Y004095D03*
X002022Y004094D03*
X002022Y004093D03*
X002022Y004092D03*
X002022Y004090D03*
X002022Y004089D03*
X002022Y004088D03*
X002022Y004087D03*
X002022Y004085D03*
X002022Y004084D03*
X002022Y004083D03*
X002022Y004082D03*
X002022Y004080D03*
X002022Y004079D03*
X002022Y004078D03*
X002022Y004077D03*
X002022Y004075D03*
X002022Y004074D03*
X002022Y004073D03*
X002022Y004072D03*
X002022Y004070D03*
X002022Y004069D03*
X002022Y004068D03*
X002022Y004067D03*
X002022Y004065D03*
X002022Y004064D03*
X002022Y004063D03*
X002022Y004062D03*
X002022Y004060D03*
X002022Y004059D03*
X002022Y004058D03*
X002022Y004057D03*
X002022Y004055D03*
X002022Y004054D03*
X002022Y004053D03*
X002022Y004052D03*
X002022Y004050D03*
X002022Y004049D03*
X002022Y004048D03*
X002022Y004047D03*
X002022Y004045D03*
X002022Y004044D03*
X002022Y004043D03*
X002022Y004042D03*
X002022Y004040D03*
X002022Y004039D03*
X002022Y004038D03*
X002022Y004037D03*
X002022Y004035D03*
X002022Y004034D03*
X002022Y004033D03*
X002022Y004032D03*
X002022Y004030D03*
X002022Y004029D03*
X002022Y004028D03*
X002022Y004027D03*
X002022Y004025D03*
X002022Y004024D03*
X002022Y004023D03*
X002022Y004022D03*
X002022Y004020D03*
X002022Y004019D03*
X002022Y004018D03*
X002022Y004017D03*
X002022Y004015D03*
X002022Y004014D03*
X002022Y004013D03*
X002022Y004012D03*
X002022Y004010D03*
X002022Y004009D03*
X002022Y004008D03*
X002022Y004007D03*
X002022Y004005D03*
X002022Y004004D03*
X002022Y004003D03*
X002022Y004002D03*
X002022Y004000D03*
X002022Y003999D03*
X002022Y003998D03*
X002022Y003997D03*
X002022Y003995D03*
X002022Y003994D03*
X002022Y003993D03*
X002022Y003992D03*
X002022Y003990D03*
X002022Y003989D03*
X002022Y003988D03*
X002022Y004194D03*
D83*
X002022Y004194D03*
X002022Y004194D03*
X002022Y004195D03*
X002022Y004193D03*
X002022Y004191D03*
X002022Y004191D03*
X002022Y004190D03*
X002022Y004189D03*
X002022Y004189D03*
X002022Y004188D03*
X002022Y004186D03*
X002022Y004186D03*
X002022Y004185D03*
X002022Y004184D03*
X002022Y004184D03*
X002022Y004183D03*
X002022Y004181D03*
X002022Y004181D03*
X002022Y004180D03*
X002022Y004179D03*
X002022Y004179D03*
X002022Y004178D03*
X002022Y004176D03*
X002022Y004176D03*
X002022Y004175D03*
X002022Y004174D03*
X002022Y004174D03*
X002022Y004173D03*
X002022Y004171D03*
X002022Y004171D03*
X002022Y004170D03*
X002022Y004169D03*
X002022Y004169D03*
X002022Y004168D03*
X002022Y004166D03*
X002022Y004166D03*
X002022Y004165D03*
X002022Y004164D03*
X002022Y004164D03*
X002022Y004163D03*
X002022Y004161D03*
X002022Y004161D03*
X002022Y004160D03*
X002022Y004159D03*
X002022Y004159D03*
X002022Y004158D03*
X002022Y004156D03*
X002022Y004156D03*
X002022Y004155D03*
X002022Y004154D03*
X002022Y004154D03*
X002022Y004153D03*
X002022Y004151D03*
X002022Y004151D03*
X002022Y004150D03*
X002022Y004149D03*
X002022Y004149D03*
X002022Y004148D03*
X002022Y004146D03*
X002022Y004146D03*
X002022Y004145D03*
X002022Y004144D03*
X002022Y004144D03*
X002022Y004143D03*
X002022Y004141D03*
X002022Y004141D03*
X002022Y004140D03*
X002022Y004139D03*
X002022Y004139D03*
X002022Y004138D03*
X002022Y004136D03*
X002022Y004136D03*
X002022Y004135D03*
X002022Y004134D03*
X002022Y004134D03*
X002022Y004133D03*
X002022Y004131D03*
X002022Y004131D03*
X002022Y004130D03*
X002022Y004129D03*
X002022Y004129D03*
X002022Y004128D03*
X002022Y004126D03*
X002022Y004126D03*
X002022Y004125D03*
X002022Y004124D03*
X002022Y004124D03*
X002022Y004123D03*
X002022Y004121D03*
X002022Y004121D03*
X002022Y004120D03*
X002022Y004119D03*
X002022Y004119D03*
X002022Y004118D03*
X002022Y004116D03*
X002022Y004116D03*
X002022Y004115D03*
X002022Y004114D03*
X002022Y004114D03*
X002022Y004113D03*
X002022Y004111D03*
X002022Y004111D03*
X002022Y004110D03*
X002022Y004109D03*
X002022Y004109D03*
X002022Y004108D03*
X002022Y004106D03*
X002022Y004106D03*
X002022Y004105D03*
X002022Y004104D03*
X002022Y004104D03*
X002022Y004103D03*
X002022Y004101D03*
X002022Y004101D03*
X002022Y004100D03*
X002022Y004099D03*
X002022Y004099D03*
X002022Y004098D03*
X002022Y004096D03*
X002022Y004096D03*
X002022Y004095D03*
X002022Y004094D03*
X002022Y004094D03*
X002022Y004093D03*
X002022Y004091D03*
X002022Y004091D03*
X002022Y004090D03*
X002022Y004089D03*
X002022Y004089D03*
X002022Y004088D03*
X002022Y004086D03*
X002022Y004086D03*
X002022Y004085D03*
X002022Y004084D03*
X002022Y004084D03*
X002022Y004083D03*
X002022Y004081D03*
X002022Y004081D03*
X002022Y004080D03*
X002022Y004079D03*
X002022Y004079D03*
X002022Y004078D03*
X002022Y004076D03*
X002022Y004076D03*
X002022Y004075D03*
X002022Y004074D03*
X002022Y004074D03*
X002022Y004073D03*
X002022Y004071D03*
X002022Y004071D03*
X002022Y004070D03*
X002022Y004069D03*
X002022Y004069D03*
X002022Y004068D03*
X002022Y004066D03*
X002022Y004066D03*
X002022Y004065D03*
X002022Y004064D03*
X002022Y004064D03*
X002022Y004063D03*
X002022Y004061D03*
X002022Y004061D03*
X002022Y004060D03*
X002022Y004059D03*
X002022Y004059D03*
X002022Y004058D03*
X002022Y004056D03*
X002022Y004056D03*
X002022Y004055D03*
X002022Y004054D03*
X002022Y004054D03*
X002022Y004053D03*
X002022Y004051D03*
X002022Y004051D03*
X002022Y004050D03*
X002022Y004049D03*
X002022Y004049D03*
X002022Y004048D03*
X002022Y004046D03*
X002022Y004046D03*
X002022Y004045D03*
X002022Y004044D03*
X002022Y004044D03*
X002022Y004043D03*
X002022Y004041D03*
X002022Y004041D03*
X002022Y004040D03*
X002022Y004039D03*
X002022Y004039D03*
X002022Y004038D03*
X002022Y004036D03*
X002022Y004036D03*
X002022Y004035D03*
X002022Y004034D03*
X002022Y004034D03*
X002022Y004033D03*
X002022Y004031D03*
X002022Y004031D03*
X002022Y004030D03*
X002022Y004029D03*
X002022Y004029D03*
X002022Y004028D03*
X002022Y004026D03*
X002022Y004026D03*
X002022Y004025D03*
X002022Y004024D03*
X002022Y004024D03*
X002022Y004023D03*
X002022Y004021D03*
X002022Y004021D03*
X002022Y004020D03*
X002022Y004019D03*
X002022Y004019D03*
X002022Y004018D03*
X002022Y004016D03*
X002022Y004016D03*
X002022Y004015D03*
X002022Y004014D03*
X002022Y004014D03*
X002022Y004013D03*
X002022Y004011D03*
X002022Y004011D03*
X002022Y004010D03*
X002022Y004009D03*
X002022Y004009D03*
X002022Y004008D03*
X002022Y004006D03*
X002022Y004006D03*
X002022Y004005D03*
X002022Y004004D03*
X002022Y004004D03*
X002022Y004003D03*
X002022Y004001D03*
X002022Y004001D03*
X002022Y004000D03*
X002022Y003999D03*
X002022Y003999D03*
X002022Y003998D03*
X002022Y003996D03*
X002022Y003996D03*
X002022Y003995D03*
X002022Y003994D03*
X002022Y003994D03*
X002022Y003993D03*
X002022Y003991D03*
X002022Y003991D03*
X002022Y003990D03*
X002022Y003989D03*
X002022Y003989D03*
D84*
X002022Y004198D03*
D85*
X002639Y004199D03*
D86*
X002022Y004200D03*
D87*
X002639Y004200D03*
D88*
X002639Y004201D03*
D89*
X002639Y004203D03*
D90*
X002639Y004204D03*
D91*
X002022Y004204D03*
D92*
X002639Y004205D03*
D93*
X002639Y004205D03*
D94*
X002022Y004205D03*
D95*
X002639Y004206D03*
D96*
X002022Y004206D03*
D97*
X002639Y004206D03*
D98*
X002639Y004207D03*
D99*
X002022Y004207D03*
D100*
X002639Y004208D03*
D101*
X002022Y004208D03*
D102*
X002639Y004208D03*
D103*
X002022Y004208D03*
D104*
X002639Y004209D03*
D105*
X002022Y004209D03*
D106*
X002639Y004209D03*
D107*
X002022Y004209D03*
D108*
X002639Y004209D03*
D109*
X002022Y004209D03*
D110*
X002639Y004210D03*
D111*
X002022Y004210D03*
D112*
X002639Y004210D03*
D113*
X002022Y004210D03*
D114*
X002639Y004211D03*
D115*
X002022Y004211D03*
D116*
X002639Y004211D03*
D117*
X002639Y004212D03*
D118*
X002022Y004212D03*
D119*
X002639Y004213D03*
D120*
X002022Y004213D03*
D121*
X002639Y004213D03*
D122*
X002022Y004213D03*
D123*
X002639Y004214D03*
D124*
X002022Y004214D03*
D125*
X002639Y004214D03*
D126*
X002639Y004214D03*
D127*
X002022Y004214D03*
D128*
X002637Y004215D03*
D129*
X002022Y004215D03*
D130*
X002638Y004215D03*
X002638Y004217D03*
D131*
X002022Y004215D03*
D132*
X002638Y004216D03*
X002638Y004216D03*
D133*
X002022Y004216D03*
D134*
X002022Y004217D03*
D135*
X002638Y004218D03*
X002638Y004219D03*
D136*
X002022Y004218D03*
D137*
X002638Y004218D03*
D138*
X002022Y004218D03*
D139*
X002018Y004219D03*
X002018Y004219D03*
X002018Y004220D03*
D140*
X002638Y004220D03*
X002638Y004219D03*
D141*
X002638Y004219D03*
X002638Y004220D03*
D142*
X002018Y004219D03*
D143*
X002018Y004220D03*
X002018Y004222D03*
X002647Y004279D03*
D144*
X002638Y004221D03*
X002638Y004221D03*
D145*
X002647Y004279D03*
X002647Y004279D03*
X002647Y004280D03*
X002018Y004221D03*
X002018Y004221D03*
D146*
X002638Y004222D03*
D147*
X002639Y004223D03*
X002639Y004224D03*
D148*
X002018Y004224D03*
X002018Y004224D03*
X002018Y004223D03*
D149*
X002639Y004223D03*
D150*
X002018Y004223D03*
D151*
X002639Y004224D03*
X002639Y004225D03*
D152*
X002639Y004225D03*
X002639Y004224D03*
D153*
X002647Y004282D03*
X002647Y004283D03*
X002017Y004225D03*
X002017Y004224D03*
D154*
X002017Y004225D03*
X002017Y004226D03*
X002647Y004283D03*
D155*
X002639Y004226D03*
X002639Y004226D03*
D156*
X002648Y004284D03*
X002648Y004284D03*
X002648Y004285D03*
X002017Y004229D03*
X002017Y004228D03*
X002017Y004226D03*
D157*
X002639Y004227D03*
D158*
X002648Y004284D03*
X002017Y004228D03*
X002017Y004227D03*
D159*
X002639Y004228D03*
X002639Y004229D03*
X002639Y004229D03*
D160*
X002639Y004228D03*
D161*
X002017Y004229D03*
X002017Y004230D03*
D162*
X002640Y004230D03*
X002640Y004229D03*
D163*
X002017Y004229D03*
X002017Y004230D03*
D164*
X002640Y004230D03*
D165*
X002640Y004231D03*
X002640Y004231D03*
D166*
X002648Y004288D03*
X002648Y004289D03*
X002017Y004233D03*
X002017Y004231D03*
X002017Y004231D03*
D167*
X002640Y004232D03*
D168*
X002648Y004287D03*
X002648Y004288D03*
X002017Y004232D03*
D169*
X002640Y004233D03*
X002640Y004234D03*
X002640Y004234D03*
D170*
X002640Y004233D03*
D171*
X002016Y004233D03*
X002016Y004234D03*
D172*
X002016Y004234D03*
X002016Y004234D03*
D173*
X002640Y004234D03*
X002640Y004235D03*
D174*
X002640Y004235D03*
D175*
X002649Y004291D03*
X002649Y004291D03*
X002016Y004236D03*
X002016Y004236D03*
X002016Y004235D03*
D176*
X002016Y004235D03*
X002649Y004290D03*
D177*
X002641Y004238D03*
X002641Y004236D03*
X002641Y004236D03*
D178*
X002641Y004237D03*
D179*
X002649Y004292D03*
X002649Y004293D03*
X002016Y004238D03*
X002016Y004237D03*
D180*
X002016Y004238D03*
X002016Y004239D03*
X002649Y004293D03*
X002649Y004294D03*
D181*
X002641Y004238D03*
D182*
X002641Y004239D03*
X002641Y004239D03*
D183*
X002016Y004240D03*
X002016Y004241D03*
X002016Y004239D03*
D184*
X002641Y004239D03*
X002641Y004240D03*
D185*
X002016Y004240D03*
X002016Y004239D03*
D186*
X002641Y004240D03*
D187*
X002641Y004241D03*
X002641Y004241D03*
X002641Y004243D03*
D188*
X002649Y004296D03*
X002649Y004296D03*
X002015Y004243D03*
X002015Y004241D03*
D189*
X002641Y004242D03*
D190*
X002649Y004295D03*
X002649Y004297D03*
X002015Y004243D03*
X002015Y004242D03*
D191*
X002641Y004243D03*
D192*
X002641Y004244D03*
X002641Y004244D03*
D193*
X002015Y004245D03*
X002015Y004244D03*
X002015Y004244D03*
D194*
X002642Y004244D03*
X002642Y004245D03*
D195*
X002015Y004244D03*
D196*
X002642Y004245D03*
X002642Y004246D03*
D197*
X002650Y004299D03*
X002015Y004247D03*
X002015Y004245D03*
D198*
X002015Y004246D03*
X002015Y004246D03*
X002650Y004299D03*
X002650Y004300D03*
D199*
X002642Y004248D03*
X002642Y004246D03*
D200*
X002642Y004247D03*
D201*
X002650Y004301D03*
X002650Y004301D03*
X002015Y004249D03*
X002015Y004249D03*
X002015Y004248D03*
D202*
X002642Y004248D03*
D203*
X002650Y004300D03*
X002650Y004302D03*
X002015Y004248D03*
D204*
X002642Y004249D03*
X002642Y004249D03*
D205*
X002643Y004249D03*
X002643Y004250D03*
D206*
X002014Y004250D03*
X002014Y004249D03*
D207*
X002643Y004250D03*
X002643Y004251D03*
D208*
X002014Y004251D03*
X002014Y004250D03*
D209*
X002643Y004251D03*
X002643Y004253D03*
D210*
X002651Y004304D03*
X002651Y004305D03*
X002014Y004254D03*
X002014Y004253D03*
X002014Y004251D03*
D211*
X002643Y004252D03*
D212*
X002651Y004304D03*
X002651Y004305D03*
X002014Y004253D03*
X002014Y004252D03*
D213*
X002643Y004253D03*
X002643Y004254D03*
D214*
X002643Y004254D03*
X002643Y004254D03*
D215*
X002014Y004255D03*
X002014Y004254D03*
D216*
X002014Y004254D03*
X002014Y004255D03*
D217*
X002643Y004256D03*
X002643Y004255D03*
D218*
X002643Y004255D03*
D219*
X002651Y004308D03*
X002651Y004309D03*
X002014Y004258D03*
X002014Y004256D03*
X002014Y004256D03*
D220*
X002644Y004256D03*
X002644Y004258D03*
D221*
X002644Y004257D03*
D222*
X002651Y004308D03*
X002014Y004257D03*
D223*
X002644Y004258D03*
X002644Y004259D03*
D224*
X002651Y004309D03*
X002651Y004310D03*
X002013Y004259D03*
X002013Y004258D03*
D225*
X002644Y004259D03*
X002644Y004259D03*
D226*
X002651Y004309D03*
X002651Y004310D03*
X002013Y004259D03*
X002013Y004259D03*
D227*
X002644Y004260D03*
X002644Y004261D03*
D228*
X002013Y004261D03*
X002013Y004261D03*
X002013Y004260D03*
D229*
X002644Y004260D03*
D230*
X002013Y004260D03*
D231*
X002644Y004261D03*
X002644Y004263D03*
D232*
X002644Y004263D03*
X002644Y004262D03*
D233*
X002652Y004313D03*
X002013Y004263D03*
X002013Y004262D03*
D234*
X002013Y004263D03*
X002013Y004264D03*
X002652Y004313D03*
X002652Y004314D03*
X002652Y004314D03*
D235*
X002645Y004264D03*
X002645Y004264D03*
D236*
X002013Y004265D03*
X002013Y004266D03*
X002013Y004264D03*
D237*
X002645Y004264D03*
D238*
X002013Y004264D03*
X002013Y004265D03*
D239*
X002645Y004266D03*
X002645Y004265D03*
D240*
X002645Y004265D03*
D241*
X002645Y004266D03*
X002645Y004268D03*
D242*
X002652Y004316D03*
X002652Y004316D03*
X002012Y004268D03*
X002012Y004266D03*
D243*
X002645Y004267D03*
X002645Y004268D03*
D244*
X002652Y004317D03*
X002012Y004268D03*
X002012Y004267D03*
D245*
X002645Y004269D03*
X002645Y004269D03*
D246*
X002653Y004318D03*
X002653Y004319D03*
X002653Y004319D03*
X002012Y004270D03*
X002012Y004269D03*
X002012Y004269D03*
D247*
X002645Y004269D03*
D248*
X002653Y004318D03*
X002012Y004269D03*
D249*
X002646Y004270D03*
X002646Y004271D03*
X002646Y004271D03*
D250*
X002646Y004270D03*
D251*
X002012Y004270D03*
X002012Y004272D03*
D252*
X002012Y004271D03*
X002012Y004271D03*
D253*
X002646Y004272D03*
X002646Y004273D03*
D254*
X002646Y004273D03*
D255*
X002653Y004321D03*
X002653Y004321D03*
X002653Y004323D03*
X002012Y004274D03*
X002012Y004274D03*
X002012Y004273D03*
D256*
X002012Y004273D03*
X002653Y004322D03*
D257*
X002646Y004274D03*
X002646Y004274D03*
D258*
X002646Y004274D03*
D259*
X002011Y004274D03*
X002011Y004275D03*
D260*
X002646Y004276D03*
X002646Y004276D03*
X002646Y004275D03*
D261*
X002011Y004276D03*
X002011Y004275D03*
D262*
X002646Y004275D03*
D263*
X002654Y004325D03*
X002654Y004326D03*
X002011Y004279D03*
X002011Y004278D03*
X002011Y004276D03*
D264*
X002646Y004277D03*
X002646Y004278D03*
D265*
X002654Y004324D03*
X002654Y004325D03*
X002011Y004278D03*
X002011Y004277D03*
D266*
X002646Y004278D03*
D267*
X002654Y004326D03*
X002654Y004328D03*
X002011Y004280D03*
X002011Y004279D03*
D268*
X002011Y004279D03*
X002011Y004280D03*
X002654Y004327D03*
D269*
X002647Y004280D03*
D270*
X002647Y004281D03*
X002647Y004281D03*
D271*
X002011Y004281D03*
X002011Y004281D03*
X002011Y004283D03*
D272*
X002011Y004282D03*
D273*
X002010Y004283D03*
X002010Y004284D03*
X002654Y004329D03*
X002654Y004330D03*
D274*
X002654Y004330D03*
X002654Y004331D03*
X002010Y004284D03*
X002010Y004284D03*
D275*
X002010Y004285D03*
X002010Y004286D03*
X002010Y004286D03*
D276*
X002648Y004285D03*
D277*
X002010Y004285D03*
D278*
X002648Y004286D03*
X002648Y004286D03*
D279*
X002655Y004333D03*
X002655Y004334D03*
X002010Y004288D03*
X002010Y004287D03*
D280*
X002010Y004288D03*
X002010Y004289D03*
X002655Y004334D03*
X002655Y004334D03*
D281*
X002648Y004290D03*
X002648Y004289D03*
D282*
X002655Y004335D03*
X002655Y004336D03*
X002010Y004291D03*
X002010Y004290D03*
X002010Y004289D03*
D283*
X002648Y004289D03*
D284*
X002655Y004335D03*
X002010Y004290D03*
X002010Y004289D03*
D285*
X002009Y004291D03*
X002009Y004293D03*
D286*
X002009Y004293D03*
X002009Y004292D03*
D287*
X002009Y004294D03*
X002009Y004294D03*
X002009Y004295D03*
X002656Y004339D03*
X002656Y004339D03*
D288*
X002649Y004295D03*
X002649Y004294D03*
D289*
X002649Y004294D03*
D290*
X002656Y004338D03*
X002656Y004339D03*
X002009Y004294D03*
D291*
X002009Y004295D03*
X002009Y004297D03*
D292*
X002009Y004296D03*
X002009Y004296D03*
D293*
X002650Y004298D03*
X002650Y004299D03*
D294*
X002656Y004341D03*
X002656Y004343D03*
X002009Y004299D03*
X002009Y004299D03*
X002009Y004298D03*
D295*
X002650Y004298D03*
D296*
X002656Y004342D03*
X002656Y004343D03*
X002009Y004298D03*
D297*
X002008Y004299D03*
X002008Y004300D03*
X002656Y004344D03*
D298*
X002656Y004344D03*
X002656Y004344D03*
X002008Y004301D03*
X002008Y004300D03*
D299*
X002008Y004301D03*
X002008Y004303D03*
X002008Y004304D03*
D300*
X002008Y004303D03*
X002008Y004302D03*
D301*
X002650Y004303D03*
X002650Y004304D03*
D302*
X002650Y004303D03*
D303*
X002657Y004346D03*
X002657Y004348D03*
X002008Y004305D03*
X002008Y004304D03*
D304*
X002008Y004304D03*
X002008Y004305D03*
X002657Y004347D03*
X002657Y004348D03*
D305*
X002651Y004306D03*
X002651Y004306D03*
D306*
X002008Y004306D03*
X002008Y004306D03*
X002008Y004308D03*
D307*
X002651Y004307D03*
D308*
X002008Y004307D03*
D309*
X002007Y004308D03*
X002007Y004309D03*
X002657Y004350D03*
D310*
X002657Y004350D03*
X002657Y004351D03*
X002657Y004351D03*
X002007Y004309D03*
X002007Y004309D03*
D311*
X002007Y004310D03*
X002007Y004311D03*
X002007Y004311D03*
X002658Y004353D03*
D312*
X002658Y004353D03*
X002658Y004352D03*
X002007Y004310D03*
D313*
X002651Y004311D03*
X002651Y004311D03*
D314*
X002651Y004312D03*
D315*
X002007Y004313D03*
X002007Y004312D03*
D316*
X002007Y004313D03*
X002007Y004314D03*
D317*
X002007Y004314D03*
X002007Y004315D03*
X002007Y004316D03*
X002658Y004355D03*
X002658Y004356D03*
X002658Y004356D03*
D318*
X002652Y004315D03*
X002652Y004314D03*
D319*
X002658Y004355D03*
X002007Y004315D03*
X002007Y004314D03*
D320*
X002652Y004315D03*
D321*
X002006Y004316D03*
X002006Y004318D03*
D322*
X002006Y004318D03*
X002006Y004317D03*
D323*
X002006Y004319D03*
X002006Y004319D03*
X002006Y004320D03*
X002659Y004359D03*
X002659Y004359D03*
X002659Y004360D03*
D324*
X002653Y004320D03*
X002653Y004319D03*
D325*
X002659Y004359D03*
X002006Y004319D03*
D326*
X002653Y004320D03*
D327*
X002659Y004360D03*
X002006Y004322D03*
X002006Y004320D03*
D328*
X002006Y004321D03*
X002006Y004321D03*
X002659Y004361D03*
X002659Y004361D03*
D329*
X002006Y004324D03*
X002006Y004324D03*
X002006Y004323D03*
D330*
X002653Y004323D03*
D331*
X002006Y004323D03*
D332*
X002653Y004324D03*
X002653Y004324D03*
D333*
X002659Y004364D03*
X002005Y004325D03*
X002005Y004324D03*
D334*
X002005Y004325D03*
X002005Y004326D03*
X002659Y004364D03*
X002659Y004364D03*
X002659Y004365D03*
D335*
X002005Y004329D03*
X002005Y004328D03*
X002005Y004326D03*
D336*
X002005Y004327D03*
X002005Y004328D03*
D337*
X002654Y004328D03*
D338*
X002654Y004329D03*
X002654Y004329D03*
D339*
X002660Y004368D03*
X002660Y004369D03*
X002005Y004330D03*
X002005Y004329D03*
D340*
X002005Y004329D03*
X002005Y004330D03*
X002660Y004367D03*
X002660Y004368D03*
D341*
X002660Y004369D03*
X002660Y004370D03*
X002005Y004333D03*
X002005Y004331D03*
X002005Y004331D03*
D342*
X002655Y004331D03*
X002655Y004333D03*
D343*
X002655Y004332D03*
D344*
X002660Y004369D03*
X002005Y004332D03*
D345*
X002004Y004333D03*
X002004Y004334D03*
D346*
X002004Y004334D03*
X002004Y004334D03*
D347*
X002004Y004335D03*
X002004Y004336D03*
X002004Y004336D03*
X002661Y004373D03*
X002661Y004374D03*
D348*
X002661Y004373D03*
X002661Y004372D03*
X002004Y004335D03*
D349*
X002655Y004336D03*
X002655Y004338D03*
D350*
X002655Y004337D03*
D351*
X002004Y004338D03*
X002004Y004337D03*
D352*
X002004Y004338D03*
X002004Y004339D03*
D353*
X002004Y004339D03*
X002004Y004340D03*
X002004Y004341D03*
X002661Y004376D03*
X002661Y004376D03*
D354*
X002661Y004375D03*
X002661Y004377D03*
X002004Y004340D03*
X002004Y004339D03*
D355*
X002656Y004340D03*
X002656Y004341D03*
D356*
X002656Y004340D03*
D357*
X002661Y004378D03*
X002661Y004379D03*
X002003Y004343D03*
X002003Y004341D03*
D358*
X002003Y004342D03*
X002003Y004343D03*
X002661Y004378D03*
D359*
X002003Y004345D03*
X002003Y004344D03*
X002003Y004344D03*
D360*
X002003Y004344D03*
D361*
X002656Y004345D03*
X002656Y004346D03*
D362*
X002656Y004345D03*
D363*
X002662Y004380D03*
X002662Y004382D03*
X002003Y004347D03*
X002003Y004345D03*
D364*
X002003Y004346D03*
X002003Y004346D03*
X002662Y004381D03*
X002662Y004381D03*
D365*
X002003Y004349D03*
X002003Y004349D03*
X002003Y004348D03*
D366*
X002003Y004348D03*
D367*
X002657Y004349D03*
X002657Y004349D03*
D368*
X002657Y004349D03*
D369*
X002662Y004384D03*
X002662Y004385D03*
X002002Y004350D03*
X002002Y004349D03*
D370*
X002002Y004350D03*
X002002Y004351D03*
X002662Y004384D03*
X002662Y004385D03*
D371*
X002663Y004386D03*
X002663Y004386D03*
X002002Y004354D03*
X002002Y004353D03*
X002002Y004351D03*
D372*
X002002Y004352D03*
X002002Y004353D03*
X002663Y004387D03*
D373*
X002658Y004354D03*
X002658Y004354D03*
D374*
X002002Y004355D03*
X002002Y004354D03*
D375*
X002658Y004354D03*
D376*
X002002Y004354D03*
X002002Y004355D03*
D377*
X002002Y004356D03*
X002002Y004356D03*
X002002Y004358D03*
X002663Y004389D03*
X002663Y004390D03*
D378*
X002658Y004358D03*
X002658Y004357D03*
D379*
X002663Y004389D03*
X002663Y004390D03*
X002002Y004357D03*
D380*
X002658Y004358D03*
D381*
X002001Y004358D03*
X002001Y004359D03*
D382*
X002001Y004359D03*
X002001Y004359D03*
D383*
X002001Y004360D03*
X002001Y004361D03*
X002001Y004361D03*
X002664Y004393D03*
X002664Y004394D03*
X002664Y004394D03*
D384*
X002664Y004393D03*
X002001Y004360D03*
D385*
X002659Y004362D03*
X002659Y004363D03*
D386*
X002664Y004394D03*
X002664Y004395D03*
X002001Y004363D03*
X002001Y004362D03*
D387*
X002659Y004363D03*
D388*
X002664Y004395D03*
X002001Y004364D03*
X002001Y004363D03*
D389*
X002001Y004364D03*
X002001Y004365D03*
X002001Y004366D03*
D390*
X002001Y004365D03*
X002001Y004364D03*
D391*
X002660Y004365D03*
D392*
X002660Y004366D03*
X002660Y004366D03*
D393*
X002664Y004398D03*
X002664Y004399D03*
X002664Y004399D03*
X002000Y004368D03*
X002000Y004366D03*
D394*
X002000Y004367D03*
X002000Y004368D03*
X002664Y004398D03*
D395*
X002000Y004370D03*
X002000Y004369D03*
X002000Y004369D03*
D396*
X002000Y004369D03*
D397*
X002660Y004370D03*
D398*
X002665Y004402D03*
X002000Y004372D03*
X002000Y004370D03*
D399*
X002660Y004371D03*
X002660Y004371D03*
D400*
X002665Y004401D03*
X002665Y004401D03*
X002665Y004403D03*
X002000Y004371D03*
X002000Y004371D03*
D401*
X002000Y004373D03*
X002000Y004374D03*
X002000Y004374D03*
X002665Y004404D03*
X002665Y004404D03*
D402*
X002665Y004403D03*
X002000Y004373D03*
D403*
X002661Y004374D03*
X002661Y004375D03*
D404*
X002661Y004374D03*
D405*
X001999Y004374D03*
X001999Y004375D03*
D406*
X001999Y004375D03*
X001999Y004376D03*
D407*
X001999Y004376D03*
X001999Y004378D03*
X001999Y004379D03*
X002666Y004406D03*
X002666Y004406D03*
X002666Y004408D03*
D408*
X002666Y004407D03*
X001999Y004378D03*
X001999Y004377D03*
D409*
X002661Y004379D03*
X002661Y004380D03*
D410*
X001999Y004380D03*
X001999Y004379D03*
D411*
X002661Y004379D03*
D412*
X001999Y004379D03*
X001999Y004380D03*
D413*
X001999Y004381D03*
X001999Y004381D03*
X001999Y004383D03*
X002666Y004410D03*
X002666Y004411D03*
D414*
X002666Y004410D03*
X002666Y004409D03*
X001999Y004382D03*
D415*
X002662Y004383D03*
X002662Y004384D03*
D416*
X002662Y004383D03*
D417*
X002666Y004412D03*
X001998Y004384D03*
X001998Y004383D03*
D418*
X001998Y004384D03*
X001998Y004384D03*
X002666Y004411D03*
X002666Y004413D03*
D419*
X001998Y004386D03*
X001998Y004386D03*
X001998Y004385D03*
D420*
X001998Y004385D03*
D421*
X001998Y004387D03*
X001998Y004388D03*
X002667Y004414D03*
X002667Y004415D03*
D422*
X002663Y004389D03*
X002663Y004388D03*
D423*
X002667Y004415D03*
X002667Y004416D03*
X001998Y004389D03*
X001998Y004388D03*
D424*
X002663Y004388D03*
D425*
X001998Y004389D03*
X001998Y004390D03*
X001998Y004391D03*
D426*
X001998Y004390D03*
X001998Y004389D03*
D427*
X002663Y004391D03*
X002663Y004391D03*
D428*
X002667Y004419D03*
X002667Y004419D03*
X001997Y004393D03*
X001997Y004391D03*
D429*
X002663Y004392D03*
D430*
X002667Y004418D03*
X002667Y004419D03*
X001997Y004393D03*
X001997Y004392D03*
D431*
X001997Y004394D03*
X001997Y004394D03*
X001997Y004395D03*
X002668Y004420D03*
X002668Y004421D03*
D432*
X002668Y004420D03*
X001997Y004394D03*
D433*
X001997Y004395D03*
X001997Y004397D03*
D434*
X002664Y004396D03*
X002664Y004396D03*
D435*
X001997Y004396D03*
X001997Y004396D03*
D436*
X002664Y004397D03*
D437*
X002668Y004424D03*
X002668Y004424D03*
X001997Y004399D03*
X001997Y004399D03*
X001997Y004398D03*
D438*
X001997Y004398D03*
X002668Y004423D03*
X002668Y004424D03*
D439*
X002665Y004400D03*
X002665Y004399D03*
D440*
X001996Y004399D03*
X001996Y004400D03*
D441*
X002665Y004400D03*
D442*
X001996Y004401D03*
X001996Y004400D03*
D443*
X001996Y004401D03*
X001996Y004403D03*
X001996Y004404D03*
X002669Y004426D03*
X002669Y004428D03*
D444*
X002669Y004428D03*
X002669Y004427D03*
X001996Y004403D03*
X001996Y004402D03*
D445*
X001996Y004404D03*
X001996Y004405D03*
X002669Y004429D03*
X002669Y004429D03*
D446*
X002665Y004405D03*
X002665Y004404D03*
D447*
X002669Y004429D03*
X001996Y004405D03*
X001996Y004404D03*
D448*
X002665Y004405D03*
D449*
X001996Y004406D03*
X001996Y004406D03*
X001996Y004408D03*
D450*
X001996Y004407D03*
D451*
X002666Y004408D03*
D452*
X002669Y004432D03*
X002669Y004433D03*
X001995Y004409D03*
X001995Y004408D03*
D453*
X002666Y004409D03*
X002666Y004409D03*
D454*
X002669Y004431D03*
X002669Y004433D03*
X001995Y004409D03*
X001995Y004409D03*
D455*
X001995Y004410D03*
X001995Y004411D03*
X001995Y004411D03*
D456*
X001995Y004410D03*
D457*
X001995Y004412D03*
X001995Y004413D03*
X002670Y004435D03*
D458*
X002670Y004435D03*
X002670Y004436D03*
X002670Y004436D03*
X001995Y004414D03*
X001995Y004413D03*
D459*
X002666Y004413D03*
D460*
X002666Y004414D03*
X002666Y004414D03*
D461*
X002670Y004438D03*
X001995Y004416D03*
X001995Y004415D03*
X001995Y004414D03*
D462*
X001995Y004414D03*
X001995Y004415D03*
X002670Y004437D03*
X002670Y004438D03*
D463*
X002667Y004418D03*
X002667Y004416D03*
D464*
X001994Y004416D03*
X001994Y004418D03*
D465*
X002667Y004417D03*
D466*
X001994Y004418D03*
X001994Y004417D03*
D467*
X001994Y004419D03*
X001994Y004419D03*
X001994Y004420D03*
X002671Y004440D03*
X002671Y004441D03*
X002671Y004441D03*
D468*
X002671Y004440D03*
X001994Y004419D03*
D469*
X001994Y004420D03*
X001994Y004422D03*
D470*
X001994Y004421D03*
X001994Y004421D03*
D471*
X002668Y004421D03*
X002668Y004423D03*
D472*
X002668Y004422D03*
D473*
X002671Y004444D03*
X002671Y004444D03*
X002671Y004445D03*
X001994Y004424D03*
X001994Y004424D03*
X001994Y004423D03*
D474*
X001994Y004423D03*
X002671Y004444D03*
D475*
X002671Y004445D03*
X001993Y004425D03*
X001993Y004424D03*
D476*
X002668Y004425D03*
X002668Y004426D03*
D477*
X002671Y004446D03*
X002671Y004446D03*
X001993Y004426D03*
X001993Y004425D03*
D478*
X002668Y004425D03*
D479*
X001993Y004426D03*
X001993Y004428D03*
X001993Y004429D03*
D480*
X001993Y004428D03*
X001993Y004427D03*
D481*
X001993Y004429D03*
X001993Y004430D03*
X002672Y004449D03*
X002672Y004449D03*
X002672Y004450D03*
D482*
X002672Y004449D03*
X001993Y004430D03*
X001993Y004429D03*
D483*
X002669Y004430D03*
X002669Y004431D03*
D484*
X002669Y004430D03*
D485*
X001993Y004431D03*
X001993Y004431D03*
X001993Y004433D03*
D486*
X001993Y004432D03*
D487*
X001992Y004433D03*
X001992Y004434D03*
X002672Y004452D03*
X002672Y004453D03*
D488*
X002670Y004434D03*
X002670Y004434D03*
D489*
X002672Y004453D03*
X002672Y004454D03*
X001992Y004434D03*
X001992Y004434D03*
D490*
X002670Y004434D03*
D491*
X002673Y004454D03*
X002673Y004455D03*
X001992Y004436D03*
X001992Y004436D03*
X001992Y004435D03*
D492*
X001992Y004435D03*
X002673Y004454D03*
D493*
X001992Y004438D03*
X001992Y004437D03*
D494*
X001992Y004438D03*
X001992Y004439D03*
D495*
X002670Y004439D03*
X002670Y004439D03*
D496*
X002673Y004458D03*
X002673Y004459D03*
X001992Y004441D03*
X001992Y004440D03*
X001992Y004439D03*
D497*
X002670Y004439D03*
D498*
X002673Y004457D03*
X002673Y004458D03*
X001992Y004440D03*
X001992Y004439D03*
D499*
X001991Y004441D03*
X001991Y004443D03*
D500*
X002671Y004443D03*
X002671Y004442D03*
D501*
X001991Y004443D03*
X001991Y004442D03*
D502*
X002671Y004443D03*
D503*
X002674Y004461D03*
X002674Y004461D03*
X001991Y004445D03*
X001991Y004444D03*
X001991Y004444D03*
D504*
X001991Y004444D03*
X002674Y004460D03*
X002674Y004462D03*
D505*
X002674Y004463D03*
X001991Y004447D03*
X001991Y004445D03*
D506*
X001991Y004446D03*
X001991Y004446D03*
X002674Y004463D03*
X002674Y004464D03*
D507*
X002671Y004448D03*
X002671Y004447D03*
D508*
X002671Y004448D03*
D509*
X001991Y004449D03*
X001991Y004449D03*
X001991Y004448D03*
D510*
X001991Y004448D03*
D511*
X001990Y004449D03*
X001990Y004450D03*
X002674Y004465D03*
X002674Y004467D03*
D512*
X002674Y004466D03*
X002674Y004466D03*
X001990Y004451D03*
X001990Y004450D03*
D513*
X002672Y004450D03*
D514*
X002672Y004451D03*
X002672Y004451D03*
D515*
X001990Y004451D03*
X001990Y004453D03*
X001990Y004454D03*
D516*
X001990Y004453D03*
X001990Y004452D03*
D517*
X001990Y004454D03*
X001990Y004455D03*
X002675Y004469D03*
X002675Y004470D03*
D518*
X002675Y004470D03*
X002675Y004469D03*
X001990Y004455D03*
X001990Y004454D03*
D519*
X002673Y004455D03*
D520*
X002673Y004456D03*
X002673Y004456D03*
D521*
X002675Y004471D03*
X002675Y004471D03*
X001990Y004458D03*
X001990Y004456D03*
X001990Y004456D03*
D522*
X001990Y004457D03*
X002675Y004472D03*
D523*
X001989Y004459D03*
X001989Y004458D03*
D524*
X001989Y004459D03*
X001989Y004459D03*
D525*
X002673Y004460D03*
X002673Y004459D03*
D526*
X002673Y004459D03*
D527*
X002676Y004474D03*
X002676Y004475D03*
X001989Y004461D03*
X001989Y004461D03*
X001989Y004460D03*
D528*
X001989Y004460D03*
X002676Y004474D03*
X002676Y004475D03*
D529*
X001989Y004463D03*
X001989Y004462D03*
D530*
X001989Y004463D03*
X001989Y004464D03*
D531*
X002674Y004465D03*
X002674Y004464D03*
D532*
X002676Y004478D03*
X002676Y004479D03*
X002676Y004479D03*
X001989Y004466D03*
X001989Y004465D03*
X001989Y004464D03*
D533*
X002674Y004464D03*
D534*
X002676Y004478D03*
X001989Y004465D03*
X001989Y004464D03*
D535*
X001988Y004466D03*
X001988Y004468D03*
X002676Y004480D03*
D536*
X002676Y004480D03*
X002676Y004479D03*
X001988Y004468D03*
X001988Y004467D03*
D537*
X002675Y004468D03*
X002675Y004469D03*
D538*
X002675Y004468D03*
D539*
X001988Y004469D03*
X001988Y004469D03*
X001988Y004470D03*
D540*
X001988Y004469D03*
D541*
X001988Y004470D03*
X001988Y004472D03*
X002677Y004483D03*
D542*
X002677Y004483D03*
X002677Y004484D03*
X002677Y004484D03*
X001988Y004471D03*
X001988Y004471D03*
D543*
X002675Y004473D03*
X002675Y004474D03*
D544*
X001988Y004474D03*
X001988Y004474D03*
X001988Y004473D03*
D545*
X002675Y004473D03*
D546*
X001988Y004473D03*
D547*
X001987Y004474D03*
X001987Y004475D03*
X002677Y004487D03*
D548*
X002677Y004488D03*
X002677Y004486D03*
X002677Y004486D03*
X001987Y004476D03*
X001987Y004475D03*
D549*
X002676Y004476D03*
X002676Y004476D03*
D550*
X002678Y004489D03*
X002678Y004489D03*
X001987Y004479D03*
X001987Y004478D03*
X001987Y004476D03*
D551*
X002676Y004477D03*
D552*
X002678Y004488D03*
X001987Y004478D03*
X001987Y004477D03*
D553*
X001987Y004479D03*
X001987Y004480D03*
D554*
X001987Y004480D03*
X001987Y004479D03*
D555*
X002676Y004481D03*
X002676Y004481D03*
D556*
X002678Y004491D03*
X002678Y004491D03*
X002678Y004493D03*
X001987Y004483D03*
X001987Y004481D03*
X001987Y004481D03*
D557*
X002676Y004482D03*
D558*
X002678Y004492D03*
X001987Y004482D03*
D559*
X001986Y004483D03*
X001986Y004484D03*
D560*
X001986Y004484D03*
X001986Y004484D03*
D561*
X002677Y004484D03*
X002677Y004485D03*
D562*
X002677Y004485D03*
D563*
X002679Y004495D03*
X002679Y004496D03*
X001986Y004486D03*
X001986Y004486D03*
X001986Y004485D03*
D564*
X001986Y004485D03*
X002679Y004494D03*
X002679Y004495D03*
D565*
X002679Y004497D03*
X001986Y004488D03*
X001986Y004487D03*
D566*
X001986Y004488D03*
X001986Y004489D03*
X002679Y004496D03*
X002679Y004498D03*
D567*
X001986Y004491D03*
X001986Y004490D03*
X001986Y004489D03*
D568*
X002678Y004489D03*
X002678Y004490D03*
D569*
X001986Y004490D03*
X001986Y004489D03*
D570*
X002678Y004490D03*
D571*
X002679Y004500D03*
X002679Y004501D03*
X001985Y004493D03*
X001985Y004491D03*
D572*
X001985Y004492D03*
X001985Y004493D03*
X002679Y004499D03*
X002679Y004500D03*
D573*
X002678Y004493D03*
D574*
X002678Y004494D03*
X002678Y004494D03*
D575*
X001985Y004495D03*
X001985Y004494D03*
X001985Y004494D03*
D576*
X001985Y004494D03*
D577*
X001985Y004495D03*
X001985Y004497D03*
X002680Y004503D03*
X002680Y004504D03*
D578*
X002680Y004504D03*
X002680Y004504D03*
X001985Y004496D03*
X001985Y004496D03*
D579*
X001985Y004498D03*
X001985Y004499D03*
X001985Y004499D03*
X002680Y004505D03*
X002680Y004506D03*
D580*
X002679Y004498D03*
D581*
X002680Y004505D03*
X001985Y004498D03*
D582*
X002679Y004499D03*
X002679Y004499D03*
D583*
X001984Y004499D03*
X001984Y004500D03*
D584*
X001984Y004500D03*
X001984Y004501D03*
D585*
X002680Y004501D03*
X002680Y004503D03*
D586*
X002681Y004509D03*
X002681Y004509D03*
X001984Y004504D03*
X001984Y004503D03*
X001984Y004501D03*
D587*
X002680Y004502D03*
D588*
X002681Y004508D03*
X002681Y004509D03*
X001984Y004503D03*
X001984Y004502D03*
D589*
X001984Y004504D03*
X001984Y004505D03*
D590*
X001984Y004505D03*
X001984Y004504D03*
D591*
X001984Y004506D03*
X001984Y004506D03*
X001984Y004508D03*
X002681Y004511D03*
X002681Y004513D03*
D592*
X002680Y004508D03*
X002680Y004506D03*
D593*
X002680Y004507D03*
D594*
X002681Y004512D03*
X002681Y004513D03*
X001984Y004507D03*
D595*
X001983Y004508D03*
X001983Y004509D03*
X002681Y004514D03*
D596*
X002681Y004514D03*
X002681Y004514D03*
X001983Y004509D03*
X001983Y004509D03*
D597*
X002681Y004510D03*
X002681Y004511D03*
D598*
X001983Y004511D03*
X001983Y004511D03*
X001983Y004510D03*
D599*
X002681Y004510D03*
D600*
X001983Y004510D03*
D601*
X001983Y004512D03*
X001983Y004513D03*
X002682Y004517D03*
X002682Y004518D03*
D602*
X002682Y004518D03*
X002682Y004516D03*
X001983Y004514D03*
X001983Y004513D03*
D603*
X001983Y004514D03*
X001983Y004515D03*
X001983Y004516D03*
D604*
X001983Y004515D03*
X001983Y004514D03*
D605*
X002681Y004515D03*
X002681Y004516D03*
D606*
X002681Y004515D03*
D607*
X002682Y004520D03*
X002682Y004521D03*
X002682Y004521D03*
X001982Y004518D03*
X001982Y004516D03*
D608*
X001982Y004517D03*
X001982Y004518D03*
X002682Y004520D03*
D609*
X002682Y004519D03*
X002682Y004519D03*
D610*
X002683Y004523D03*
X001982Y004520D03*
X001982Y004519D03*
X001982Y004519D03*
D611*
X002682Y004519D03*
D612*
X002683Y004522D03*
X002683Y004523D03*
X001982Y004519D03*
D613*
X001982Y004520D03*
X001982Y004522D03*
D614*
X001982Y004521D03*
X001982Y004521D03*
D615*
X001982Y004523D03*
X001982Y004524D03*
X001982Y004524D03*
X002683Y004525D03*
X002683Y004526D03*
X002683Y004526D03*
D616*
X002683Y004525D03*
X001982Y004523D03*
D617*
X002683Y004524D03*
X002683Y004524D03*
D618*
X002683Y004524D03*
D619*
X001981Y004524D03*
X001981Y004525D03*
D620*
X001981Y004525D03*
X001981Y004526D03*
D621*
X001981Y004526D03*
X001981Y004528D03*
X001981Y004529D03*
X002684Y004530D03*
X002684Y004529D03*
X002684Y004529D03*
D622*
X002683Y004528D03*
X002683Y004527D03*
D623*
X002684Y004529D03*
X001981Y004528D03*
X001981Y004527D03*
D624*
X002683Y004528D03*
D625*
X002684Y004531D03*
X002684Y004531D03*
X001981Y004530D03*
X001981Y004529D03*
D626*
X001981Y004529D03*
X001981Y004530D03*
X002684Y004530D03*
D627*
X001981Y004531D03*
X001981Y004531D03*
X001981Y004533D03*
D628*
X002684Y004533D03*
X002684Y004532D03*
D629*
X001981Y004532D03*
D630*
X002684Y004533D03*
D631*
X002684Y004534D03*
X001980Y004534D03*
X001980Y004533D03*
D632*
X001980Y004534D03*
X001980Y004534D03*
X002684Y004535D03*
X002684Y004534D03*
X002684Y004534D03*
D633*
X001980Y004535D03*
X001980Y004536D03*
X001980Y004536D03*
D634*
X002685Y004535D03*
D635*
X001980Y004535D03*
D636*
X002685Y004536D03*
X002685Y004536D03*
D637*
X002685Y004537D03*
X002685Y004538D03*
X001980Y004538D03*
X001980Y004537D03*
D638*
X001980Y004538D03*
X001980Y004539D03*
X002685Y004539D03*
X002685Y004538D03*
D639*
X002685Y004539D03*
X002685Y004540D03*
X001980Y004541D03*
X001980Y004540D03*
X001980Y004539D03*
D640*
X001980Y004539D03*
X001980Y004540D03*
X002685Y004539D03*
D641*
X002685Y004540D03*
D642*
X002685Y004541D03*
X002685Y004541D03*
D643*
X001979Y004541D03*
X001979Y004543D03*
D644*
X001979Y004544D03*
X002686Y004543D03*
X002686Y004542D03*
D645*
X001979Y004543D03*
X001979Y004542D03*
D646*
X001979Y004544D03*
X001979Y004544D03*
X001979Y004545D03*
X002686Y004544D03*
X002686Y004543D03*
D647*
X002686Y004544D03*
X002686Y004545D03*
D648*
X002686Y004544D03*
D649*
X002686Y004545D03*
X002686Y004547D03*
X001979Y004548D03*
D650*
X001979Y004547D03*
X001979Y004545D03*
D651*
X001979Y004548D03*
X001979Y004549D03*
X001979Y004549D03*
X002686Y004546D03*
X002686Y004546D03*
D652*
X001979Y004546D03*
X001979Y004546D03*
D653*
X001978Y004550D03*
X001978Y004551D03*
X002686Y004549D03*
X002686Y004548D03*
D654*
X002686Y004548D03*
X001978Y004549D03*
X001978Y004550D03*
D655*
X002686Y004550D03*
X002686Y004549D03*
D656*
X002686Y004549D03*
D657*
X002687Y004550D03*
X002687Y004552D03*
X001978Y004554D03*
X001978Y004555D03*
D658*
X001978Y004555D03*
X001978Y004554D03*
X002687Y004551D03*
X002687Y004551D03*
D659*
X001978Y004551D03*
X001978Y004553D03*
X001978Y004554D03*
D660*
X001978Y004553D03*
X001978Y004552D03*
D661*
X002687Y004553D03*
X002687Y004554D03*
D662*
X002687Y004553D03*
D663*
X002687Y004554D03*
X002687Y004555D03*
X001977Y004559D03*
X001977Y004559D03*
D664*
X001977Y004559D03*
X001977Y004558D03*
X002687Y004555D03*
X002687Y004554D03*
D665*
X002688Y004556D03*
X002688Y004556D03*
X001977Y004560D03*
X001977Y004561D03*
X001977Y004561D03*
D666*
X001978Y004558D03*
X001978Y004556D03*
X001978Y004556D03*
D667*
X001977Y004560D03*
X002688Y004557D03*
D668*
X001978Y004557D03*
D669*
X002688Y004558D03*
X002688Y004559D03*
D670*
X002688Y004558D03*
D671*
X002688Y004559D03*
X002688Y004560D03*
X001977Y004564D03*
X001977Y004565D03*
X001977Y004566D03*
D672*
X001977Y004565D03*
X001977Y004564D03*
X002688Y004560D03*
X002688Y004559D03*
D673*
X002688Y004561D03*
X002688Y004561D03*
D674*
X002688Y004562D03*
D675*
X001977Y004563D03*
X001977Y004562D03*
D676*
X001976Y004569D03*
X001976Y004569D03*
X001976Y004570D03*
X002689Y004564D03*
X002689Y004564D03*
X002689Y004563D03*
D677*
X001977Y004564D03*
X001977Y004563D03*
D678*
X001976Y004569D03*
X002689Y004563D03*
D679*
X002689Y004564D03*
X002689Y004565D03*
X001976Y004570D03*
X001976Y004572D03*
D680*
X001976Y004571D03*
X001976Y004571D03*
X002689Y004565D03*
D681*
X002689Y004566D03*
X002689Y004566D03*
D682*
X001976Y004566D03*
X001976Y004568D03*
D683*
X002689Y004567D03*
D684*
X001976Y004568D03*
X001976Y004567D03*
D685*
X001975Y004575D03*
X001975Y004576D03*
X002689Y004569D03*
X002689Y004569D03*
X002689Y004568D03*
D686*
X002689Y004568D03*
X001975Y004574D03*
X001975Y004575D03*
D687*
X002690Y004570D03*
X002690Y004569D03*
D688*
X002690Y004570D03*
D689*
X002690Y004571D03*
X002690Y004571D03*
X002690Y004573D03*
X001975Y004579D03*
X001975Y004580D03*
D690*
X001975Y004580D03*
X001975Y004579D03*
X002690Y004572D03*
D691*
X001976Y004573D03*
X001976Y004574D03*
X001976Y004574D03*
D692*
X001975Y004582D03*
X002690Y004573D03*
D693*
X001976Y004573D03*
D694*
X001975Y004581D03*
X001975Y004581D03*
X001975Y004583D03*
X002690Y004574D03*
X002690Y004574D03*
D695*
X002690Y004574D03*
X002690Y004575D03*
D696*
X002690Y004575D03*
D697*
X002691Y004576D03*
X002691Y004576D03*
X002691Y004578D03*
X001974Y004585D03*
X001974Y004586D03*
X001974Y004586D03*
D698*
X001975Y004579D03*
X001975Y004578D03*
X001975Y004576D03*
D699*
X001974Y004585D03*
X002691Y004577D03*
D700*
X001975Y004578D03*
X001975Y004577D03*
D701*
X002691Y004578D03*
D702*
X002691Y004579D03*
X002691Y004579D03*
D703*
X002691Y004579D03*
X002691Y004580D03*
X001974Y004589D03*
D704*
X001974Y004589D03*
X002691Y004581D03*
X002691Y004580D03*
D705*
X002691Y004581D03*
X002691Y004583D03*
D706*
X002691Y004582D03*
D707*
X002691Y004583D03*
X002691Y004584D03*
D708*
X001974Y004584D03*
X001974Y004583D03*
D709*
X002691Y004584D03*
X002691Y004584D03*
D710*
X001974Y004584D03*
X001974Y004584D03*
D711*
X002692Y004585D03*
X002692Y004586D03*
D712*
X002692Y004585D03*
D713*
X002692Y004586D03*
X002692Y004588D03*
D714*
X002692Y004587D03*
D715*
X001974Y004588D03*
X001974Y004587D03*
D716*
X001974Y004588D03*
X001974Y004589D03*
D717*
X002692Y004589D03*
X002692Y004588D03*
D718*
X002692Y004589D03*
X002692Y004589D03*
D719*
X002636Y004590D03*
X002636Y004591D03*
X002636Y004591D03*
X002636Y004593D03*
X002636Y004594D03*
X002636Y004594D03*
X002636Y004595D03*
X002636Y004596D03*
X002636Y004596D03*
X002636Y004598D03*
X002636Y004599D03*
X002636Y004599D03*
X002636Y004600D03*
X002636Y004601D03*
X002636Y004601D03*
X002636Y004603D03*
X002636Y004604D03*
X002636Y004604D03*
X002636Y004605D03*
X002636Y004606D03*
X002636Y004606D03*
X002636Y004608D03*
X002636Y004609D03*
X002636Y004609D03*
X002636Y004610D03*
X002636Y004611D03*
X002636Y004611D03*
X002636Y004613D03*
X002636Y004614D03*
X002636Y004614D03*
X002636Y004615D03*
D720*
X002028Y004615D03*
X002028Y004614D03*
X002028Y004614D03*
X002028Y004613D03*
X002028Y004611D03*
X002028Y004611D03*
X002028Y004610D03*
X002028Y004609D03*
X002028Y004609D03*
X002028Y004608D03*
X002028Y004606D03*
X002028Y004606D03*
X002028Y004605D03*
X002028Y004604D03*
X002028Y004604D03*
X002028Y004603D03*
X002028Y004601D03*
X002028Y004601D03*
X002028Y004600D03*
X002028Y004599D03*
X002028Y004599D03*
X002028Y004598D03*
X002028Y004596D03*
X002028Y004596D03*
X002028Y004595D03*
X002028Y004594D03*
X002028Y004594D03*
X002028Y004593D03*
X002028Y004591D03*
X002028Y004591D03*
X002028Y004590D03*
D721*
X002636Y004590D03*
X002636Y004592D03*
X002636Y004593D03*
X002636Y004594D03*
X002636Y004595D03*
X002636Y004597D03*
X002636Y004598D03*
X002636Y004599D03*
X002636Y004600D03*
X002636Y004602D03*
X002636Y004603D03*
X002636Y004604D03*
X002636Y004605D03*
X002636Y004607D03*
X002636Y004608D03*
X002636Y004609D03*
X002636Y004610D03*
X002636Y004612D03*
X002636Y004613D03*
X002636Y004614D03*
X002636Y004615D03*
D722*
X002028Y004615D03*
X002028Y004614D03*
X002028Y004613D03*
X002028Y004612D03*
X002028Y004610D03*
X002028Y004609D03*
X002028Y004608D03*
X002028Y004607D03*
X002028Y004605D03*
X002028Y004604D03*
X002028Y004603D03*
X002028Y004602D03*
X002028Y004600D03*
X002028Y004599D03*
X002028Y004598D03*
X002028Y004597D03*
X002028Y004595D03*
X002028Y004594D03*
X002028Y004593D03*
X002028Y004592D03*
X002028Y004590D03*
D723*
X002332Y004616D03*
X002332Y004616D03*
X002332Y004618D03*
X002332Y004619D03*
X002332Y004619D03*
X002332Y004620D03*
X002332Y004621D03*
X002332Y004621D03*
X002332Y004623D03*
X002332Y004624D03*
X002332Y004624D03*
X002332Y004625D03*
X002332Y004626D03*
X002332Y004626D03*
X002332Y004628D03*
X002332Y004629D03*
X002332Y004629D03*
X002332Y004630D03*
X002332Y004631D03*
X002332Y004631D03*
X002332Y004633D03*
X002332Y004634D03*
X002332Y004634D03*
X002332Y004635D03*
X002332Y004636D03*
X002332Y004765D03*
X002332Y004766D03*
X002332Y004766D03*
X002332Y004768D03*
X002332Y004769D03*
X002332Y004769D03*
X002332Y004770D03*
X002332Y004771D03*
X002332Y004771D03*
X002332Y004773D03*
X002332Y004774D03*
X002332Y004774D03*
X002332Y004775D03*
X002332Y004776D03*
X002332Y004776D03*
X002332Y004778D03*
X002332Y004779D03*
X002332Y004779D03*
X002332Y004780D03*
X002332Y004781D03*
X002332Y004781D03*
X002332Y004783D03*
X002332Y004784D03*
X002332Y004784D03*
X002332Y004785D03*
X002332Y004786D03*
X002332Y004786D03*
X002332Y004788D03*
X002332Y004789D03*
X002332Y004789D03*
X002332Y004790D03*
X002332Y004791D03*
X002332Y004791D03*
X002332Y004793D03*
X002332Y004794D03*
X002332Y004794D03*
X002332Y004795D03*
X002332Y004796D03*
X002332Y004796D03*
X002332Y004798D03*
X002332Y004799D03*
X002332Y004799D03*
X002332Y004800D03*
X002332Y004801D03*
D724*
X002332Y004800D03*
X002332Y004799D03*
X002332Y004798D03*
X002332Y004797D03*
X002332Y004795D03*
X002332Y004794D03*
X002332Y004793D03*
X002332Y004792D03*
X002332Y004790D03*
X002332Y004789D03*
X002332Y004788D03*
X002332Y004787D03*
X002332Y004785D03*
X002332Y004784D03*
X002332Y004783D03*
X002332Y004782D03*
X002332Y004780D03*
X002332Y004779D03*
X002332Y004778D03*
X002332Y004777D03*
X002332Y004775D03*
X002332Y004774D03*
X002332Y004773D03*
X002332Y004772D03*
X002332Y004770D03*
X002332Y004769D03*
X002332Y004768D03*
X002332Y004767D03*
X002332Y004765D03*
X002332Y004635D03*
X002332Y004634D03*
X002332Y004633D03*
X002332Y004632D03*
X002332Y004630D03*
X002332Y004629D03*
X002332Y004628D03*
X002332Y004627D03*
X002332Y004625D03*
X002332Y004624D03*
X002332Y004623D03*
X002332Y004622D03*
X002332Y004620D03*
X002332Y004619D03*
X002332Y004618D03*
X002332Y004617D03*
D725*
X002606Y004636D03*
X002606Y004638D03*
X002606Y004639D03*
X002606Y004639D03*
X002606Y004640D03*
X002606Y004641D03*
X002606Y004641D03*
X002606Y004643D03*
X002606Y004644D03*
X002606Y004644D03*
X002606Y004645D03*
X002606Y004646D03*
X002606Y004646D03*
X002606Y004648D03*
X002606Y004649D03*
X002606Y004649D03*
X002606Y004650D03*
X002606Y004651D03*
X002606Y004651D03*
X002606Y004653D03*
X002606Y004654D03*
X002606Y004654D03*
X002606Y004655D03*
X002606Y004656D03*
X002606Y004656D03*
X002606Y004658D03*
X002606Y004659D03*
X002606Y004659D03*
X002606Y004660D03*
X002606Y004661D03*
X002606Y004661D03*
X002606Y004663D03*
X002606Y004664D03*
X002606Y004664D03*
X002606Y004665D03*
X002606Y004666D03*
X002606Y004666D03*
X002606Y004668D03*
X002606Y004669D03*
X002606Y004669D03*
X002606Y004670D03*
X002606Y004671D03*
X002606Y004671D03*
X002606Y004673D03*
X002606Y004674D03*
X002606Y004674D03*
X002606Y004675D03*
X002606Y004676D03*
X002606Y004676D03*
X002606Y004678D03*
X002606Y004679D03*
X002606Y004679D03*
X002606Y004680D03*
X002606Y004681D03*
X002606Y004681D03*
X002606Y004683D03*
X002606Y004684D03*
X002606Y004684D03*
X002606Y004685D03*
X002606Y004686D03*
X002606Y004686D03*
X002606Y004688D03*
X002606Y004689D03*
X002606Y004689D03*
X002606Y004690D03*
X002606Y004691D03*
X002606Y004691D03*
X002606Y004693D03*
X002606Y004694D03*
X002606Y004694D03*
X002606Y004695D03*
X002606Y004696D03*
X002606Y004696D03*
X002606Y004698D03*
X002606Y004699D03*
X002606Y004699D03*
X002606Y004700D03*
X002606Y004701D03*
X002606Y004701D03*
X002606Y004703D03*
X002606Y004704D03*
X002606Y004704D03*
X002606Y004705D03*
X002606Y004706D03*
X002606Y004706D03*
X002606Y004708D03*
X002606Y004709D03*
X002606Y004709D03*
X002606Y004710D03*
X002606Y004711D03*
X002606Y004711D03*
X002606Y004713D03*
X002606Y004714D03*
X002606Y004714D03*
X002606Y004715D03*
X002606Y004716D03*
X002606Y004716D03*
X002606Y004718D03*
X002606Y004719D03*
X002606Y004719D03*
X002606Y004720D03*
X002606Y004721D03*
X002606Y004721D03*
X002606Y004723D03*
X002606Y004724D03*
X002606Y004724D03*
X002606Y004725D03*
X002606Y004726D03*
X002606Y004726D03*
X002606Y004728D03*
X002606Y004729D03*
X002606Y004729D03*
X002606Y004730D03*
X002606Y004731D03*
X002606Y004731D03*
X002606Y004733D03*
X002606Y004734D03*
X002606Y004734D03*
X002606Y004735D03*
X002606Y004736D03*
X002606Y004736D03*
X002606Y004738D03*
X002606Y004739D03*
X002606Y004739D03*
X002606Y004740D03*
X002606Y004741D03*
X002606Y004741D03*
X002606Y004743D03*
X002606Y004744D03*
X002606Y004744D03*
X002606Y004745D03*
X002606Y004746D03*
X002606Y004746D03*
X002606Y004748D03*
X002606Y004749D03*
X002606Y004749D03*
X002606Y004750D03*
X002606Y004751D03*
X002606Y004751D03*
X002606Y004753D03*
X002606Y004754D03*
X002606Y004754D03*
X002606Y004755D03*
X002606Y004756D03*
X002606Y004756D03*
X002606Y004758D03*
X002606Y004759D03*
X002606Y004759D03*
X002606Y004760D03*
X002606Y004761D03*
X002606Y004761D03*
X002606Y004763D03*
X002606Y004764D03*
X002606Y004764D03*
D726*
X002051Y004764D03*
X002051Y004764D03*
X002051Y004763D03*
X002051Y004761D03*
X002051Y004761D03*
X002051Y004760D03*
X002051Y004759D03*
X002051Y004759D03*
X002051Y004758D03*
X002051Y004756D03*
X002051Y004756D03*
X002051Y004755D03*
X002051Y004754D03*
X002051Y004754D03*
X002051Y004753D03*
X002051Y004751D03*
X002051Y004751D03*
X002051Y004750D03*
X002051Y004749D03*
X002051Y004749D03*
X002051Y004748D03*
X002051Y004746D03*
X002051Y004746D03*
X002051Y004745D03*
X002051Y004744D03*
X002051Y004744D03*
X002051Y004743D03*
X002051Y004741D03*
X002051Y004741D03*
X002051Y004740D03*
X002051Y004739D03*
X002051Y004739D03*
X002051Y004738D03*
X002051Y004736D03*
X002051Y004736D03*
X002051Y004735D03*
X002051Y004734D03*
X002051Y004734D03*
X002051Y004733D03*
X002051Y004731D03*
X002051Y004731D03*
X002051Y004730D03*
X002051Y004729D03*
X002051Y004729D03*
X002051Y004728D03*
X002051Y004726D03*
X002051Y004726D03*
X002051Y004725D03*
X002051Y004724D03*
X002051Y004724D03*
X002051Y004723D03*
X002051Y004721D03*
X002051Y004721D03*
X002051Y004720D03*
X002051Y004719D03*
X002051Y004719D03*
X002051Y004718D03*
X002051Y004716D03*
X002051Y004716D03*
X002051Y004715D03*
X002051Y004714D03*
X002051Y004714D03*
X002051Y004713D03*
X002051Y004711D03*
X002051Y004711D03*
X002051Y004710D03*
X002051Y004709D03*
X002051Y004709D03*
X002051Y004708D03*
X002051Y004706D03*
X002051Y004706D03*
X002051Y004705D03*
X002051Y004704D03*
X002051Y004704D03*
X002051Y004703D03*
X002051Y004701D03*
X002051Y004701D03*
X002051Y004700D03*
X002051Y004699D03*
X002051Y004699D03*
X002051Y004698D03*
X002051Y004696D03*
X002051Y004696D03*
X002051Y004695D03*
X002051Y004694D03*
X002051Y004694D03*
X002051Y004693D03*
X002051Y004691D03*
X002051Y004691D03*
X002051Y004690D03*
X002051Y004689D03*
X002051Y004689D03*
X002051Y004688D03*
X002051Y004686D03*
X002051Y004686D03*
X002051Y004685D03*
X002051Y004684D03*
X002051Y004684D03*
X002051Y004683D03*
X002051Y004681D03*
X002051Y004681D03*
X002051Y004680D03*
X002051Y004679D03*
X002051Y004679D03*
X002051Y004678D03*
X002051Y004676D03*
X002051Y004676D03*
X002051Y004675D03*
X002051Y004674D03*
X002051Y004674D03*
X002051Y004673D03*
X002051Y004671D03*
X002051Y004671D03*
X002051Y004670D03*
X002051Y004669D03*
X002051Y004669D03*
X002051Y004668D03*
X002051Y004666D03*
X002051Y004666D03*
X002051Y004665D03*
X002051Y004664D03*
X002051Y004664D03*
X002051Y004663D03*
X002051Y004661D03*
X002051Y004661D03*
X002051Y004660D03*
X002051Y004659D03*
X002051Y004659D03*
X002051Y004658D03*
X002051Y004656D03*
X002051Y004656D03*
X002051Y004655D03*
X002051Y004654D03*
X002051Y004654D03*
X002051Y004653D03*
X002051Y004651D03*
X002051Y004651D03*
X002051Y004650D03*
X002051Y004649D03*
X002051Y004649D03*
X002051Y004648D03*
X002051Y004646D03*
X002051Y004646D03*
X002051Y004645D03*
X002051Y004644D03*
X002051Y004644D03*
X002051Y004643D03*
X002051Y004641D03*
X002051Y004641D03*
X002051Y004640D03*
X002051Y004639D03*
X002051Y004639D03*
X002051Y004638D03*
X002051Y004636D03*
D727*
X002606Y004637D03*
X002606Y004638D03*
X002606Y004639D03*
X002606Y004640D03*
X002606Y004642D03*
X002606Y004643D03*
X002606Y004644D03*
X002606Y004645D03*
X002606Y004647D03*
X002606Y004648D03*
X002606Y004649D03*
X002606Y004650D03*
X002606Y004652D03*
X002606Y004653D03*
X002606Y004654D03*
X002606Y004655D03*
X002606Y004657D03*
X002606Y004658D03*
X002606Y004659D03*
X002606Y004660D03*
X002606Y004662D03*
X002606Y004663D03*
X002606Y004664D03*
X002606Y004665D03*
X002606Y004667D03*
X002606Y004668D03*
X002606Y004669D03*
X002606Y004670D03*
X002606Y004672D03*
X002606Y004673D03*
X002606Y004674D03*
X002606Y004675D03*
X002606Y004677D03*
X002606Y004678D03*
X002606Y004679D03*
X002606Y004680D03*
X002606Y004682D03*
X002606Y004683D03*
X002606Y004684D03*
X002606Y004685D03*
X002606Y004687D03*
X002606Y004688D03*
X002606Y004689D03*
X002606Y004690D03*
X002606Y004692D03*
X002606Y004693D03*
X002606Y004694D03*
X002606Y004695D03*
X002606Y004697D03*
X002606Y004698D03*
X002606Y004699D03*
X002606Y004700D03*
X002606Y004702D03*
X002606Y004703D03*
X002606Y004704D03*
X002606Y004705D03*
X002606Y004707D03*
X002606Y004708D03*
X002606Y004709D03*
X002606Y004710D03*
X002606Y004712D03*
X002606Y004713D03*
X002606Y004714D03*
X002606Y004715D03*
X002606Y004717D03*
X002606Y004718D03*
X002606Y004719D03*
X002606Y004720D03*
X002606Y004722D03*
X002606Y004723D03*
X002606Y004724D03*
X002606Y004725D03*
X002606Y004727D03*
X002606Y004728D03*
X002606Y004729D03*
X002606Y004730D03*
X002606Y004732D03*
X002606Y004733D03*
X002606Y004734D03*
X002606Y004735D03*
X002606Y004737D03*
X002606Y004738D03*
X002606Y004739D03*
X002606Y004740D03*
X002606Y004742D03*
X002606Y004743D03*
X002606Y004744D03*
X002606Y004745D03*
X002606Y004747D03*
X002606Y004748D03*
X002606Y004749D03*
X002606Y004750D03*
X002606Y004752D03*
X002606Y004753D03*
X002606Y004754D03*
X002606Y004755D03*
X002606Y004757D03*
X002606Y004758D03*
X002606Y004759D03*
X002606Y004760D03*
X002606Y004762D03*
X002606Y004763D03*
X002606Y004764D03*
D728*
X002051Y004764D03*
X002051Y004763D03*
X002051Y004762D03*
X002051Y004760D03*
X002051Y004759D03*
X002051Y004758D03*
X002051Y004757D03*
X002051Y004755D03*
X002051Y004754D03*
X002051Y004753D03*
X002051Y004752D03*
X002051Y004750D03*
X002051Y004749D03*
X002051Y004748D03*
X002051Y004747D03*
X002051Y004745D03*
X002051Y004744D03*
X002051Y004743D03*
X002051Y004742D03*
X002051Y004740D03*
X002051Y004739D03*
X002051Y004738D03*
X002051Y004737D03*
X002051Y004735D03*
X002051Y004734D03*
X002051Y004733D03*
X002051Y004732D03*
X002051Y004730D03*
X002051Y004729D03*
X002051Y004728D03*
X002051Y004727D03*
X002051Y004725D03*
X002051Y004724D03*
X002051Y004723D03*
X002051Y004722D03*
X002051Y004720D03*
X002051Y004719D03*
X002051Y004718D03*
X002051Y004717D03*
X002051Y004715D03*
X002051Y004714D03*
X002051Y004713D03*
X002051Y004712D03*
X002051Y004710D03*
X002051Y004709D03*
X002051Y004708D03*
X002051Y004707D03*
X002051Y004705D03*
X002051Y004704D03*
X002051Y004703D03*
X002051Y004702D03*
X002051Y004700D03*
X002051Y004699D03*
X002051Y004698D03*
X002051Y004697D03*
X002051Y004695D03*
X002051Y004694D03*
X002051Y004693D03*
X002051Y004692D03*
X002051Y004690D03*
X002051Y004689D03*
X002051Y004688D03*
X002051Y004687D03*
X002051Y004685D03*
X002051Y004684D03*
X002051Y004683D03*
X002051Y004682D03*
X002051Y004680D03*
X002051Y004679D03*
X002051Y004678D03*
X002051Y004677D03*
X002051Y004675D03*
X002051Y004674D03*
X002051Y004673D03*
X002051Y004672D03*
X002051Y004670D03*
X002051Y004669D03*
X002051Y004668D03*
X002051Y004667D03*
X002051Y004665D03*
X002051Y004664D03*
X002051Y004663D03*
X002051Y004662D03*
X002051Y004660D03*
X002051Y004659D03*
X002051Y004658D03*
X002051Y004657D03*
X002051Y004655D03*
X002051Y004654D03*
X002051Y004653D03*
X002051Y004652D03*
X002051Y004650D03*
X002051Y004649D03*
X002051Y004648D03*
X002051Y004647D03*
X002051Y004645D03*
X002051Y004644D03*
X002051Y004643D03*
X002051Y004642D03*
X002051Y004640D03*
X002051Y004639D03*
X002051Y004638D03*
X002051Y004637D03*
D729*
X002333Y004801D03*
D730*
X002333Y004802D03*
D731*
X002332Y004803D03*
X002332Y004804D03*
X002332Y004804D03*
X002332Y004805D03*
D732*
X002332Y004805D03*
X002332Y004804D03*
X002332Y004803D03*
D733*
X002332Y004806D03*
D734*
X002332Y004806D03*
X002332Y004808D03*
X002332Y004809D03*
D735*
X002332Y004808D03*
X002332Y004807D03*
D736*
X002332Y004809D03*
D737*
X002332Y004809D03*
D738*
X002332Y004810D03*
X002332Y004811D03*
X002332Y004811D03*
D739*
X002332Y004810D03*
D740*
X002332Y004812D03*
D741*
X002332Y004813D03*
D742*
X002332Y004813D03*
D743*
X002332Y004814D03*
X002332Y004814D03*
D744*
X002332Y004814D03*
D745*
X002332Y004815D03*
D746*
X002332Y004815D03*
D747*
X002332Y004816D03*
X002332Y004816D03*
D748*
X002332Y004817D03*
D749*
X002332Y004818D03*
D750*
X002332Y004818D03*
D751*
X002332Y004819D03*
X002332Y004819D03*
D752*
X002332Y004819D03*
D753*
X002332Y004820D03*
X002332Y004821D03*
X002332Y004821D03*
D754*
X002332Y004820D03*
D755*
X002332Y004822D03*
X002332Y004823D03*
D756*
X002332Y004823D03*
X002332Y004824D03*
D757*
X002332Y004824D03*
X002332Y004825D03*
D758*
X002332Y004825D03*
X002332Y004824D03*
D759*
X002332Y004826D03*
X002332Y004826D03*
X002332Y004828D03*
D760*
X002332Y004827D03*
D761*
X002332Y004828D03*
X002332Y004829D03*
D762*
X002332Y004829D03*
X002332Y004829D03*
D763*
X002332Y004830D03*
X002332Y004831D03*
D764*
X002332Y004830D03*
D765*
X002333Y004831D03*
D766*
X002332Y004832D03*
D767*
X002332Y004833D03*
D768*
X002333Y004833D03*
D769*
X002332Y004834D03*
X002332Y004834D03*
D770*
X002332Y004834D03*
D771*
X002333Y004835D03*
D772*
X002332Y004835D03*
D773*
X002332Y004836D03*
D774*
X002333Y004836D03*
D775*
X002332Y004837D03*
D776*
X002332Y004838D03*
D777*
X002333Y004838D03*
D778*
X002332Y004839D03*
X002332Y004839D03*
D779*
X002333Y004839D03*
D780*
X002332Y004840D03*
D781*
X002333Y004840D03*
D782*
X002332Y004841D03*
X002332Y004841D03*
D783*
X002333Y004842D03*
D784*
X002332Y004843D03*
D785*
X002332Y004843D03*
D786*
X002333Y004844D03*
D787*
X002332Y004844D03*
D788*
X002333Y004844D03*
D789*
X002332Y004845D03*
D790*
X002332Y004845D03*
D791*
X002333Y004846D03*
D792*
X002332Y004846D03*
D793*
X002333Y004847D03*
D794*
X002333Y004848D03*
D795*
X002333Y004848D03*
D796*
X002332Y004849D03*
D797*
X002332Y004849D03*
D798*
X002332Y004849D03*
D799*
X002332Y004850D03*
D800*
X002332Y004850D03*
D801*
X002332Y004851D03*
D802*
X002332Y004851D03*
D803*
X002332Y004852D03*
D804*
X002332Y004853D03*
D805*
X002332Y004853D03*
D806*
X002332Y004854D03*
D807*
X002332Y004854D03*
D808*
X002332Y004854D03*
D809*
X002332Y004855D03*
D810*
X002332Y004855D03*
D811*
X002332Y004856D03*
D812*
X002332Y004856D03*
D813*
X002332Y004857D03*
D814*
X002332Y004858D03*
D815*
X002332Y004858D03*
D816*
X002332Y004859D03*
D817*
X002332Y004859D03*
D818*
X002332Y004859D03*
D819*
X002332Y004860D03*
D820*
X002332Y004860D03*
D821*
X002332Y004861D03*
D822*
X002332Y004861D03*
D823*
X002332Y004862D03*
D824*
X002332Y004863D03*
D825*
X002332Y004863D03*
D826*
X002332Y004864D03*
D827*
X002332Y004864D03*
D828*
X002333Y004864D03*
D829*
X002333Y004865D03*
D830*
X002333Y004865D03*
D831*
X002333Y004866D03*
D832*
X002333Y004866D03*
D833*
X002333Y004867D03*
D834*
X002333Y004868D03*
D835*
X002333Y004868D03*
D836*
X002333Y004869D03*
D837*
X002333Y004869D03*
D838*
X002333Y004869D03*
D839*
X002333Y004870D03*
D840*
X002333Y004870D03*
D841*
X002333Y004871D03*
D842*
X002333Y004871D03*
D843*
X002333Y004872D03*
D844*
X002333Y004873D03*
D845*
X002332Y004873D03*
D846*
X002332Y004874D03*
D847*
X002332Y004874D03*
D848*
X002332Y004874D03*
D849*
X002332Y004875D03*
D850*
X002332Y004875D03*
D851*
X002332Y004876D03*
D852*
X002332Y004876D03*
D853*
X002332Y004877D03*
D854*
X002332Y004878D03*
D855*
X002332Y004878D03*
D856*
X002332Y004879D03*
D857*
X002332Y004879D03*
D858*
X002332Y004879D03*
D859*
X002332Y004880D03*
D860*
X002332Y004880D03*
D861*
X002332Y004881D03*
D862*
X002332Y004881D03*
D863*
X002332Y004882D03*
D864*
X002332Y004883D03*
D865*
X002332Y004883D03*
D866*
X002332Y004884D03*
D867*
X002332Y004884D03*
D868*
X002332Y004884D03*
D869*
X002332Y004885D03*
D870*
X002332Y004885D03*
D871*
X002332Y004886D03*
D872*
X002332Y004886D03*
D873*
X002332Y004887D03*
D874*
X002332Y004888D03*
D875*
X002332Y004888D03*
D876*
X002332Y004889D03*
D877*
X002333Y004889D03*
D878*
X002333Y004889D03*
D879*
X002333Y004890D03*
D880*
X002333Y004890D03*
D881*
X002333Y004891D03*
D882*
X002333Y004891D03*
D883*
X002333Y004892D03*
D884*
X002333Y004893D03*
D885*
X002333Y004893D03*
D886*
X002333Y004894D03*
D887*
X002333Y004894D03*
D888*
X002333Y004894D03*
D889*
X002333Y004895D03*
D890*
X002333Y004895D03*
D891*
X002333Y004896D03*
D892*
X002333Y004896D03*
D893*
X002333Y004897D03*
D894*
X002332Y004898D03*
D895*
X002332Y004898D03*
D896*
X002332Y004899D03*
D897*
X002332Y004899D03*
D898*
X002332Y004899D03*
D899*
X002332Y004900D03*
D900*
X002332Y004900D03*
D901*
X002332Y004901D03*
D902*
X002332Y004901D03*
D903*
X002332Y004902D03*
D904*
X002332Y004903D03*
D905*
X002332Y004903D03*
D906*
X002332Y004904D03*
D907*
X002332Y004904D03*
D908*
X002332Y004904D03*
D909*
X002332Y004905D03*
D910*
X002332Y004905D03*
D911*
X002332Y004906D03*
D912*
X002332Y004906D03*
D913*
X002332Y004907D03*
D914*
X002332Y004908D03*
D915*
X002332Y004908D03*
D916*
X002332Y004909D03*
D917*
X002332Y004909D03*
D918*
X002332Y004909D03*
D919*
X002332Y004910D03*
D920*
X002332Y004910D03*
D921*
X002332Y004911D03*
D922*
X002332Y004911D03*
D923*
X002332Y004912D03*
D924*
X002332Y004913D03*
D925*
X002332Y004913D03*
D926*
X002332Y004914D03*
D927*
X002333Y004914D03*
D928*
X002333Y004914D03*
D929*
X002333Y004915D03*
D930*
X002333Y004915D03*
D931*
X002333Y004916D03*
D932*
X002333Y004916D03*
D933*
X002333Y004917D03*
D934*
X002333Y004918D03*
D935*
X002333Y004918D03*
D936*
X002333Y004919D03*
D937*
X002333Y004919D03*
D938*
X002333Y004919D03*
D939*
X002333Y004920D03*
D940*
X002333Y004920D03*
D941*
X002333Y004921D03*
D942*
X002332Y004921D03*
D943*
X002332Y004922D03*
D944*
X002332Y004923D03*
D945*
X002332Y004923D03*
D946*
X002332Y004924D03*
D947*
X002332Y004924D03*
D948*
X002332Y004924D03*
D949*
X002332Y004925D03*
D950*
X002332Y004925D03*
D951*
X002332Y004926D03*
D952*
X002332Y004926D03*
D953*
X002332Y004927D03*
D954*
X002332Y004928D03*
D955*
X002332Y004928D03*
D956*
X002332Y004929D03*
D957*
X002332Y004929D03*
D958*
X002332Y004929D03*
D959*
X002332Y004930D03*
D960*
X002332Y004930D03*
D961*
X002332Y004931D03*
D962*
X002332Y004931D03*
D963*
X002332Y004932D03*
D964*
X002332Y004933D03*
D965*
X002332Y004933D03*
D966*
X002332Y004934D03*
D967*
X002332Y004934D03*
D968*
X002332Y004934D03*
D969*
X002332Y004935D03*
D970*
X002332Y004935D03*
D971*
X002332Y004936D03*
D972*
X002332Y004936D03*
D973*
X002332Y004937D03*
D974*
X002332Y004938D03*
D975*
X002332Y004938D03*
D976*
X002333Y004939D03*
D977*
X002333Y004939D03*
D978*
X002333Y004939D03*
D979*
X002333Y004940D03*
D980*
X002333Y004940D03*
D981*
X002333Y004941D03*
D982*
X002333Y004941D03*
D983*
X002333Y004942D03*
D984*
X002333Y004943D03*
D985*
X002333Y004943D03*
D986*
X002333Y004944D03*
D987*
X002333Y004944D03*
D988*
X002333Y004944D03*
D989*
X002333Y004945D03*
D990*
X002333Y004945D03*
D991*
X002332Y004946D03*
D992*
X002332Y004946D03*
D993*
X002332Y004947D03*
D994*
X002332Y004948D03*
D995*
X002332Y004948D03*
D996*
X002332Y004949D03*
D997*
X002332Y004949D03*
D998*
X002332Y004949D03*
D999*
X002332Y004950D03*
D1000*
X002332Y004950D03*
D1001*
X002332Y004951D03*
D1002*
X002332Y004951D03*
D1003*
X002332Y004952D03*
D1004*
X002332Y004953D03*
D1005*
X002332Y004953D03*
D1006*
X002332Y004954D03*
D1007*
X002332Y004954D03*
D1008*
X002332Y004954D03*
D1009*
X002332Y004955D03*
D1010*
X002332Y004955D03*
D1011*
X002332Y004956D03*
D1012*
X002332Y004956D03*
D1013*
X002332Y004957D03*
D1014*
X002332Y004958D03*
D1015*
X002332Y004958D03*
D1016*
X002332Y004959D03*
D1017*
X002332Y004959D03*
D1018*
X002332Y004959D03*
D1019*
X002332Y004960D03*
D1020*
X002332Y004960D03*
D1021*
X002332Y004961D03*
D1022*
X002332Y004961D03*
D1023*
X002332Y004962D03*
D1024*
X002332Y004963D03*
D1025*
X002333Y004963D03*
D1026*
X002333Y004964D03*
D1027*
X002333Y004964D03*
D1028*
X002333Y004964D03*
D1029*
X002333Y004965D03*
D1030*
X002333Y004965D03*
D1031*
X002333Y004966D03*
D1032*
X002333Y004966D03*
D1033*
X002333Y004967D03*
D1034*
X002333Y004968D03*
D1035*
X002333Y004968D03*
D1036*
X002333Y004969D03*
D1037*
X002333Y004969D03*
D1038*
X002333Y004969D03*
D1039*
X002333Y004970D03*
D1040*
X002332Y004970D03*
D1041*
X002332Y004971D03*
D1042*
X002332Y004971D03*
D1043*
X002332Y004972D03*
D1044*
X002332Y004973D03*
D1045*
X002332Y004973D03*
D1046*
X002332Y004974D03*
D1047*
X002332Y004974D03*
D1048*
X002332Y004974D03*
D1049*
X002332Y004975D03*
D1050*
X002332Y004975D03*
D1051*
X002332Y004976D03*
D1052*
X002332Y004976D03*
D1053*
X002332Y004977D03*
D1054*
X002332Y004978D03*
D1055*
X002332Y004978D03*
D1056*
X002332Y004979D03*
D1057*
X002332Y004979D03*
D1058*
X002332Y004979D03*
D1059*
X002332Y004980D03*
D1060*
X002332Y004980D03*
D1061*
X002332Y004981D03*
D1062*
X002333Y004981D03*
D1063*
X002332Y004982D03*
D1064*
X002332Y004983D03*
D1065*
X002332Y004983D03*
D1066*
X002332Y004984D03*
D1067*
X002332Y004984D03*
D1068*
X002333Y004984D03*
D1069*
X002333Y004985D03*
D1070*
X002333Y004985D03*
D1071*
X002333Y004986D03*
D1072*
X002333Y004986D03*
D1073*
X002333Y004987D03*
D1074*
X002333Y004988D03*
D1075*
X002333Y004988D03*
D1076*
X002333Y004989D03*
D1077*
X002333Y004989D03*
D1078*
X002333Y004989D03*
D1079*
X002333Y004990D03*
D1080*
X002333Y004990D03*
D1081*
X002333Y004991D03*
D1082*
X002333Y004991D03*
D1083*
X002836Y003938D02*
X002835Y003938D01*
X002835Y003938D01*
X002836Y003938D01*
X002836Y003938D01*
X002836Y003937D01*
X002836Y003938D02*
X002836Y003938D01*
X002836Y003938D01*
X002837Y003938D01*
X002837Y003938D01*
X002837Y003938D01*
X002837Y003938D01*
X002837Y003938D01*
X002837Y003938D01*
X002837Y003938D01*
X002837Y003938D01*
X002837Y003938D01*
X002838Y003938D01*
X002838Y003938D01*
X002838Y003938D01*
X002837Y003938D01*
X002838Y003939D02*
X002838Y003938D01*
X002838Y003938D01*
X002838Y003938D01*
X002839Y003938D02*
X002839Y003938D01*
X002839Y003938D01*
X002839Y003938D01*
X002839Y003938D01*
X002839Y003938D01*
X002839Y003938D01*
X002839Y003938D01*
X002839Y003938D01*
X002840Y003938D02*
X002840Y003938D01*
X002840Y003938D01*
X002840Y003938D01*
X002840Y003937D01*
X002840Y003937D01*
X002840Y003937D01*
X002840Y003938D02*
X002840Y003938D01*
X002840Y003938D01*
X002841Y003938D02*
X002841Y003938D01*
X002841Y003938D01*
X002841Y003938D01*
X002841Y003938D01*
X002841Y003938D01*
X002841Y003938D01*
X002841Y003938D01*
X002841Y003938D01*
X002842Y003938D01*
X002842Y003939D02*
X002842Y003939D01*
X002842Y003938D01*
X002843Y003937D02*
X002842Y003937D01*
X002843Y003938D02*
X002843Y003938D01*
X002843Y003938D01*
X002843Y003938D01*
X002843Y003939D02*
X002843Y003939D01*
X002844Y003938D02*
X002844Y003938D01*
X002844Y003938D01*
X002844Y003938D01*
X002844Y003938D01*
X002844Y003938D01*
X002844Y003938D01*
X002844Y003938D01*
X002845Y003938D02*
X002845Y003939D01*
X002846Y003938D02*
X002846Y003938D01*
X002846Y003938D01*
X002846Y003938D01*
X002846Y003938D01*
X002847Y003938D01*
X002847Y003938D01*
X002847Y003938D01*
X002848Y003938D01*
X002848Y003938D01*
X002848Y003938D01*
X002847Y003938D01*
X002847Y003938D01*
X002847Y003938D01*
X002847Y003938D01*
X002846Y003938D01*
X002845Y003938D01*
X002845Y003938D01*
X002846Y003938D01*
X002846Y003938D01*
X002847Y003938D02*
X002848Y003938D01*
X002848Y003938D01*
X002849Y003938D01*
X002849Y003938D01*
X002849Y003938D01*
X002848Y003938D01*
X002848Y003939D02*
X002848Y003939D01*
X002850Y003938D02*
X002850Y003939D01*
X002851Y003938D02*
X002851Y003938D01*
X002851Y003938D01*
X002851Y003938D01*
X002851Y003938D01*
X002851Y003938D01*
X002851Y003938D01*
X002851Y003938D01*
X002851Y003938D01*
X002852Y003938D02*
X002852Y003938D01*
X002852Y003938D01*
X002852Y003938D01*
X002852Y003938D01*
X002852Y003938D01*
X002852Y003938D01*
X002852Y003938D01*
X002853Y003938D01*
X002853Y003938D01*
X002853Y003938D01*
X002853Y003938D01*
X002853Y003938D01*
X002853Y003938D01*
X002854Y003938D01*
X002854Y003938D01*
X002854Y003938D01*
X002854Y003939D01*
X002855Y003938D01*
X002853Y003938D02*
X002853Y003938D01*
X002852Y003938D02*
X002852Y003938D01*
X002853Y003938D01*
M02*
